<?xml version="1.0" encoding="utf-8"?>
<!-- Generator: Adobe Illustrator 16.0.0, SVG Export Plug-In . SVG Version: 6.00 Build 0)  -->
<!DOCTYPE svg PUBLIC "-//W3C//DTD SVG 1.1//EN" "http://www.w3.org/Graphics/SVG/1.1/DTD/svg11.dtd">
<svg version="1.1" id="图层_1" xmlns="http://www.w3.org/2000/svg" xmlns:xlink="http://www.w3.org/1999/xlink" x="0px" y="0px"
	 width="841.89px" height="595.28px" viewBox="0 0 841.89 595.28" enable-background="new 0 0 841.89 595.28" xml:space="preserve">
<rect x="91.053" y="95.737" fill="#FFFFFF" stroke="#000000" stroke-miterlimit="10" width="530.526" height="184.21"/>
<circle fill="#4EAC8F" cx="130" cy="134.684" r="38.947"/>
<circle fill="#E28432" cx="181.579" cy="193.632" r="38.947"/>
<circle fill="#31829B" cx="198.541" cy="125.331" r="29.594"/>
<circle fill="#D94A40" cx="255.316" cy="165.277" r="38.947"/>
<circle fill="#795895" cx="317.582" cy="128.331" r="32.693"/>
<circle fill="#795895" cx="238.421" cy="236.917" r="32.693"/>
<circle fill="#31829B" cx="122.167" cy="231" r="31.134"/>
<circle fill="#31829B" cx="301.53" cy="220.535" r="32.693"/>
<circle fill="#4EAC8F" cx="369.79" cy="184.843" r="42.046"/>
<circle fill="#D94A40" cx="351.893" cy="252.71" r="26.351"/>
<circle fill="#795895" cx="172.948" cy="257.218" r="24.379"/>
<circle fill="#D94A40" cx="206.728" cy="268.608" r="10.492"/>
<circle fill="#D94A40" cx="439.368" cy="236.917" r="44.727"/>
<circle fill="#E28432" cx="450" cy="143.927" r="48.091"/>
<circle fill="#31829B" cx="520.588" cy="118.333" r="22.822"/>
<rect x="91.062" y="328.014" fill="#FFFFFF" stroke="#000000" stroke-miterlimit="10" width="530.526" height="184.211"/>
<circle fill="#31829B" cx="130.01" cy="366.961" r="38.947"/>
<circle fill="#D94A40" cx="181.589" cy="425.909" r="38.947"/>
<circle fill="#E28432" cx="198.551" cy="357.607" r="29.594"/>
<circle fill="#D94A40" cx="255.326" cy="397.555" r="38.947"/>
<circle fill="#4EAC8F" cx="317.592" cy="360.607" r="32.693"/>
<circle fill="#E28432" cx="238.43" cy="469.194" r="32.693"/>
<circle fill="#E28432" cx="122.176" cy="463.277" r="31.134"/>
<circle fill="#E28432" cx="301.539" cy="452.812" r="32.693"/>
<circle fill="#4EAC8F" cx="369.8" cy="417.12" r="42.046"/>
<circle fill="#31829B" cx="351.903" cy="484.988" r="26.351"/>
<circle fill="#4EAC8F" cx="172.957" cy="489.496" r="24.379"/>
<circle fill="#795895" cx="206.738" cy="500.886" r="10.492"/>
<circle fill="#31829B" cx="439.377" cy="469.195" r="44.727"/>
<circle fill="#4EAC8F" cx="534.195" cy="465.118" r="48.091"/>
<circle fill="#D94A40" cx="414.791" cy="372.477" r="21.878"/>
<circle fill="#E28432" cx="573.609" cy="375.208" r="48.091"/>
<circle fill="#D94A40" cx="509.484" cy="402.7" r="20.248"/>
<circle fill="#4EAC8F" cx="244.451" cy="343.434" r="16.316"/>
<circle fill="#D94A40" cx="280.083" cy="495.41" r="16.316"/>
<circle fill="#795895" cx="373.745" cy="351.602" r="23.588"/>
<circle fill="#4EAC8F" cx="448.019" cy="348.364" r="20.35"/>
<circle fill="#795895" cx="458.976" cy="397.701" r="28.307"/>
<circle fill="#D94A40" cx="498.09" cy="355.608" r="28.287"/>
<circle fill="#31829B" cx="372.857" cy="121.509" r="22.7"/>
<circle fill="#D94A40" cx="404.017" cy="105.859" r="11.264"/>
</svg>
