<?xml version="1.0" encoding="utf-8"?>
<!-- Generator: Adobe Illustrator 16.0.0, SVG Export Plug-In . SVG Version: 6.00 Build 0)  -->
<!DOCTYPE svg PUBLIC "-//W3C//DTD SVG 1.1//EN" "http://www.w3.org/Graphics/SVG/1.1/DTD/svg11.dtd">
<svg version="1.1" id="图层_1" xmlns="http://www.w3.org/2000/svg" xmlns:xlink="http://www.w3.org/1999/xlink" x="0px" y="0px"
	 width="841.89px" height="595.28px" viewBox="0 0 841.89 595.28" enable-background="new 0 0 841.89 595.28" xml:space="preserve">
<line fill="none" stroke="#B5B5B6" stroke-width="0.7629" stroke-miterlimit="10" x1="318.85" y1="373.932" x2="519.049" y2="373.932"/>
<line fill="none" stroke="#B5B5B6" stroke-width="0.7713" stroke-miterlimit="10" x1="420.081" y1="477.848" x2="420.081" y2="273.178"/>
<path fill="#F8F6BC" d="M122,136"/>
<g>
	<path fill="#12934B" stroke="#9FA0A0" stroke-miterlimit="10" d="M434.002,241.475L434.002,241.475
		c-2.301-0.24-4.617-0.422-6.951-0.542v0C429.385,241.053,431.701,241.236,434.002,241.475z"/>
	<path fill="#12934B" stroke="#9FA0A0" stroke-miterlimit="10" d="M440.916,242.378L440.916,242.378
		c-2.285-0.36-4.59-0.663-6.914-0.905v0.001C436.326,241.716,438.631,242.02,440.916,242.378z"/>
	<path fill="#12934B" stroke="#9FA0A0" stroke-miterlimit="10" d="M427.051,240.933L427.051,240.933
		c-2.309-0.12-4.632-0.181-6.97-0.181h0v0C422.419,240.752,424.742,240.814,427.051,240.933z"/>
	<path fill="#12934B" stroke="#9FA0A0" stroke-miterlimit="10" d="M399.245,242.378L399.245,242.378
		c-2.307,0.362-4.592,0.786-6.857,1.265v0C394.653,243.164,396.938,242.741,399.245,242.378z"/>
	<path fill="#12934B" stroke="#9FA0A0" stroke-miterlimit="10" d="M420.081,240.752L420.081,240.752c-2.338,0-4.662,0.061-6.97,0.18
		v0C415.419,240.814,417.742,240.752,420.081,240.752z"/>
	<path fill="#12934B" stroke="#9FA0A0" stroke-miterlimit="10" d="M406.159,241.475L406.159,241.475
		c-2.323,0.241-4.628,0.544-6.914,0.903v0C401.531,242.02,403.835,241.716,406.159,241.475z"/>
	<path fill="#12934B" stroke="#9FA0A0" stroke-miterlimit="10" d="M447.773,243.644L447.773,243.644
		c-2.266-0.48-4.551-0.903-6.857-1.266v0C443.223,242.741,445.508,243.164,447.773,243.644z"/>
	<path fill="#F8F6BC" stroke="#9FA0A0" stroke-miterlimit="10" d="M330.969,274.963c-1.727,1.556-3.417,3.152-5.06,4.795
		C327.553,278.115,329.243,276.519,330.969,274.963L330.969,274.963z"/>
	<path fill="#62B65D" stroke="#9FA0A0" stroke-miterlimit="10" d="M467.816,249.573L467.816,249.573
		c-2.164-0.832-4.355-1.608-6.573-2.328l-0.001,0C463.46,247.966,465.652,248.741,467.816,249.573z"/>
	<path fill="#62B65D" stroke="#9FA0A0" stroke-miterlimit="10" d="M461.242,247.246L461.242,247.246
		c-2.203-0.716-4.433-1.376-6.687-1.979v0.001C456.809,245.87,459.039,246.53,461.242,247.246z"/>
	<path fill="#9FCC65" stroke="#9FA0A0" stroke-miterlimit="10" d="M454.556,245.268L454.556,245.268
		c-2.238-0.599-4.499-1.142-6.782-1.625v0.001C450.057,244.126,452.317,244.669,454.556,245.268z"/>
	<path fill="#12934B" stroke="#9FA0A0" stroke-miterlimit="10" d="M365.901,252.242L365.901,252.242
		c-2.127,0.948-4.228,1.947-6.294,3.002h0C361.673,254.189,363.773,253.19,365.901,252.242z"/>
	<path fill="none" stroke="#9FA0A0" stroke-width="0.6727" stroke-miterlimit="10" d="M347.542,262.231L347.542,262.231
		c-1.95,1.269-3.864,2.589-5.742,3.955v0C343.678,264.82,345.592,263.5,347.542,262.231z"/>
	<path fill="#9FCC65" stroke="#9FA0A0" stroke-miterlimit="10" d="M392.387,243.644L392.387,243.644
		c-2.283,0.482-4.543,1.025-6.782,1.624v0C387.844,244.669,390.104,244.126,392.387,243.644z"/>
	<path fill="#12934B" stroke="#9FA0A0" stroke-miterlimit="10" d="M353.481,258.579L353.481,258.579
		c-2.015,1.166-3.994,2.386-5.939,3.652v0C349.488,260.965,351.467,259.745,353.481,258.579z"/>
	<path fill="none" stroke="#9FA0A0" stroke-width="0.6727" stroke-miterlimit="10" d="M341.8,266.187L341.8,266.187
		c-1.881,1.369-3.725,2.785-5.529,4.248l0,0C338.076,268.972,339.919,267.556,341.8,266.187z"/>
	<path fill="#F8F6BC" stroke="#9FA0A0" stroke-miterlimit="10" d="M336.271,270.435L336.271,270.435
		c-1.806,1.464-3.575,2.973-5.302,4.528l0,0C332.696,273.408,334.465,271.899,336.271,270.435z"/>
	<path fill="#12934B" stroke="#9FA0A0" stroke-miterlimit="10" d="M359.607,255.244L359.607,255.244
		c-2.075,1.059-4.116,2.172-6.125,3.334v0C355.491,257.417,357.532,256.303,359.607,255.244z"/>
	<path fill="#9FCC65" stroke="#9FA0A0" stroke-miterlimit="10" d="M480.555,255.245L480.555,255.245
		c-2.066-1.056-4.167-2.055-6.295-3.004v0.001C476.387,253.19,478.488,254.189,480.555,255.245z"/>
	<path fill="#9FCC65" stroke="#9FA0A0" stroke-miterlimit="10" d="M378.918,247.246L378.918,247.246
		c-2.218,0.719-4.409,1.495-6.574,2.327l0,0C374.509,248.742,376.7,247.966,378.918,247.246z"/>
	<path fill="#9FCC65" stroke="#9FA0A0" stroke-miterlimit="10" d="M385.605,245.268L385.605,245.268
		c-2.253,0.602-4.483,1.262-6.688,1.978v0C381.123,246.53,383.352,245.87,385.605,245.268z"/>
	<path fill="#12934B" stroke="#9FA0A0" stroke-miterlimit="10" d="M372.344,249.573L372.344,249.573
		c-2.175,0.835-4.324,1.724-6.443,2.669l0,0C368.02,251.297,370.168,250.408,372.344,249.573z"/>
	<path fill="#62B65D" stroke="#9FA0A0" stroke-miterlimit="10" d="M474.26,252.242L474.26,252.242
		c-2.119-0.946-4.268-1.834-6.442-2.67l-0.001,0.001C469.992,250.408,472.141,251.297,474.26,252.242z"/>
	<path fill="#D0E286" stroke="#9FA0A0" stroke-miterlimit="10" d="M548.744,339.456L548.744,339.456
		c-0.602-2.254-1.263-4.483-1.978-6.688h-0.001C547.481,334.973,548.141,337.202,548.744,339.456z"/>
	<path fill="#D0E286" stroke="#9FA0A0" stroke-miterlimit="10" d="M546.766,332.768L546.766,332.768
		c-0.72-2.217-1.495-4.408-2.327-6.573v0.001C545.27,328.359,546.046,330.551,546.766,332.768z"/>
	<path fill="#D0E286" stroke="#9FA0A0" stroke-miterlimit="10" d="M541.77,319.752L541.77,319.752
		c-0.948-2.128-1.946-4.229-3.001-6.295h-0.001C539.822,315.524,540.821,317.625,541.77,319.752z"/>
	<path fill="#D0E286" stroke="#9FA0A0" stroke-miterlimit="10" d="M538.768,313.457L538.768,313.457
		c-1.059-2.074-2.172-4.115-3.335-6.125l0,0C536.595,309.342,537.708,311.383,538.768,313.457z"/>
	<path fill="#D0E286" stroke="#9FA0A0" stroke-miterlimit="10" d="M544.438,326.195L544.438,326.195
		c-0.835-2.176-1.724-4.325-2.668-6.443h-0.001C542.714,321.871,543.603,324.02,544.438,326.195z"/>
	<path fill="#D0E286" stroke="#9FA0A0" stroke-miterlimit="10" d="M550.368,346.238L550.368,346.238
		c-0.483-2.283-1.025-4.545-1.624-6.783v0.001C549.342,341.694,549.885,343.955,550.368,346.238z"/>
	<path fill="#9FCC65" stroke="#9FA0A0" stroke-miterlimit="10" d="M486.679,258.579L486.679,258.579
		c-2.009-1.163-4.05-2.276-6.124-3.335v0.001C482.629,256.303,484.67,257.416,486.679,258.579z"/>
	<path fill="#62B65D" stroke="#9FA0A0" stroke-miterlimit="10" d="M553.259,373.932L553.259,373.932l0.001-0.002
		c0-2.337-0.062-4.66-0.181-6.969h-0.001C553.197,369.27,553.259,371.593,553.259,373.932z"/>
	<path fill="#62B65D" stroke="#9FA0A0" stroke-miterlimit="10" d="M552.536,360.009L552.536,360.009
		c-0.24-2.323-0.544-4.628-0.903-6.914h-0.001C551.991,355.381,552.295,357.686,552.536,360.009z"/>
	<path fill="#62B65D" stroke="#9FA0A0" stroke-miterlimit="10" d="M553.078,366.961L553.078,366.961
		c-0.119-2.334-0.302-4.651-0.541-6.952h-0.001C552.775,362.31,552.958,364.627,553.078,366.961z"/>
	<path fill="#62B65D" stroke="#9FA0A0" stroke-miterlimit="10" d="M551.632,353.095L551.632,353.095
		c-0.361-2.306-0.785-4.593-1.264-6.856l0,0C550.847,348.504,551.271,350.789,551.632,353.095z"/>
	<path fill="#62B65D" stroke="#9FA0A0" stroke-miterlimit="10" d="M553.078,380.9l0.001,0.002c0.118-2.311,0.181-4.633,0.181-6.971
		h-0.001C553.259,376.27,553.197,378.592,553.078,380.9z"/>
	<path fill="none" stroke="#9FA0A0" stroke-width="0.6727" stroke-miterlimit="10" d="M509.191,274.963L509.191,274.963
		c-1.726-1.556-3.495-3.064-5.301-4.528l-0.001,0C505.696,271.899,507.465,273.408,509.191,274.963z"/>
	<path fill="none" stroke="#9FA0A0" stroke-width="0.6727" stroke-miterlimit="10" d="M503.89,270.435L503.89,270.435
		c-1.804-1.464-3.647-2.88-5.528-4.249v0C500.242,267.556,502.085,268.972,503.89,270.435z"/>
	<path fill="#12934B" stroke="#9FA0A0" stroke-miterlimit="10" d="M492.619,262.231L492.619,262.231
		c-1.946-1.268-3.926-2.488-5.939-3.654l-0.001,0.001C488.693,259.744,490.673,260.965,492.619,262.231z"/>
	<path fill="none" stroke="#9FA0A0" stroke-width="0.6727" stroke-miterlimit="10" d="M498.361,266.187L498.361,266.187
		c-1.878-1.367-3.792-2.688-5.742-3.957v0.001C494.569,263.5,496.483,264.82,498.361,266.187z"/>
	<path fill="none" stroke="#9FA0A0" stroke-width="0.6727" stroke-miterlimit="10" d="M514.253,279.76L514.253,279.76
		c-1.644-1.645-3.334-3.241-5.061-4.797l-0.001,0C510.919,276.52,512.609,278.116,514.253,279.76z"/>
	<path fill="#EA6B3C" stroke="#9FA0A0" stroke-miterlimit="10" d="M527.824,295.651L527.824,295.651
		c-1.367-1.881-2.783-3.725-4.246-5.529l-0.002,0C525.04,291.926,526.455,293.77,527.824,295.651z"/>
	<path fill="none" stroke="#9FA0A0" stroke-width="0.6727" stroke-miterlimit="10" d="M519.049,284.82L519.049,284.82
		c-1.556-1.728-3.152-3.418-4.796-5.061v0C515.896,281.403,517.492,283.093,519.049,284.82z"/>
	<path fill="#D0E286" stroke="#9FA0A0" stroke-miterlimit="10" d="M535.433,307.332L535.433,307.332
		c-1.165-2.015-2.385-3.994-3.651-5.939h-0.001C533.047,303.339,534.267,305.318,535.433,307.332z"/>
	<path fill="#EA6B3C" stroke="#9FA0A0" stroke-miterlimit="10" d="M531.78,301.393L531.78,301.393
		c-1.269-1.951-2.589-3.864-3.955-5.742l-0.001,0C529.191,297.529,530.512,299.442,531.78,301.393z"/>
	<path fill="none" stroke="#9FA0A0" stroke-width="0.6727" stroke-miterlimit="10" d="M523.576,290.122l0.002,0
		c-1.465-1.806-2.974-3.576-4.529-5.302v0.001C520.604,286.546,522.112,288.315,523.576,290.122z"/>
	<path fill="#12934B" stroke="#9FA0A0" stroke-miterlimit="10" d="M413.11,240.933L413.11,240.933
		c-2.333,0.12-4.651,0.302-6.952,0.542v0C408.459,241.236,410.777,241.053,413.11,240.933z"/>
	<path fill="#F8DB84" stroke="#9FA0A0" stroke-miterlimit="10" d="M535.433,440.529L535.433,440.529
		c1.162-2.008,2.275-4.051,3.335-6.125h-0.001C537.708,436.479,536.595,438.521,535.433,440.529z"/>
	<path fill="#F8DB84" stroke="#9FA0A0" stroke-miterlimit="10" d="M531.78,446.469L531.78,446.469
		c1.266-1.945,2.486-3.924,3.652-5.939l0,0C534.267,442.545,533.046,444.523,531.78,446.469z"/>
	<path fill="#F8DB84" stroke="#9FA0A0" stroke-miterlimit="10" d="M527.824,452.211L527.824,452.211
		c1.367-1.877,2.688-3.791,3.956-5.742l0,0C530.511,448.42,529.191,450.334,527.824,452.211z"/>
	<path fill="#F8DB84" stroke="#9FA0A0" stroke-miterlimit="10" d="M538.767,434.404L538.767,434.404
		c1.056-2.066,2.055-4.166,3.003-6.295l0,0C540.821,430.238,539.822,432.338,538.767,434.404z"/>
	<path fill="#F8DB84" stroke="#9FA0A0" stroke-miterlimit="10" d="M523.576,457.74L523.576,457.74
		c1.464-1.805,2.879-3.648,4.248-5.529l0,0C526.455,454.092,525.039,455.936,523.576,457.74z"/>
	<polygon fill="#CD311F" stroke="#9FA0A0" stroke-miterlimit="10" points="514.252,468.104 514.253,468.102 514.253,468.102 	"/>
	<path fill="#F8DB84" stroke="#9FA0A0" stroke-miterlimit="10" d="M541.77,428.109L541.77,428.109
		c0.944-2.117,1.833-4.266,2.669-6.441l0,0C543.603,423.842,542.714,425.992,541.77,428.109z"/>
	<path fill="#CD311F" stroke="#9FA0A0" stroke-miterlimit="10" d="M519.049,463.041L519.049,463.041
		c1.555-1.725,3.063-3.494,4.527-5.301l0,0C522.112,459.547,520.604,461.316,519.049,463.041z"/>
	<path fill="#CD311F" stroke="#9FA0A0" stroke-miterlimit="10" d="M514.253,468.102L514.253,468.102
		c1.643-1.643,3.239-3.332,4.796-5.061l0,0C517.492,464.77,515.896,466.459,514.253,468.102z"/>
	<path fill="#62B65D" stroke="#9FA0A0" stroke-miterlimit="10" d="M553.078,380.9c-0.12,2.336-0.303,4.652-0.542,6.953h0.001
		c0.239-2.301,0.421-4.617,0.542-6.951L553.078,380.9z"/>
	<path fill="#F8DB84" stroke="#9FA0A0" stroke-miterlimit="10" d="M544.438,421.668L544.438,421.668
		c0.831-2.164,1.607-4.357,2.327-6.574l0,0C546.046,417.311,545.27,419.504,544.438,421.668z"/>
	<path fill="#62B65D" stroke="#9FA0A0" stroke-miterlimit="10" d="M551.632,394.768L551.632,394.768
		c0.36-2.287,0.664-4.592,0.905-6.914h-0.001C552.295,390.176,551.991,392.48,551.632,394.768z"/>
	<path fill="#62B65D" stroke="#9FA0A0" stroke-miterlimit="10" d="M550.368,401.625L550.368,401.625
		c0.479-2.266,0.902-4.551,1.265-6.857h-0.001C551.271,397.074,550.847,399.359,550.368,401.625z"/>
	<path fill="none" stroke="#9FA0A0" stroke-width="0.6727" stroke-miterlimit="10" d="M546.766,415.094L546.766,415.094
		c0.716-2.205,1.376-4.434,1.979-6.688l0,0C548.142,410.66,547.481,412.889,546.766,415.094z"/>
	<path fill="#62B65D" stroke="#9FA0A0" stroke-miterlimit="10" d="M548.744,408.406L548.744,408.406
		c0.599-2.238,1.141-4.498,1.624-6.781l0,0C549.885,403.906,549.342,406.168,548.744,408.406z"/>
	<path fill="#EA6B3C" stroke="#9FA0A0" stroke-miterlimit="10" d="M420.081,507.109L420.081,507.109l0,0.002
		c2.338,0,4.662-0.062,6.97-0.182l0,0C424.742,507.049,422.419,507.109,420.081,507.109z"/>
	<path fill="#EA6B3C" stroke="#9FA0A0" stroke-miterlimit="10" d="M413.11,506.93L413.11,506.93c2.308,0.119,4.632,0.182,6.97,0.182
		v-0.002C417.742,507.109,415.418,507.049,413.11,506.93z"/>
	<path fill="#EA6B3C" d="M427.051,506.93L427.051,506.93c2.334-0.121,4.651-0.303,6.952-0.541v-0.002
		C431.702,506.627,429.385,506.809,427.051,506.93z"/>
	<path fill="#EA6B3C" d="M440.916,505.484L440.916,505.484c2.307-0.363,4.592-0.787,6.857-1.266l0,0
		C445.508,504.697,443.223,505.121,440.916,505.484z"/>
	<path fill="#EA6B3C" d="M434.003,506.387v0.002c2.323-0.242,4.628-0.545,6.913-0.904l0,0
		C438.631,505.842,436.326,506.146,434.003,506.387z"/>
	<path fill="#F8F6BC" d="M378.918,500.615v0.002c2.205,0.715,4.434,1.375,6.688,1.979v-0.002
		C383.352,501.992,381.123,501.332,378.918,500.615z"/>
	<path fill="none" stroke="#9FA0A0" stroke-width="0.6727" stroke-miterlimit="10" d="M454.556,502.596L454.556,502.596
		c2.254-0.604,4.483-1.264,6.688-1.979h-0.001C459.039,501.332,456.81,501.992,454.556,502.596z"/>
	<path fill="#F8F6BC" d="M372.343,498.289L372.343,498.289c2.165,0.832,4.357,1.607,6.575,2.328v-0.002
		C376.7,499.896,374.508,499.121,372.343,498.289z"/>
	<path fill="#EA6B3C" stroke="#9FA0A0" stroke-miterlimit="10" d="M385.605,502.594v0.002c2.238,0.598,4.499,1.141,6.782,1.623h0
		C390.104,503.736,387.844,503.193,385.605,502.594z"/>
	<path fill="#EA6B3C" stroke="#9FA0A0" stroke-miterlimit="10" d="M406.159,506.387l0,0.002c2.301,0.238,4.618,0.42,6.952,0.541l0,0
		C410.776,506.809,408.459,506.627,406.159,506.387z"/>
	<path fill="#EA6B3C" stroke="#9FA0A0" stroke-miterlimit="10" d="M392.388,504.219L392.388,504.219
		c2.265,0.479,4.55,0.902,6.856,1.266v-0.002C396.938,505.121,394.652,504.697,392.388,504.219z"/>
	<path fill="#EA6B3C" stroke="#9FA0A0" stroke-miterlimit="10" d="M399.244,505.482v0.002c2.286,0.359,4.591,0.662,6.914,0.904
		l0-0.002C403.835,506.146,401.53,505.842,399.244,505.482z"/>
	<path fill="#CD311F" stroke="#9FA0A0" stroke-miterlimit="10" d="M503.89,477.428L503.89,477.428
		c1.807-1.465,3.576-2.973,5.302-4.529l0,0C507.466,474.453,505.696,475.963,503.89,477.428z"/>
	<path fill="#CD311F" stroke="#9FA0A0" stroke-miterlimit="10" d="M509.191,472.898c1.728-1.557,3.417-3.152,5.061-4.795
		C512.608,469.746,510.919,471.342,509.191,472.898L509.191,472.898z"/>
	<path fill="#EA6B3C" stroke="#9FA0A0" stroke-miterlimit="10" d="M365.901,495.619l0,0.002c2.119,0.943,4.267,1.832,6.442,2.668h0
		C370.168,497.453,368.02,496.564,365.901,495.619z"/>
	<path fill="none" stroke="#9FA0A0" stroke-width="0.6727" stroke-miterlimit="10" d="M461.243,500.617L461.243,500.617
		c2.218-0.721,4.409-1.496,6.574-2.328l0,0C465.652,499.121,463.461,499.896,461.243,500.617z"/>
	<path fill="#F8DB84" stroke="#9FA0A0" stroke-miterlimit="10" d="M321.114,463.041l0,0.002c1.556,1.727,3.152,3.416,4.796,5.061
		l0.001-0.002C324.266,466.459,322.67,464.77,321.114,463.041z"/>
	<path fill="#CD311F" stroke="#9FA0A0" stroke-miterlimit="10" d="M498.361,481.676L498.361,481.676
		c1.881-1.369,3.725-2.785,5.528-4.248l0,0C502.086,478.891,500.242,480.307,498.361,481.676z"/>
	<path fill="none" stroke="#9FA0A0" stroke-width="0.6727" stroke-miterlimit="10" d="M467.817,498.289L467.817,498.289
		c2.175-0.834,4.324-1.725,6.442-2.668l0,0C472.142,496.564,469.992,497.453,467.817,498.289z"/>
	<path fill="none" stroke="#9FA0A0" stroke-width="0.6727" stroke-miterlimit="10" d="M474.26,495.621L474.26,495.621
		c2.128-0.949,4.229-1.947,6.295-3.004l0,0C478.488,493.672,476.388,494.672,474.26,495.621z"/>
	<path fill="none" stroke="#9FA0A0" stroke-width="0.6727" stroke-miterlimit="10" d="M480.555,492.617L480.555,492.617
		c2.074-1.059,4.115-2.172,6.125-3.334l0,0C484.67,490.445,482.629,491.559,480.555,492.617z"/>
	<path fill="none" stroke="#9FA0A0" stroke-width="0.6727" stroke-miterlimit="10" d="M486.68,489.283L486.68,489.283
		c2.015-1.166,3.993-2.387,5.939-3.652l0,0C490.673,486.896,488.693,488.117,486.68,489.283z"/>
	<path fill="none" stroke="#9FA0A0" stroke-width="0.6727" stroke-miterlimit="10" d="M492.619,485.631L492.619,485.631
		c1.95-1.27,3.864-2.59,5.742-3.955l0,0C496.483,483.041,494.569,484.361,492.619,485.631z"/>
	<path fill="#EA6B3C" stroke="#9FA0A0" stroke-miterlimit="10" d="M447.773,504.219L447.773,504.219
		c2.283-0.482,4.544-1.025,6.782-1.623l0,0C452.317,503.193,450.057,503.736,447.773,504.219z"/>
	<path fill="#F8F6BC" stroke="#9FA0A0" stroke-miterlimit="10" d="M286.903,373.93c0-2.338,0.062-4.661,0.181-6.969h0
		c-0.119,2.309-0.181,4.632-0.181,6.971h0V373.93z"/>
	<path fill="#F8F6BC" stroke="#9FA0A0" stroke-miterlimit="10" d="M287.625,360.01L287.625,360.01
		c-0.24,2.3-0.422,4.617-0.542,6.951h0C287.204,364.627,287.386,362.31,287.625,360.01z"/>
	<path fill="#F8F6BC" stroke="#9FA0A0" stroke-miterlimit="10" d="M295.724,326.194L295.724,326.194
		c-0.832,2.165-1.608,4.356-2.328,6.574l0,0C294.116,330.551,294.892,328.359,295.724,326.194z"/>
	<path fill="#CD311F" stroke="#9FA0A0" stroke-miterlimit="10" d="M287.083,380.9L287.083,380.9c0.12,2.334,0.302,4.652,0.541,6.953
		h0.001C287.387,385.553,287.204,383.234,287.083,380.9z"/>
	<path fill="#F8F6BC" stroke="#9FA0A0" stroke-miterlimit="10" d="M293.396,332.769L293.396,332.769
		c-0.716,2.204-1.376,4.434-1.979,6.688h0C292.02,337.203,292.68,334.973,293.396,332.769z"/>
	<path fill="#F8F6BC" stroke="#9FA0A0" stroke-miterlimit="10" d="M291.418,339.456L291.418,339.456
		c-0.599,2.238-1.142,4.499-1.625,6.782h0.001C290.277,343.955,290.82,341.694,291.418,339.456z"/>
	<path fill="#F8F6BC" stroke="#9FA0A0" stroke-miterlimit="10" d="M288.529,353.096L288.529,353.096
		c-0.36,2.285-0.663,4.59-0.904,6.913l0,0.001C287.867,357.686,288.17,355.381,288.529,353.096z"/>
	<path fill="#CD311F" stroke="#9FA0A0" stroke-miterlimit="10" d="M287.625,387.854L287.625,387.854
		c0.241,2.322,0.544,4.627,0.903,6.912h0C288.17,392.48,287.867,390.176,287.625,387.854z"/>
	<path fill="#F8F6BC" stroke="#9FA0A0" stroke-miterlimit="10" d="M289.794,346.238L289.794,346.238
		c-0.48,2.266-0.903,4.551-1.266,6.857h0C288.892,350.789,289.315,348.504,289.794,346.238z"/>
	<path fill="#CD311F" stroke="#9FA0A0" stroke-miterlimit="10" d="M286.903,373.932L286.903,373.932c0,2.338,0.061,4.66,0.18,6.969
		h0C286.965,378.592,286.903,376.27,286.903,373.932z"/>
	<path fill="#9FCC65" d="M301.395,434.404L301.395,434.404c1.058,2.074,2.171,4.117,3.334,6.127l0.001-0.002
		C303.567,438.521,302.454,436.479,301.395,434.404z"/>
	<path fill="#9FCC65" d="M304.73,440.529l-0.001,0.002c1.166,2.014,2.386,3.992,3.652,5.938h0.001
		C307.116,444.523,305.896,442.545,304.73,440.529z"/>
	<path fill="#EA6B3C" stroke="#9FA0A0" stroke-miterlimit="10" d="M298.393,428.109l-0.001,0.002
		c0.949,2.127,1.948,4.227,3.002,6.293h0.001C300.34,432.338,299.341,430.238,298.393,428.109z"/>
	<path fill="#9FCC65" d="M308.382,446.469L308.382,446.469c1.268,1.951,2.588,3.865,3.955,5.742h0
		C310.971,450.334,309.651,448.42,308.382,446.469z"/>
	<path fill="#F8DB84" stroke="#9FA0A0" stroke-miterlimit="10" d="M295.724,421.668L295.724,421.668
		c0.835,2.174,1.724,4.324,2.668,6.443l0.001-0.002C297.448,425.992,296.559,423.842,295.724,421.668z"/>
	<path fill="#EA6B3C" stroke="#9FA0A0" stroke-miterlimit="10" d="M289.794,401.625L289.794,401.625
		c0.482,2.281,1.025,4.543,1.623,6.781h0.001C290.82,406.168,290.277,403.906,289.794,401.625z"/>
	<path fill="#CD311F" stroke="#9FA0A0" stroke-miterlimit="10" d="M288.529,394.766L288.529,394.766
		c0.362,2.307,0.785,4.594,1.264,6.859h0.001C289.315,399.357,288.892,397.072,288.529,394.766z"/>
	<path fill="#EA6B3C" stroke="#9FA0A0" stroke-miterlimit="10" d="M291.418,408.406L291.418,408.406
		c0.602,2.254,1.262,4.482,1.978,6.688h0.001C292.681,412.889,292.021,410.658,291.418,408.406z"/>
	<path fill="#EA6B3C" stroke="#9FA0A0" stroke-miterlimit="10" d="M293.397,415.094L293.397,415.094
		c0.719,2.217,1.495,4.408,2.326,6.574h0.001C294.892,419.502,294.117,417.311,293.397,415.094z"/>
	<path fill="#F5AA5A" d="M316.585,290.122L316.585,290.122c-1.463,1.804-2.879,3.648-4.248,5.529l0,0
		C313.706,293.77,315.122,291.926,316.585,290.122z"/>
	<path fill="#CD311F" stroke="#9FA0A0" stroke-miterlimit="10" d="M330.97,472.898L330.97,472.898
		c1.726,1.557,3.495,3.064,5.301,4.529l0-0.002C334.465,475.961,332.696,474.453,330.97,472.898z"/>
	<path fill="#CD311F" stroke="#9FA0A0" stroke-miterlimit="10" d="M359.607,492.617L359.607,492.617
		c2.066,1.057,4.166,2.055,6.293,3.004l0-0.002C363.773,494.67,361.673,493.672,359.607,492.617z"/>
	<polygon fill="#F8F6BC" stroke="#9FA0A0" stroke-miterlimit="10" points="325.909,279.759 325.909,279.759 325.909,279.759 	"/>
	<path fill="#9FCC65" d="M312.337,452.211L312.337,452.211c1.368,1.881,2.784,3.725,4.248,5.529h0
		C315.123,455.936,313.707,454.092,312.337,452.211z"/>
	<path fill="#F8DB84" stroke="#9FA0A0" stroke-miterlimit="10" d="M325.91,468.102l-0.001,0.002c1.643,1.643,3.333,3.238,5.06,4.795
		h0C329.243,471.342,327.553,469.746,325.91,468.102z"/>
	<path fill="#CD311F" stroke="#9FA0A0" stroke-miterlimit="10" d="M353.481,489.283L353.481,489.283
		c2.009,1.162,4.051,2.275,6.125,3.334h0C357.532,491.559,355.491,490.445,353.481,489.283z"/>
	<path fill="#F8F6BC" stroke="#9FA0A0" stroke-miterlimit="10" d="M298.392,319.752L298.392,319.752
		c-0.945,2.119-1.833,4.268-2.668,6.442h0C296.559,324.02,297.447,321.871,298.392,319.752z"/>
	<path fill="#CD311F" stroke="#9FA0A0" stroke-miterlimit="10" d="M336.271,477.426l0,0.002c1.805,1.463,3.648,2.879,5.529,4.248
		l0.001-0.002C339.92,480.307,338.076,478.889,336.271,477.426z"/>
	<path fill="#CD311F" stroke="#9FA0A0" stroke-miterlimit="10" d="M341.801,481.674l-0.001,0.002
		c1.878,1.365,3.792,2.686,5.742,3.955h0C345.592,484.361,343.678,483.041,341.801,481.674z"/>
	<path fill="#CD311F" stroke="#9FA0A0" stroke-miterlimit="10" d="M347.542,485.631L347.542,485.631
		c1.946,1.266,3.924,2.486,5.939,3.652l0,0C351.467,488.117,349.488,486.896,347.542,485.631z"/>
	<path fill="#F8F6BC" stroke="#9FA0A0" stroke-miterlimit="10" d="M304.729,307.332L304.729,307.332
		c-1.163,2.01-2.276,4.051-3.335,6.125h0C302.453,311.383,303.566,309.342,304.729,307.332z"/>
	<path fill="#F8F6BC" stroke="#9FA0A0" stroke-miterlimit="10" d="M308.381,301.393L308.381,301.393
		c-1.267,1.946-2.487,3.926-3.653,5.939h0C305.895,305.318,307.115,303.339,308.381,301.393z"/>
	<path fill="#F8F6BC" stroke="#9FA0A0" stroke-miterlimit="10" d="M301.395,313.457L301.395,313.457
		c-1.056,2.067-2.054,4.168-3.003,6.295l0,0C299.34,317.625,300.339,315.524,301.395,313.457z"/>
	<path fill="#F8F6BC" stroke="#9FA0A0" stroke-miterlimit="10" d="M325.909,279.759L325.909,279.759
		c-1.644,1.643-3.24,3.333-4.797,5.061h0C322.669,283.093,324.266,281.402,325.909,279.759z"/>
	<path fill="#F5AA5A" d="M312.337,295.651L312.337,295.651c-1.367,1.878-2.687,3.792-3.956,5.742h0
		C309.65,299.442,310.97,297.529,312.337,295.651z"/>
	<path fill="#F5AA5A" d="M321.113,284.82L321.113,284.82c-1.556,1.726-3.064,3.495-4.528,5.301v0
		C318.049,288.315,319.557,286.546,321.113,284.82z"/>
	<path fill="#9FCC65" d="M316.585,457.74L316.585,457.74c1.464,1.807,2.972,3.576,4.528,5.303l0-0.002
		C319.559,461.314,318.05,459.547,316.585,457.74z"/>
	<path fill="#12934B" stroke="#9FA0A0" stroke-miterlimit="10" d="M370.011,275.664l-10.404-20.42
		c-2.075,1.059-4.116,2.172-6.125,3.335l11.458,19.846C366.604,277.463,368.294,276.541,370.011,275.664z"/>
	<path fill="#12934B" stroke="#9FA0A0" stroke-miterlimit="10" d="M364.94,278.425l-11.458-19.846
		c-2.015,1.166-3.994,2.386-5.939,3.652l12.48,19.217C361.633,280.4,363.271,279.39,364.94,278.425z"/>
	<path fill="#12934B" stroke="#9FA0A0" stroke-miterlimit="10" d="M360.022,281.449l-12.48-19.217
		c-1.95,1.269-3.864,2.589-5.742,3.956l13.468,18.537C356.823,283.593,358.408,282.5,360.022,281.449z"/>
	<path fill="#F8F6BC" stroke="#9FA0A0" stroke-miterlimit="10" d="M342.112,295.961l-16.203-16.202
		c-1.644,1.643-3.24,3.333-4.796,5.061l17.027,15.332C339.429,298.722,340.75,297.322,342.112,295.961z"/>
	<path fill="#12934B" stroke="#9FA0A0" stroke-miterlimit="10" d="M375.223,273.178l-9.322-20.937
		c-2.127,0.949-4.228,1.947-6.294,3.002l10.404,20.42C371.722,274.791,373.461,273.964,375.223,273.178z"/>
	<path fill="#12934B" stroke="#9FA0A0" stroke-miterlimit="10" d="M408.554,264.263l-2.395-22.789
		c-2.323,0.242-4.628,0.545-6.914,0.904l3.585,22.633C404.722,264.714,406.63,264.463,408.554,264.263z"/>
	<path fill="#F8F6BC" stroke="#9FA0A0" stroke-miterlimit="10" d="M336.271,270.435c-1.806,1.464-3.575,2.973-5.302,4.528
		l15.332,17.027c1.43-1.288,2.895-2.537,4.39-3.75L336.271,270.435z"/>
	<path fill="#12934B" stroke="#9FA0A0" stroke-miterlimit="10" d="M414.31,263.815l-1.2-22.882
		c-2.333,0.121-4.651,0.303-6.952,0.542l2.395,22.789C410.458,264.065,412.377,263.915,414.31,263.815z"/>
	<path fill="#CD311F" d="M338.14,300.152l-17.027-15.332c-1.556,1.726-3.064,3.495-4.528,5.302l17.806,14.419
		C335.604,303.046,336.853,301.581,338.14,300.152z"/>
	<path fill="#F8DB84" stroke="#9FA0A0" stroke-miterlimit="10" d="M402.83,265.012l-3.585-22.633
		c-2.306,0.362-4.592,0.786-6.857,1.265l4.765,22.416C399.027,265.663,400.92,265.312,402.83,265.012z"/>
	<path fill="#D0E286" stroke="#9FA0A0" stroke-miterlimit="10" d="M391.537,267.404l-5.932-22.136
		c-2.253,0.602-4.483,1.262-6.688,1.979L386,269.042C387.825,268.449,389.671,267.902,391.537,267.404z"/>
	<path fill="#9FCC65" stroke="#9FA0A0" stroke-miterlimit="10" d="M386,269.042l-7.082-21.796c-2.218,0.72-4.409,1.496-6.574,2.327
		l8.213,21.396C382.349,270.28,384.164,269.638,386,269.042z"/>
	<path fill="#12934B" stroke="#9FA0A0" stroke-miterlimit="10" d="M380.557,270.968l-8.213-21.396
		c-2.175,0.835-4.324,1.724-6.443,2.669l9.322,20.937C376.977,272.396,378.756,271.661,380.557,270.968z"/>
	<path fill="#9FCC65" stroke="#9FA0A0" stroke-miterlimit="10" d="M397.152,266.059l-4.765-22.416
		c-2.283,0.483-4.543,1.026-6.782,1.624l5.932,22.136C393.39,266.908,395.262,266.459,397.152,266.059z"/>
	<path fill="#12934B" stroke="#9FA0A0" stroke-miterlimit="10" d="M355.269,284.724L341.8,266.187
		c-1.881,1.369-3.725,2.785-5.529,4.248l14.419,17.806C352.185,287.03,353.711,285.858,355.269,284.724z"/>
	<path fill="#F8F6BC" stroke="#9FA0A0" stroke-miterlimit="10" d="M311.163,356.68l-22.633-3.584
		c-0.359,2.285-0.663,4.59-0.904,6.914l22.789,2.395C310.614,360.48,310.865,358.572,311.163,356.68z"/>
	<path fill="#F8F6BC" stroke="#9FA0A0" stroke-miterlimit="10" d="M313.554,345.388l-22.136-5.932
		c-0.598,2.238-1.141,4.499-1.624,6.782l22.415,4.765C312.609,349.112,313.059,347.24,313.554,345.388z"/>
	<path fill="#F8F6BC" stroke="#9FA0A0" stroke-miterlimit="10" d="M310.414,362.404l-22.789-2.395
		c-0.239,2.3-0.421,4.617-0.542,6.951l22.882,1.199C310.065,366.227,310.216,364.309,310.414,362.404z"/>
	<path fill="#F8F6BC" stroke="#9FA0A0" stroke-miterlimit="10" d="M312.209,351.003l-22.415-4.765
		c-0.479,2.266-0.903,4.551-1.265,6.857l22.633,3.584C311.462,354.77,311.813,352.878,312.209,351.003z"/>
	<path fill="#12934B" stroke="#9FA0A0" stroke-miterlimit="10" d="M420.081,263.665v-22.913c-2.338,0-4.662,0.062-6.97,0.181
		l1.2,22.882C416.221,263.716,418.145,263.665,420.081,263.665z"/>
	<path fill="#F8F6BC" stroke="#9FA0A0" stroke-miterlimit="10" d="M309.816,373.93c0-1.936,0.051-3.859,0.149-5.77l-22.882-1.199
		c-0.119,2.308-0.181,4.631-0.181,6.969v0.002h22.913V373.93z"/>
	<path fill="#F5AA5A" d="M334.391,304.541l-17.806-14.419c-1.463,1.804-2.879,3.648-4.248,5.529l18.537,13.468
		C332.008,307.562,333.18,306.035,334.391,304.541z"/>
	<path fill="#CD311F" stroke="#9FA0A0" stroke-miterlimit="10" d="M309.965,379.701l-22.882,1.199
		c0.121,2.334,0.303,4.652,0.542,6.953l22.789-2.396C310.216,383.553,310.065,381.635,309.965,379.701z"/>
	<path fill="#F8F6BC" stroke="#9FA0A0" stroke-miterlimit="10" d="M324.575,318.791l-19.846-11.459
		c-1.163,2.01-2.276,4.051-3.334,6.125l20.42,10.404C322.691,322.145,323.612,320.455,324.575,318.791z"/>
	<path fill="#F8F6BC" stroke="#9FA0A0" stroke-miterlimit="10" d="M327.599,313.873l-19.217-12.48
		c-1.267,1.946-2.487,3.926-3.652,5.939l19.846,11.459C325.54,317.123,326.55,315.484,327.599,313.873z"/>
	<path fill="#F8F6BC" stroke="#9FA0A0" stroke-miterlimit="10" d="M315.192,339.85l-21.796-7.081
		c-0.716,2.204-1.376,4.435-1.978,6.688l22.136,5.932C314.053,343.521,314.6,341.676,315.192,339.85z"/>
	<path fill="#F5AA5A" d="M330.874,309.119l-18.537-13.468c-1.367,1.878-2.687,3.792-3.956,5.742l19.217,12.48
		C328.649,312.258,329.743,310.674,330.874,309.119z"/>
	<path fill="#F8F6BC" stroke="#9FA0A0" stroke-miterlimit="10" d="M321.814,323.861l-20.42-10.404
		c-1.055,2.067-2.054,4.168-3.003,6.295l20.937,9.321C320.114,327.312,320.94,325.573,321.814,323.861z"/>
	<path fill="#F8F6BC" stroke="#9FA0A0" stroke-miterlimit="10" d="M317.119,334.407l-21.395-8.213
		c-0.832,2.165-1.607,4.356-2.328,6.574l21.796,7.081C315.788,338.015,316.43,336.199,317.119,334.407z"/>
	<path fill="#F8F6BC" stroke="#9FA0A0" stroke-miterlimit="10" d="M319.328,329.073l-20.937-9.321
		c-0.944,2.119-1.833,4.268-2.668,6.442l21.395,8.213C317.811,332.606,318.546,330.828,319.328,329.073z"/>
	<path fill="#CD311F" stroke="#9FA0A0" stroke-miterlimit="10" d="M309.816,373.932h-22.913c0,2.338,0.062,4.66,0.181,6.969
		l22.882-1.199C309.867,377.791,309.816,375.867,309.816,373.932z"/>
	<path fill="#D0E286" stroke="#9FA0A0" stroke-miterlimit="10" d="M518.348,323.861l20.42-10.404
		c-1.06-2.074-2.173-4.115-3.335-6.125l-19.846,11.459C516.55,320.454,517.471,322.145,518.348,323.861z"/>
	<path fill="#D0E286" stroke="#9FA0A0" stroke-miterlimit="10" d="M515.587,318.791l19.846-11.459
		c-1.166-2.014-2.386-3.993-3.652-5.939l-19.218,12.48C513.611,315.484,514.622,317.123,515.587,318.791z"/>
	<path fill="#D0E286" stroke="#9FA0A0" stroke-miterlimit="10" d="M523.043,334.407l21.396-8.212
		c-0.836-2.176-1.725-4.324-2.669-6.443l-20.936,9.321C521.616,330.828,522.352,332.606,523.043,334.407z"/>
	<path fill="#D0E286" stroke="#9FA0A0" stroke-miterlimit="10" d="M520.834,329.073l20.936-9.321
		c-0.948-2.127-1.947-4.228-3.002-6.295l-20.42,10.404C519.222,325.573,520.048,327.312,520.834,329.073z"/>
	<path fill="#EA6B3C" stroke="#9FA0A0" stroke-miterlimit="10" d="M505.771,304.541l17.806-14.419
		c-1.464-1.807-2.972-3.576-4.527-5.302l-17.027,15.331C503.31,301.581,504.559,303.046,505.771,304.541z"/>
	<path fill="#D0E286" stroke="#9FA0A0" stroke-miterlimit="10" d="M512.562,313.873l19.218-12.48
		c-1.269-1.95-2.589-3.864-3.956-5.742l-18.536,13.468C510.419,310.674,511.513,312.258,512.562,313.873z"/>
	<path fill="#CD311F" d="M509.288,309.119l18.536-13.468c-1.369-1.881-2.784-3.725-4.248-5.529l-17.806,14.419
		C506.981,306.035,508.154,307.562,509.288,309.119z"/>
	<path fill="#62B65D" stroke="#9FA0A0" stroke-miterlimit="10" d="M530.196,368.16l22.882-1.199
		c-0.12-2.334-0.303-4.651-0.542-6.952l-22.788,2.396C529.946,364.309,530.097,366.229,530.196,368.16z"/>
	<path fill="#62B65D" stroke="#9FA0A0" stroke-miterlimit="10" d="M529.748,362.404l22.788-2.396
		c-0.241-2.323-0.545-4.628-0.904-6.914L529,356.68C529.297,358.572,529.548,360.48,529.748,362.404z"/>
	<path fill="#F8DB84" stroke="#9FA0A0" stroke-miterlimit="10" d="M502.021,300.151l17.027-15.331
		c-1.557-1.728-3.153-3.417-4.796-5.061l-16.202,16.202C499.411,297.322,500.732,298.722,502.021,300.151z"/>
	<path fill="#62B65D" stroke="#9FA0A0" stroke-miterlimit="10" d="M530.346,373.93v0.002h22.913c0-2.339-0.062-4.662-0.181-6.971
		l-22.882,1.199C530.295,370.071,530.346,371.994,530.346,373.93z"/>
	<path fill="#62B65D" stroke="#9FA0A0" stroke-miterlimit="10" d="M527.952,351.002l22.416-4.764
		c-0.483-2.283-1.026-4.544-1.624-6.782l-22.137,5.931C527.104,347.24,527.553,349.111,527.952,351.002z"/>
	<path fill="#62B65D" stroke="#9FA0A0" stroke-miterlimit="10" d="M529,356.68l22.632-3.585c-0.361-2.306-0.785-4.591-1.264-6.856
		l-22.416,4.764C528.35,352.878,528.699,354.77,529,356.68z"/>
	<path fill="#D0E286" stroke="#9FA0A0" stroke-miterlimit="10" d="M526.607,345.387l22.137-5.931
		c-0.604-2.254-1.263-4.483-1.979-6.688l-21.796,7.082C525.562,341.676,526.109,343.521,526.607,345.387z"/>
	<path fill="#D0E286" stroke="#9FA0A0" stroke-miterlimit="10" d="M524.97,339.85l21.796-7.082c-0.72-2.217-1.496-4.408-2.327-6.572
		l-21.396,8.212C523.731,336.199,524.373,338.014,524.97,339.85z"/>
	<path fill="#EA6B3C" stroke="#9FA0A0" stroke-miterlimit="10" d="M493.86,291.99l15.331-17.027
		c-1.727-1.555-3.495-3.063-5.302-4.528l-14.419,17.806C490.966,289.454,492.431,290.703,493.86,291.99z"/>
	<path fill="#9FCC65" stroke="#9FA0A0" stroke-miterlimit="10" d="M448.624,267.404l5.932-22.136
		c-2.238-0.598-4.499-1.141-6.782-1.624l-4.765,22.416C444.899,266.459,446.771,266.908,448.624,267.404z"/>
	<path fill="#62B65D" stroke="#9FA0A0" stroke-miterlimit="10" d="M454.16,269.042l7.082-21.796
		c-2.203-0.716-4.434-1.376-6.687-1.978l-5.932,22.136C450.49,267.902,452.336,268.449,454.16,269.042z"/>
	<path fill="#62B65D" stroke="#9FA0A0" stroke-miterlimit="10" d="M459.604,270.968l8.213-21.396
		c-2.164-0.832-4.356-1.607-6.574-2.327l-7.082,21.796C455.997,269.638,457.812,270.28,459.604,270.968z"/>
	<path fill="#12934B" stroke="#9FA0A0" stroke-miterlimit="10" d="M437.332,265.012l3.584-22.633
		c-2.285-0.359-4.59-0.662-6.914-0.904l-2.395,22.789C433.531,264.463,435.438,264.714,437.332,265.012z"/>
	<path fill="#12934B" stroke="#9FA0A0" stroke-miterlimit="10" d="M431.607,264.263l2.395-22.789
		c-2.301-0.239-4.617-0.421-6.951-0.542l-1.199,22.882C427.783,263.915,429.702,264.065,431.607,264.263z"/>
	<path fill="#12934B" stroke="#9FA0A0" stroke-miterlimit="10" d="M443.009,266.059l4.765-22.416
		c-2.266-0.479-4.551-0.903-6.857-1.265l-3.584,22.633C439.24,265.312,441.133,265.663,443.009,266.059z"/>
	<path fill="#62B65D" stroke="#9FA0A0" stroke-miterlimit="10" d="M464.938,273.178l9.322-20.936
		c-2.119-0.945-4.268-1.833-6.443-2.669l-8.213,21.396C461.404,271.66,463.184,272.396,464.938,273.178z"/>
	<path fill="#12934B" stroke="#9FA0A0" stroke-miterlimit="10" d="M484.893,284.724l13.469-18.537
		c-1.878-1.367-3.792-2.687-5.742-3.956l-12.48,19.217C481.754,282.5,483.339,283.593,484.893,284.724z"/>
	<path fill="#9FCC65" stroke="#9FA0A0" stroke-miterlimit="10" d="M489.471,288.241l14.419-17.806
		c-1.805-1.463-3.647-2.879-5.528-4.248l-13.469,18.537C486.45,285.858,487.977,287.03,489.471,288.241z"/>
	<path fill="#12934B" stroke="#9FA0A0" stroke-miterlimit="10" d="M425.852,263.815l1.199-22.882
		c-2.309-0.119-4.632-0.181-6.97-0.181v22.913C422.016,263.665,423.94,263.716,425.852,263.815z"/>
	<path fill="#EA6B3C" stroke="#9FA0A0" stroke-miterlimit="10" d="M498.051,295.961l16.202-16.202
		c-1.644-1.644-3.334-3.24-5.062-4.797L493.86,291.99C495.29,293.279,496.689,294.601,498.051,295.961z"/>
	<path fill="#62B65D" stroke="#9FA0A0" stroke-miterlimit="10" d="M470.15,275.664l10.404-20.419
		c-2.066-1.056-4.168-2.054-6.295-3.003l-9.322,20.936C466.699,273.963,468.438,274.791,470.15,275.664z"/>
	<path fill="#9FCC65" stroke="#9FA0A0" stroke-miterlimit="10" d="M475.221,278.425l11.458-19.846
		c-2.009-1.163-4.05-2.275-6.124-3.334l-10.404,20.419C471.867,276.541,473.557,277.462,475.221,278.425z"/>
	<path fill="#12934B" stroke="#9FA0A0" stroke-miterlimit="10" d="M480.139,281.449l12.48-19.217
		c-1.946-1.267-3.926-2.487-5.94-3.653l-11.458,19.846C476.889,279.39,478.527,280.4,480.139,281.449z"/>
	<path fill="#F8DB84" stroke="#9FA0A0" stroke-miterlimit="10" d="M520.833,418.789l20.937,9.32
		c0.944-2.117,1.833-4.268,2.669-6.441l-21.396-8.213C522.351,415.256,521.615,417.035,520.833,418.789z"/>
	<path fill="#CD311F" stroke="#9FA0A0" stroke-miterlimit="10" d="M475.221,469.436l11.459,19.848
		c2.014-1.166,3.993-2.387,5.939-3.652l-12.48-19.219C478.527,467.461,476.889,468.471,475.221,469.436z"/>
	<path fill="#F8DB84" stroke="#9FA0A0" stroke-miterlimit="10" d="M420.081,484.195v22.914h0c2.338,0,4.661-0.061,6.97-0.18
		l-1.199-22.885C423.94,484.145,422.016,484.195,420.081,484.195z"/>
	<path fill="#F8DB84" d="M480.139,466.412l12.48,19.219c1.95-1.27,3.864-2.59,5.742-3.955l-13.469-18.539
		C483.338,464.268,481.754,465.361,480.139,466.412z"/>
	<path fill="#CD311F" stroke="#9FA0A0" stroke-miterlimit="10" d="M498.05,451.9l16.203,16.201c1.643-1.643,3.239-3.332,4.796-5.061
		l-17.028-15.33C500.732,449.141,499.41,450.539,498.05,451.9z"/>
	<path fill="#CD311F" stroke="#9FA0A0" stroke-miterlimit="10" d="M464.938,474.684l9.321,20.938
		c2.128-0.949,4.229-1.949,6.295-3.004l-10.404-20.42C468.438,473.07,466.699,473.896,464.938,474.684z"/>
	<path fill="#CD311F" stroke="#9FA0A0" stroke-miterlimit="10" d="M503.89,477.428c1.807-1.465,3.576-2.975,5.302-4.529
		l-15.332-17.027c-1.429,1.287-2.894,2.537-4.39,3.748L503.89,477.428z"/>
	<path fill="#F8DB84" stroke="#9FA0A0" stroke-miterlimit="10" d="M502.021,447.711l17.028,15.33
		c1.555-1.725,3.063-3.494,4.527-5.301l-17.807-14.42C504.557,444.816,503.309,446.281,502.021,447.711z"/>
	<path fill="#D0E286" d="M484.893,463.137l13.469,18.539c1.881-1.369,3.725-2.785,5.528-4.248l-14.42-17.809
		C487.977,460.83,486.45,462.004,484.893,463.137z"/>
	<path fill="#EA6B3C" stroke="#9FA0A0" stroke-miterlimit="10" d="M431.607,483.598l2.396,22.789
		c2.323-0.24,4.628-0.545,6.913-0.902l-3.584-22.635C435.438,483.146,433.531,483.396,431.607,483.598z"/>
	<path fill="#CD311F" stroke="#9FA0A0" stroke-miterlimit="10" d="M437.332,482.85l3.584,22.635
		c2.307-0.363,4.592-0.787,6.857-1.266l-4.765-22.418C441.133,482.199,439.24,482.549,437.332,482.85z"/>
	<path fill="#EA6B3C" stroke="#9FA0A0" stroke-miterlimit="10" d="M425.852,484.045l1.199,22.885
		c2.334-0.121,4.651-0.303,6.952-0.543l-2.396-22.789C429.703,483.795,427.783,483.945,425.852,484.045z"/>
	<path fill="#F8DB84" stroke="#9FA0A0" stroke-miterlimit="10" d="M443.009,481.801l4.765,22.418
		c2.283-0.482,4.544-1.025,6.782-1.623l-5.932-22.139C446.771,480.953,444.899,481.402,443.009,481.801z"/>
	<path fill="#CD311F" stroke="#9FA0A0" stroke-miterlimit="10" d="M454.16,478.818l7.083,21.799
		c2.218-0.721,4.409-1.496,6.574-2.328l-8.214-21.396C457.812,477.58,455.997,478.223,454.16,478.818z"/>
	<path fill="#CD311F" stroke="#9FA0A0" stroke-miterlimit="10" d="M459.604,476.893l8.214,21.396
		c2.175-0.836,4.324-1.725,6.442-2.668l-9.321-20.938C463.184,475.465,461.404,476.201,459.604,476.893z"/>
	<path fill="#F8DB84" stroke="#9FA0A0" stroke-miterlimit="10" d="M448.624,480.457l5.932,22.139
		c2.254-0.604,4.483-1.264,6.688-1.979l-7.083-21.799C452.336,479.412,450.489,479.959,448.624,480.457z"/>
	<path fill="#CD311F" stroke="#9FA0A0" stroke-miterlimit="10" d="M470.15,472.197l10.404,20.42
		c2.074-1.059,4.115-2.172,6.125-3.334l-11.459-19.848C473.557,470.398,471.867,471.32,470.15,472.197z"/>
	<path fill="#62B65D" stroke="#9FA0A0" stroke-miterlimit="10" d="M529,391.184l22.632,3.584c0.359-2.287,0.663-4.592,0.904-6.914
		l-22.788-2.396C529.548,387.381,529.297,389.289,529,391.184z"/>
	<path fill="#62B65D" stroke="#9FA0A0" stroke-miterlimit="10" d="M529.748,385.457l22.788,2.396
		c0.239-2.301,0.422-4.617,0.542-6.953l-22.882-1.197C530.097,381.635,529.945,383.553,529.748,385.457z"/>
	<path fill="#62B65D" stroke="#9FA0A0" stroke-miterlimit="10" d="M527.952,396.859l22.416,4.766
		c0.479-2.266,0.902-4.551,1.264-6.857L529,391.184C528.699,393.092,528.349,394.984,527.952,396.859z"/>
	<path fill="#CD311F" stroke="#9FA0A0" stroke-miterlimit="10" d="M310.414,385.457l-22.789,2.396
		c0.242,2.322,0.545,4.627,0.904,6.912l22.633-3.584C310.865,389.289,310.614,387.381,310.414,385.457z"/>
	<path fill="#62B65D" stroke="#9FA0A0" stroke-miterlimit="10" d="M530.346,373.932c0,1.936-0.051,3.859-0.149,5.771l22.882,1.197
		c0.119-2.309,0.181-4.631,0.181-6.969H530.346z"/>
	<path fill="#F8F6BC" stroke="#9FA0A0" stroke-miterlimit="10" d="M342.112,295.961c1.36-1.361,2.759-2.683,4.189-3.971
		l-15.332-17.027c-1.727,1.556-3.417,3.152-5.06,4.795c0,0,0,0,0,0L342.112,295.961z"/>
	<path fill="#62B65D" stroke="#9FA0A0" stroke-miterlimit="10" d="M526.607,402.475l22.137,5.932c0.598-2.238,1.141-4.5,1.624-6.781
		l-22.416-4.766C527.553,398.75,527.103,400.621,526.607,402.475z"/>
	<path fill="#F8DB84" stroke="#9FA0A0" stroke-miterlimit="10" d="M512.562,433.99l19.219,12.479
		c1.266-1.945,2.486-3.924,3.652-5.939l-19.847-11.457C514.621,430.74,513.61,432.379,512.562,433.99z"/>
	<path fill="#F8DB84" stroke="#9FA0A0" stroke-miterlimit="10" d="M505.77,443.32l17.807,14.42c1.463-1.805,2.879-3.648,4.248-5.529
		l-18.538-13.467C508.153,440.301,506.981,441.826,505.77,443.32z"/>
	<path fill="#F8DB84" stroke="#9FA0A0" stroke-miterlimit="10" d="M515.586,429.072l19.847,11.457
		c1.162-2.008,2.275-4.051,3.334-6.125L518.347,424C517.471,425.717,516.548,427.408,515.586,429.072z"/>
	<path fill="#F8F6BC" stroke="#9FA0A0" stroke-miterlimit="10" d="M509.286,438.744l18.538,13.467
		c1.367-1.877,2.687-3.791,3.956-5.742l-19.219-12.479C511.511,435.604,510.418,437.188,509.286,438.744z"/>
	<path fill="#CD311F" stroke="#9FA0A0" stroke-miterlimit="10" d="M524.97,408.012l21.796,7.082
		c0.716-2.205,1.376-4.434,1.979-6.688l-22.137-5.932C526.109,404.34,525.562,406.186,524.97,408.012z"/>
	<path fill="#F8DB84" stroke="#9FA0A0" stroke-miterlimit="10" d="M523.042,413.455l21.396,8.213
		c0.831-2.164,1.607-4.357,2.327-6.574l-21.796-7.082C524.373,409.848,523.73,411.662,523.042,413.455z"/>
	<path fill="#D0E286" stroke="#9FA0A0" stroke-miterlimit="10" d="M518.347,424l20.42,10.404c1.056-2.066,2.055-4.166,3.003-6.295
		l-20.937-9.32C520.047,420.551,519.221,422.289,518.347,424z"/>
	<path fill="#CD311F" stroke="#9FA0A0" stroke-miterlimit="10" d="M498.05,451.9c-1.36,1.359-2.76,2.682-4.19,3.971l15.332,17.027
		c1.728-1.557,3.417-3.152,5.061-4.795c0.001,0,0.001-0.002,0.001-0.002L498.05,451.9z"/>
	<path fill="#F8DB84" stroke="#9FA0A0" stroke-miterlimit="10" d="M342.112,451.9l-16.202,16.201c1.643,1.645,3.333,3.24,5.06,4.797
		l15.332-17.027C344.872,454.582,343.473,453.26,342.112,451.9z"/>
	<path fill="#F8DB84" stroke="#9FA0A0" stroke-miterlimit="10" d="M338.141,447.711l-17.027,15.33
		c1.556,1.729,3.152,3.418,4.796,5.061l16.202-16.201C340.751,450.539,339.43,449.141,338.141,447.711z"/>
	<path fill="#F8DB84" stroke="#9FA0A0" stroke-miterlimit="10" d="M346.302,455.871l-15.332,17.027
		c1.727,1.555,3.496,3.062,5.302,4.527l14.42-17.807C349.196,458.408,347.731,457.158,346.302,455.871z"/>
	<path fill="#CD311F" stroke="#9FA0A0" stroke-miterlimit="10" d="M311.163,391.182l-22.633,3.584
		c0.362,2.307,0.786,4.592,1.265,6.859l22.416-4.766C311.813,394.984,311.462,393.092,311.163,391.182z"/>
	<path fill="#EA6B3C" stroke="#9FA0A0" stroke-miterlimit="10" d="M313.554,402.475l-22.136,5.932
		c0.602,2.252,1.263,4.482,1.979,6.688l21.795-7.082C314.6,406.186,314.053,404.34,313.554,402.475z"/>
	<path fill="#9FCC65" d="M334.392,443.32l-17.807,14.42c1.464,1.807,2.973,3.574,4.528,5.301l17.027-15.33
		C336.854,446.281,335.604,444.816,334.392,443.32z"/>
	<path fill="#D0E286" stroke="#9FA0A0" stroke-miterlimit="10" d="M350.691,459.619l-14.42,17.807
		c1.805,1.463,3.648,2.881,5.529,4.248l13.468-18.537C353.712,462.004,352.186,460.83,350.691,459.619z"/>
	<path fill="#F8DB84" stroke="#9FA0A0" stroke-miterlimit="10" d="M355.269,463.137l-13.468,18.537
		c1.877,1.367,3.791,2.688,5.741,3.957l12.48-19.219C358.408,465.361,356.824,464.268,355.269,463.137z"/>
	<path fill="#9FCC65" d="M324.576,429.072l-19.846,11.457c1.166,2.016,2.386,3.994,3.652,5.939l19.218-12.48
		C326.551,432.377,325.541,430.74,324.576,429.072z"/>
	<path fill="#9FCC65" d="M321.815,424l-20.42,10.404c1.059,2.074,2.172,4.117,3.335,6.125l19.846-11.457
		C323.613,427.408,322.692,425.717,321.815,424z"/>
	<path fill="#EA6B3C" stroke="#9FA0A0" stroke-miterlimit="10" d="M319.329,418.789l-20.936,9.32
		c0.949,2.129,1.947,4.229,3.002,6.295L321.815,424C320.941,422.289,320.114,420.551,319.329,418.789z"/>
	<path fill="#9FCC65" d="M330.875,438.742l-18.538,13.469c1.369,1.881,2.785,3.725,4.248,5.529l17.807-14.42
		C333.181,441.826,332.008,440.301,330.875,438.742z"/>
	<path fill="#9FCC65" d="M327.6,433.988l-19.218,12.48c1.269,1.951,2.589,3.865,3.956,5.742l18.538-13.469
		C329.743,437.188,328.65,435.604,327.6,433.988z"/>
	<path fill="#EA6B3C" stroke="#9FA0A0" stroke-miterlimit="10" d="M315.192,408.012l-21.795,7.082
		c0.72,2.217,1.495,4.408,2.327,6.574l21.396-8.213C316.431,411.662,315.789,409.848,315.192,408.012z"/>
	<path fill="#CD311F" stroke="#9FA0A0" stroke-miterlimit="10" d="M364.94,469.436l-11.459,19.848
		c2.01,1.162,4.051,2.275,6.125,3.334l10.405-20.42C368.294,471.32,366.604,470.398,364.94,469.436z"/>
	<path fill="#F8F6BC" stroke="#9FA0A0" stroke-miterlimit="10" d="M386,478.818l-7.082,21.797c2.205,0.717,4.434,1.377,6.688,1.979
		l5.932-22.137C389.671,479.959,387.826,479.412,386,478.818z"/>
	<path fill="#EA6B3C" stroke="#9FA0A0" stroke-miterlimit="10" d="M391.537,480.457l-5.932,22.137
		c2.238,0.6,4.499,1.143,6.782,1.625l4.764-22.418C395.262,481.402,393.39,480.953,391.537,480.457z"/>
	<path fill="#F8F6BC" stroke="#9FA0A0" stroke-miterlimit="10" d="M375.223,474.682l-9.322,20.938
		c2.119,0.945,4.267,1.834,6.442,2.67l8.213-21.396C378.756,476.201,376.977,475.465,375.223,474.682z"/>
	<path fill="#F8F6BC" stroke="#9FA0A0" stroke-miterlimit="10" d="M380.557,476.893l-8.213,21.396
		c2.165,0.832,4.357,1.607,6.575,2.326L386,478.818C384.164,478.223,382.349,477.58,380.557,476.893z"/>
	<path fill="#EA6B3C" stroke="#9FA0A0" stroke-miterlimit="10" d="M402.829,482.85l-3.585,22.633
		c2.286,0.359,4.591,0.664,6.915,0.904l2.395-22.789C406.63,483.396,404.722,483.146,402.829,482.85z"/>
	<path fill="#EA6B3C" stroke="#9FA0A0" stroke-miterlimit="10" d="M408.554,483.598l-2.395,22.789c2.3,0.24,4.617,0.422,6.952,0.543
		l1.199-22.885C412.377,483.945,410.458,483.795,408.554,483.598z"/>
	<path fill="#EA6B3C" stroke="#9FA0A0" stroke-miterlimit="10" d="M397.152,481.801l-4.764,22.418
		c2.265,0.479,4.55,0.902,6.856,1.264l3.585-22.633C400.92,482.549,399.028,482.197,397.152,481.801z"/>
	<path fill="#EA6B3C" stroke="#9FA0A0" stroke-miterlimit="10" d="M312.21,396.859l-22.416,4.766
		c0.483,2.281,1.026,4.543,1.624,6.781l22.136-5.932C313.059,400.621,312.609,398.75,312.21,396.859z"/>
	<path fill="#EA6B3C" stroke="#9FA0A0" stroke-miterlimit="10" d="M414.309,484.045l-1.199,22.885c2.308,0.119,4.632,0.18,6.97,0.18
		v-22.914C418.145,484.195,416.221,484.145,414.309,484.045z"/>
	<path fill="#CD311F" stroke="#9FA0A0" stroke-miterlimit="10" d="M360.022,466.412l-12.48,19.219
		c1.946,1.266,3.925,2.486,5.939,3.652l11.459-19.848C363.272,468.471,361.634,467.461,360.022,466.412z"/>
	<path fill="#CD311F" stroke="#9FA0A0" stroke-miterlimit="10" d="M317.119,413.455l-21.396,8.213
		c0.835,2.174,1.724,4.324,2.669,6.441l20.936-9.32C318.547,417.035,317.811,415.256,317.119,413.455z"/>
	<path fill="#CD311F" stroke="#9FA0A0" stroke-miterlimit="10" d="M370.012,472.197l-10.405,20.42
		c2.066,1.055,4.167,2.053,6.294,3.002l9.322-20.938C373.461,473.896,371.723,473.07,370.012,472.197z"/>
</g>
<text transform="matrix(1 0 0 1 402.8296 282.29)" font-family="'ArialMT'" font-size="14">00:00</text>
<text transform="matrix(1 0 0 1 489.6484 370.4463)" font-family="'ArialMT'" font-size="14">06:00</text>
<text transform="matrix(1 0 0 1 403.8979 477.4258)" font-family="'ArialMT'" font-size="14">12:00</text>
<text transform="matrix(1 0 0 1 316.1636 370.4463)" font-family="'ArialMT'" font-size="14">18:00</text>
</svg>
