<?xml version="1.0" encoding="utf-8"?>
<!-- Generator: Adobe Illustrator 16.0.0, SVG Export Plug-In . SVG Version: 6.00 Build 0)  -->
<!DOCTYPE svg PUBLIC "-//W3C//DTD SVG 1.1//EN" "http://www.w3.org/Graphics/SVG/1.1/DTD/svg11.dtd">
<svg version="1.1" id="图层_1" xmlns="http://www.w3.org/2000/svg" xmlns:xlink="http://www.w3.org/1999/xlink" x="0px" y="0px"
	 width="841.89px" height="595.28px" viewBox="0 0 841.89 595.28" enable-background="new 0 0 841.89 595.28" xml:space="preserve">
<g>
	<g>
		<path fill="#3688A1" d="M293.398,203.803c3.074,0,5.564-2.493,5.564-5.561c0-3.067-2.49-5.556-5.564-5.556
			c-3.067,0-5.553,2.489-5.553,5.556C287.845,201.31,290.331,203.803,293.398,203.803z M306.1,210.94c0-2.802-2.271-5.07-5.069-5.07
			h-15.618c-2.794,0-5.065,2.268-5.065,5.07l0.017,20.462c0,1.224,0.988,2.215,2.208,2.215c1.222,0,2.211-0.992,2.211-2.215V212.7
			h0.937v50.019c0,1.831,1.484,3.315,3.321,3.315c1.826,0,3.31-1.484,3.31-3.315v-27.388h1.813v27.38
			c0,1.836,1.484,3.324,3.322,3.324c1.823,0,3.309-1.488,3.309-3.324V212.7h0.893v18.627c0,1.225,0.989,2.219,2.214,2.219
			c1.226,0,2.213-0.994,2.213-2.219L306.1,210.94z"/>
	</g>
	<g>
		<path fill="#3688A1" d="M325.404,203.803c3.073,0,5.563-2.493,5.563-5.561c0-3.067-2.49-5.556-5.563-5.556
			c-3.067,0-5.553,2.489-5.553,5.556C319.851,201.31,322.337,203.803,325.404,203.803z M338.106,210.94
			c0-2.802-2.271-5.07-5.069-5.07h-15.618c-2.794,0-5.065,2.268-5.065,5.07l0.016,20.462c0,1.224,0.988,2.215,2.21,2.215
			c1.221,0,2.209-0.992,2.209-2.215V212.7h0.938v50.019c0,1.831,1.484,3.315,3.321,3.315c1.825,0,3.31-1.484,3.31-3.315v-27.388
			h1.813v27.38c0,1.836,1.484,3.324,3.321,3.324c1.824,0,3.309-1.488,3.309-3.324V212.7h0.893v18.627
			c0,1.225,0.989,2.219,2.214,2.219s2.214-0.994,2.214-2.219L338.106,210.94z"/>
	</g>
	<g>
		<path fill="#3688A1" d="M357.41,203.803c3.074,0,5.564-2.493,5.564-5.561c0-3.067-2.49-5.556-5.564-5.556
			c-3.067,0-5.553,2.489-5.553,5.556C351.857,201.31,354.343,203.803,357.41,203.803z M370.111,210.94c0-2.802-2.27-5.07-5.068-5.07
			h-15.618c-2.794,0-5.065,2.268-5.065,5.07l0.017,20.462c0,1.224,0.988,2.215,2.209,2.215c1.221,0,2.21-0.992,2.21-2.215V212.7
			h0.936v50.019c0,1.831,1.485,3.315,3.322,3.315c1.825,0,3.31-1.484,3.31-3.315v-27.388h1.813v27.38
			c0,1.836,1.484,3.324,3.321,3.324c1.826,0,3.31-1.488,3.31-3.324V212.7h0.892v18.627c0,1.225,0.989,2.219,2.214,2.219
			c1.225,0,2.213-0.994,2.213-2.219L370.111,210.94z"/>
	</g>
	<g>
		<path fill="#3688A1" d="M389.417,203.803c3.073,0,5.564-2.493,5.564-5.561c0-3.067-2.491-5.556-5.564-5.556
			c-3.067,0-5.553,2.489-5.553,5.556C383.864,201.31,386.35,203.803,389.417,203.803z M402.117,210.94c0-2.802-2.27-5.07-5.068-5.07
			h-15.618c-2.795,0-5.065,2.268-5.065,5.07l0.016,20.462c0,1.224,0.988,2.215,2.21,2.215c1.221,0,2.21-0.992,2.21-2.215V212.7
			h0.936v50.019c0,1.831,1.484,3.315,3.321,3.315c1.826,0,3.311-1.484,3.311-3.315v-27.388h1.812v27.38
			c0,1.836,1.484,3.324,3.321,3.324c1.827,0,3.31-1.488,3.31-3.324V212.7h0.893v18.627c0,1.225,0.989,2.219,2.214,2.219
			c1.224,0,2.213-0.994,2.213-2.219L402.117,210.94z"/>
	</g>
	<g>
		<path fill="#3688A1" d="M421.423,203.803c3.073,0,5.563-2.493,5.563-5.561c0-3.067-2.49-5.556-5.563-5.556
			c-3.066,0-5.553,2.489-5.553,5.556C415.87,201.31,418.357,203.803,421.423,203.803z M434.124,210.94
			c0-2.802-2.271-5.07-5.067-5.07h-15.619c-2.795,0-5.066,2.268-5.066,5.07l0.016,20.462c0,1.224,0.989,2.215,2.211,2.215
			c1.221,0,2.21-0.992,2.21-2.215V212.7h0.935v50.019c0,1.831,1.486,3.315,3.322,3.315c1.826,0,3.31-1.484,3.31-3.315v-27.388h1.813
			v27.38c0,1.836,1.483,3.324,3.321,3.324c1.824,0,3.31-1.488,3.31-3.324V212.7h0.892v18.627c0,1.225,0.99,2.219,2.215,2.219
			c1.224,0,2.214-0.994,2.214-2.219L434.124,210.94z"/>
	</g>
	<g>
		<path fill="#3688A1" d="M453.428,203.803c3.074,0,5.566-2.493,5.566-5.561c0-3.067-2.492-5.556-5.566-5.556
			c-3.065,0-5.551,2.489-5.551,5.556C447.877,201.31,450.362,203.803,453.428,203.803z M466.129,210.94
			c0-2.802-2.269-5.07-5.068-5.07h-15.618c-2.793,0-5.063,2.268-5.063,5.07l0.016,20.462c0,1.224,0.988,2.215,2.211,2.215
			c1.221,0,2.209-0.992,2.209-2.215V212.7h0.938v50.019c0,1.831,1.483,3.315,3.322,3.315c1.823,0,3.308-1.484,3.308-3.315v-27.388
			h1.812v27.38c0,1.836,1.486,3.324,3.321,3.324c1.827,0,3.311-1.488,3.311-3.324V212.7h0.893v18.627
			c0,1.225,0.987,2.219,2.213,2.219s2.216-0.994,2.216-2.219L466.129,210.94z"/>
	</g>
	<g>
		<path fill="#3688A1" d="M485.434,203.803c3.074,0,5.566-2.493,5.566-5.561c0-3.067-2.492-5.556-5.566-5.556
			c-3.065,0-5.551,2.489-5.551,5.556C479.883,201.31,482.368,203.803,485.434,203.803z M498.137,210.94
			c0-2.802-2.272-5.07-5.069-5.07h-15.618c-2.794,0-5.064,2.268-5.064,5.07l0.014,20.462c0,1.224,0.992,2.215,2.213,2.215
			s2.209-0.992,2.209-2.215V212.7h0.938v50.019c0,1.831,1.484,3.315,3.321,3.315c1.825,0,3.309-1.484,3.309-3.315v-27.388h1.813
			v27.38c0,1.836,1.485,3.324,3.319,3.324c1.828,0,3.312-1.488,3.312-3.324V212.7h0.892v18.627c0,1.225,0.988,2.219,2.213,2.219
			c1.226,0,2.215-0.994,2.215-2.219L498.137,210.94z"/>
	</g>
	<g>
		<path fill="#3688A1" d="M517.44,203.803c3.073,0,5.566-2.493,5.566-5.561c0-3.067-2.493-5.556-5.566-5.556
			c-3.065,0-5.551,2.489-5.551,5.556C511.89,201.31,514.375,203.803,517.44,203.803z M530.144,210.94c0-2.802-2.272-5.07-5.07-5.07
			h-15.618c-2.794,0-5.063,2.268-5.063,5.07l0.014,20.462c0,1.224,0.992,2.215,2.213,2.215s2.209-0.992,2.209-2.215V212.7h0.938
			v50.019c0,1.831,1.485,3.315,3.319,3.315c1.826,0,3.311-1.484,3.311-3.315v-27.388h1.812v27.38c0,1.836,1.486,3.324,3.32,3.324
			c1.828,0,3.312-1.488,3.312-3.324V212.7h0.893v18.627c0,1.225,0.989,2.219,2.212,2.219c1.227,0,2.216-0.994,2.216-2.219
			L530.144,210.94z"/>
	</g>
	<g>
		<path fill="#54B395" d="M549.447,203.803c3.073,0,5.564-2.493,5.564-5.561c0-3.067-2.491-5.556-5.564-5.556
			c-3.067,0-5.552,2.489-5.552,5.556C543.896,201.31,546.38,203.803,549.447,203.803z M562.148,210.94
			c0-2.802-2.271-5.07-5.068-5.07h-15.618c-2.794,0-5.065,2.268-5.065,5.07l0.016,20.462c0,1.224,0.992,2.215,2.213,2.215
			s2.208-0.992,2.208-2.215V212.7h0.938v50.019c0,1.831,1.486,3.315,3.32,3.315c1.826,0,3.311-1.484,3.311-3.315v-27.388h1.812
			v27.38c0,1.836,1.485,3.324,3.32,3.324c1.827,0,3.312-1.488,3.312-3.324V212.7h0.892v18.627c0,1.225,0.989,2.219,2.212,2.219
			c1.227,0,2.217-0.994,2.217-2.219L562.148,210.94z"/>
	</g>
	<g>
		<path fill="#54B395" d="M581.453,203.803c3.075,0,5.565-2.493,5.565-5.561c0-3.067-2.49-5.556-5.565-5.556
			c-3.066,0-5.551,2.489-5.551,5.556C575.902,201.31,578.387,203.803,581.453,203.803z M594.155,210.94
			c0-2.802-2.272-5.07-5.07-5.07h-15.618c-2.793,0-5.063,2.268-5.063,5.07l0.015,20.462c0,1.224,0.991,2.215,2.212,2.215
			s2.21-0.992,2.21-2.215V212.7h0.937v50.019c0,1.831,1.486,3.315,3.32,3.315c1.825,0,3.31-1.484,3.31-3.315v-27.388h1.812v27.38
			c0,1.836,1.487,3.324,3.321,3.324c1.827,0,3.31-1.488,3.31-3.324V212.7h0.895v18.627c0,1.225,0.989,2.219,2.212,2.219
			c1.227,0,2.216-0.994,2.216-2.219L594.155,210.94z"/>
	</g>
	<g>
		<path fill="#54B395" d="M293.398,283.744c3.074,0,5.564-2.491,5.564-5.559c0-3.068-2.49-5.555-5.564-5.555
			c-3.067,0-5.553,2.487-5.553,5.555C287.845,281.253,290.331,283.744,293.398,283.744z M306.1,290.883
			c0-2.803-2.271-5.07-5.069-5.07h-15.618c-2.794,0-5.065,2.267-5.065,5.07l0.017,20.461c0,1.223,0.988,2.215,2.208,2.215
			c1.222,0,2.211-0.992,2.211-2.215v-18.701h0.937v50.018c0,1.831,1.484,3.317,3.321,3.317c1.826,0,3.31-1.486,3.31-3.317v-27.389
			h1.813v27.382c0,1.835,1.484,3.324,3.322,3.324c1.823,0,3.309-1.489,3.309-3.324v-50.011h0.893v18.627
			c0,1.226,0.989,2.219,2.214,2.219c1.226,0,2.213-0.993,2.213-2.219L306.1,290.883z"/>
	</g>
	<g>
		<path fill="#54B395" d="M325.404,283.744c3.073,0,5.563-2.491,5.563-5.559c0-3.068-2.49-5.555-5.563-5.555
			c-3.067,0-5.553,2.487-5.553,5.555C319.851,281.253,322.337,283.744,325.404,283.744z M338.106,290.883
			c0-2.803-2.271-5.07-5.069-5.07h-15.618c-2.794,0-5.065,2.267-5.065,5.07l0.016,20.461c0,1.223,0.988,2.215,2.21,2.215
			c1.221,0,2.209-0.992,2.209-2.215v-18.701h0.938v50.018c0,1.831,1.484,3.317,3.321,3.317c1.825,0,3.31-1.486,3.31-3.317v-27.389
			h1.813v27.382c0,1.835,1.484,3.324,3.321,3.324c1.824,0,3.309-1.489,3.309-3.324v-50.011h0.893v18.627
			c0,1.226,0.989,2.219,2.214,2.219s2.214-0.993,2.214-2.219L338.106,290.883z"/>
	</g>
	<g>
		<path fill="#54B395" d="M357.41,283.744c3.074,0,5.564-2.491,5.564-5.559c0-3.068-2.49-5.555-5.564-5.555
			c-3.067,0-5.553,2.487-5.553,5.555C351.857,281.253,354.343,283.744,357.41,283.744z M370.111,290.883
			c0-2.803-2.27-5.07-5.068-5.07h-15.618c-2.794,0-5.065,2.267-5.065,5.07l0.017,20.461c0,1.223,0.988,2.215,2.209,2.215
			c1.221,0,2.21-0.992,2.21-2.215v-18.701h0.936v50.018c0,1.831,1.485,3.317,3.322,3.317c1.825,0,3.31-1.486,3.31-3.317v-27.389
			h1.813v27.382c0,1.835,1.484,3.324,3.321,3.324c1.826,0,3.31-1.489,3.31-3.324v-50.011h0.892v18.627
			c0,1.226,0.989,2.219,2.214,2.219c1.225,0,2.213-0.993,2.213-2.219L370.111,290.883z"/>
	</g>
	<g>
		<path fill="#54B395" d="M389.417,283.744c3.073,0,5.564-2.491,5.564-5.559c0-3.068-2.491-5.555-5.564-5.555
			c-3.067,0-5.553,2.487-5.553,5.555C383.864,281.253,386.35,283.744,389.417,283.744z M402.117,290.883
			c0-2.803-2.27-5.07-5.068-5.07h-15.618c-2.795,0-5.065,2.267-5.065,5.07l0.016,20.461c0,1.223,0.988,2.215,2.21,2.215
			c1.221,0,2.21-0.992,2.21-2.215v-18.701h0.936v50.018c0,1.831,1.484,3.317,3.321,3.317c1.826,0,3.311-1.486,3.311-3.317v-27.389
			h1.812v27.382c0,1.835,1.484,3.324,3.321,3.324c1.827,0,3.31-1.489,3.31-3.324v-50.011h0.893v18.627
			c0,1.226,0.989,2.219,2.214,2.219c1.224,0,2.213-0.993,2.213-2.219L402.117,290.883z"/>
	</g>
	<g>
		<path fill="#54B395" d="M421.423,283.744c3.073,0,5.563-2.491,5.563-5.559c0-3.068-2.49-5.555-5.563-5.555
			c-3.066,0-5.553,2.487-5.553,5.555C415.87,281.253,418.357,283.744,421.423,283.744z M434.124,290.883
			c0-2.803-2.271-5.07-5.067-5.07h-15.619c-2.795,0-5.066,2.267-5.066,5.07l0.016,20.461c0,1.223,0.989,2.215,2.211,2.215
			c1.221,0,2.21-0.992,2.21-2.215v-18.701h0.935v50.018c0,1.831,1.486,3.317,3.322,3.317c1.826,0,3.31-1.486,3.31-3.317v-27.389
			h1.813v27.382c0,1.835,1.483,3.324,3.321,3.324c1.824,0,3.31-1.489,3.31-3.324v-50.011h0.892v18.627
			c0,1.226,0.99,2.219,2.215,2.219c1.224,0,2.214-0.993,2.214-2.219L434.124,290.883z"/>
	</g>
	<g>
		<path fill="#EA883B" d="M453.428,283.744c3.074,0,5.566-2.491,5.566-5.559c0-3.068-2.492-5.555-5.566-5.555
			c-3.065,0-5.551,2.487-5.551,5.555C447.877,281.253,450.362,283.744,453.428,283.744z M466.129,290.883
			c0-2.803-2.269-5.07-5.068-5.07h-15.618c-2.793,0-5.063,2.267-5.063,5.07l0.016,20.461c0,1.223,0.988,2.215,2.211,2.215
			c1.221,0,2.209-0.992,2.209-2.215v-18.701h0.938v50.018c0,1.831,1.483,3.317,3.322,3.317c1.823,0,3.308-1.486,3.308-3.317v-27.389
			h1.812v27.382c0,1.835,1.486,3.324,3.321,3.324c1.827,0,3.311-1.489,3.311-3.324v-50.011h0.893v18.627
			c0,1.226,0.987,2.219,2.213,2.219s2.216-0.993,2.216-2.219L466.129,290.883z"/>
	</g>
	<g>
		<path fill="#EA883B" d="M485.434,283.744c3.074,0,5.566-2.491,5.566-5.559c0-3.068-2.492-5.555-5.566-5.555
			c-3.065,0-5.551,2.487-5.551,5.555C479.883,281.253,482.368,283.744,485.434,283.744z M498.137,290.883
			c0-2.803-2.272-5.07-5.069-5.07h-15.618c-2.794,0-5.064,2.267-5.064,5.07l0.014,20.461c0,1.223,0.992,2.215,2.213,2.215
			s2.209-0.992,2.209-2.215v-18.701h0.938v50.018c0,1.831,1.484,3.317,3.321,3.317c1.825,0,3.309-1.486,3.309-3.317v-27.389h1.813
			v27.382c0,1.835,1.485,3.324,3.319,3.324c1.828,0,3.312-1.489,3.312-3.324v-50.011h0.892v18.627c0,1.226,0.988,2.219,2.213,2.219
			c1.226,0,2.215-0.993,2.215-2.219L498.137,290.883z"/>
	</g>
	<g>
		<path fill="#EA883B" d="M517.44,283.744c3.073,0,5.566-2.491,5.566-5.559c0-3.068-2.493-5.555-5.566-5.555
			c-3.065,0-5.551,2.487-5.551,5.555C511.89,281.253,514.375,283.744,517.44,283.744z M530.144,290.883
			c0-2.803-2.272-5.07-5.07-5.07h-15.618c-2.794,0-5.063,2.267-5.063,5.07l0.014,20.461c0,1.223,0.992,2.215,2.213,2.215
			s2.209-0.992,2.209-2.215v-18.701h0.938v50.018c0,1.831,1.485,3.317,3.319,3.317c1.826,0,3.311-1.486,3.311-3.317v-27.389h1.812
			v27.382c0,1.835,1.486,3.324,3.32,3.324c1.828,0,3.312-1.489,3.312-3.324v-50.011h0.893v18.627c0,1.226,0.989,2.219,2.212,2.219
			c1.227,0,2.216-0.993,2.216-2.219L530.144,290.883z"/>
	</g>
	<g>
		<path fill="#EA883B" d="M549.447,283.744c3.073,0,5.564-2.491,5.564-5.559c0-3.068-2.491-5.555-5.564-5.555
			c-3.067,0-5.552,2.487-5.552,5.555C543.896,281.253,546.38,283.744,549.447,283.744z M562.148,290.883
			c0-2.803-2.271-5.07-5.068-5.07h-15.618c-2.794,0-5.065,2.267-5.065,5.07l0.016,20.461c0,1.223,0.992,2.215,2.213,2.215
			s2.208-0.992,2.208-2.215v-18.701h0.938v50.018c0,1.831,1.486,3.317,3.32,3.317c1.826,0,3.311-1.486,3.311-3.317v-27.389h1.812
			v27.382c0,1.835,1.485,3.324,3.32,3.324c1.827,0,3.312-1.489,3.312-3.324v-50.011h0.892v18.627c0,1.226,0.989,2.219,2.212,2.219
			c1.227,0,2.217-0.993,2.217-2.219L562.148,290.883z"/>
	</g>
	<g>
		<path fill="#EA883B" d="M581.453,283.744c3.075,0,5.565-2.491,5.565-5.559c0-3.068-2.49-5.555-5.565-5.555
			c-3.066,0-5.551,2.487-5.551,5.555C575.902,281.253,578.387,283.744,581.453,283.744z M594.155,290.883
			c0-2.803-2.272-5.07-5.07-5.07h-15.618c-2.793,0-5.063,2.267-5.063,5.07l0.015,20.461c0,1.223,0.991,2.215,2.212,2.215
			s2.21-0.992,2.21-2.215v-18.701h0.937v50.018c0,1.831,1.486,3.317,3.32,3.317c1.825,0,3.31-1.486,3.31-3.317v-27.389h1.812v27.382
			c0,1.835,1.487,3.324,3.321,3.324c1.827,0,3.31-1.489,3.31-3.324v-50.011h0.895v18.627c0,1.226,0.989,2.219,2.212,2.219
			c1.227,0,2.216-0.993,2.216-2.219L594.155,290.883z"/>
	</g>
	<g>
		<path fill="#EA883B" d="M293.398,363.688c3.074,0,5.564-2.49,5.564-5.561c0-3.065-2.49-5.555-5.564-5.555
			c-3.067,0-5.553,2.489-5.553,5.555C287.845,361.197,290.331,363.688,293.398,363.688z M306.1,370.826
			c0-2.803-2.271-5.07-5.069-5.07h-15.618c-2.794,0-5.065,2.268-5.065,5.07l0.017,20.462c0,1.223,0.988,2.212,2.208,2.212
			c1.222,0,2.211-0.989,2.211-2.212v-18.701h0.937v50.018c0,1.831,1.484,3.314,3.321,3.314c1.826,0,3.31-1.483,3.31-3.314v-27.389
			h1.813v27.381c0,1.835,1.484,3.322,3.322,3.322c1.823,0,3.309-1.487,3.309-3.322v-50.01h0.893v18.626
			c0,1.225,0.989,2.219,2.214,2.219c1.226,0,2.213-0.994,2.213-2.219L306.1,370.826z"/>
	</g>
	<g>
		<path fill="#E34B46" d="M325.404,363.688c3.073,0,5.563-2.49,5.563-5.561c0-3.065-2.49-5.555-5.563-5.555
			c-3.067,0-5.553,2.489-5.553,5.555C319.851,361.197,322.337,363.688,325.404,363.688z M338.106,370.826
			c0-2.803-2.271-5.07-5.069-5.07h-15.618c-2.794,0-5.065,2.268-5.065,5.07l0.016,20.462c0,1.223,0.988,2.212,2.21,2.212
			c1.221,0,2.209-0.989,2.209-2.212v-18.701h0.938v50.018c0,1.831,1.484,3.314,3.321,3.314c1.825,0,3.31-1.483,3.31-3.314v-27.389
			h1.813v27.381c0,1.835,1.484,3.322,3.321,3.322c1.824,0,3.309-1.487,3.309-3.322v-50.01h0.893v18.626
			c0,1.225,0.989,2.219,2.214,2.219s2.214-0.994,2.214-2.219L338.106,370.826z"/>
	</g>
	<g>
		<path fill="#E34B46" d="M357.41,363.688c3.074,0,5.564-2.49,5.564-5.561c0-3.065-2.49-5.555-5.564-5.555
			c-3.067,0-5.553,2.489-5.553,5.555C351.857,361.197,354.343,363.688,357.41,363.688z M370.111,370.826
			c0-2.803-2.27-5.07-5.068-5.07h-15.618c-2.794,0-5.065,2.268-5.065,5.07l0.017,20.462c0,1.223,0.988,2.212,2.209,2.212
			c1.221,0,2.21-0.989,2.21-2.212v-18.701h0.936v50.018c0,1.831,1.485,3.314,3.322,3.314c1.825,0,3.31-1.483,3.31-3.314v-27.389
			h1.813v27.381c0,1.835,1.484,3.322,3.321,3.322c1.826,0,3.31-1.487,3.31-3.322v-50.01h0.892v18.626
			c0,1.225,0.989,2.219,2.214,2.219c1.225,0,2.213-0.994,2.213-2.219L370.111,370.826z"/>
	</g>
	<g>
		<path fill="#E34B46" d="M389.417,363.688c3.073,0,5.564-2.49,5.564-5.561c0-3.065-2.491-5.555-5.564-5.555
			c-3.067,0-5.553,2.489-5.553,5.555C383.864,361.197,386.35,363.688,389.417,363.688z M402.117,370.826
			c0-2.803-2.27-5.07-5.068-5.07h-15.618c-2.795,0-5.065,2.268-5.065,5.07l0.016,20.462c0,1.223,0.988,2.212,2.21,2.212
			c1.221,0,2.21-0.989,2.21-2.212v-18.701h0.936v50.018c0,1.831,1.484,3.314,3.321,3.314c1.826,0,3.311-1.483,3.311-3.314v-27.389
			h1.812v27.381c0,1.835,1.484,3.322,3.321,3.322c1.827,0,3.31-1.487,3.31-3.322v-50.01h0.893v18.626
			c0,1.225,0.989,2.219,2.214,2.219c1.224,0,2.213-0.994,2.213-2.219L402.117,370.826z"/>
	</g>
	<g>
		<path fill="#E34B46" d="M421.423,363.688c3.073,0,5.563-2.49,5.563-5.561c0-3.065-2.49-5.555-5.563-5.555
			c-3.066,0-5.553,2.489-5.553,5.555C415.87,361.197,418.357,363.688,421.423,363.688z M434.124,370.826
			c0-2.803-2.271-5.07-5.067-5.07h-15.619c-2.795,0-5.066,2.268-5.066,5.07l0.016,20.462c0,1.223,0.989,2.212,2.211,2.212
			c1.221,0,2.21-0.989,2.21-2.212v-18.701h0.935v50.018c0,1.831,1.486,3.314,3.322,3.314c1.826,0,3.31-1.483,3.31-3.314v-27.389
			h1.813v27.381c0,1.835,1.483,3.322,3.321,3.322c1.824,0,3.31-1.487,3.31-3.322v-50.01h0.892v18.626
			c0,1.225,0.99,2.219,2.215,2.219c1.224,0,2.214-0.994,2.214-2.219L434.124,370.826z"/>
	</g>
	<g>
		<path fill="#E34B46" d="M453.428,363.688c3.074,0,5.566-2.49,5.566-5.561c0-3.065-2.492-5.555-5.566-5.555
			c-3.065,0-5.551,2.489-5.551,5.555C447.877,361.197,450.362,363.688,453.428,363.688z M466.129,370.826
			c0-2.803-2.269-5.07-5.068-5.07h-15.618c-2.793,0-5.063,2.268-5.063,5.07l0.016,20.462c0,1.223,0.988,2.212,2.211,2.212
			c1.221,0,2.209-0.989,2.209-2.212v-18.701h0.938v50.018c0,1.831,1.483,3.314,3.322,3.314c1.823,0,3.308-1.483,3.308-3.314v-27.389
			h1.812v27.381c0,1.835,1.486,3.322,3.321,3.322c1.827,0,3.311-1.487,3.311-3.322v-50.01h0.893v18.626
			c0,1.225,0.987,2.219,2.213,2.219s2.216-0.994,2.216-2.219L466.129,370.826z"/>
	</g>
	<g>
		<path fill="#7F5E9B" d="M485.434,363.688c3.074,0,5.566-2.49,5.566-5.561c0-3.065-2.492-5.555-5.566-5.555
			c-3.065,0-5.551,2.489-5.551,5.555C479.883,361.197,482.368,363.688,485.434,363.688z M498.137,370.826
			c0-2.803-2.272-5.07-5.069-5.07h-15.618c-2.794,0-5.064,2.268-5.064,5.07l0.014,20.462c0,1.223,0.992,2.212,2.213,2.212
			s2.209-0.989,2.209-2.212v-18.701h0.938v50.018c0,1.831,1.484,3.314,3.321,3.314c1.825,0,3.309-1.483,3.309-3.314v-27.389h1.813
			v27.381c0,1.835,1.485,3.322,3.319,3.322c1.828,0,3.312-1.487,3.312-3.322v-50.01h0.892v18.626c0,1.225,0.988,2.219,2.213,2.219
			c1.226,0,2.215-0.994,2.215-2.219L498.137,370.826z"/>
	</g>
	<g>
		<path fill="#7F5E9B" d="M517.44,363.688c3.073,0,5.566-2.49,5.566-5.561c0-3.065-2.493-5.555-5.566-5.555
			c-3.065,0-5.551,2.489-5.551,5.555C511.89,361.197,514.375,363.688,517.44,363.688z M530.144,370.826
			c0-2.803-2.272-5.07-5.07-5.07h-15.618c-2.794,0-5.063,2.268-5.063,5.07l0.014,20.462c0,1.223,0.992,2.212,2.213,2.212
			s2.209-0.989,2.209-2.212v-18.701h0.938v50.018c0,1.831,1.485,3.314,3.319,3.314c1.826,0,3.311-1.483,3.311-3.314v-27.389h1.812
			v27.381c0,1.835,1.486,3.322,3.32,3.322c1.828,0,3.312-1.487,3.312-3.322v-50.01h0.893v18.626c0,1.225,0.989,2.219,2.212,2.219
			c1.227,0,2.216-0.994,2.216-2.219L530.144,370.826z"/>
	</g>
	<g>
		<path fill="#7F5E9B" d="M549.447,363.688c3.073,0,5.564-2.49,5.564-5.561c0-3.065-2.491-5.555-5.564-5.555
			c-3.067,0-5.552,2.489-5.552,5.555C543.896,361.197,546.38,363.688,549.447,363.688z M562.148,370.826
			c0-2.803-2.271-5.07-5.068-5.07h-15.618c-2.794,0-5.065,2.268-5.065,5.07l0.016,20.462c0,1.223,0.992,2.212,2.213,2.212
			s2.208-0.989,2.208-2.212v-18.701h0.938v50.018c0,1.831,1.486,3.314,3.32,3.314c1.826,0,3.311-1.483,3.311-3.314v-27.389h1.812
			v27.381c0,1.835,1.485,3.322,3.32,3.322c1.827,0,3.312-1.487,3.312-3.322v-50.01h0.892v18.626c0,1.225,0.989,2.219,2.212,2.219
			c1.227,0,2.217-0.994,2.217-2.219L562.148,370.826z"/>
	</g>
	<g>
		<path fill="#7F5E9B" d="M581.453,363.688c3.075,0,5.565-2.49,5.565-5.561c0-3.065-2.49-5.555-5.565-5.555
			c-3.066,0-5.551,2.489-5.551,5.555C575.902,361.197,578.387,363.688,581.453,363.688z M594.155,370.826
			c0-2.803-2.272-5.07-5.07-5.07h-15.618c-2.793,0-5.063,2.268-5.063,5.07l0.015,20.462c0,1.223,0.991,2.212,2.212,2.212
			s2.21-0.989,2.21-2.212v-18.701h0.937v50.018c0,1.831,1.486,3.314,3.32,3.314c1.825,0,3.31-1.483,3.31-3.314v-27.389h1.812v27.381
			c0,1.835,1.487,3.322,3.321,3.322c1.827,0,3.31-1.487,3.31-3.322v-50.01h0.895v18.626c0,1.225,0.989,2.219,2.212,2.219
			c1.227,0,2.216-0.994,2.216-2.219L594.155,370.826z"/>
	</g>
</g>
</svg>
