<?xml version="1.0" encoding="utf-8"?>
<!-- Generator: Adobe Illustrator 16.0.0, SVG Export Plug-In . SVG Version: 6.00 Build 0)  -->
<!DOCTYPE svg PUBLIC "-//W3C//DTD SVG 1.1//EN" "http://www.w3.org/Graphics/SVG/1.1/DTD/svg11.dtd">
<svg version="1.1" id="图层_3" xmlns="http://www.w3.org/2000/svg" xmlns:xlink="http://www.w3.org/1999/xlink" x="0px" y="0px"
	 width="841.891px" height="595.279px" viewBox="0 0 841.891 595.279" enable-background="new 0 0 841.891 595.279"
	 xml:space="preserve">
<path fill="#F6E469" stroke="#1D1D1B" stroke-width="0.3655" stroke-miterlimit="10" d="M285.86,291.288
	c-1.201-0.777-2.403-1.557-3.602-2.335c0.522-2.377,1.043-4.754,1.561-7.132c0.158-0.729-0.689-1.196-1.236-0.712
	c-1.742,1.541-3.473,3.092-5.193,4.658c-1.521-1.041-3.045-2.061-4.917-2.266c-0.599-0.064-1.019,0.745-0.702,1.22
	c0.864,1.296,1.681,2.616,2.465,3.953c-1.442,1.349-2.876,2.709-4.285,4.097c-0.453,0.444,0.106,1.082,0.602,0.871
	c0.119,0.378,0.479,0.666,0.983,0.534c1.706-0.445,3.42-0.784,5.146-1.023c0.786,1.553,1.529,3.128,2.224,4.73
	c0.273,0.631,1.289,0.432,1.425-0.19c0.363-1.643,0.725-3.282,1.086-4.922c1.341-0.039,2.686-0.021,4.038,0.064
	C286.326,292.892,286.499,291.705,285.86,291.288z"/>
<path fill="#F6E469" stroke="#1D1D1B" stroke-width="0.3655" stroke-miterlimit="10" d="M267.903,284.258
	c-1.201-0.78-2.403-1.559-3.602-2.337c0.522-2.377,1.043-4.753,1.561-7.132c0.159-0.729-0.688-1.196-1.235-0.712
	c-1.742,1.541-3.473,3.093-5.194,4.658c-1.522-1.04-3.045-2.061-4.917-2.266c-0.6-0.064-1.019,0.745-0.702,1.221
	c0.863,1.296,1.68,2.615,2.465,3.953c-1.444,1.349-2.877,2.707-4.286,4.095c-0.454,0.445,0.105,1.083,0.603,0.872
	c0.12,0.378,0.479,0.666,0.982,0.534c1.706-0.444,3.42-0.784,5.146-1.023c0.787,1.554,1.529,3.128,2.224,4.731
	c0.273,0.63,1.289,0.431,1.425-0.19c0.363-1.643,0.724-3.283,1.086-4.923c1.34-0.038,2.686-0.021,4.037,0.065
	C268.369,285.859,268.541,284.673,267.903,284.258z"/>
<path fill="#F6E469" stroke="#1D1D1B" stroke-width="0.3655" stroke-miterlimit="10" d="M297.361,235.452
	c0.808,1.391,1.618,2.78,2.426,4.169c-1.729,2.117-3.457,4.236-5.183,6.36c-0.528,0.649,0.084,1.547,0.879,1.339
	c2.528-0.661,5.05-1.339,7.569-2.036c0.999,1.814,2.008,3.611,3.782,4.767c0.567,0.368,1.399-0.229,1.322-0.869
	c-0.208-1.737-0.358-3.475-0.465-5.213c2.131-0.62,4.257-1.257,6.374-1.934c0.68-0.216,0.443-1.139-0.162-1.179
	c0.072-0.441-0.142-0.912-0.713-1.036c-1.936-0.418-3.828-0.947-5.678-1.581c-0.001-1.956,0.053-3.914,0.169-5.872
	c0.046-0.771-1.074-1.087-1.526-0.532c-1.197,1.462-2.391,2.924-3.585,4.385c-1.363-0.643-2.703-1.342-4.015-2.114
	C297.707,233.608,296.931,234.711,297.361,235.452z"/>
<path fill="#F6E469" stroke="#1D1D1B" stroke-width="0.3655" stroke-miterlimit="10" d="M288.533,276.028
	c-0.686-1.257-1.371-2.514-2.057-3.77c1.59-1.843,3.18-3.684,4.767-5.53c0.486-0.564-0.037-1.378-0.75-1.213
	c-2.265,0.527-4.526,1.067-6.784,1.626c-0.844-1.64-1.698-3.261-3.247-4.332c-0.498-0.343-1.25,0.17-1.199,0.74
	c0.143,1.551,0.234,3.1,0.288,4.649c-1.911,0.5-3.818,1.013-5.719,1.562c-0.609,0.175-0.422,1.003,0.116,1.053
	c-0.076,0.39,0.104,0.814,0.609,0.938c1.712,0.42,3.381,0.937,5.013,1.547c-0.047,1.74-0.144,3.479-0.295,5.221
	c-0.06,0.686,0.929,0.992,1.344,0.51c1.1-1.271,2.199-2.543,3.297-3.812c1.198,0.604,2.371,1.259,3.521,1.978
	C288.181,277.66,288.898,276.698,288.533,276.028z"/>
<path fill="#F6E469" stroke="#1D1D1B" stroke-width="0.3655" stroke-miterlimit="10" d="M265.292,267.695
	c-1.202-0.779-2.402-1.559-3.603-2.338c0.522-2.376,1.044-4.753,1.562-7.132c0.159-0.729-0.688-1.194-1.236-0.711
	c-1.742,1.54-3.473,3.092-5.194,4.657c-1.522-1.039-3.044-2.06-4.917-2.265c-0.6-0.065-1.019,0.745-0.702,1.22
	c0.863,1.297,1.681,2.616,2.465,3.953c-1.442,1.349-2.877,2.708-4.286,4.096c-0.453,0.444,0.106,1.081,0.603,0.871
	c0.12,0.38,0.479,0.666,0.982,0.535c1.705-0.445,3.42-0.785,5.145-1.024c0.787,1.553,1.529,3.129,2.224,4.731
	c0.273,0.63,1.29,0.433,1.426-0.19c0.363-1.643,0.725-3.283,1.086-4.924c1.341-0.038,2.685-0.019,4.037,0.066
	C265.758,269.297,265.931,268.11,265.292,267.695z"/>
<path fill="#F6E469" stroke="#1D1D1B" stroke-width="0.3655" stroke-miterlimit="10" d="M232.787,255.617
	c1.41-0.246,2.82-0.494,4.23-0.74c1.235,2.097,2.47,4.193,3.71,6.288c0.38,0.642,1.318,0.407,1.389-0.319
	c0.227-2.315,0.439-4.63,0.634-6.947c1.823-0.274,3.634-0.563,5.144-1.688c0.484-0.359,0.24-1.238-0.316-1.371
	c-1.515-0.362-3.011-0.773-4.496-1.219c0.139-1.97,0.264-3.942,0.352-5.919c0.029-0.634-0.814-0.72-1.035-0.228
	c-0.345-0.196-0.804-0.163-1.084,0.276c-0.946,1.486-1.971,2.903-3.072,4.251c-1.633-0.601-3.25-1.25-4.85-1.953
	c-0.629-0.274-1.238,0.563-0.914,1.112c0.852,1.448,1.704,2.897,2.555,4.346c-0.956,0.939-1.953,1.841-3.002,2.699
	C231.353,254.76,232.036,255.748,232.787,255.617z"/>
<path fill="#F6E469" stroke="#1D1D1B" stroke-width="0.3655" stroke-miterlimit="10" d="M264.503,226.96
	c0.796,1.583,1.507,3.193,2.149,4.826c-1.788,1.278-3.578,2.553-5.368,3.834c-0.679,0.482-0.397,1.808,0.502,1.812
	c2.286,0.017,4.563,0.102,6.836,0.252c0.597,2.2,1.068,4.437,1.406,6.718c0.1,0.674,0.632,0.959,1.148,0.909
	c0.001,0.705,1.056,1.051,1.357,0.277c0.949-2.409,1.849-4.83,2.732-7.261c2.012,0.259,4.02,0.563,6.022,0.938
	c0.735,0.138,1.495-0.781,1.109-1.471c-1.206-2.147-3.216-3.457-5.25-4.756c1.002-2.875,1.981-5.754,2.942-8.642
	c0.303-0.907-0.694-1.688-1.49-1.124c-2.599,1.844-5.192,3.692-7.784,5.539c-1.553-1.044-3.107-2.091-4.662-3.138
	C265.328,225.121,263.987,225.938,264.503,226.96z"/>
<path fill="#F6E469" stroke="#1D1D1B" stroke-width="0.3655" stroke-miterlimit="10" d="M280.407,249.143
	c0.609,1.21,1.152,2.44,1.644,3.688c-1.368,0.976-2.735,1.952-4.103,2.93c-0.519,0.369-0.304,1.381,0.383,1.386
	c1.747,0.011,3.488,0.076,5.224,0.191c0.457,1.681,0.816,3.391,1.075,5.134c0.076,0.515,0.482,0.732,0.876,0.694
	c0.001,0.539,0.808,0.803,1.038,0.212c0.725-1.84,1.414-3.692,2.088-5.548c1.538,0.196,3.072,0.431,4.603,0.717
	c0.562,0.105,1.142-0.598,0.848-1.124c-0.922-1.643-2.458-2.642-4.012-3.635c0.765-2.197,1.514-4.398,2.249-6.604
	c0.231-0.693-0.53-1.29-1.138-0.858c-1.987,1.41-3.968,2.82-5.949,4.232c-1.188-0.798-2.375-1.599-3.562-2.396
	C281.038,247.737,280.013,248.361,280.407,249.143z"/>
<path fill="#F6E469" stroke="#1D1D1B" stroke-width="0.3655" stroke-miterlimit="10" d="M383.18,292.694
	c1.111,0.775,2.174,1.599,3.199,2.462c-0.739,1.51-1.477,3.019-2.214,4.529c-0.281,0.572,0.39,1.359,0.997,1.037
	c1.541-0.82,3.104-1.592,4.687-2.318c1.2,1.264,2.33,2.596,3.388,4.006c0.313,0.414,0.772,0.412,1.103,0.191
	c0.257,0.475,1.091,0.324,1.014-0.307c-0.239-1.965-0.515-3.92-0.805-5.873c1.446-0.56,2.907-1.082,4.39-1.56
	c0.544-0.176,0.72-1.068,0.21-1.392c-1.592-1.005-3.419-1.154-5.258-1.288c-0.372-2.297-0.76-4.588-1.165-6.878
	c-0.127-0.721-1.08-0.883-1.41-0.214c-1.077,2.184-2.148,4.368-3.218,6.554c-1.425-0.137-2.849-0.276-4.274-0.412
	C383.066,291.158,382.461,292.195,383.18,292.694z"/>
<path fill="#F6E469" stroke="#1D1D1B" stroke-width="0.3655" stroke-miterlimit="10" d="M284.495,225.583
	c1.112,0.776,2.175,1.6,3.2,2.463c-0.738,1.509-1.477,3.019-2.215,4.528c-0.28,0.571,0.39,1.361,0.997,1.037
	c1.542-0.82,3.104-1.592,4.686-2.317c1.202,1.261,2.332,2.595,3.389,4.005c0.313,0.416,0.774,0.414,1.103,0.193
	c0.258,0.474,1.091,0.321,1.014-0.308c-0.239-1.964-0.514-3.919-0.805-5.873c1.447-0.56,2.908-1.082,4.39-1.559
	c0.544-0.176,0.72-1.07,0.21-1.393c-1.591-1.005-3.418-1.154-5.257-1.288c-0.371-2.297-0.761-4.588-1.165-6.878
	c-0.127-0.72-1.082-0.882-1.41-0.214c-1.077,2.185-2.147,4.368-3.218,6.554c-1.426-0.138-2.85-0.276-4.275-0.413
	C284.381,224.048,283.777,225.084,284.495,225.583z"/>
<path fill="#F6E469" stroke="#1D1D1B" stroke-width="0.3655" stroke-miterlimit="10" d="M303.571,300.349
	c-0.72-1.34-1.369-2.705-1.959-4.091c1.506-1.14,3.012-2.276,4.517-3.418c0.572-0.43,0.3-1.562-0.473-1.544
	c-1.963,0.042-3.92,0.021-5.875-0.054c-0.564-1.873-1.021-3.783-1.366-5.734c-0.102-0.575-0.564-0.808-1.006-0.752
	c-0.018-0.605-0.931-0.877-1.172-0.207c-0.756,2.09-1.474,4.191-2.173,6.298c-1.733-0.174-3.464-0.39-5.192-0.664
	c-0.634-0.101-1.265,0.706-0.917,1.289c1.086,1.814,2.843,2.892,4.617,3.959c-0.792,2.49-1.564,4.985-2.321,7.487
	c-0.238,0.785,0.635,1.432,1.306,0.93c2.187-1.645,4.369-3.291,6.551-4.938c1.358,0.857,2.716,1.721,4.076,2.58
	C302.906,301.948,304.037,301.214,303.571,300.349z"/>
<path fill="#F6E469" stroke="#1D1D1B" stroke-width="0.3655" stroke-miterlimit="10" d="M306.154,271.26
	c-0.44-1.458-0.807-2.924-1.11-4.4c1.702-0.817,3.403-1.634,5.104-2.453c0.646-0.309,0.603-1.471-0.157-1.608
	c-1.932-0.348-3.847-0.755-5.746-1.217c-0.183-1.948-0.253-3.909-0.203-5.892c0.013-0.585-0.394-0.903-0.839-0.937
	c0.104-0.596-0.738-1.045-1.108-0.434c-1.156,1.897-2.274,3.815-3.378,5.74c-1.666-0.514-3.318-1.068-4.957-1.68
	c-0.602-0.225-1.38,0.441-1.155,1.081c0.705,1.995,2.213,3.397,3.742,4.797c-1.27,2.284-2.522,4.577-3.759,6.878
	c-0.389,0.724,0.339,1.53,1.095,1.169c2.469-1.178,4.935-2.358,7.4-3.542c1.161,1.112,2.321,2.227,3.483,3.341
	C305.185,272.694,306.44,272.201,306.154,271.26z"/>
<path fill="#F6E469" stroke="#1D1D1B" stroke-width="0.3655" stroke-miterlimit="10" d="M332.349,246.737
	c-1.349-0.876-2.699-1.751-4.048-2.627c0.587-2.67,1.174-5.341,1.754-8.014c0.179-0.818-0.773-1.343-1.389-0.798
	c-1.957,1.73-3.902,3.474-5.835,5.232c-1.71-1.168-3.421-2.315-5.525-2.544c-0.674-0.074-1.145,0.837-0.788,1.371
	c0.969,1.456,1.888,2.939,2.77,4.441c-1.622,1.515-3.233,3.042-4.816,4.603c-0.508,0.499,0.12,1.215,0.678,0.979
	c0.134,0.426,0.538,0.749,1.104,0.602c1.917-0.501,3.843-0.882,5.782-1.151c0.883,1.745,1.718,3.516,2.499,5.316
	c0.308,0.708,1.448,0.485,1.601-0.214c0.408-1.846,0.813-3.688,1.22-5.531c1.508-0.044,3.019-0.022,4.537,0.073
	C332.874,248.539,333.067,247.204,332.349,246.737z"/>
<path fill="#F6E469" stroke="#1D1D1B" stroke-width="0.3655" stroke-miterlimit="10" d="M241.427,276.104
	c-1.54-1.001-3.082-2-4.622-3.001c0.67-3.049,1.34-6.098,2.004-9.15c0.204-0.936-0.883-1.534-1.586-0.912
	c-2.235,1.977-4.456,3.968-6.664,5.977c-1.952-1.334-3.907-2.646-6.309-2.907c-0.77-0.083-1.308,0.955-0.901,1.566
	c1.108,1.664,2.157,3.355,3.163,5.072c-1.851,1.729-3.691,3.475-5.499,5.255c-0.581,0.57,0.135,1.389,0.772,1.118
	c0.154,0.485,0.615,0.855,1.261,0.687c2.188-0.571,4.389-1.009,6.603-1.315c1.008,1.993,1.962,4.016,2.854,6.072
	c0.352,0.809,1.654,0.554,1.829-0.245c0.466-2.108,0.929-4.213,1.394-6.317c1.72-0.048,3.445-0.026,5.18,0.083
	C242.027,278.16,242.248,276.636,241.427,276.104z"/>
<path fill="#F6E469" stroke="#1D1D1B" stroke-width="0.3655" stroke-miterlimit="10" d="M358.182,255.124
	c-0.77-1.412-1.541-2.823-2.31-4.235c1.788-2.069,3.573-4.14,5.356-6.214c0.547-0.636-0.042-1.549-0.842-1.362
	c-2.544,0.591-5.086,1.199-7.623,1.825c-0.948-1.841-1.908-3.664-3.648-4.866c-0.558-0.385-1.405,0.19-1.346,0.832
	c0.16,1.742,0.263,3.482,0.322,5.223c-2.147,0.562-4.291,1.139-6.425,1.756c-0.685,0.198-0.474,1.127,0.13,1.185
	c-0.084,0.438,0.117,0.914,0.684,1.054c1.924,0.472,3.801,1.052,5.633,1.738c-0.053,1.954-0.161,3.909-0.331,5.864
	c-0.067,0.77,1.043,1.116,1.511,0.572c1.235-1.427,2.47-2.855,3.706-4.282c1.345,0.678,2.665,1.415,3.955,2.221
	C357.787,256.958,358.592,255.877,358.182,255.124z"/>
<path fill="#F6E469" stroke="#1D1D1B" stroke-width="0.3655" stroke-miterlimit="10" d="M335.354,229.589
	c-0.77-1.413-1.542-2.823-2.311-4.236c1.787-2.069,3.572-4.138,5.356-6.213c0.547-0.636-0.042-1.549-0.842-1.363
	c-2.545,0.592-5.086,1.199-7.624,1.827c-0.948-1.843-1.908-3.666-3.647-4.868c-0.559-0.385-1.405,0.191-1.347,0.831
	c0.16,1.743,0.264,3.484,0.323,5.225c-2.147,0.561-4.29,1.138-6.425,1.757c-0.686,0.196-0.475,1.125,0.129,1.182
	c-0.084,0.439,0.117,0.916,0.685,1.055c1.925,0.473,3.801,1.053,5.634,1.738c-0.053,1.955-0.162,3.91-0.332,5.865
	c-0.067,0.77,1.043,1.115,1.511,0.573c1.236-1.428,2.47-2.856,3.705-4.284c1.345,0.679,2.664,1.416,3.956,2.224
	C334.957,231.423,335.762,230.342,335.354,229.589z"/>
<path fill="#F6E469" stroke="#1D1D1B" stroke-width="0.3655" stroke-miterlimit="10" d="M252.257,289.591
	c-1.202-0.78-2.403-1.558-3.603-2.337c0.523-2.376,1.044-4.753,1.562-7.133c0.159-0.728-0.688-1.194-1.236-0.71
	c-1.742,1.54-3.473,3.092-5.194,4.657c-1.522-1.04-3.044-2.061-4.917-2.266c-0.6-0.064-1.019,0.745-0.702,1.221
	c0.863,1.296,1.68,2.615,2.465,3.953c-1.443,1.348-2.876,2.707-4.286,4.096c-0.453,0.444,0.106,1.081,0.603,0.871
	c0.12,0.379,0.48,0.666,0.982,0.536c1.706-0.446,3.42-0.786,5.146-1.025c0.787,1.554,1.529,3.129,2.224,4.731
	c0.273,0.63,1.29,0.431,1.425-0.19c0.363-1.643,0.725-3.282,1.086-4.923c1.341-0.039,2.686-0.021,4.037,0.065
	C252.723,291.192,252.896,290.006,252.257,289.591z"/>
<path fill="#F6E469" stroke="#1D1D1B" stroke-width="0.3655" stroke-miterlimit="10" d="M217.896,289.174
	c0.228-0.958,0.453-1.916,0.681-2.872c1.658-0.211,3.317-0.423,4.976-0.637c0.508-0.067,0.614-0.723,0.174-0.965
	c-1.4-0.771-2.804-1.533-4.215-2.285c0.321-1.226,0.63-2.447,0.33-3.705c-0.096-0.403-0.717-0.487-0.952-0.172
	c-0.64,0.858-1.304,1.691-1.989,2.509c-1.206-0.623-2.417-1.234-3.641-1.827c-0.392-0.19-0.675,0.319-0.425,0.592
	c-0.217,0.165-0.32,0.464-0.119,0.76c0.683,1,1.299,2.031,1.852,3.092c-0.822,0.868-1.671,1.713-2.547,2.533
	c-0.345,0.322,0.018,0.935,0.452,0.879c1.146-0.146,2.292-0.289,3.438-0.436c0.334,0.86,0.633,1.733,0.891,2.629
	C216.966,289.844,217.774,289.682,217.896,289.174z"/>
<path fill="#F6E469" stroke="#1D1D1B" stroke-width="0.3655" stroke-miterlimit="10" d="M187.805,305.493
	c0.438,0.869,0.829,1.752,1.181,2.65c-0.981,0.699-1.964,1.4-2.947,2.104c-0.373,0.264-0.218,0.992,0.275,0.994
	c1.255,0.008,2.505,0.055,3.753,0.139c0.327,1.205,0.585,2.436,0.772,3.688c0.056,0.369,0.347,0.527,0.63,0.5
	c0,0.385,0.579,0.574,0.745,0.15c0.52-1.32,1.015-2.65,1.499-3.984c1.105,0.141,2.207,0.311,3.306,0.516
	c0.403,0.076,0.821-0.428,0.609-0.807c-0.663-1.18-1.766-1.898-2.881-2.611c0.549-1.576,1.088-3.158,1.615-4.742
	c0.166-0.5-0.381-0.928-0.817-0.617c-1.426,1.012-2.85,2.025-4.273,3.039c-0.853-0.572-1.706-1.146-2.559-1.721
	C188.259,304.484,187.523,304.931,187.805,305.493z"/>
<path fill="#F6E469" stroke="#1D1D1B" stroke-width="0.3655" stroke-miterlimit="10" d="M189.819,317.648
	c0.256,0.938,0.464,1.881,0.631,2.828c-1.102,0.494-2.203,0.986-3.305,1.479c-0.418,0.186-0.411,0.93,0.072,1.029
	c1.228,0.258,2.444,0.551,3.651,0.879c0.082,1.248,0.092,2.504,0.025,3.768c-0.019,0.375,0.236,0.584,0.519,0.613
	c-0.076,0.381,0.453,0.682,0.7,0.299c0.772-1.193,1.521-2.398,2.259-3.609c1.055,0.357,2.101,0.74,3.138,1.16
	c0.381,0.154,0.889-0.258,0.756-0.67c-0.415-1.287-1.354-2.209-2.306-3.131c0.852-1.438,1.692-2.879,2.523-4.33
	c0.261-0.453-0.19-0.982-0.679-0.764c-1.599,0.707-3.195,1.42-4.791,2.131c-0.722-0.73-1.444-1.463-2.167-2.195
	C190.463,316.745,189.653,317.04,189.819,317.648z"/>
<path fill="#F6E469" stroke="#1D1D1B" stroke-width="0.3655" stroke-miterlimit="10" d="M209.847,310.544
	c-0.862-0.561-1.725-1.119-2.588-1.68c0.376-1.705,0.75-3.414,1.122-5.123c0.114-0.521-0.494-0.857-0.887-0.508
	c-1.25,1.105-2.495,2.219-3.731,3.344c-1.092-0.746-2.187-1.48-3.531-1.627c-0.431-0.047-0.732,0.535-0.504,0.877
	c0.62,0.93,1.208,1.879,1.771,2.838c-1.037,0.969-2.066,1.945-3.079,2.943c-0.325,0.318,0.076,0.775,0.433,0.625
	c0.086,0.271,0.344,0.479,0.705,0.383c1.225-0.32,2.457-0.562,3.697-0.734c0.564,1.113,1.098,2.246,1.597,3.396
	c0.197,0.453,0.926,0.311,1.023-0.137c0.261-1.18,0.521-2.357,0.779-3.535c0.964-0.027,1.93-0.016,2.9,0.047
	C210.183,311.697,210.307,310.841,209.847,310.544z"/>
<path fill="#F6E469" stroke="#1D1D1B" stroke-width="0.3655" stroke-miterlimit="10" d="M220.709,310.161
	c-0.492-0.902-0.986-1.805-1.478-2.707c1.142-1.324,2.284-2.646,3.424-3.973c0.349-0.406-0.026-0.99-0.538-0.869
	c-1.627,0.377-3.251,0.764-4.873,1.166c-0.607-1.176-1.22-2.342-2.333-3.111c-0.356-0.246-0.897,0.121-0.86,0.531
	c0.103,1.113,0.168,2.227,0.206,3.34c-1.373,0.357-2.743,0.727-4.107,1.121c-0.438,0.127-0.303,0.721,0.083,0.756
	c-0.055,0.281,0.074,0.584,0.437,0.676c1.23,0.301,2.429,0.672,3.601,1.111c-0.034,1.25-0.104,2.498-0.211,3.75
	c-0.043,0.49,0.666,0.713,0.965,0.365c0.79-0.914,1.579-1.826,2.368-2.738c0.859,0.434,1.703,0.904,2.528,1.422
	C220.455,311.333,220.97,310.642,220.709,310.161z"/>
<path fill="#F6E469" stroke="#1D1D1B" stroke-width="0.3655" stroke-miterlimit="10" d="M211.767,299.583
	c-0.491-0.904-0.985-1.805-1.476-2.708c1.142-1.323,2.284-2.645,3.424-3.973c0.35-0.404-0.027-0.989-0.539-0.87
	c-1.626,0.379-3.25,0.768-4.873,1.169c-0.606-1.177-1.219-2.344-2.332-3.112c-0.357-0.246-0.898,0.122-0.86,0.532
	c0.102,1.112,0.167,2.227,0.206,3.339c-1.373,0.358-2.743,0.727-4.107,1.122c-0.438,0.126-0.303,0.72,0.083,0.756
	c-0.054,0.28,0.076,0.584,0.438,0.675c1.23,0.302,2.429,0.673,3.601,1.11c-0.034,1.25-0.104,2.5-0.212,3.751
	c-0.042,0.49,0.667,0.713,0.966,0.365c0.791-0.914,1.578-1.826,2.368-2.738c0.86,0.434,1.703,0.904,2.528,1.42
	C211.515,300.753,212.03,300.064,211.767,299.583z"/>
<path fill="#F6E469" stroke="#1D1D1B" stroke-width="0.3655" stroke-miterlimit="10" d="M220.506,292.209
	c0.27,0.385,0.518,0.778,0.75,1.182c-0.42,0.405-0.84,0.808-1.26,1.212c-0.159,0.153-0.034,0.489,0.202,0.456
	c0.6-0.085,1.2-0.149,1.801-0.197c0.242,0.553,0.451,1.121,0.627,1.707c0.052,0.172,0.202,0.227,0.336,0.193
	c0.028,0.186,0.317,0.234,0.366,0.021c0.156-0.668,0.299-1.338,0.436-2.008c0.538-0.011,1.075-0.008,1.615,0.014
	c0.198,0.008,0.362-0.262,0.234-0.428c-0.399-0.517-0.976-0.782-1.559-1.045c0.152-0.792,0.297-1.585,0.438-2.379
	c0.044-0.249-0.247-0.415-0.433-0.237c-0.61,0.584-1.218,1.167-1.827,1.752c-0.448-0.214-0.896-0.428-1.343-0.643
	C220.65,291.695,220.33,291.961,220.506,292.209z"/>
<path fill="#F6E469" stroke="#1D1D1B" stroke-width="0.3655" stroke-miterlimit="10" d="M170.106,320.673
	c0.188,0.432,0.354,0.867,0.5,1.307c-0.491,0.312-0.984,0.627-1.475,0.939c-0.186,0.117-0.13,0.471,0.107,0.486
	c0.605,0.035,1.206,0.092,1.805,0.164c0.127,0.59,0.22,1.188,0.276,1.797c0.018,0.18,0.153,0.262,0.291,0.258
	c-0.011,0.186,0.264,0.291,0.355,0.092c0.286-0.625,0.558-1.252,0.826-1.883c0.529,0.098,1.056,0.207,1.581,0.336
	c0.193,0.047,0.407-0.186,0.315-0.375c-0.289-0.584-0.802-0.959-1.321-1.332c0.305-0.746,0.606-1.494,0.901-2.244
	c0.093-0.236-0.16-0.457-0.379-0.318c-0.713,0.451-1.426,0.902-2.138,1.354c-0.396-0.297-0.792-0.596-1.188-0.895
	C170.35,320.198,169.984,320.396,170.106,320.673z"/>
<path fill="#F6E469" stroke="#1D1D1B" stroke-width="0.3655" stroke-miterlimit="10" d="M182.778,317.226
	c-0.45-0.207-0.901-0.414-1.353-0.621c0.06-0.842,0.119-1.684,0.176-2.523c0.017-0.26-0.296-0.377-0.46-0.184
	c-0.52,0.617-1.036,1.236-1.547,1.859c-0.574-0.279-1.148-0.553-1.8-0.527c-0.209,0.008-0.312,0.305-0.179,0.453
	c0.361,0.402,0.708,0.812,1.044,1.232c-0.427,0.533-0.85,1.072-1.263,1.621c-0.134,0.174,0.09,0.365,0.25,0.268
	c0.06,0.123,0.198,0.205,0.364,0.135c0.562-0.24,1.134-0.441,1.713-0.611c0.348,0.492,0.682,0.996,1.001,1.512
	c0.125,0.201,0.464,0.082,0.479-0.139c0.042-0.58,0.083-1.162,0.125-1.742c0.458-0.082,0.92-0.143,1.388-0.182
	C183.019,317.751,183.018,317.337,182.778,317.226z"/>
<path fill="#F6E469" stroke="#1D1D1B" stroke-width="0.3655" stroke-miterlimit="10" d="M192.198,335.138
	c-0.298-0.396-0.597-0.793-0.896-1.189c0.453-0.711,0.905-1.422,1.356-2.137c0.138-0.217-0.082-0.471-0.318-0.377
	c-0.75,0.293-1.498,0.592-2.244,0.896c-0.373-0.52-0.747-1.031-1.332-1.32c-0.187-0.094-0.42,0.121-0.374,0.312
	c0.127,0.525,0.236,1.051,0.333,1.582c-0.63,0.268-1.259,0.539-1.883,0.824c-0.201,0.09-0.094,0.363,0.093,0.355
	c-0.006,0.137,0.077,0.273,0.256,0.289c0.609,0.059,1.208,0.152,1.797,0.279c0.072,0.598,0.125,1.201,0.161,1.805
	c0.015,0.238,0.369,0.293,0.488,0.107c0.313-0.492,0.625-0.982,0.938-1.475c0.442,0.146,0.877,0.312,1.307,0.502
	C192.159,335.716,192.357,335.349,192.198,335.138z"/>
<path fill="#F6E469" stroke="#1D1D1B" stroke-width="0.3655" stroke-miterlimit="10" d="M225.28,318.265
	c-0.298-0.398-0.598-0.793-0.896-1.191c0.453-0.711,0.905-1.422,1.356-2.135c0.138-0.219-0.082-0.473-0.318-0.379
	c-0.751,0.293-1.499,0.594-2.245,0.898c-0.372-0.52-0.747-1.033-1.332-1.322c-0.188-0.092-0.42,0.121-0.374,0.314
	c0.127,0.523,0.237,1.051,0.333,1.58c-0.63,0.268-1.259,0.539-1.882,0.824c-0.201,0.09-0.094,0.365,0.092,0.355
	c-0.006,0.137,0.076,0.273,0.256,0.291c0.609,0.057,1.208,0.15,1.797,0.277c0.072,0.6,0.126,1.201,0.163,1.805
	c0.014,0.238,0.368,0.293,0.487,0.107c0.313-0.492,0.625-0.982,0.939-1.473c0.441,0.145,0.876,0.311,1.306,0.5
	C225.241,318.841,225.439,318.476,225.28,318.265z"/>
<path fill="#F6E469" stroke="#1D1D1B" stroke-width="0.3655" stroke-miterlimit="10" d="M205.132,318.79
	c0.609,1.209,1.152,2.439,1.643,3.688c-1.367,0.977-2.734,1.953-4.103,2.93c-0.518,0.369-0.304,1.383,0.383,1.387
	c1.748,0.01,3.489,0.076,5.225,0.189c0.456,1.682,0.816,3.393,1.075,5.135c0.077,0.516,0.482,0.732,0.877,0.695
	c0.001,0.539,0.806,0.803,1.038,0.211c0.724-1.84,1.413-3.691,2.086-5.547c1.539,0.195,3.072,0.432,4.604,0.717
	c0.562,0.105,1.141-0.598,0.847-1.125c-0.922-1.641-2.458-2.643-4.011-3.635c0.765-2.195,1.514-4.398,2.249-6.604
	c0.231-0.693-0.53-1.291-1.138-0.859c-1.986,1.41-3.968,2.82-5.948,4.232c-1.188-0.797-2.375-1.598-3.563-2.396
	C205.763,317.384,204.739,318.009,205.132,318.79z"/>
<path fill="#F6E469" stroke="#1D1D1B" stroke-width="0.731" stroke-miterlimit="10" d="M137.992,326.583
	c1.248,2.854,2.344,5.742,3.316,8.666c-3.257,2.07-6.515,4.141-9.774,6.215c-1.237,0.783-0.869,3.131,0.708,3.227
	c4.007,0.242,7.994,0.605,11.963,1.082c0.84,3.914,1.456,7.881,1.833,11.916c0.114,1.189,1.019,1.738,1.929,1.697
	c-0.064,1.238,1.751,1.945,2.356,0.617c1.888-4.135,3.696-8.297,5.472-12.473c3.503,0.641,6.994,1.369,10.471,2.215
	c1.277,0.309,2.696-1.234,2.083-2.475c-1.912-3.883-5.313-6.367-8.756-8.836c2.028-4.945,4.016-9.902,5.973-14.873
	c0.615-1.564-1.058-3.027-2.506-2.111c-4.729,2.988-9.449,5.982-14.169,8.977c-2.626-1.977-5.251-3.959-7.878-5.938
	C139.613,323.437,137.185,324.743,137.992,326.583z"/>
<path fill="#F6E469" stroke="#1D1D1B" stroke-width="0.3655" stroke-miterlimit="10" d="M256.858,309.554
	c-1.201-0.777-2.402-1.557-3.603-2.336c0.522-2.377,1.044-4.754,1.562-7.133c0.158-0.729-0.688-1.195-1.236-0.711
	c-1.742,1.541-3.473,3.092-5.193,4.658c-1.522-1.039-3.045-2.061-4.917-2.264c-0.6-0.066-1.019,0.742-0.702,1.219
	c0.863,1.295,1.68,2.615,2.465,3.951c-1.443,1.352-2.876,2.709-4.286,4.098c-0.454,0.443,0.106,1.082,0.603,0.871
	c0.119,0.379,0.479,0.666,0.982,0.533c1.706-0.443,3.421-0.783,5.146-1.023c0.787,1.553,1.529,3.129,2.224,4.732
	c0.273,0.629,1.29,0.432,1.425-0.191c0.364-1.641,0.725-3.283,1.086-4.922c1.34-0.039,2.686-0.02,4.037,0.064
	C257.324,311.159,257.498,309.972,256.858,309.554z"/>
<path fill="#F6E469" stroke="#1D1D1B" stroke-width="0.3655" stroke-miterlimit="10" d="M267.381,310.792
	c0.23-1.416,0.457-2.828,0.686-4.24c2.385-0.48,4.769-0.961,7.156-1.449c0.73-0.148,0.815-1.111,0.151-1.416
	c-2.112-0.973-4.23-1.932-6.357-2.873c0.337-1.812,0.657-3.619,0.089-5.415c-0.183-0.573-1.092-0.631-1.4-0.148
	c-0.838,1.313-1.715,2.593-2.623,3.85c-1.816-0.777-3.639-1.541-5.477-2.27c-0.59-0.233-0.947,0.533-0.554,0.903
	c-0.299,0.262-0.417,0.707-0.094,1.115c1.096,1.381,2.099,2.812,3.014,4.295c-1.104,1.346-2.246,2.662-3.432,3.943
	c-0.467,0.504,0.125,1.355,0.75,1.227c1.648-0.328,3.295-0.66,4.942-0.99c0.576,1.209,1.102,2.447,1.569,3.721
	C266.102,311.865,267.259,311.542,267.381,310.792z"/>
<path fill="#F6E469" stroke="#1D1D1B" stroke-width="0.3655" stroke-miterlimit="10" d="M238.496,310.56
	c-0.686-1.258-1.372-2.512-2.057-3.77c1.59-1.842,3.18-3.684,4.767-5.529c0.486-0.564-0.037-1.379-0.75-1.213
	c-2.265,0.525-4.525,1.066-6.784,1.627c-0.844-1.641-1.697-3.264-3.247-4.333c-0.496-0.344-1.25,0.169-1.198,0.739
	c0.143,1.55,0.234,3.099,0.288,4.65c-1.911,0.498-3.817,1.012-5.719,1.562c-0.609,0.176-0.421,1.002,0.116,1.053
	c-0.075,0.391,0.104,0.814,0.609,0.939c1.712,0.42,3.382,0.936,5.014,1.547c-0.048,1.738-0.145,3.479-0.296,5.219
	c-0.06,0.686,0.929,0.992,1.344,0.51c1.101-1.271,2.199-2.543,3.298-3.812c1.198,0.604,2.372,1.26,3.521,1.979
	C238.143,312.193,238.86,311.23,238.496,310.56z"/>
<path fill="#F6E469" stroke="#1D1D1B" stroke-width="0.3655" stroke-miterlimit="10" d="M310.182,275.902
	c0.905,1.961,1.706,3.95,2.421,5.965c-2.23,1.481-4.461,2.964-6.693,4.449c-0.848,0.56-0.559,2.184,0.537,2.228
	c2.782,0.111,5.553,0.31,8.314,0.586c0.638,2.7,1.119,5.445,1.438,8.238c0.095,0.823,0.73,1.192,1.362,1.151
	c-0.028,0.861,1.242,1.324,1.642,0.395c1.252-2.893,2.448-5.808,3.623-8.729c2.44,0.396,4.872,0.852,7.295,1.389
	c0.891,0.198,1.852-0.892,1.412-1.747c-1.383-2.664-3.776-4.34-6.198-6.007c1.336-3.456,2.647-6.925,3.935-10.4
	c0.404-1.093-0.776-2.085-1.768-1.428c-3.239,2.139-6.472,4.28-9.704,6.427c-1.85-1.336-3.7-2.675-5.549-4.01
	C311.262,273.697,309.595,274.638,310.182,275.902z"/>
<path fill="#F6E469" stroke="#1D1D1B" stroke-width="0.3655" stroke-miterlimit="10" d="M318.661,254.316
	c0.4,1.469,0.726,2.943,0.989,4.429c-1.723,0.771-3.447,1.54-5.17,2.312c-0.654,0.291-0.643,1.454,0.113,1.612
	c1.921,0.401,3.825,0.86,5.711,1.374c0.128,1.953,0.144,3.916,0.04,5.896c-0.03,0.583,0.368,0.913,0.813,0.959
	c-0.12,0.593,0.709,1.065,1.096,0.466c1.206-1.865,2.378-3.753,3.535-5.646c1.649,0.56,3.287,1.159,4.909,1.815
	c0.596,0.24,1.392-0.405,1.184-1.049c-0.65-2.015-2.119-3.457-3.609-4.897c1.333-2.249,2.647-4.507,3.948-6.772
	c0.408-0.713-0.297-1.54-1.063-1.2c-2.501,1.111-4.998,2.223-7.494,3.337c-1.13-1.145-2.26-2.289-3.39-3.435
	C319.669,252.908,318.4,253.367,318.661,254.316z"/>
<path fill="#F6E469" stroke="#1D1D1B" stroke-width="0.3655" stroke-miterlimit="10" d="M347.002,281.729
	c1.377-0.833,2.752-1.667,4.128-2.498c2.148,1.691,4.295,3.384,6.448,5.071c0.658,0.518,1.545-0.11,1.323-0.902
	c-0.705-2.515-1.425-5.026-2.166-7.533c1.796-1.03,3.575-2.069,4.699-3.862c0.359-0.575-0.254-1.396-0.89-1.308
	c-1.734,0.238-3.469,0.419-5.205,0.557c-0.656-2.119-1.328-4.234-2.043-6.341c-0.227-0.675-1.146-0.422-1.176,0.184
	c-0.441-0.065-0.909,0.158-1.022,0.73c-0.386,1.943-0.881,3.845-1.485,5.706c-1.955,0.034-3.912,0.014-5.874-0.068
	c-0.771-0.033-1.068,1.092-0.504,1.535c1.482,1.17,2.964,2.34,4.446,3.509c-0.619,1.376-1.295,2.727-2.043,4.052
	C345.153,281.415,346.268,282.172,347.002,281.729z"/>
<path fill="#F6E469" stroke="#1D1D1B" stroke-width="0.3655" stroke-miterlimit="10" d="M340.134,297.282
	c1.607-0.077,3.213-0.157,4.819-0.233c1.083,2.511,2.168,5.019,3.259,7.529c0.333,0.77,1.413,0.639,1.592-0.164
	c0.578-2.547,1.139-5.098,1.68-7.655c2.071-0.053,4.13-0.12,5.971-1.162c0.589-0.336,0.44-1.348-0.162-1.574
	c-1.637-0.615-3.249-1.282-4.842-1.986c0.431-2.178,0.845-4.358,1.22-6.549c0.121-0.703-0.808-0.918-1.122-0.398
	c-0.357-0.268-0.875-0.294-1.248,0.155c-1.264,1.526-2.605,2.961-4.021,4.312c-1.736-0.899-3.448-1.85-5.134-2.854
	c-0.663-0.396-1.459,0.453-1.174,1.111c0.746,1.733,1.494,3.467,2.24,5.2c-1.198,0.915-2.436,1.781-3.724,2.591
	C338.655,296.126,339.278,297.323,340.134,297.282z"/>
<path fill="#F6E469" stroke="#1D1D1B" stroke-width="0.3655" stroke-miterlimit="10" d="M361.125,291.909
	c1.607-0.077,3.214-0.156,4.821-0.233c1.083,2.511,2.167,5.02,3.257,7.529c0.333,0.768,1.412,0.637,1.594-0.162
	c0.577-2.55,1.138-5.101,1.679-7.657c2.071-0.053,4.13-0.12,5.971-1.163c0.59-0.335,0.441-1.348-0.161-1.573
	c-1.638-0.615-3.25-1.281-4.843-1.986c0.431-2.178,0.846-4.358,1.22-6.55c0.121-0.703-0.808-0.918-1.121-0.399
	c-0.357-0.266-0.875-0.292-1.248,0.157c-1.264,1.526-2.604,2.962-4.021,4.312c-1.736-0.899-3.448-1.85-5.133-2.855
	c-0.664-0.395-1.459,0.454-1.174,1.11c0.747,1.736,1.493,3.469,2.24,5.202c-1.198,0.915-2.435,1.781-3.726,2.591
	C359.649,290.753,360.27,291.949,361.125,291.909z"/>
<path fill="#F6E469" stroke="#1D1D1B" stroke-width="0.3655" stroke-miterlimit="10" d="M252.759,247.142
	c0.437,0.87,0.828,1.754,1.18,2.65c-0.981,0.7-1.964,1.401-2.947,2.104c-0.373,0.266-0.218,0.992,0.275,0.995
	c1.255,0.008,2.505,0.056,3.752,0.138c0.328,1.208,0.586,2.436,0.772,3.688c0.055,0.37,0.347,0.527,0.629,0.5
	c0.001,0.387,0.579,0.576,0.746,0.152c0.52-1.322,1.015-2.652,1.499-3.984c1.104,0.141,2.207,0.309,3.306,0.515
	c0.404,0.075,0.821-0.429,0.609-0.808c-0.663-1.178-1.766-1.898-2.881-2.609c0.549-1.578,1.087-3.158,1.614-4.743
	c0.165-0.498-0.38-0.928-0.818-0.616c-1.427,1.012-2.849,2.024-4.272,3.04c-0.853-0.574-1.706-1.147-2.559-1.723
	C253.211,246.135,252.475,246.583,252.759,247.142z"/>
<path fill="#F6E469" stroke="#1D1D1B" stroke-width="0.3655" stroke-miterlimit="10" d="M247.464,233.758
	c0.257,0.938,0.465,1.882,0.632,2.83c-1.102,0.494-2.203,0.985-3.304,1.479c-0.418,0.186-0.411,0.929,0.071,1.029
	c1.229,0.257,2.445,0.552,3.651,0.879c0.082,1.248,0.092,2.504,0.026,3.769c-0.019,0.372,0.235,0.584,0.519,0.612
	c-0.077,0.381,0.454,0.681,0.7,0.297c0.771-1.192,1.521-2.397,2.259-3.609c1.054,0.358,2.102,0.742,3.138,1.161
	c0.381,0.154,0.89-0.258,0.757-0.67c-0.416-1.288-1.355-2.21-2.306-3.131c0.852-1.438,1.691-2.88,2.523-4.328
	c0.26-0.456-0.19-0.984-0.679-0.767c-1.6,0.709-3.195,1.42-4.791,2.132c-0.722-0.73-1.444-1.462-2.166-2.194
	C248.108,232.858,247.298,233.151,247.464,233.758z"/>
<path fill="#F6E469" stroke="#1D1D1B" stroke-width="0.3655" stroke-miterlimit="10" d="M168.718,329.622
	c0.27,0.385,0.519,0.779,0.749,1.182c-0.419,0.404-0.839,0.807-1.259,1.213c-0.159,0.152-0.034,0.488,0.201,0.455
	c0.6-0.084,1.2-0.15,1.802-0.197c0.241,0.553,0.451,1.121,0.627,1.705c0.053,0.174,0.203,0.229,0.336,0.195
	c0.028,0.186,0.318,0.234,0.366,0.02c0.156-0.668,0.299-1.338,0.437-2.008c0.537-0.01,1.075-0.008,1.615,0.016
	c0.198,0.006,0.362-0.264,0.233-0.43c-0.399-0.516-0.976-0.781-1.559-1.045c0.152-0.791,0.298-1.584,0.439-2.379
	c0.044-0.248-0.247-0.414-0.434-0.236c-0.61,0.584-1.218,1.168-1.827,1.752c-0.447-0.215-0.895-0.43-1.343-0.643
	C168.862,329.109,168.543,329.374,168.718,329.622z"/>
<path fill="#F6E469" stroke="#1D1D1B" stroke-width="0.3655" stroke-miterlimit="10" d="M178.491,329.021
	c0.188,0.43,0.353,0.867,0.5,1.307c-0.491,0.314-0.983,0.625-1.474,0.938c-0.186,0.119-0.131,0.473,0.106,0.488
	c0.604,0.035,1.207,0.092,1.805,0.162c0.127,0.592,0.22,1.189,0.276,1.799c0.018,0.18,0.154,0.262,0.291,0.258
	c-0.01,0.186,0.264,0.291,0.355,0.092c0.285-0.625,0.558-1.252,0.826-1.883c0.528,0.098,1.055,0.207,1.581,0.334
	c0.193,0.049,0.406-0.186,0.314-0.373c-0.288-0.584-0.801-0.959-1.32-1.332c0.305-0.746,0.606-1.494,0.901-2.244
	c0.093-0.236-0.16-0.457-0.378-0.318c-0.714,0.449-1.426,0.902-2.138,1.354c-0.396-0.297-0.792-0.596-1.188-0.895
	C178.736,328.546,178.369,328.743,178.491,329.021z"/>
<path fill="#F6E469" stroke="#1D1D1B" stroke-width="0.3655" stroke-miterlimit="10" d="M189.113,327.011
	c-0.451-0.207-0.902-0.412-1.354-0.621c0.06-0.842,0.119-1.684,0.176-2.523c0.017-0.26-0.296-0.377-0.459-0.184
	c-0.52,0.617-1.036,1.236-1.547,1.859c-0.575-0.279-1.148-0.553-1.8-0.527c-0.209,0.008-0.312,0.305-0.179,0.453
	c0.361,0.4,0.708,0.812,1.044,1.232c-0.427,0.535-0.85,1.072-1.264,1.621c-0.133,0.174,0.091,0.365,0.25,0.268
	c0.06,0.123,0.198,0.203,0.364,0.135c0.562-0.238,1.133-0.441,1.713-0.611c0.349,0.494,0.682,0.996,1.001,1.512
	c0.126,0.201,0.464,0.082,0.48-0.139c0.042-0.58,0.083-1.162,0.124-1.744c0.458-0.078,0.92-0.141,1.388-0.18
	C189.354,327.538,189.354,327.122,189.113,327.011z"/>
<path fill="#F6E469" stroke="#1D1D1B" stroke-width="0.3655" stroke-miterlimit="10" d="M193.576,298.431
	c-0.238-0.436-0.476-0.871-0.713-1.306c0.551-0.639,1.102-1.277,1.652-1.918c0.168-0.195-0.014-0.478-0.26-0.42
	c-0.785,0.182-1.569,0.369-2.351,0.563c-0.293-0.568-0.589-1.131-1.126-1.501c-0.172-0.119-0.433,0.058-0.415,0.256
	c0.049,0.538,0.081,1.075,0.1,1.612c-0.663,0.173-1.324,0.35-1.982,0.542c-0.212,0.061-0.147,0.347,0.04,0.365
	c-0.027,0.134,0.036,0.281,0.211,0.324c0.593,0.145,1.172,0.324,1.738,0.537c-0.017,0.602-0.05,1.205-0.102,1.808
	c-0.021,0.238,0.321,0.346,0.466,0.178c0.381-0.441,0.761-0.883,1.142-1.322c0.415,0.209,0.822,0.438,1.22,0.686
	C193.454,298.997,193.703,298.663,193.576,298.431z"/>
<path fill="#F6E469" stroke="#1D1D1B" stroke-width="0.3655" stroke-miterlimit="10" d="M179.745,325.118
	c-0.298-0.396-0.597-0.793-0.896-1.189c0.452-0.713,0.905-1.424,1.356-2.137c0.138-0.219-0.082-0.471-0.318-0.379
	c-0.75,0.293-1.498,0.594-2.244,0.898c-0.372-0.52-0.747-1.033-1.332-1.322c-0.188-0.092-0.42,0.121-0.374,0.314
	c0.127,0.525,0.237,1.051,0.333,1.58c-0.63,0.268-1.259,0.539-1.882,0.824c-0.201,0.092-0.094,0.365,0.092,0.355
	c-0.005,0.137,0.077,0.275,0.256,0.291c0.609,0.059,1.208,0.15,1.797,0.277c0.072,0.6,0.125,1.201,0.163,1.807
	c0.014,0.236,0.369,0.293,0.487,0.105c0.313-0.49,0.625-0.982,0.939-1.473c0.441,0.145,0.877,0.312,1.307,0.5
	C179.708,325.697,179.905,325.329,179.745,325.118z"/>
<path fill="#F6E469" stroke="#1D1D1B" stroke-width="0.3655" stroke-miterlimit="10" d="M335.339,321.3
	c0.902,0.629,1.767,1.297,2.599,2c-0.6,1.225-1.2,2.449-1.798,3.678c-0.228,0.463,0.316,1.104,0.808,0.842
	c1.252-0.668,2.521-1.295,3.806-1.883c0.974,1.023,1.892,2.107,2.752,3.254c0.253,0.336,0.627,0.334,0.895,0.154
	c0.209,0.385,0.886,0.262,0.823-0.248c-0.194-1.596-0.417-3.184-0.653-4.77c1.174-0.455,2.36-0.879,3.565-1.266
	c0.442-0.143,0.584-0.869,0.171-1.131c-1.293-0.816-2.777-0.938-4.27-1.047c-0.303-1.865-0.618-3.725-0.947-5.586
	c-0.103-0.584-0.877-0.715-1.144-0.172c-0.875,1.773-1.745,3.547-2.614,5.32c-1.157-0.111-2.313-0.225-3.471-0.334
	C335.245,320.054,334.755,320.894,335.339,321.3z"/>
<path fill="#F6E469" stroke="#1D1D1B" stroke-width="0.3655" stroke-miterlimit="10" d="M308.02,312.255
	c0.84-0.508,1.678-1.016,2.517-1.523c1.31,1.033,2.62,2.064,3.933,3.094c0.402,0.316,0.943-0.068,0.808-0.551
	c-0.43-1.533-0.87-3.064-1.322-4.596c1.097-0.627,2.182-1.262,2.867-2.355c0.218-0.35-0.156-0.85-0.543-0.797
	c-1.057,0.145-2.116,0.256-3.175,0.34c-0.401-1.293-0.811-2.584-1.246-3.867c-0.139-0.412-0.699-0.258-0.717,0.111
	c-0.269-0.041-0.554,0.096-0.623,0.445c-0.236,1.186-0.539,2.344-0.906,3.48c-1.192,0.02-2.387,0.008-3.583-0.043
	c-0.47-0.02-0.652,0.666-0.308,0.938c0.904,0.713,1.808,1.426,2.712,2.139c-0.377,0.84-0.791,1.664-1.247,2.473
	C306.892,312.064,307.572,312.527,308.02,312.255z"/>
<path fill="#F6E469" stroke="#1D1D1B" stroke-width="0.3655" stroke-miterlimit="10" d="M369.911,271.821
	c1.606-0.077,3.213-0.155,4.819-0.232c1.083,2.51,2.168,5.019,3.258,7.529c0.333,0.769,1.412,0.637,1.593-0.164
	c0.578-2.548,1.139-5.1,1.68-7.656c2.071-0.052,4.13-0.12,5.972-1.161c0.588-0.336,0.44-1.349-0.162-1.575
	c-1.637-0.615-3.249-1.281-4.842-1.986c0.431-2.177,0.845-4.357,1.22-6.548c0.121-0.704-0.807-0.919-1.121-0.399
	c-0.357-0.268-0.874-0.294-1.247,0.155c-1.264,1.527-2.604,2.962-4.02,4.312c-1.737-0.9-3.45-1.85-5.135-2.854
	c-0.663-0.396-1.459,0.452-1.173,1.109c0.746,1.735,1.493,3.468,2.239,5.202c-1.198,0.915-2.436,1.782-3.725,2.59
	C368.432,270.665,369.055,271.861,369.911,271.821z"/>
<path fill="#F6E469" stroke="#1D1D1B" stroke-width="0.3655" stroke-miterlimit="10" d="M321.978,315.152
	c1.047-0.051,2.094-0.102,3.14-0.152c0.706,1.637,1.412,3.27,2.123,4.904c0.217,0.5,0.919,0.416,1.039-0.105
	c0.375-1.66,0.74-3.322,1.093-4.988c1.349-0.033,2.69-0.078,3.889-0.756c0.385-0.219,0.288-0.879-0.105-1.025
	c-1.067-0.4-2.117-0.836-3.155-1.295c0.281-1.418,0.551-2.84,0.795-4.266c0.079-0.457-0.526-0.598-0.731-0.26
	c-0.232-0.174-0.569-0.191-0.812,0.102c-0.822,0.994-1.696,1.93-2.619,2.809c-1.13-0.586-2.246-1.203-3.345-1.859
	c-0.432-0.258-0.949,0.295-0.765,0.723c0.487,1.133,0.974,2.26,1.459,3.391c-0.781,0.596-1.586,1.16-2.426,1.688
	C321.016,314.398,321.421,315.177,321.978,315.152z"/>
<path fill="#F6E469" stroke="#1D1D1B" stroke-width="0.3655" stroke-miterlimit="10" d="M396.703,250.338
	c0.779,1.705,1.467,3.434,2.082,5.185c-1.941,1.279-3.882,2.558-5.825,3.839c-0.735,0.483-0.49,1.894,0.458,1.936
	c2.416,0.106,4.819,0.286,7.214,0.533c0.543,2.348,0.954,4.731,1.221,7.156c0.08,0.715,0.629,1.037,1.178,1.002
	c-0.026,0.747,1.074,1.153,1.424,0.351c1.096-2.51,2.144-5.033,3.171-7.565c2.117,0.352,4.225,0.754,6.327,1.23
	c0.772,0.173,1.61-0.769,1.23-1.511c-1.19-2.317-3.262-3.78-5.358-5.233c1.172-2.997,2.32-6.001,3.448-9.014
	c0.355-0.948-0.667-1.812-1.529-1.244c-2.818,1.844-5.631,3.693-8.444,5.545c-1.6-1.165-3.2-2.333-4.801-3.499
	C397.647,248.426,396.197,249.238,396.703,250.338z"/>
<path fill="#F6E469" stroke="#1D1D1B" stroke-width="0.3655" stroke-miterlimit="10" d="M353.587,209.59
	c1.904-1.151,3.808-2.305,5.71-3.457c2.97,2.341,5.942,4.681,8.921,7.018c0.911,0.717,2.139-0.152,1.832-1.249
	c-0.975-3.48-1.972-6.956-2.997-10.422c2.485-1.427,4.947-2.864,6.501-5.345c0.498-0.795-0.352-1.93-1.232-1.808
	c-2.399,0.328-4.798,0.58-7.201,0.769c-0.909-2.932-1.84-5.859-2.827-8.771c-0.316-0.934-1.585-0.584-1.628,0.254
	c-0.611-0.09-1.258,0.217-1.415,1.01c-0.534,2.688-1.219,5.317-2.053,7.894c-2.705,0.047-5.415,0.02-8.129-0.095
	c-1.067-0.044-1.477,1.512-0.699,2.124c2.052,1.621,4.103,3.238,6.152,4.855c-0.855,1.904-1.792,3.772-2.827,5.607
	C351.027,209.156,352.571,210.202,353.587,209.59z"/>
<path fill="#F6E469" stroke="#1D1D1B" stroke-width="0.3655" stroke-miterlimit="10" d="M344.082,231.109
	c2.224-0.108,4.446-0.217,6.668-0.323c1.499,3.474,2.999,6.945,4.508,10.416c0.46,1.064,1.953,0.884,2.204-0.226
	c0.799-3.525,1.575-7.055,2.323-10.592c2.867-0.071,5.715-0.166,8.262-1.607c0.814-0.465,0.609-1.865-0.223-2.178
	c-2.267-0.852-4.495-1.775-6.7-2.75c0.596-3.011,1.17-6.029,1.688-9.06c0.167-0.973-1.116-1.271-1.551-0.552
	c-0.495-0.371-1.209-0.407-1.725,0.215c-1.749,2.112-3.604,4.097-5.562,5.966c-2.403-1.246-4.772-2.56-7.104-3.949
	c-0.917-0.548-2.019,0.626-1.624,1.536c1.032,2.399,2.066,4.798,3.1,7.197c-1.658,1.265-3.37,2.464-5.154,3.584
	C342.037,229.51,342.899,231.164,344.082,231.109z"/>
<path fill="#F6E469" stroke="#1D1D1B" stroke-width="0.3655" stroke-miterlimit="10" d="M370.977,233.892
	c1.97,1.038,3.94,2.073,5.908,3.111c-0.474,3.753-0.947,7.506-1.414,11.263c-0.142,1.149,1.234,1.752,2.015,0.925
	c2.479-2.63,4.941-5.275,7.384-7.939c2.504,1.394,5.005,2.76,7.932,2.814c0.939,0.015,1.473-1.297,0.916-1.99
	c-1.519-1.885-2.97-3.812-4.373-5.772c2.044-2.291,4.072-4.598,6.059-6.944c0.638-0.752-0.317-1.66-1.056-1.264
	c-0.237-0.57-0.835-0.964-1.596-0.692c-2.578,0.931-5.185,1.698-7.822,2.312c-1.436-2.294-2.807-4.629-4.109-7.014
	c-0.513-0.937-2.056-0.484-2.179,0.498c-0.332,2.593-0.659,5.183-0.989,7.773c-2.07,0.247-4.155,0.411-6.26,0.469
	C370.031,231.477,369.93,233.339,370.977,233.892z"/>
<path fill="#F6E469" stroke="#1D1D1B" stroke-width="0.3655" stroke-miterlimit="10" d="M300.444,214.51
	c1.111,0.774,2.174,1.599,3.2,2.463c-0.738,1.508-1.478,3.018-2.215,4.528c-0.281,0.57,0.39,1.359,0.996,1.036
	c1.542-0.821,3.104-1.592,4.687-2.318c1.2,1.263,2.331,2.595,3.388,4.006c0.313,0.414,0.772,0.414,1.103,0.191
	c0.257,0.475,1.091,0.324,1.014-0.306c-0.239-1.965-0.514-3.92-0.805-5.874c1.447-0.559,2.907-1.082,4.39-1.559
	c0.544-0.176,0.72-1.068,0.21-1.392c-1.591-1.006-3.419-1.155-5.258-1.289c-0.372-2.297-0.761-4.587-1.165-6.877
	c-0.126-0.721-1.08-0.883-1.409-0.213c-1.076,2.184-2.148,4.368-3.219,6.553c-1.423-0.137-2.848-0.276-4.273-0.412
	C300.33,212.973,299.725,214.01,300.444,214.51z"/>
<path fill="#F6E469" stroke="#1D1D1B" stroke-width="0.3655" stroke-miterlimit="10" d="M220.328,259.915
	c0.649-0.392,1.298-0.784,1.947-1.177c1.012,0.799,2.026,1.596,3.04,2.391c0.31,0.245,0.729-0.052,0.625-0.425
	c-0.332-1.186-0.672-2.37-1.021-3.552c0.847-0.485,1.686-0.976,2.215-1.82c0.168-0.271-0.12-0.657-0.419-0.617
	c-0.818,0.112-1.636,0.198-2.454,0.263c-0.309-1-0.627-1.996-0.963-2.989c-0.107-0.318-0.541-0.198-0.554,0.086
	c-0.208-0.031-0.428,0.075-0.482,0.345c-0.182,0.916-0.416,1.812-0.7,2.69c-0.923,0.016-1.845,0.007-2.77-0.033
	c-0.365-0.015-0.504,0.516-0.238,0.724c0.699,0.553,1.397,1.104,2.096,1.655c-0.291,0.648-0.609,1.285-0.963,1.91
	C219.457,259.768,219.984,260.124,220.328,259.915z"/>
<path fill="#F6E469" stroke="#1D1D1B" stroke-width="0.3655" stroke-miterlimit="10" d="M232.168,216.607
	c0.758-0.038,1.516-0.076,2.272-0.111c0.511,1.184,1.021,2.366,1.537,3.55c0.157,0.361,0.666,0.3,0.75-0.077
	c0.273-1.201,0.536-2.403,0.792-3.609c0.977-0.024,1.948-0.057,2.815-0.548c0.278-0.159,0.208-0.635-0.076-0.742
	c-0.773-0.29-1.532-0.604-2.283-0.938c0.203-1.025,0.398-2.053,0.575-3.087c0.057-0.332-0.381-0.433-0.529-0.188
	c-0.168-0.125-0.411-0.139-0.588,0.074c-0.595,0.72-1.228,1.396-1.895,2.033c-0.819-0.425-1.626-0.873-2.421-1.347
	c-0.312-0.186-0.687,0.214-0.553,0.523c0.352,0.818,0.704,1.636,1.057,2.452c-0.565,0.432-1.148,0.84-1.756,1.222
	C231.471,216.061,231.765,216.625,232.168,216.607z"/>
<path fill="#F6E469" stroke="#1D1D1B" stroke-width="0.3655" stroke-miterlimit="10" d="M226.07,238.154
	c0.758-0.036,1.515-0.074,2.272-0.109c0.511,1.183,1.021,2.366,1.536,3.55c0.157,0.361,0.666,0.3,0.752-0.077
	c0.271-1.202,0.536-2.403,0.791-3.609c0.977-0.025,1.947-0.057,2.815-0.548c0.279-0.158,0.208-0.635-0.076-0.742
	c-0.772-0.29-1.532-0.604-2.284-0.937c0.204-1.026,0.4-2.055,0.576-3.087c0.057-0.332-0.381-0.434-0.528-0.188
	c-0.168-0.127-0.413-0.139-0.588,0.074c-0.596,0.718-1.228,1.396-1.895,2.032c-0.818-0.424-1.625-0.872-2.42-1.347
	c-0.313-0.187-0.688,0.214-0.554,0.524c0.351,0.817,0.704,1.634,1.057,2.452c-0.565,0.432-1.148,0.839-1.756,1.221
	C225.374,237.609,225.667,238.173,226.07,238.154z"/>
<path fill="#F6E469" stroke="#1D1D1B" stroke-width="0.3655" stroke-miterlimit="10" d="M432.66,303.667
	c1.111,0.775,2.176,1.598,3.199,2.463c-0.738,1.508-1.477,3.016-2.213,4.527c-0.282,0.572,0.389,1.359,0.996,1.037
	c1.541-0.82,3.104-1.592,4.686-2.318c1.201,1.262,2.33,2.596,3.389,4.006c0.312,0.416,0.773,0.412,1.104,0.191
	c0.256,0.475,1.09,0.322,1.014-0.307c-0.238-1.963-0.514-3.918-0.805-5.873c1.447-0.559,2.906-1.082,4.391-1.559
	c0.543-0.176,0.721-1.068,0.211-1.393c-1.594-1.006-3.42-1.154-5.26-1.289c-0.371-2.295-0.76-4.586-1.164-6.877
	c-0.127-0.72-1.082-0.882-1.408-0.213c-1.078,2.184-2.148,4.37-3.219,6.553c-1.426-0.137-2.85-0.277-4.275-0.412
	C432.545,302.13,431.941,303.167,432.66,303.667z"/>
<path fill="#F6E469" stroke="#1D1D1B" stroke-width="0.3655" stroke-miterlimit="10" d="M410.606,302.88
	c1.607-0.076,3.213-0.156,4.82-0.232c1.083,2.51,2.168,5.018,3.257,7.529c0.333,0.768,1.412,0.637,1.595-0.164
	c0.577-2.549,1.138-5.1,1.679-7.656c2.07-0.053,4.129-0.119,5.971-1.162c0.59-0.334,0.441-1.348-0.161-1.574
	c-1.638-0.615-3.25-1.281-4.843-1.986c0.431-2.179,0.846-4.358,1.221-6.549c0.121-0.702-0.809-0.918-1.121-0.399
	c-0.357-0.267-0.875-0.293-1.248,0.156c-1.264,1.525-2.604,2.962-4.02,4.312c-1.736-0.899-3.448-1.849-5.134-2.855
	c-0.664-0.395-1.459,0.454-1.174,1.111c0.746,1.735,1.493,3.468,2.239,5.201c-1.197,0.916-2.435,1.783-3.725,2.592
	C409.129,301.724,409.751,302.921,410.606,302.88z"/>
<path fill="#F6E469" stroke="#1D1D1B" stroke-width="0.3655" stroke-miterlimit="10" d="M419.391,282.794
	c1.607-0.077,3.212-0.156,4.82-0.232c1.083,2.51,2.168,5.019,3.258,7.528c0.333,0.769,1.412,0.639,1.594-0.163
	c0.578-2.548,1.138-5.1,1.679-7.656c2.071-0.052,4.13-0.12,5.972-1.162c0.59-0.335,0.441-1.349-0.162-1.573
	c-1.639-0.616-3.248-1.283-4.842-1.987c0.432-2.178,0.846-4.358,1.219-6.548c0.122-0.704-0.807-0.918-1.119-0.4
	c-0.357-0.267-0.875-0.293-1.248,0.156c-1.264,1.526-2.604,2.963-4.02,4.312c-1.736-0.899-3.449-1.85-5.134-2.854
	c-0.663-0.396-1.459,0.453-1.174,1.111c0.747,1.734,1.494,3.467,2.24,5.201c-1.198,0.914-2.435,1.781-3.725,2.59
	C417.913,281.638,418.535,282.835,419.391,282.794z"/>
<path fill="#F6E469" stroke="#1D1D1B" stroke-width="0.3655" stroke-miterlimit="10" d="M446.183,261.309
	c0.777,1.704,1.467,3.434,2.082,5.185c-1.941,1.279-3.883,2.558-5.826,3.839c-0.736,0.483-0.49,1.896,0.459,1.936
	c2.416,0.105,4.818,0.286,7.213,0.534c0.545,2.347,0.955,4.73,1.223,7.155c0.08,0.715,0.629,1.036,1.178,1.003
	c-0.027,0.747,1.074,1.152,1.424,0.349c1.096-2.509,2.145-5.031,3.172-7.563c2.117,0.35,4.225,0.753,6.328,1.229
	c0.77,0.174,1.609-0.768,1.229-1.511c-1.189-2.317-3.262-3.78-5.357-5.233c1.172-2.997,2.32-6.001,3.449-9.015
	c0.355-0.947-0.668-1.81-1.531-1.244c-2.816,1.845-5.631,3.694-8.443,5.546c-1.602-1.165-3.201-2.333-4.801-3.498
	C447.127,259.399,445.677,260.209,446.183,261.309z"/>
<path fill="#F6E469" stroke="#1D1D1B" stroke-width="0.3655" stroke-miterlimit="10" d="M420.458,244.864
	c1.97,1.039,3.939,2.073,5.907,3.111c-0.475,3.753-0.947,7.506-1.414,11.263c-0.143,1.148,1.234,1.751,2.015,0.927
	c2.48-2.633,4.942-5.278,7.384-7.941c2.504,1.393,5.006,2.759,7.932,2.814c0.939,0.015,1.473-1.297,0.914-1.99
	c-1.518-1.885-2.969-3.812-4.371-5.772c2.045-2.291,4.072-4.597,6.061-6.943c0.635-0.753-0.318-1.661-1.057-1.266
	c-0.238-0.568-0.836-0.963-1.598-0.69c-2.576,0.929-5.184,1.698-7.82,2.312c-1.438-2.294-2.809-4.629-4.11-7.013
	c-0.513-0.938-2.056-0.485-2.179,0.496c-0.332,2.593-0.659,5.185-0.99,7.775c-2.07,0.248-4.154,0.41-6.26,0.468
	C419.51,242.449,419.409,244.311,420.458,244.864z"/>
<path fill="#F6E469" stroke="#1D1D1B" stroke-width="0.3655" stroke-miterlimit="10" d="M409.752,216.243
	c-0.346,1.607-0.77,3.185-1.257,4.739c-2.036-0.119-4.071-0.239-6.11-0.355c-0.771-0.047-1.339,1.074-0.693,1.602
	c1.642,1.342,3.239,2.729,4.793,4.16c-0.849,1.935-1.812,3.826-2.895,5.674c-0.319,0.545-0.102,1.06,0.302,1.325
	c-0.411,0.509,0.151,1.372,0.819,0.991c2.086-1.189,4.149-2.415,6.2-3.656c1.305,1.357,2.575,2.747,3.805,4.185
	c0.452,0.527,1.535,0.305,1.657-0.417c0.38-2.254-0.311-4.37-1.023-6.492c2.397-1.494,4.781-3.003,7.155-4.53
	c0.747-0.48,0.481-1.626-0.421-1.679c-2.951-0.181-5.9-0.356-8.849-0.531c-0.515-1.659-1.027-3.318-1.541-4.979
	C411.418,215.394,409.973,215.205,409.752,216.243z"/>
<path fill="#F6E469" stroke="#1D1D1B" stroke-width="0.3655" stroke-miterlimit="10" d="M386.682,189.185
	c1.13,2.372,2.262,4.743,3.392,7.113c-3.098,3.215-6.194,6.434-9.288,9.661c-0.946,0.984-0.069,2.528,1.252,2.298
	c4.206-0.74,8.401-1.506,12.595-2.303c1.385,3.087,2.786,6.147,5.519,8.263c0.877,0.678,2.309-0.186,2.269-1.235
	c-0.107-2.856-0.122-5.704-0.063-8.549c3.552-0.724,7.1-1.477,10.638-2.296c1.133-0.259,0.871-1.794-0.107-1.94
	c0.176-0.706-0.11-1.502-1.023-1.783c-3.094-0.939-6.104-2.051-9.032-3.333c0.26-3.183,0.609-6.362,1.062-9.538
	c0.175-1.248-1.604-1.91-2.415-1.067c-2.144,2.219-4.282,4.438-6.423,6.658c-2.134-1.227-4.22-2.544-6.254-3.976
	C387.49,186.232,386.081,187.922,386.682,189.185z"/>
<path fill="#F6E469" stroke="#1D1D1B" stroke-width="0.3655" stroke-miterlimit="10" d="M426.9,191.593
	c0.842,1.764,1.682,3.526,2.522,5.287c-2.303,2.391-4.604,4.783-6.903,7.18c-0.705,0.734-0.051,1.88,0.931,1.708
	c3.124-0.548,6.243-1.117,9.36-1.712c1.029,2.297,2.072,4.57,4.102,6.143c0.652,0.502,1.717-0.139,1.688-0.919
	c-0.08-2.123-0.088-4.24-0.045-6.355c2.639-0.538,5.275-1.097,7.902-1.706c0.846-0.195,0.652-1.333-0.076-1.442
	c0.131-0.527-0.082-1.117-0.762-1.325c-2.301-0.698-4.537-1.528-6.715-2.478c0.195-2.368,0.455-4.73,0.789-7.089
	c0.133-0.929-1.191-1.421-1.795-0.794c-1.592,1.649-3.182,3.3-4.771,4.95c-1.587-0.911-3.139-1.892-4.648-2.956
	C427.502,189.397,426.455,190.655,426.9,191.593z"/>
<path fill="#F6E469" stroke="#1D1D1B" stroke-width="0.3655" stroke-miterlimit="10" d="M463.527,211.516
	c-1.543,1.673-3.158,3.253-4.83,4.764c-2.344-1.574-4.684-3.147-7.029-4.721c-0.887-0.598-2.354,0.338-1.953,1.42
	c1.014,2.755,1.939,5.53,2.787,8.329c-2.375,1.709-4.854,3.287-7.443,4.725c-0.764,0.426-0.863,1.191-0.568,1.79
	c-0.85,0.32-0.789,1.742,0.277,1.758c3.324,0.05,6.641,0.04,9.957,0.003c0.6,2.535,1.139,5.085,1.592,7.662
	c0.168,0.945,1.615,1.443,2.268,0.668c2.037-2.419,2.703-5.426,3.348-8.455c3.906-0.095,7.809-0.218,11.711-0.368
	c1.229-0.046,1.715-1.596,0.678-2.296c-3.389-2.29-6.777-4.573-10.172-6.854c0.555-2.338,1.113-4.678,1.668-7.017
	C466.109,211.677,464.521,210.434,463.527,211.516z"/>
<path fill="#F6E469" stroke="#1D1D1B" stroke-width="0.3655" stroke-miterlimit="10" d="M463.562,177.354
	c-0.238,2.692-0.475,5.382-0.715,8.074c-4.424,1.229-8.848,2.459-13.273,3.7c-1.355,0.379-1.383,2.205-0.092,2.69
	c4.109,1.542,8.225,3.059,12.355,4.542c-0.385,3.459-0.742,6.9,0.57,10.204c0.424,1.059,2.143,1.041,2.656,0.09
	c1.398-2.584,2.875-5.114,4.414-7.604c3.523,1.214,7.057,2.403,10.619,3.527c1.141,0.361,1.709-1.134,0.918-1.776
	c0.527-0.533,0.688-1.386,0.027-2.112c-2.25-2.45-4.334-5.009-6.258-7.674c1.895-2.683,3.865-5.314,5.924-7.891
	c0.809-1.015-0.42-2.531-1.578-2.208c-3.059,0.844-6.115,1.692-9.17,2.539c-1.248-2.202-2.408-4.46-3.459-6.791
	C465.824,175.159,463.689,175.921,463.562,177.354z"/>
<path fill="#F6E469" stroke="#1D1D1B" stroke-width="0.3655" stroke-miterlimit="10" d="M319.25,196.934
	c1.112,0.776,2.175,1.599,3.2,2.463c-0.738,1.508-1.476,3.018-2.215,4.528c-0.28,0.571,0.39,1.36,0.997,1.037
	c1.542-0.821,3.105-1.592,4.687-2.318c1.201,1.262,2.332,2.595,3.388,4.005c0.313,0.415,0.774,0.413,1.104,0.192
	c0.256,0.474,1.091,0.323,1.013-0.307c-0.238-1.964-0.513-3.919-0.803-5.873c1.446-0.559,2.906-1.083,4.39-1.56
	c0.545-0.175,0.719-1.068,0.21-1.392c-1.592-1.005-3.419-1.154-5.258-1.289c-0.372-2.296-0.761-4.588-1.164-6.878
	c-0.127-0.721-1.082-0.883-1.41-0.214c-1.077,2.184-2.148,4.369-3.219,6.554c-1.424-0.137-2.848-0.277-4.274-0.413
	C319.137,195.398,318.531,196.434,319.25,196.934z"/>
<path fill="#F6E469" stroke="#1D1D1B" stroke-width="0.3655" stroke-miterlimit="10" d="M366.5,168.018
	c0.778,1.706,1.467,3.434,2.083,5.185c-1.94,1.279-3.883,2.559-5.825,3.84c-0.736,0.481-0.491,1.895,0.458,1.935
	c2.415,0.106,4.819,0.286,7.214,0.534c0.542,2.347,0.952,4.731,1.22,7.155c0.081,0.715,0.63,1.037,1.18,1.003
	c-0.028,0.747,1.072,1.152,1.423,0.349c1.095-2.508,2.143-5.032,3.171-7.565c2.117,0.352,4.225,0.754,6.327,1.23
	c0.772,0.174,1.61-0.768,1.23-1.512c-1.19-2.315-3.262-3.779-5.359-5.231c1.171-2.998,2.321-6.002,3.449-9.014
	c0.355-0.949-0.667-1.812-1.53-1.245c-2.817,1.844-5.63,3.694-8.443,5.545c-1.601-1.165-3.2-2.333-4.802-3.499
	C367.444,166.109,365.994,166.92,366.5,168.018z"/>
<path fill="#F6E469" stroke="#1D1D1B" stroke-width="0.3655" stroke-miterlimit="10" d="M481.801,214.425
	c1.111,0.774,2.174,1.599,3.199,2.463c-0.738,1.508-1.477,3.018-2.215,4.527c-0.279,0.572,0.391,1.36,0.998,1.038
	c1.541-0.82,3.104-1.593,4.686-2.318c1.199,1.262,2.332,2.596,3.389,4.005c0.312,0.416,0.773,0.414,1.104,0.192
	c0.256,0.474,1.09,0.323,1.012-0.307c-0.236-1.963-0.512-3.92-0.803-5.874c1.445-0.559,2.906-1.081,4.389-1.559
	c0.545-0.176,0.721-1.067,0.211-1.392c-1.592-1.006-3.418-1.154-5.258-1.289c-0.371-2.296-0.762-4.587-1.164-6.878
	c-0.127-0.72-1.082-0.882-1.41-0.213c-1.076,2.184-2.148,4.369-3.219,6.554c-1.424-0.137-2.848-0.276-4.273-0.413
	C481.687,212.889,481.08,213.926,481.801,214.425z"/>
<path fill="#F6E469" stroke="#1D1D1B" stroke-width="0.3655" stroke-miterlimit="10" d="M332.911,186.433
	c1.607-0.077,3.213-0.155,4.819-0.232c1.083,2.511,2.167,5.02,3.257,7.529c0.333,0.768,1.412,0.638,1.594-0.164
	c0.578-2.549,1.139-5.1,1.679-7.656c2.072-0.052,4.13-0.12,5.972-1.162c0.59-0.335,0.441-1.348-0.162-1.575
	c-1.638-0.614-3.249-1.28-4.842-1.986c0.43-2.177,0.845-4.358,1.22-6.549c0.122-0.702-0.807-0.918-1.121-0.4
	c-0.356-0.266-0.874-0.292-1.247,0.158c-1.265,1.525-2.604,2.962-4.02,4.312c-1.737-0.9-3.449-1.85-5.135-2.856
	c-0.663-0.395-1.458,0.455-1.173,1.111c0.747,1.736,1.493,3.469,2.24,5.203c-1.198,0.914-2.436,1.781-3.726,2.59
	C331.434,185.279,332.056,186.474,332.911,186.433z"/>
<path fill="#F6E469" stroke="#1D1D1B" stroke-width="0.3655" stroke-miterlimit="10" d="M404.487,177.524
	c1.607-0.076,3.213-0.155,4.818-0.233c1.083,2.511,2.168,5.019,3.258,7.529c0.333,0.769,1.413,0.639,1.594-0.163
	c0.578-2.548,1.138-5.1,1.68-7.657c2.072-0.051,4.129-0.12,5.971-1.161c0.59-0.337,0.44-1.349-0.161-1.575
	c-1.638-0.615-3.25-1.282-4.843-1.987c0.432-2.177,0.845-4.357,1.22-6.548c0.121-0.703-0.807-0.918-1.12-0.398
	c-0.358-0.267-0.875-0.294-1.249,0.156c-1.264,1.526-2.605,2.961-4.02,4.312c-1.737-0.899-3.449-1.851-5.135-2.854
	c-0.662-0.397-1.459,0.453-1.172,1.111c0.746,1.733,1.492,3.466,2.239,5.201c-1.198,0.915-2.437,1.781-3.725,2.59
	C403.009,176.368,403.63,177.565,404.487,177.524z"/>
<path fill="#F6E469" stroke="#1D1D1B" stroke-width="0.3655" stroke-miterlimit="10" d="M431.279,156.04
	c0.777,1.706,1.465,3.434,2.081,5.186c-1.94,1.279-3.883,2.557-5.824,3.837c-0.735,0.484-0.491,1.896,0.458,1.936
	c2.415,0.106,4.819,0.287,7.215,0.533c0.541,2.348,0.953,4.732,1.221,7.157c0.078,0.716,0.629,1.036,1.18,1.002
	c-0.029,0.747,1.072,1.154,1.422,0.349c1.094-2.509,2.143-5.032,3.172-7.564c2.117,0.351,4.225,0.754,6.326,1.231
	c0.773,0.172,1.609-0.769,1.23-1.512c-1.189-2.317-3.262-3.779-5.361-5.232c1.174-2.997,2.322-6.002,3.451-9.014
	c0.355-0.948-0.668-1.812-1.529-1.245c-2.818,1.845-5.631,3.694-8.443,5.545c-1.602-1.165-3.201-2.332-4.801-3.498
	C432.222,154.13,430.771,154.941,431.279,156.04z"/>
<path fill="#F6E469" stroke="#1D1D1B" stroke-width="0.3655" stroke-miterlimit="10" d="M462.922,252.593
	c1.971,1.038,3.939,2.073,5.908,3.111c-0.477,3.752-0.949,7.505-1.416,11.262c-0.143,1.149,1.234,1.751,2.014,0.927
	c2.482-2.632,4.943-5.277,7.387-7.94c2.504,1.393,5.004,2.759,7.93,2.812c0.939,0.016,1.475-1.295,0.916-1.988
	c-1.518-1.885-2.971-3.812-4.373-5.772c2.047-2.29,4.074-4.598,6.061-6.944c0.637-0.752-0.318-1.66-1.057-1.265
	c-0.236-0.569-0.834-0.963-1.596-0.691c-2.578,0.93-5.184,1.698-7.822,2.312c-1.436-2.293-2.809-4.63-4.109-7.014
	c-0.514-0.936-2.057-0.484-2.18,0.497c-0.332,2.593-0.66,5.184-0.988,7.774c-2.07,0.247-4.156,0.411-6.262,0.469
	C461.974,250.177,461.873,252.039,462.922,252.593z"/>
<path fill="#F6E469" stroke="#1D1D1B" stroke-width="0.3655" stroke-miterlimit="10" d="M404.679,319.519
	c0.902,0.629,1.765,1.299,2.599,2c-0.599,1.225-1.199,2.451-1.798,3.678c-0.229,0.463,0.317,1.104,0.808,0.842
	c1.252-0.666,2.521-1.293,3.805-1.883c0.975,1.023,1.893,2.107,2.753,3.254c0.253,0.336,0.626,0.334,0.895,0.154
	c0.208,0.385,0.886,0.262,0.823-0.248c-0.194-1.596-0.418-3.182-0.653-4.77c1.174-0.453,2.36-0.879,3.565-1.266
	c0.442-0.143,0.585-0.869,0.17-1.131c-1.292-0.816-2.777-0.938-4.27-1.047c-0.303-1.863-0.618-3.725-0.946-5.586
	c-0.103-0.584-0.877-0.715-1.144-0.172c-0.875,1.773-1.745,3.547-2.613,5.32c-1.157-0.109-2.314-0.225-3.471-0.334
	C404.586,318.271,404.095,319.115,404.679,319.519z"/>
<path fill="#F6E469" stroke="#1D1D1B" stroke-width="0.3655" stroke-miterlimit="10" d="M377.36,310.474
	c0.84-0.506,1.679-1.016,2.518-1.521c1.31,1.031,2.62,2.062,3.933,3.092c0.402,0.316,0.943-0.066,0.808-0.551
	c-0.431-1.533-0.871-3.064-1.323-4.594c1.096-0.629,2.181-1.264,2.867-2.357c0.219-0.35-0.156-0.85-0.543-0.797
	c-1.057,0.145-2.117,0.256-3.175,0.34c-0.401-1.293-0.812-2.584-1.246-3.867c-0.139-0.412-0.699-0.258-0.718,0.111
	c-0.269-0.039-0.554,0.096-0.624,0.445c-0.234,1.186-0.537,2.344-0.905,3.48c-1.192,0.02-2.387,0.008-3.582-0.043
	c-0.471-0.02-0.652,0.668-0.308,0.936c0.903,0.717,1.808,1.428,2.711,2.141c-0.377,0.84-0.79,1.664-1.247,2.473
	C376.231,310.282,376.913,310.745,377.36,310.474z"/>
<path fill="#F6E469" stroke="#1D1D1B" stroke-width="0.3655" stroke-miterlimit="10" d="M391.32,313.37
	c1.046-0.051,2.093-0.102,3.139-0.152c0.706,1.635,1.412,3.271,2.123,4.906c0.217,0.5,0.919,0.414,1.038-0.107
	c0.376-1.66,0.741-3.322,1.094-4.988c1.35-0.035,2.691-0.076,3.89-0.756c0.384-0.219,0.288-0.877-0.105-1.025
	c-1.067-0.4-2.117-0.836-3.155-1.295c0.281-1.418,0.552-2.84,0.795-4.266c0.079-0.459-0.526-0.598-0.73-0.26
	c-0.232-0.174-0.569-0.191-0.813,0.102c-0.822,0.994-1.696,1.93-2.618,2.809c-1.131-0.586-2.246-1.203-3.345-1.859
	c-0.431-0.258-0.949,0.295-0.765,0.723c0.487,1.131,0.974,2.26,1.46,3.389c-0.781,0.598-1.586,1.162-2.427,1.689
	C390.357,312.618,390.762,313.396,391.32,313.37z"/>
<path fill="#F6E469" stroke="#1D1D1B" stroke-width="0.3655" stroke-miterlimit="10" d="M301.304,184.616
	c0.648-0.889,1.335-1.737,2.056-2.555c1.211,0.626,2.423,1.252,3.637,1.877c0.459,0.238,1.11-0.293,0.858-0.791
	c-0.64-1.266-1.237-2.548-1.8-3.845c1.045-0.954,2.148-1.847,3.313-2.682c0.341-0.247,0.348-0.621,0.173-0.893
	c0.39-0.2,0.281-0.879-0.231-0.828c-1.599,0.162-3.191,0.35-4.783,0.551c-0.428-1.184-0.828-2.379-1.188-3.591
	c-0.134-0.445-0.855-0.603-1.126-0.195c-0.845,1.275-0.998,2.756-1.138,4.246c-1.872,0.262-3.738,0.539-5.604,0.828
	c-0.587,0.09-0.735,0.861-0.198,1.14c1.754,0.912,3.509,1.821,5.265,2.727c-0.136,1.153-0.274,2.308-0.41,3.462
	C300.055,184.683,300.887,185.193,301.304,184.616z"/>
<path fill="#F6E469" stroke="#1D1D1B" stroke-width="0.3655" stroke-miterlimit="10" d="M291.678,211.737
	c-0.49-0.85-0.98-1.7-1.469-2.55c1.059-1.287,2.119-2.575,3.176-3.866c0.325-0.395-0.048-0.944-0.532-0.818
	c-1.543,0.396-3.084,0.804-4.622,1.222c-0.604-1.108-1.216-2.206-2.294-2.914c-0.346-0.228-0.854,0.137-0.809,0.526
	c0.123,1.06,0.21,2.119,0.272,3.181c-1.301,0.374-2.601,0.755-3.893,1.165c-0.416,0.129-0.272,0.691,0.095,0.719
	c-0.045,0.268,0.085,0.555,0.433,0.632c1.18,0.26,2.333,0.588,3.459,0.979c-0.004,1.193-0.042,2.387-0.118,3.582
	c-0.03,0.47,0.653,0.665,0.93,0.327c0.733-0.89,1.465-1.777,2.197-2.665c0.831,0.394,1.646,0.825,2.445,1.299
	C291.462,212.86,291.938,212.19,291.678,211.737z"/>
<path fill="#F6E469" stroke="#1D1D1B" stroke-width="0.3655" stroke-miterlimit="10" d="M294.871,197.844
	c-0.029-1.049-0.058-2.095-0.085-3.143c1.65-0.67,3.299-1.342,4.949-2.017c0.504-0.207,0.436-0.912-0.084-1.041
	c-1.652-0.412-3.306-0.812-4.963-1.2c-0.005-1.351-0.021-2.692-0.673-3.906c-0.211-0.388-0.872-0.305-1.028,0.083
	c-0.424,1.059-0.88,2.099-1.362,3.127c-1.411-0.313-2.827-0.613-4.248-0.887c-0.456-0.088-0.609,0.513-0.275,0.724
	c-0.179,0.229-0.204,0.566,0.084,0.815c0.976,0.844,1.893,1.737,2.752,2.677c-0.61,1.119-1.252,2.221-1.932,3.305
	c-0.266,0.426,0.275,0.957,0.708,0.779c1.14-0.461,2.279-0.923,3.419-1.386c0.579,0.793,1.125,1.611,1.635,2.461
	C294.097,198.789,294.885,198.402,294.871,197.844z"/>
<path fill="#F6E469" stroke="#1D1D1B" stroke-width="0.3655" stroke-miterlimit="10" d="M404.269,349.456
	c0.193,0.838,0.34,1.68,0.456,2.525c-0.992,0.393-1.982,0.789-2.973,1.186c-0.377,0.148-0.397,0.807,0.025,0.912
	c1.077,0.271,2.142,0.576,3.195,0.908c0.027,1.107-0.01,2.215-0.114,3.33c-0.03,0.33,0.188,0.525,0.438,0.562
	c-0.081,0.332,0.375,0.615,0.608,0.289c0.725-1.027,1.43-2.066,2.125-3.109c0.919,0.354,1.831,0.732,2.732,1.141
	c0.331,0.148,0.794-0.197,0.692-0.566c-0.32-1.152-1.117-2.002-1.926-2.848c0.805-1.24,1.599-2.484,2.386-3.734
	c0.248-0.393-0.131-0.877-0.573-0.701c-1.438,0.566-2.874,1.139-4.309,1.711c-0.612-0.672-1.223-1.346-1.836-2.018
	C404.869,348.685,404.143,348.915,404.269,349.456z"/>
<path fill="#F6E469" stroke="#1D1D1B" stroke-width="0.3655" stroke-miterlimit="10" d="M393.185,329.865
	c0.753,0.148,1.507,0.293,2.258,0.441c0.218,1.287,0.436,2.572,0.655,3.857c0.066,0.395,0.583,0.457,0.758,0.105
	c0.555-1.113,1.105-2.234,1.646-3.357c0.964,0.213,1.927,0.414,2.899,0.141c0.312-0.088,0.357-0.574,0.104-0.746
	c-0.688-0.473-1.359-0.965-2.019-1.471c0.446-0.961,0.887-1.924,1.309-2.898c0.137-0.311-0.269-0.516-0.474-0.311
	c-0.135-0.166-0.372-0.236-0.595-0.068c-0.758,0.562-1.543,1.074-2.353,1.539c-0.702-0.613-1.387-1.248-2.054-1.906
	c-0.263-0.258-0.729,0.045-0.671,0.381c0.149,0.889,0.298,1.777,0.447,2.666c-0.659,0.289-1.33,0.549-2.021,0.777
	C392.631,329.163,392.783,329.788,393.185,329.865z"/>
<path fill="#F6E469" stroke="#1D1D1B" stroke-width="0.3655" stroke-miterlimit="10" d="M399.755,338.876
	c0.634,0.52,1.266,1.039,1.899,1.561c-0.45,1.318-0.899,2.637-1.346,3.957c-0.137,0.406,0.315,0.725,0.658,0.484
	c1.088-0.766,2.173-1.535,3.253-2.316c0.801,0.688,1.6,1.367,2.651,1.605c0.339,0.074,0.628-0.359,0.479-0.652
	c-0.409-0.793-0.788-1.596-1.148-2.406c0.907-0.674,1.811-1.355,2.701-2.055c0.286-0.225,0.008-0.623-0.288-0.535
	c-0.044-0.223-0.229-0.408-0.525-0.367c-0.998,0.145-1.995,0.229-2.993,0.252c-0.348-0.932-0.669-1.877-0.96-2.834
	c-0.116-0.377-0.707-0.328-0.825,0.018c-0.312,0.91-0.623,1.82-0.934,2.73c-0.765-0.064-1.528-0.162-2.292-0.297
	C399.592,337.933,399.418,338.599,399.755,338.876z"/>
</svg>
