<?xml version="1.0" encoding="utf-8"?>
<!-- Generator: Adobe Illustrator 16.0.0, SVG Export Plug-In . SVG Version: 6.00 Build 0)  -->
<!DOCTYPE svg PUBLIC "-//W3C//DTD SVG 1.1//EN" "http://www.w3.org/Graphics/SVG/1.1/DTD/svg11.dtd">
<svg version="1.1" id="图层_1" xmlns="http://www.w3.org/2000/svg" xmlns:xlink="http://www.w3.org/1999/xlink" x="0px" y="0px"
	 width="841.89px" height="595.28px" viewBox="0 0 841.89 595.28" enable-background="new 0 0 841.89 595.28" xml:space="preserve">
<circle fill="none" stroke="#000000" stroke-width="0.7159" stroke-miterlimit="10" cx="666.553" cy="264.609" r="18.074"/>
<circle fill="none" stroke="#000000" stroke-width="0.7159" stroke-miterlimit="10" cx="174.486" cy="329.391" r="18.074"/>
<circle fill="none" stroke="#000000" stroke-width="0.573" stroke-miterlimit="10" cx="211.518" cy="324.517" r="14.381"/>
<circle fill="none" stroke="#000000" stroke-width="0.573" stroke-miterlimit="10" cx="242.596" cy="320.425" r="12.14"/>
<circle fill="none" stroke="#000000" stroke-width="0.573" stroke-miterlimit="10" cx="270.478" cy="316.753" r="11.157"/>
<circle fill="none" stroke="#000000" stroke-width="0.573" stroke-miterlimit="10" cx="295.385" cy="313.476" r="9.14"/>
<circle fill="none" stroke="#000000" stroke-width="0.666" stroke-miterlimit="10" cx="317.504" cy="310.562" r="8.3"/>
<circle fill="none" stroke="#000000" stroke-width="0.573" stroke-miterlimit="10" cx="337.642" cy="307.912" r="7.14"/>
<circle fill="none" stroke="#000000" stroke-width="0.573" stroke-miterlimit="10" cx="629.521" cy="269.485" r="14.381"/>
<circle fill="none" stroke="#000000" stroke-width="0.573" stroke-miterlimit="10" cx="598.444" cy="273.576" r="12.14"/>
<circle fill="none" stroke="#000000" stroke-width="0.573" stroke-miterlimit="10" cx="570.564" cy="277.245" r="11.157"/>
<circle fill="none" stroke="#000000" stroke-width="0.573" stroke-miterlimit="10" cx="545.658" cy="280.525" r="9.14"/>
<circle fill="none" stroke="#000000" stroke-width="0.666" stroke-miterlimit="10" cx="523.538" cy="283.437" r="8.3"/>
<circle fill="none" stroke="#000000" stroke-width="0.573" stroke-miterlimit="10" cx="503.401" cy="286.089" r="7.14"/>
<circle fill="none" stroke="#000000" stroke-width="0.7159" stroke-miterlimit="10" cx="649.787" cy="202.034" r="18.075"/>
<circle fill="none" stroke="#000000" stroke-width="0.7159" stroke-miterlimit="10" cx="191.252" cy="391.965" r="18.074"/>
<circle fill="none" stroke="#000000" stroke-width="0.573" stroke-miterlimit="10" cx="225.762" cy="377.672" r="14.38"/>
<circle fill="none" stroke="#000000" stroke-width="0.573" stroke-miterlimit="10" cx="254.721" cy="365.677" r="12.14"/>
<circle fill="none" stroke="#000000" stroke-width="0.573" stroke-miterlimit="10" cx="280.703" cy="354.914" r="11.157"/>
<circle fill="none" stroke="#000000" stroke-width="0.573" stroke-miterlimit="10" cx="303.912" cy="345.301" r="9.14"/>
<path fill="none" stroke="#000000" stroke-width="0.666" stroke-miterlimit="10" d="M332.192,333.586
	c1.755,4.234-0.257,9.092-4.491,10.845s-9.09-0.258-10.844-4.493c-1.755-4.232,0.257-9.088,4.492-10.843
	C325.583,327.341,330.438,329.354,332.192,333.586z"/>
<circle fill="none" stroke="#000000" stroke-width="0.573" stroke-miterlimit="10" cx="343.29" cy="328.99" r="7.14"/>
<circle fill="none" stroke="#000000" stroke-width="0.573" stroke-miterlimit="10" cx="615.278" cy="216.328" r="14.382"/>
<circle fill="none" stroke="#000000" stroke-width="0.573" stroke-miterlimit="10" cx="586.32" cy="228.323" r="12.14"/>
<circle fill="none" stroke="#000000" stroke-width="0.573" stroke-miterlimit="10" cx="560.338" cy="239.083" r="11.157"/>
<circle fill="none" stroke="#000000" stroke-width="0.573" stroke-miterlimit="10" cx="537.13" cy="248.698" r="9.139"/>
<path fill="none" stroke="#000000" stroke-width="0.666" stroke-miterlimit="10" d="M508.85,260.412
	c1.755,4.235,6.609,6.246,10.843,4.492c4.235-1.754,6.247-6.61,4.494-10.846c-1.755-4.232-6.61-6.244-10.845-4.49
	C509.108,251.321,507.096,256.177,508.85,260.412z"/>
<circle fill="none" stroke="#000000" stroke-width="0.573" stroke-miterlimit="10" cx="497.753" cy="265.009" r="7.14"/>
<circle fill="none" stroke="#000000" stroke-width="0.7159" stroke-miterlimit="10" cx="617.395" cy="145.931" r="18.075"/>
<circle fill="none" stroke="#000000" stroke-width="0.7159" stroke-miterlimit="10" cx="223.644" cy="448.067" r="18.074"/>
<circle fill="none" stroke="#000000" stroke-width="0.573" stroke-miterlimit="10" cx="253.277" cy="425.33" r="14.38"/>
<circle fill="none" stroke="#000000" stroke-width="0.573" stroke-miterlimit="10" cx="278.145" cy="406.248" r="12.14"/>
<circle fill="none" stroke="#000000" stroke-width="0.573" stroke-miterlimit="10" cx="300.456" cy="389.128" r="11.158"/>
<circle fill="none" stroke="#000000" stroke-width="0.573" stroke-miterlimit="10" cx="320.387" cy="373.834" r="9.14"/>
<circle fill="none" stroke="#000000" stroke-width="0.666" stroke-miterlimit="10" cx="338.086" cy="360.252" r="8.299"/>
<circle fill="none" stroke="#000000" stroke-width="0.573" stroke-miterlimit="10" cx="354.201" cy="347.888" r="7.14"/>
<circle fill="none" stroke="#000000" stroke-width="0.573" stroke-miterlimit="10" cx="587.762" cy="168.669" r="14.381"/>
<circle fill="none" stroke="#000000" stroke-width="0.573" stroke-miterlimit="10" cx="562.895" cy="187.75" r="12.14"/>
<circle fill="none" stroke="#000000" stroke-width="0.573" stroke-miterlimit="10" cx="540.583" cy="204.869" r="11.157"/>
<circle fill="none" stroke="#000000" stroke-width="0.573" stroke-miterlimit="10" cx="520.655" cy="220.162" r="9.14"/>
<circle fill="none" stroke="#000000" stroke-width="0.666" stroke-miterlimit="10" cx="502.954" cy="233.743" r="8.3"/>
<circle fill="none" stroke="#000000" stroke-width="0.573" stroke-miterlimit="10" cx="486.841" cy="246.108" r="7.14"/>
<circle fill="none" stroke="#000000" stroke-width="0.7159" stroke-miterlimit="10" cx="571.588" cy="100.124" r="18.075"/>
<circle fill="none" stroke="#000000" stroke-width="0.7159" stroke-miterlimit="10" cx="269.451" cy="493.875" r="18.074"/>
<circle fill="none" stroke="#000000" stroke-width="0.573" stroke-miterlimit="10" cx="292.19" cy="464.243" r="14.38"/>
<circle fill="none" stroke="#000000" stroke-width="0.573" stroke-miterlimit="10" cx="311.273" cy="439.375" r="12.14"/>
<circle fill="none" stroke="#000000" stroke-width="0.573" stroke-miterlimit="10" cx="328.392" cy="417.063" r="11.157"/>
<circle fill="none" stroke="#000000" stroke-width="0.573" stroke-miterlimit="10" cx="343.685" cy="397.134" r="9.139"/>
<circle fill="none" stroke="#000000" stroke-width="0.666" stroke-miterlimit="10" cx="357.267" cy="379.432" r="8.299"/>
<circle fill="none" stroke="#000000" stroke-width="0.573" stroke-miterlimit="10" cx="369.632" cy="363.318" r="7.139"/>
<circle fill="none" stroke="#000000" stroke-width="0.573" stroke-miterlimit="10" cx="548.85" cy="129.756" r="14.381"/>
<circle fill="none" stroke="#000000" stroke-width="0.573" stroke-miterlimit="10" cx="529.768" cy="154.624" r="12.14"/>
<circle fill="none" stroke="#000000" stroke-width="0.573" stroke-miterlimit="10" cx="512.648" cy="176.933" r="11.157"/>
<circle fill="none" stroke="#000000" stroke-width="0.573" stroke-miterlimit="10" cx="497.357" cy="196.864" r="9.14"/>
<circle fill="none" stroke="#000000" stroke-width="0.666" stroke-miterlimit="10" cx="483.773" cy="214.564" r="8.3"/>
<path fill="none" stroke="#000000" stroke-width="0.573" stroke-miterlimit="10" d="M467.062,236.342
	c3.129,2.4,7.612,1.809,10.014-1.319c2.399-3.128,1.81-7.609-1.32-10.009c-3.127-2.402-7.609-1.813-10.01,1.315
	C463.345,229.459,463.936,233.941,467.062,236.342z"/>
<circle fill="none" stroke="#000000" stroke-width="0.7159" stroke-miterlimit="10" cx="515.485" cy="67.732" r="18.074"/>
<circle fill="none" stroke="#000000" stroke-width="0.7159" stroke-miterlimit="10" cx="325.553" cy="526.266" r="18.074"/>
<circle fill="none" stroke="#000000" stroke-width="0.573" stroke-miterlimit="10" cx="339.847" cy="491.757" r="14.381"/>
<circle fill="none" stroke="#000000" stroke-width="0.573" stroke-miterlimit="10" cx="351.844" cy="462.798" r="12.14"/>
<circle fill="none" stroke="#000000" stroke-width="0.573" stroke-miterlimit="10" cx="362.605" cy="436.815" r="11.157"/>
<circle fill="none" stroke="#000000" stroke-width="0.573" stroke-miterlimit="10" cx="372.22" cy="413.605" r="9.139"/>
<path fill="none" stroke="#000000" stroke-width="0.666" stroke-miterlimit="10" d="M383.933,385.326
	c4.235,1.756,6.247,6.61,4.494,10.844c-1.756,4.235-6.611,6.246-10.847,4.492c-4.233-1.754-6.244-6.609-4.491-10.844
	C374.844,385.583,379.699,383.572,383.933,385.326z"/>
<circle fill="none" stroke="#000000" stroke-width="0.573" stroke-miterlimit="10" cx="388.53" cy="374.229" r="7.14"/>
<circle fill="none" stroke="#000000" stroke-width="0.573" stroke-miterlimit="10" cx="501.19" cy="102.24" r="14.381"/>
<circle fill="none" stroke="#000000" stroke-width="0.573" stroke-miterlimit="10" cx="489.196" cy="131.199" r="12.139"/>
<circle fill="none" stroke="#000000" stroke-width="0.573" stroke-miterlimit="10" cx="478.433" cy="157.179" r="11.157"/>
<circle fill="none" stroke="#000000" stroke-width="0.573" stroke-miterlimit="10" cx="468.82" cy="180.388" r="9.14"/>
<circle fill="none" stroke="#000000" stroke-width="0.666" stroke-miterlimit="10" cx="460.282" cy="201" r="8.3"/>
<circle fill="none" stroke="#000000" stroke-width="0.573" stroke-miterlimit="10" cx="452.51" cy="219.765" r="7.14"/>
<circle fill="none" stroke="#000000" stroke-width="0.7159" stroke-miterlimit="10" cx="452.91" cy="50.965" r="18.075"/>
<circle fill="none" stroke="#000000" stroke-width="0.7159" stroke-miterlimit="10" cx="388.128" cy="543.032" r="18.074"/>
<circle fill="none" stroke="#000000" stroke-width="0.573" stroke-miterlimit="10" cx="393.005" cy="506" r="14.381"/>
<circle fill="none" stroke="#000000" stroke-width="0.573" stroke-miterlimit="10" cx="397.096" cy="474.923" r="12.14"/>
<circle fill="none" stroke="#000000" stroke-width="0.573" stroke-miterlimit="10" cx="400.767" cy="447.042" r="11.157"/>
<circle fill="none" stroke="#000000" stroke-width="0.573" stroke-miterlimit="10" cx="404.046" cy="422.135" r="9.14"/>
<circle fill="none" stroke="#000000" stroke-width="0.666" stroke-miterlimit="10" cx="406.958" cy="400.015" r="8.299"/>
<path fill="none" stroke="#000000" stroke-width="0.573" stroke-miterlimit="10" d="M410.541,372.799
	c3.91,0.514,6.661,4.101,6.146,8.01c-0.515,3.912-4.102,6.662-8.01,6.146c-3.91-0.513-6.662-4.099-6.148-8.01
	C403.045,375.035,406.632,372.284,410.541,372.799z"/>
<circle fill="none" stroke="#000000" stroke-width="0.573" stroke-miterlimit="10" cx="448.036" cy="87.997" r="14.381"/>
<circle fill="none" stroke="#000000" stroke-width="0.573" stroke-miterlimit="10" cx="443.944" cy="119.073" r="12.14"/>
<circle fill="none" stroke="#000000" stroke-width="0.573" stroke-miterlimit="10" cx="440.272" cy="146.954" r="11.157"/>
<circle fill="none" stroke="#000000" stroke-width="0.573" stroke-miterlimit="10" cx="436.995" cy="171.86" r="9.139"/>
<circle fill="none" stroke="#000000" stroke-width="0.666" stroke-miterlimit="10" cx="434.082" cy="193.98" r="8.301"/>
<circle fill="none" stroke="#000000" stroke-width="0.573" stroke-miterlimit="10" cx="431.431" cy="214.117" r="7.14"/>
<circle fill="none" stroke="#000000" stroke-width="0.7159" stroke-miterlimit="10" cx="388.129" cy="50.966" r="18.075"/>
<circle fill="none" stroke="#000000" stroke-width="0.7159" stroke-miterlimit="10" cx="452.911" cy="543.032" r="18.074"/>
<circle fill="none" stroke="#000000" stroke-width="0.573" stroke-miterlimit="10" cx="448.037" cy="506.001" r="14.38"/>
<circle fill="none" stroke="#000000" stroke-width="0.573" stroke-miterlimit="10" cx="443.945" cy="474.923" r="12.14"/>
<circle fill="none" stroke="#000000" stroke-width="0.573" stroke-miterlimit="10" cx="440.273" cy="447.042" r="11.157"/>
<circle fill="none" stroke="#000000" stroke-width="0.573" stroke-miterlimit="10" cx="436.995" cy="422.133" r="9.139"/>
<circle fill="none" stroke="#000000" stroke-width="0.666" stroke-miterlimit="10" cx="434.082" cy="400.014" r="8.3"/>
<circle fill="none" stroke="#000000" stroke-width="0.573" stroke-miterlimit="10" cx="431.431" cy="379.877" r="7.14"/>
<circle fill="none" stroke="#000000" stroke-width="0.573" stroke-miterlimit="10" cx="393.004" cy="87.998" r="14.381"/>
<circle fill="none" stroke="#000000" stroke-width="0.573" stroke-miterlimit="10" cx="397.096" cy="119.074" r="12.139"/>
<circle fill="none" stroke="#000000" stroke-width="0.573" stroke-miterlimit="10" cx="400.765" cy="146.955" r="11.157"/>
<circle fill="none" stroke="#000000" stroke-width="0.573" stroke-miterlimit="10" cx="404.045" cy="171.861" r="9.14"/>
<path fill="none" stroke="#000000" stroke-width="0.666" stroke-miterlimit="10" d="M408.039,202.21
	c4.545-0.599,7.744-4.769,7.146-9.312c-0.598-4.546-4.769-7.745-9.313-7.147c-4.542,0.599-7.742,4.769-7.145,9.313
	C399.326,199.608,403.496,202.809,408.039,202.21z"/>
<circle fill="none" stroke="#000000" stroke-width="0.573" stroke-miterlimit="10" cx="409.608" cy="214.117" r="7.14"/>
<circle fill="none" stroke="#000000" stroke-width="0.7159" stroke-miterlimit="10" cx="325.555" cy="67.732" r="18.075"/>
<path fill="none" stroke="#000000" stroke-width="0.7159" stroke-miterlimit="10" d="M508.567,509.568
	c-9.223,3.819-13.601,14.393-9.78,23.615c3.82,9.222,14.393,13.602,23.615,9.779c9.221-3.819,13.602-14.391,9.781-23.611
	C528.363,510.127,517.79,505.748,508.567,509.568z"/>
<circle fill="none" stroke="#000000" stroke-width="0.573" stroke-miterlimit="10" cx="501.192" cy="491.757" r="14.381"/>
<circle fill="none" stroke="#000000" stroke-width="0.573" stroke-miterlimit="10" cx="489.197" cy="462.798" r="12.14"/>
<circle fill="none" stroke="#000000" stroke-width="0.573" stroke-miterlimit="10" cx="478.434" cy="436.815" r="11.157"/>
<circle fill="none" stroke="#000000" stroke-width="0.573" stroke-miterlimit="10" cx="468.821" cy="413.607" r="9.14"/>
<circle fill="none" stroke="#000000" stroke-width="0.666" stroke-miterlimit="10" cx="460.283" cy="392.994" r="8.299"/>
<path fill="none" stroke="#000000" stroke-width="0.573" stroke-miterlimit="10" d="M449.777,367.633
	c3.644-1.51,7.82,0.221,9.329,3.864s-0.221,7.82-3.863,9.327c-3.645,1.512-7.82-0.219-9.331-3.863
	C444.404,373.317,446.135,369.142,449.777,367.633z"/>
<circle fill="none" stroke="#000000" stroke-width="0.573" stroke-miterlimit="10" cx="339.848" cy="102.24" r="14.381"/>
<circle fill="none" stroke="#000000" stroke-width="0.573" stroke-miterlimit="10" cx="351.843" cy="131.199" r="12.14"/>
<circle fill="none" stroke="#000000" stroke-width="0.573" stroke-miterlimit="10" cx="362.604" cy="157.18" r="11.156"/>
<circle fill="none" stroke="#000000" stroke-width="0.573" stroke-miterlimit="10" cx="372.218" cy="180.388" r="9.14"/>
<path fill="none" stroke="#000000" stroke-width="0.666" stroke-miterlimit="10" d="M383.932,208.67
	c4.235-1.755,6.246-6.611,4.492-10.844c-1.754-4.235-6.61-6.248-10.846-4.493c-4.232,1.754-6.245,6.609-4.49,10.842
	C374.841,208.409,379.697,210.422,383.932,208.67z"/>
<path fill="none" stroke="#000000" stroke-width="0.573" stroke-miterlimit="10" d="M391.261,226.363
	c3.643-1.511,5.372-5.688,3.864-9.331c-1.51-3.643-5.686-5.372-9.328-3.862c-3.643,1.507-5.375,5.684-3.866,9.326
	C383.44,226.141,387.618,227.87,391.261,226.363z"/>
<circle fill="none" stroke="#000000" stroke-width="0.7159" stroke-miterlimit="10" cx="269.452" cy="100.121" r="18.075"/>
<circle fill="none" stroke="#000000" stroke-width="0.7159" stroke-miterlimit="10" cx="571.589" cy="493.874" r="18.074"/>
<circle fill="none" stroke="#000000" stroke-width="0.573" stroke-miterlimit="10" cx="548.851" cy="464.241" r="14.381"/>
<circle fill="none" stroke="#000000" stroke-width="0.573" stroke-miterlimit="10" cx="529.77" cy="439.372" r="12.14"/>
<circle fill="none" stroke="#000000" stroke-width="0.573" stroke-miterlimit="10" cx="512.648" cy="417.061" r="11.157"/>
<circle fill="none" stroke="#000000" stroke-width="0.573" stroke-miterlimit="10" cx="497.355" cy="397.13" r="9.139"/>
<path fill="none" stroke="#000000" stroke-width="0.666" stroke-miterlimit="10" d="M478.722,372.848
	c3.636-2.791,8.848-2.106,11.638,1.528c2.79,3.638,2.104,8.849-1.533,11.64c-3.636,2.789-8.846,2.104-11.638-1.533
	C474.398,380.847,475.086,375.635,478.722,372.848z"/>
<circle fill="none" stroke="#000000" stroke-width="0.573" stroke-miterlimit="10" cx="471.409" cy="363.316" r="7.14"/>
<circle fill="none" stroke="#000000" stroke-width="0.573" stroke-miterlimit="10" cx="292.19" cy="129.755" r="14.381"/>
<circle fill="none" stroke="#000000" stroke-width="0.573" stroke-miterlimit="10" cx="311.272" cy="154.622" r="12.139"/>
<circle fill="none" stroke="#000000" stroke-width="0.573" stroke-miterlimit="10" cx="328.39" cy="176.933" r="11.157"/>
<circle fill="none" stroke="#000000" stroke-width="0.573" stroke-miterlimit="10" cx="343.684" cy="196.862" r="9.139"/>
<path fill="none" stroke="#000000" stroke-width="0.666" stroke-miterlimit="10" d="M362.317,221.147
	c3.637-2.79,4.323-8.001,1.534-11.637c-2.792-3.636-8.004-4.323-11.641-1.532c-3.635,2.789-4.32,8-1.529,11.638
	C353.471,223.252,358.682,223.937,362.317,221.147z"/>
<circle fill="none" stroke="#000000" stroke-width="0.573" stroke-miterlimit="10" cx="369.628" cy="230.676" r="7.139"/>
<circle fill="none" stroke="#000000" stroke-width="0.7159" stroke-miterlimit="10" cx="223.645" cy="145.93" r="18.075"/>
<path fill="none" stroke="#000000" stroke-width="0.7159" stroke-miterlimit="10" d="M603.058,437.063
	c-6.077,7.921-4.583,19.267,3.336,25.345c7.92,6.074,19.265,4.58,25.343-3.34c6.076-7.918,4.582-19.264-3.336-25.34
	C620.48,427.652,609.134,429.145,603.058,437.063z"/>
<path fill="none" stroke="#000000" stroke-width="0.573" stroke-miterlimit="10" d="M576.355,416.572
	c4.835-6.298,13.861-7.487,20.163-2.652c6.3,4.835,7.49,13.862,2.654,20.16c-4.834,6.305-13.861,7.492-20.162,2.656
	C572.71,431.902,571.521,422.875,576.355,416.572z"/>
<circle fill="none" stroke="#000000" stroke-width="0.573" stroke-miterlimit="10" cx="562.896" cy="406.246" r="12.14"/>
<circle fill="none" stroke="#000000" stroke-width="0.573" stroke-miterlimit="10" cx="540.584" cy="389.126" r="11.158"/>
<circle fill="none" stroke="#000000" stroke-width="0.573" stroke-miterlimit="10" cx="520.655" cy="373.833" r="9.139"/>
<circle fill="none" stroke="#000000" stroke-width="0.666" stroke-miterlimit="10" cx="502.953" cy="360.25" r="8.299"/>
<circle fill="none" stroke="#000000" stroke-width="0.573" stroke-miterlimit="10" cx="486.84" cy="347.886" r="7.14"/>
<circle fill="none" stroke="#000000" stroke-width="0.573" stroke-miterlimit="10" cx="253.278" cy="168.668" r="14.382"/>
<path fill="none" stroke="#000000" stroke-width="0.573" stroke-miterlimit="10" d="M287.776,195.141
	c4.08-5.322,3.078-12.942-2.239-17.022c-5.32-4.081-12.941-3.08-17.024,2.24c-4.08,5.32-3.077,12.94,2.242,17.023
	C276.072,201.462,283.693,200.46,287.776,195.141z"/>
<circle fill="none" stroke="#000000" stroke-width="0.573" stroke-miterlimit="10" cx="300.455" cy="204.869" r="11.157"/>
<circle fill="none" stroke="#000000" stroke-width="0.573" stroke-miterlimit="10" cx="320.385" cy="220.161" r="9.139"/>
<circle fill="none" stroke="#000000" stroke-width="0.666" stroke-miterlimit="10" cx="338.085" cy="233.744" r="8.3"/>
<circle fill="none" stroke="#000000" stroke-width="0.573" stroke-miterlimit="10" cx="354.2" cy="246.108" r="7.14"/>
<circle fill="none" stroke="#000000" stroke-width="0.7159" stroke-miterlimit="10" cx="191.254" cy="202.033" r="18.075"/>
<circle fill="none" stroke="#000000" stroke-width="0.7159" stroke-miterlimit="10" cx="649.787" cy="391.963" r="18.073"/>
<circle fill="none" stroke="#000000" stroke-width="0.573" stroke-miterlimit="10" cx="615.279" cy="377.669" r="14.38"/>
<circle fill="none" stroke="#000000" stroke-width="0.573" stroke-miterlimit="10" cx="586.32" cy="365.674" r="12.139"/>
<circle fill="none" stroke="#000000" stroke-width="0.573" stroke-miterlimit="10" cx="560.336" cy="354.913" r="11.157"/>
<circle fill="none" stroke="#000000" stroke-width="0.573" stroke-miterlimit="10" cx="537.127" cy="345.298" r="9.138"/>
<path fill="none" stroke="#000000" stroke-width="0.666" stroke-miterlimit="10" d="M508.848,333.585
	c1.754-4.235,6.609-6.249,10.844-4.494c4.235,1.755,6.244,6.61,4.492,10.847c-1.753,4.233-6.609,6.244-10.845,4.49
	C509.105,342.675,507.094,337.818,508.848,333.585z"/>
<circle fill="none" stroke="#000000" stroke-width="0.573" stroke-miterlimit="10" cx="497.75" cy="328.988" r="7.141"/>
<circle fill="none" stroke="#000000" stroke-width="0.573" stroke-miterlimit="10" cx="225.762" cy="216.327" r="14.381"/>
<circle fill="none" stroke="#000000" stroke-width="0.573" stroke-miterlimit="10" cx="254.721" cy="228.321" r="12.14"/>
<circle fill="none" stroke="#000000" stroke-width="0.573" stroke-miterlimit="10" cx="280.7" cy="239.084" r="11.157"/>
<circle fill="none" stroke="#000000" stroke-width="0.573" stroke-miterlimit="10" cx="303.911" cy="248.696" r="9.14"/>
<circle fill="none" stroke="#000000" stroke-width="0.666" stroke-miterlimit="10" cx="324.522" cy="257.236" r="8.3"/>
<circle fill="none" stroke="#000000" stroke-width="0.573" stroke-miterlimit="10" cx="343.287" cy="265.007" r="7.14"/>
<circle fill="none" stroke="#000000" stroke-width="0.7159" stroke-miterlimit="10" cx="174.486" cy="264.607" r="18.075"/>
<circle fill="none" stroke="#000000" stroke-width="0.7159" stroke-miterlimit="10" cx="666.554" cy="329.39" r="18.073"/>
<circle fill="none" stroke="#000000" stroke-width="0.573" stroke-miterlimit="10" cx="629.522" cy="324.512" r="14.38"/>
<path fill="none" stroke="#000000" stroke-width="0.573" stroke-miterlimit="10" d="M586.408,318.836
	c0.874-6.646,6.975-11.324,13.621-10.449c6.646,0.873,11.326,6.973,10.452,13.619c-0.876,6.648-6.974,11.327-13.623,10.453
	C590.214,331.584,585.532,325.484,586.408,318.836z"/>
<path fill="none" stroke="#000000" stroke-width="0.573" stroke-miterlimit="10" d="M559.5,315.295
	c0.806-6.107,6.41-10.41,12.519-9.607c6.108,0.807,10.409,6.412,9.605,12.52c-0.804,6.111-6.407,10.412-12.517,9.605
	C562.996,327.008,558.697,321.406,559.5,315.295z"/>
<circle fill="none" stroke="#000000" stroke-width="0.573" stroke-miterlimit="10" cx="545.656" cy="313.473" r="9.14"/>
<circle fill="none" stroke="#000000" stroke-width="0.666" stroke-miterlimit="10" cx="523.536" cy="310.56" r="8.298"/>
<circle fill="none" stroke="#000000" stroke-width="0.573" stroke-miterlimit="10" cx="503.399" cy="307.909" r="7.14"/>
<circle fill="none" stroke="#000000" stroke-width="0.573" stroke-miterlimit="10" cx="211.519" cy="269.483" r="14.381"/>
<path fill="none" stroke="#000000" stroke-width="0.573" stroke-miterlimit="10" d="M254.632,275.159
	c0.874-6.648-3.805-12.747-10.45-13.622c-6.649-0.874-12.746,3.805-13.623,10.452c-0.875,6.649,3.805,12.746,10.453,13.622
	C247.656,286.485,253.756,281.807,254.632,275.159z"/>
<circle fill="none" stroke="#000000" stroke-width="0.573" stroke-miterlimit="10" cx="270.476" cy="277.245" r="11.156"/>
<circle fill="none" stroke="#000000" stroke-width="0.573" stroke-miterlimit="10" cx="295.382" cy="280.523" r="9.14"/>
<circle fill="none" stroke="#000000" stroke-width="0.666" stroke-miterlimit="10" cx="317.502" cy="283.436" r="8.3"/>
<circle fill="none" stroke="#000000" stroke-width="0.573" stroke-miterlimit="10" cx="337.639" cy="286.086" r="7.14"/>
</svg>
