<?xml version="1.0" encoding="utf-8"?>
<!-- Generator: Adobe Illustrator 16.0.0, SVG Export Plug-In . SVG Version: 6.00 Build 0)  -->
<!DOCTYPE svg PUBLIC "-//W3C//DTD SVG 1.1//EN" "http://www.w3.org/Graphics/SVG/1.1/DTD/svg11.dtd">
<svg version="1.1" id="图层_1" xmlns="http://www.w3.org/2000/svg" xmlns:xlink="http://www.w3.org/1999/xlink" x="0px" y="0px"
	 width="841.89px" height="595.28px" viewBox="0 0 841.89 595.28" enable-background="new 0 0 841.89 595.28" xml:space="preserve">
<circle fill="none" stroke="#000000" stroke-width="0.7159" stroke-miterlimit="10" cx="668.997" cy="256.897" r="18.074"/>
<circle fill="none" stroke="#000000" stroke-width="0.7159" stroke-miterlimit="10" cx="176.929" cy="321.679" r="18.074"/>
<circle fill="none" stroke="#000000" stroke-width="0.573" stroke-miterlimit="10" cx="213.961" cy="316.805" r="14.381"/>
<circle fill="none" stroke="#000000" stroke-width="0.573" stroke-miterlimit="10" cx="245.039" cy="312.713" r="12.14"/>
<circle fill="none" stroke="#000000" stroke-width="0.573" stroke-miterlimit="10" cx="272.921" cy="309.042" r="11.157"/>
<circle fill="none" stroke="#000000" stroke-width="0.573" stroke-miterlimit="10" cx="297.828" cy="305.763" r="9.14"/>
<circle fill="none" stroke="#000000" stroke-width="0.666" stroke-miterlimit="10" cx="319.947" cy="302.85" r="8.3"/>
<circle fill="none" stroke="#000000" stroke-width="0.573" stroke-miterlimit="10" cx="340.085" cy="300.2" r="7.14"/>
<circle fill="none" stroke="#000000" stroke-width="0.573" stroke-miterlimit="10" cx="631.965" cy="261.772" r="14.381"/>
<circle fill="none" stroke="#000000" stroke-width="0.573" stroke-miterlimit="10" cx="600.888" cy="265.864" r="12.14"/>
<circle fill="none" stroke="#000000" stroke-width="0.573" stroke-miterlimit="10" cx="573.007" cy="269.533" r="11.157"/>
<circle fill="none" stroke="#000000" stroke-width="0.573" stroke-miterlimit="10" cx="548.101" cy="272.813" r="9.14"/>
<circle fill="none" stroke="#000000" stroke-width="0.666" stroke-miterlimit="10" cx="525.981" cy="275.724" r="8.3"/>
<circle fill="none" stroke="#000000" stroke-width="0.573" stroke-miterlimit="10" cx="505.844" cy="278.376" r="7.14"/>
<circle fill="none" stroke="#000000" stroke-width="0.7159" stroke-miterlimit="10" cx="652.23" cy="194.322" r="18.075"/>
<circle fill="none" stroke="#000000" stroke-width="0.7159" stroke-miterlimit="10" cx="193.696" cy="384.252" r="18.074"/>
<circle fill="none" stroke="#000000" stroke-width="0.573" stroke-miterlimit="10" cx="228.206" cy="369.96" r="14.38"/>
<circle fill="none" stroke="#000000" stroke-width="0.573" stroke-miterlimit="10" cx="257.165" cy="357.964" r="12.14"/>
<circle fill="none" stroke="#000000" stroke-width="0.573" stroke-miterlimit="10" cx="283.146" cy="347.201" r="11.157"/>
<circle fill="none" stroke="#000000" stroke-width="0.573" stroke-miterlimit="10" cx="306.355" cy="337.588" r="9.14"/>
<circle fill="none" stroke="#000000" stroke-width="0.666" stroke-miterlimit="10" cx="326.968" cy="329.049" r="8.299"/>
<circle fill="none" stroke="#000000" stroke-width="0.573" stroke-miterlimit="10" cx="345.733" cy="321.277" r="7.14"/>
<circle fill="none" stroke="#000000" stroke-width="0.573" stroke-miterlimit="10" cx="617.722" cy="208.615" r="14.382"/>
<circle fill="none" stroke="#000000" stroke-width="0.573" stroke-miterlimit="10" cx="588.763" cy="220.61" r="12.14"/>
<circle fill="none" stroke="#000000" stroke-width="0.573" stroke-miterlimit="10" cx="562.782" cy="231.371" r="11.157"/>
<circle fill="none" stroke="#000000" stroke-width="0.573" stroke-miterlimit="10" cx="539.574" cy="240.986" r="9.139"/>
<path fill="none" stroke="#000000" stroke-width="0.666" stroke-miterlimit="10" d="M511.293,252.699
	c1.755,4.235,6.609,6.246,10.843,4.492c4.235-1.754,6.247-6.61,4.494-10.846c-1.755-4.232-6.61-6.244-10.845-4.49
	C511.552,243.609,509.539,248.465,511.293,252.699z"/>
<circle fill="none" stroke="#000000" stroke-width="0.573" stroke-miterlimit="10" cx="500.196" cy="257.296" r="7.14"/>
<circle fill="none" stroke="#000000" stroke-width="0.7159" stroke-miterlimit="10" cx="619.838" cy="138.219" r="18.075"/>
<circle fill="none" stroke="#000000" stroke-width="0.7159" stroke-miterlimit="10" cx="226.087" cy="440.354" r="18.074"/>
<circle fill="none" stroke="#000000" stroke-width="0.573" stroke-miterlimit="10" cx="255.721" cy="417.617" r="14.38"/>
<circle fill="none" stroke="#000000" stroke-width="0.573" stroke-miterlimit="10" cx="280.588" cy="398.535" r="12.14"/>
<circle fill="none" stroke="#000000" stroke-width="0.573" stroke-miterlimit="10" cx="302.899" cy="381.415" r="11.158"/>
<circle fill="none" stroke="#000000" stroke-width="0.573" stroke-miterlimit="10" cx="322.831" cy="366.122" r="9.139"/>
<circle fill="none" stroke="#000000" stroke-width="0.666" stroke-miterlimit="10" cx="340.529" cy="352.539" r="8.299"/>
<circle fill="none" stroke="#000000" stroke-width="0.573" stroke-miterlimit="10" cx="356.645" cy="340.175" r="7.14"/>
<circle fill="none" stroke="#000000" stroke-width="0.573" stroke-miterlimit="10" cx="590.205" cy="160.957" r="14.381"/>
<circle fill="none" stroke="#000000" stroke-width="0.573" stroke-miterlimit="10" cx="565.338" cy="180.038" r="12.14"/>
<circle fill="none" stroke="#000000" stroke-width="0.573" stroke-miterlimit="10" cx="543.027" cy="197.156" r="11.157"/>
<circle fill="none" stroke="#000000" stroke-width="0.573" stroke-miterlimit="10" cx="523.099" cy="212.45" r="9.14"/>
<circle fill="none" stroke="#000000" stroke-width="0.666" stroke-miterlimit="10" cx="505.397" cy="226.031" r="8.3"/>
<circle fill="none" stroke="#000000" stroke-width="0.573" stroke-miterlimit="10" cx="489.284" cy="238.396" r="7.14"/>
<circle fill="none" stroke="#000000" stroke-width="0.7159" stroke-miterlimit="10" cx="574.031" cy="92.411" r="18.075"/>
<circle fill="none" stroke="#000000" stroke-width="0.7159" stroke-miterlimit="10" cx="271.895" cy="486.163" r="18.074"/>
<circle fill="none" stroke="#000000" stroke-width="0.573" stroke-miterlimit="10" cx="294.633" cy="456.53" r="14.381"/>
<path fill="none" stroke="#000000" stroke-width="0.573" stroke-miterlimit="10" d="M321.107,422.031
	c5.317,4.08,6.32,11.701,2.239,17.02c-4.081,5.32-11.703,6.324-17.021,2.242c-5.32-4.082-6.322-11.701-2.241-17.023
	C308.165,418.953,315.787,417.949,321.107,422.031z"/>
<circle fill="none" stroke="#000000" stroke-width="0.573" stroke-miterlimit="10" cx="330.835" cy="409.351" r="11.157"/>
<circle fill="none" stroke="#000000" stroke-width="0.573" stroke-miterlimit="10" cx="346.128" cy="389.421" r="9.139"/>
<circle fill="none" stroke="#000000" stroke-width="0.666" stroke-miterlimit="10" cx="359.71" cy="371.72" r="8.299"/>
<circle fill="none" stroke="#000000" stroke-width="0.573" stroke-miterlimit="10" cx="372.076" cy="355.606" r="7.14"/>
<circle fill="none" stroke="#000000" stroke-width="0.573" stroke-miterlimit="10" cx="551.293" cy="122.044" r="14.381"/>
<circle fill="none" stroke="#000000" stroke-width="0.573" stroke-miterlimit="10" cx="532.211" cy="146.912" r="12.14"/>
<circle fill="none" stroke="#000000" stroke-width="0.573" stroke-miterlimit="10" cx="515.092" cy="169.221" r="11.157"/>
<circle fill="none" stroke="#000000" stroke-width="0.573" stroke-miterlimit="10" cx="499.8" cy="189.151" r="9.14"/>
<circle fill="none" stroke="#000000" stroke-width="0.666" stroke-miterlimit="10" cx="486.217" cy="206.851" r="8.3"/>
<path fill="none" stroke="#000000" stroke-width="0.573" stroke-miterlimit="10" d="M469.506,228.63
	c3.129,2.4,7.612,1.809,10.014-1.319c2.399-3.128,1.81-7.609-1.32-10.009c-3.127-2.402-7.609-1.813-10.01,1.315
	C465.788,221.747,466.379,226.229,469.506,228.63z"/>
<circle fill="none" stroke="#000000" stroke-width="0.7159" stroke-miterlimit="10" cx="517.928" cy="60.02" r="18.074"/>
<circle fill="none" stroke="#000000" stroke-width="0.7159" stroke-miterlimit="10" cx="327.997" cy="518.554" r="18.074"/>
<path fill="none" stroke="#000000" stroke-width="0.573" stroke-miterlimit="10" d="M347.794,470.758
	c7.338,3.039,10.822,11.451,7.783,18.791c-3.04,7.338-11.452,10.82-18.79,7.781c-7.337-3.037-10.821-11.449-7.782-18.789
	C332.045,471.203,340.457,467.721,347.794,470.758z"/>
<path fill="none" stroke="#000000" stroke-width="0.573" stroke-miterlimit="10" d="M358.933,443.869
	c6.194,2.566,9.136,9.666,6.57,15.861c-2.565,6.193-9.668,9.137-15.861,6.572c-6.194-2.568-9.136-9.67-6.571-15.863
	C345.637,444.246,352.738,441.303,358.933,443.869z"/>
<circle fill="none" stroke="#000000" stroke-width="0.573" stroke-miterlimit="10" cx="365.048" cy="429.103" r="11.157"/>
<circle fill="none" stroke="#000000" stroke-width="0.573" stroke-miterlimit="10" cx="374.663" cy="405.893" r="9.139"/>
<path fill="none" stroke="#000000" stroke-width="0.666" stroke-miterlimit="10" d="M386.376,377.613
	c4.235,1.756,6.247,6.611,4.494,10.844c-1.756,4.236-6.611,6.246-10.847,4.492c-4.233-1.754-6.244-6.609-4.491-10.844
	C377.287,377.871,382.143,375.859,386.376,377.613z"/>
<circle fill="none" stroke="#000000" stroke-width="0.573" stroke-miterlimit="10" cx="390.973" cy="366.517" r="7.14"/>
<circle fill="none" stroke="#000000" stroke-width="0.573" stroke-miterlimit="10" cx="503.633" cy="94.528" r="14.381"/>
<circle fill="none" stroke="#000000" stroke-width="0.573" stroke-miterlimit="10" cx="491.639" cy="123.487" r="12.139"/>
<circle fill="none" stroke="#000000" stroke-width="0.573" stroke-miterlimit="10" cx="480.876" cy="149.467" r="11.157"/>
<circle fill="none" stroke="#000000" stroke-width="0.573" stroke-miterlimit="10" cx="471.264" cy="172.676" r="9.14"/>
<circle fill="none" stroke="#000000" stroke-width="0.666" stroke-miterlimit="10" cx="462.725" cy="193.288" r="8.3"/>
<circle fill="none" stroke="#000000" stroke-width="0.573" stroke-miterlimit="10" cx="454.954" cy="212.053" r="7.14"/>
<circle fill="none" stroke="#000000" stroke-width="0.7159" stroke-miterlimit="10" cx="455.354" cy="43.252" r="18.075"/>
<circle fill="none" stroke="#000000" stroke-width="0.7159" stroke-miterlimit="10" cx="390.572" cy="535.319" r="18.074"/>
<circle fill="none" stroke="#000000" stroke-width="0.573" stroke-miterlimit="10" cx="395.449" cy="498.287" r="14.381"/>
<circle fill="none" stroke="#000000" stroke-width="0.573" stroke-miterlimit="10" cx="399.54" cy="467.21" r="12.14"/>
<circle fill="none" stroke="#000000" stroke-width="0.573" stroke-miterlimit="10" cx="403.21" cy="439.329" r="11.157"/>
<circle fill="none" stroke="#000000" stroke-width="0.573" stroke-miterlimit="10" cx="406.489" cy="414.423" r="9.14"/>
<circle fill="none" stroke="#000000" stroke-width="0.666" stroke-miterlimit="10" cx="409.401" cy="392.302" r="8.299"/>
<path fill="none" stroke="#000000" stroke-width="0.573" stroke-miterlimit="10" d="M412.984,365.086
	c3.91,0.514,6.661,4.102,6.146,8.01c-0.515,3.912-4.102,6.662-8.01,6.146c-3.91-0.512-6.662-4.098-6.148-8.01
	C405.488,367.322,409.075,364.572,412.984,365.086z"/>
<circle fill="none" stroke="#000000" stroke-width="0.573" stroke-miterlimit="10" cx="450.479" cy="80.285" r="14.381"/>
<circle fill="none" stroke="#000000" stroke-width="0.573" stroke-miterlimit="10" cx="446.388" cy="111.361" r="12.14"/>
<circle fill="none" stroke="#000000" stroke-width="0.573" stroke-miterlimit="10" cx="442.716" cy="139.241" r="11.157"/>
<circle fill="none" stroke="#000000" stroke-width="0.573" stroke-miterlimit="10" cx="439.438" cy="164.147" r="9.139"/>
<circle fill="none" stroke="#000000" stroke-width="0.666" stroke-miterlimit="10" cx="436.525" cy="186.268" r="8.301"/>
<circle fill="none" stroke="#000000" stroke-width="0.573" stroke-miterlimit="10" cx="433.875" cy="206.405" r="7.14"/>
<circle fill="none" stroke="#000000" stroke-width="0.7159" stroke-miterlimit="10" cx="390.573" cy="43.254" r="18.075"/>
<circle fill="none" stroke="#000000" stroke-width="0.7159" stroke-miterlimit="10" cx="455.354" cy="535.319" r="18.074"/>
<circle fill="none" stroke="#000000" stroke-width="0.573" stroke-miterlimit="10" cx="450.48" cy="498.288" r="14.38"/>
<circle fill="none" stroke="#000000" stroke-width="0.573" stroke-miterlimit="10" cx="446.388" cy="467.21" r="12.14"/>
<circle fill="none" stroke="#000000" stroke-width="0.573" stroke-miterlimit="10" cx="442.717" cy="439.329" r="11.157"/>
<circle fill="none" stroke="#000000" stroke-width="0.573" stroke-miterlimit="10" cx="439.438" cy="414.421" r="9.14"/>
<circle fill="none" stroke="#000000" stroke-width="0.666" stroke-miterlimit="10" cx="436.525" cy="392.302" r="8.301"/>
<circle fill="none" stroke="#000000" stroke-width="0.573" stroke-miterlimit="10" cx="433.875" cy="372.165" r="7.14"/>
<circle fill="none" stroke="#000000" stroke-width="0.573" stroke-miterlimit="10" cx="395.447" cy="80.285" r="14.381"/>
<circle fill="none" stroke="#000000" stroke-width="0.573" stroke-miterlimit="10" cx="399.54" cy="111.362" r="12.139"/>
<circle fill="none" stroke="#000000" stroke-width="0.573" stroke-miterlimit="10" cx="403.208" cy="139.243" r="11.157"/>
<circle fill="none" stroke="#000000" stroke-width="0.573" stroke-miterlimit="10" cx="406.489" cy="164.148" r="9.14"/>
<path fill="none" stroke="#000000" stroke-width="0.666" stroke-miterlimit="10" d="M410.482,194.498
	c4.545-0.599,7.744-4.769,7.146-9.312c-0.598-4.546-4.769-7.745-9.313-7.147c-4.542,0.599-7.742,4.769-7.145,9.313
	C401.77,191.896,405.939,195.097,410.482,194.498z"/>
<circle fill="none" stroke="#000000" stroke-width="0.573" stroke-miterlimit="10" cx="412.052" cy="206.405" r="7.14"/>
<circle fill="none" stroke="#000000" stroke-width="0.7159" stroke-miterlimit="10" cx="327.998" cy="60.019" r="18.075"/>
<path fill="none" stroke="#000000" stroke-width="0.7159" stroke-miterlimit="10" d="M511.011,501.855
	c-9.223,3.82-13.601,14.393-9.78,23.615s14.393,13.602,23.615,9.779c9.221-3.818,13.602-14.391,9.781-23.611
	C530.807,502.414,520.233,498.035,511.011,501.855z"/>
<circle fill="none" stroke="#000000" stroke-width="0.573" stroke-miterlimit="10" cx="503.636" cy="484.044" r="14.381"/>
<circle fill="none" stroke="#000000" stroke-width="0.573" stroke-miterlimit="10" cx="491.641" cy="455.085" r="12.14"/>
<circle fill="none" stroke="#000000" stroke-width="0.573" stroke-miterlimit="10" cx="480.877" cy="429.103" r="11.157"/>
<path fill="none" stroke="#000000" stroke-width="0.573" stroke-miterlimit="10" d="M467.766,397.451
	c4.665-1.934,10.011,0.281,11.943,4.943c1.931,4.664-0.284,10.012-4.946,11.943c-4.665,1.932-10.012-0.283-11.943-4.945
	C460.888,404.727,463.102,399.383,467.766,397.451z"/>
<circle fill="none" stroke="#000000" stroke-width="0.666" stroke-miterlimit="10" cx="462.726" cy="385.281" r="8.3"/>
<path fill="none" stroke="#000000" stroke-width="0.573" stroke-miterlimit="10" d="M452.221,359.92
	c3.644-1.51,7.82,0.222,9.329,3.865c1.509,3.643-0.221,7.82-3.863,9.326c-3.645,1.512-7.82-0.219-9.331-3.863
	C446.848,365.605,448.578,361.43,452.221,359.92z"/>
<circle fill="none" stroke="#000000" stroke-width="0.573" stroke-miterlimit="10" cx="342.292" cy="94.527" r="14.381"/>
<circle fill="none" stroke="#000000" stroke-width="0.573" stroke-miterlimit="10" cx="354.286" cy="123.486" r="12.14"/>
<circle fill="none" stroke="#000000" stroke-width="0.573" stroke-miterlimit="10" cx="365.047" cy="149.467" r="11.156"/>
<circle fill="none" stroke="#000000" stroke-width="0.573" stroke-miterlimit="10" cx="374.662" cy="172.675" r="9.14"/>
<path fill="none" stroke="#000000" stroke-width="0.666" stroke-miterlimit="10" d="M386.375,200.958
	c4.235-1.755,6.246-6.611,4.492-10.844c-1.754-4.235-6.61-6.248-10.846-4.493c-4.232,1.754-6.245,6.609-4.49,10.842
	C377.284,200.697,382.141,202.71,386.375,200.958z"/>
<path fill="none" stroke="#000000" stroke-width="0.573" stroke-miterlimit="10" d="M393.704,218.65
	c3.643-1.511,5.372-5.688,3.864-9.331c-1.51-3.643-5.686-5.372-9.328-3.862c-3.643,1.507-5.375,5.684-3.866,9.326
	C385.884,218.428,390.062,220.158,393.704,218.65z"/>
<circle fill="none" stroke="#000000" stroke-width="0.7159" stroke-miterlimit="10" cx="271.895" cy="92.409" r="18.075"/>
<circle fill="none" stroke="#000000" stroke-width="0.7159" stroke-miterlimit="10" cx="574.032" cy="486.161" r="18.074"/>
<circle fill="none" stroke="#000000" stroke-width="0.573" stroke-miterlimit="10" cx="551.294" cy="456.528" r="14.381"/>
<circle fill="none" stroke="#000000" stroke-width="0.573" stroke-miterlimit="10" cx="532.213" cy="431.659" r="12.14"/>
<circle fill="none" stroke="#000000" stroke-width="0.573" stroke-miterlimit="10" cx="515.092" cy="409.348" r="11.157"/>
<circle fill="none" stroke="#000000" stroke-width="0.573" stroke-miterlimit="10" cx="499.799" cy="389.417" r="9.139"/>
<circle fill="none" stroke="#000000" stroke-width="0.666" stroke-miterlimit="10" cx="486.217" cy="371.719" r="8.299"/>
<circle fill="none" stroke="#000000" stroke-width="0.573" stroke-miterlimit="10" cx="473.853" cy="355.604" r="7.14"/>
<circle fill="none" stroke="#000000" stroke-width="0.573" stroke-miterlimit="10" cx="294.634" cy="122.043" r="14.381"/>
<circle fill="none" stroke="#000000" stroke-width="0.573" stroke-miterlimit="10" cx="313.715" cy="146.91" r="12.139"/>
<circle fill="none" stroke="#000000" stroke-width="0.573" stroke-miterlimit="10" cx="330.833" cy="169.22" r="11.157"/>
<circle fill="none" stroke="#000000" stroke-width="0.573" stroke-miterlimit="10" cx="346.127" cy="189.15" r="9.139"/>
<path fill="none" stroke="#000000" stroke-width="0.666" stroke-miterlimit="10" d="M364.761,213.435
	c3.637-2.79,4.323-8.001,1.534-11.637c-2.792-3.636-8.004-4.323-11.641-1.532c-3.635,2.789-4.32,8-1.529,11.638
	C355.914,215.54,361.125,216.225,364.761,213.435z"/>
<circle fill="none" stroke="#000000" stroke-width="0.573" stroke-miterlimit="10" cx="372.072" cy="222.963" r="7.139"/>
<circle fill="none" stroke="#000000" stroke-width="0.7159" stroke-miterlimit="10" cx="226.088" cy="138.218" r="18.075"/>
<path fill="none" stroke="#000000" stroke-width="0.7159" stroke-miterlimit="10" d="M605.501,429.352
	c-6.077,7.92-4.583,19.266,3.336,25.344c7.92,6.074,19.265,4.58,25.343-3.34c6.076-7.918,4.582-19.264-3.336-25.34
	C622.924,419.939,611.577,421.432,605.501,429.352z"/>
<path fill="none" stroke="#000000" stroke-width="0.573" stroke-miterlimit="10" d="M578.799,408.859
	c4.835-6.297,13.861-7.486,20.163-2.652c6.3,4.836,7.49,13.863,2.654,20.16c-4.834,6.305-13.861,7.492-20.162,2.656
	C575.153,424.189,573.965,415.162,578.799,408.859z"/>
<circle fill="none" stroke="#000000" stroke-width="0.573" stroke-miterlimit="10" cx="565.339" cy="398.533" r="12.14"/>
<circle fill="none" stroke="#000000" stroke-width="0.573" stroke-miterlimit="10" cx="543.028" cy="381.413" r="11.158"/>
<path fill="none" stroke="#000000" stroke-width="0.573" stroke-miterlimit="10" d="M515.848,360.557
	c3.073-4.004,8.809-4.761,12.814-1.688c4.004,3.072,4.76,8.809,1.687,12.816c-3.073,4.002-8.812,4.76-12.816,1.686
	C513.528,370.299,512.773,364.562,515.848,360.557z"/>
<circle fill="none" stroke="#000000" stroke-width="0.666" stroke-miterlimit="10" cx="505.396" cy="352.539" r="8.299"/>
<circle fill="none" stroke="#000000" stroke-width="0.573" stroke-miterlimit="10" cx="489.284" cy="340.173" r="7.14"/>
<circle fill="none" stroke="#000000" stroke-width="0.573" stroke-miterlimit="10" cx="255.721" cy="160.956" r="14.382"/>
<path fill="none" stroke="#000000" stroke-width="0.573" stroke-miterlimit="10" d="M290.22,187.429
	c4.08-5.322,3.078-12.942-2.239-17.022c-5.32-4.081-12.941-3.08-17.024,2.24c-4.08,5.32-3.077,12.94,2.242,17.023
	C278.516,193.75,286.137,192.748,290.22,187.429z"/>
<circle fill="none" stroke="#000000" stroke-width="0.573" stroke-miterlimit="10" cx="302.898" cy="197.156" r="11.157"/>
<circle fill="none" stroke="#000000" stroke-width="0.573" stroke-miterlimit="10" cx="322.828" cy="212.448" r="9.139"/>
<circle fill="none" stroke="#000000" stroke-width="0.666" stroke-miterlimit="10" cx="340.528" cy="226.031" r="8.3"/>
<circle fill="none" stroke="#000000" stroke-width="0.573" stroke-miterlimit="10" cx="356.643" cy="238.396" r="7.14"/>
<circle fill="none" stroke="#000000" stroke-width="0.7159" stroke-miterlimit="10" cx="193.698" cy="194.321" r="18.075"/>
<circle fill="none" stroke="#000000" stroke-width="0.7159" stroke-miterlimit="10" cx="652.23" cy="384.251" r="18.073"/>
<circle fill="none" stroke="#000000" stroke-width="0.573" stroke-miterlimit="10" cx="617.723" cy="369.957" r="14.379"/>
<circle fill="none" stroke="#000000" stroke-width="0.573" stroke-miterlimit="10" cx="588.763" cy="357.961" r="12.139"/>
<circle fill="none" stroke="#000000" stroke-width="0.573" stroke-miterlimit="10" cx="562.78" cy="347.2" r="11.157"/>
<circle fill="none" stroke="#000000" stroke-width="0.573" stroke-miterlimit="10" cx="539.571" cy="337.585" r="9.138"/>
<circle fill="none" stroke="#000000" stroke-width="0.666" stroke-miterlimit="10" cx="518.959" cy="329.049" r="8.3"/>
<circle fill="none" stroke="#000000" stroke-width="0.573" stroke-miterlimit="10" cx="500.194" cy="321.275" r="7.141"/>
<circle fill="none" stroke="#000000" stroke-width="0.573" stroke-miterlimit="10" cx="228.205" cy="208.615" r="14.381"/>
<circle fill="none" stroke="#000000" stroke-width="0.573" stroke-miterlimit="10" cx="257.164" cy="220.609" r="12.14"/>
<circle fill="none" stroke="#000000" stroke-width="0.573" stroke-miterlimit="10" cx="283.144" cy="231.372" r="11.157"/>
<circle fill="none" stroke="#000000" stroke-width="0.573" stroke-miterlimit="10" cx="306.354" cy="240.984" r="9.14"/>
<circle fill="none" stroke="#000000" stroke-width="0.666" stroke-miterlimit="10" cx="326.965" cy="249.524" r="8.3"/>
<circle fill="none" stroke="#000000" stroke-width="0.573" stroke-miterlimit="10" cx="345.73" cy="257.295" r="7.14"/>
<circle fill="none" stroke="#000000" stroke-width="0.7159" stroke-miterlimit="10" cx="176.93" cy="256.895" r="18.075"/>
<circle fill="none" stroke="#000000" stroke-width="0.7159" stroke-miterlimit="10" cx="668.997" cy="321.677" r="18.073"/>
<circle fill="none" stroke="#000000" stroke-width="0.573" stroke-miterlimit="10" cx="631.966" cy="316.8" r="14.38"/>
<path fill="none" stroke="#000000" stroke-width="0.573" stroke-miterlimit="10" d="M588.852,311.124
	c0.874-6.646,6.975-11.324,13.621-10.45c6.646,0.874,11.326,6.973,10.452,13.62c-0.876,6.647-6.974,11.327-13.623,10.452
	C592.657,323.871,587.976,317.771,588.852,311.124z"/>
<circle fill="none" stroke="#000000" stroke-width="0.573" stroke-miterlimit="10" cx="573.005" cy="309.039" r="11.157"/>
<circle fill="none" stroke="#000000" stroke-width="0.573" stroke-miterlimit="10" cx="548.1" cy="305.761" r="9.14"/>
<circle fill="none" stroke="#000000" stroke-width="0.666" stroke-miterlimit="10" cx="525.979" cy="302.848" r="8.298"/>
<circle fill="none" stroke="#000000" stroke-width="0.573" stroke-miterlimit="10" cx="505.842" cy="300.197" r="7.14"/>
<circle fill="none" stroke="#000000" stroke-width="0.573" stroke-miterlimit="10" cx="213.962" cy="261.77" r="14.381"/>
<path fill="none" stroke="#000000" stroke-width="0.573" stroke-miterlimit="10" d="M257.075,267.446
	c0.874-6.648-3.805-12.747-10.45-13.622c-6.649-0.874-12.746,3.805-13.623,10.452c-0.875,6.649,3.805,12.746,10.453,13.622
	C250.1,278.772,256.199,274.094,257.075,267.446z"/>
<circle fill="none" stroke="#000000" stroke-width="0.573" stroke-miterlimit="10" cx="272.919" cy="269.533" r="11.156"/>
<circle fill="none" stroke="#000000" stroke-width="0.573" stroke-miterlimit="10" cx="297.825" cy="272.811" r="9.14"/>
<circle fill="none" stroke="#000000" stroke-width="0.666" stroke-miterlimit="10" cx="319.945" cy="275.724" r="8.3"/>
<circle fill="none" stroke="#000000" stroke-width="0.573" stroke-miterlimit="10" cx="340.083" cy="278.374" r="7.14"/>
</svg>
