<?xml version="1.0" encoding="utf-8"?>
<!-- Generator: Adobe Illustrator 16.0.0, SVG Export Plug-In . SVG Version: 6.00 Build 0)  -->
<!DOCTYPE svg PUBLIC "-//W3C//DTD SVG 1.1//EN" "http://www.w3.org/Graphics/SVG/1.1/DTD/svg11.dtd">
<svg version="1.1" id="图层_1" xmlns="http://www.w3.org/2000/svg" xmlns:xlink="http://www.w3.org/1999/xlink" x="0px" y="0px"
	 width="841.89px" height="595.28px" viewBox="0 0 841.89 595.28" enable-background="new 0 0 841.89 595.28" xml:space="preserve">
<circle fill="#9FA0A0" stroke="#595757" stroke-width="2" stroke-miterlimit="10" cx="133.646" cy="258.479" r="14.062"/>
<circle fill="#9FA0A0" stroke="#595757" stroke-width="2" stroke-miterlimit="10" cx="185.209" cy="244.417" r="14.063"/>
<circle fill="#9FA0A0" stroke="#595757" stroke-width="2" stroke-miterlimit="10" cx="218.563" cy="312.541" r="14.063"/>
<circle fill="#9FA0A0" stroke="#595757" stroke-width="2" stroke-miterlimit="10" cx="275.834" cy="216.292" r="14.063"/>
<circle fill="#9FA0A0" stroke="#595757" stroke-width="2" stroke-miterlimit="10" cx="309.167" cy="293.375" r="14.063"/>
<circle fill="#9FA0A0" stroke="#595757" stroke-width="2" stroke-miterlimit="10" cx="370.646" cy="239.104" r="14.063"/>
<circle fill="#9FA0A0" stroke="#595757" stroke-width="2" stroke-miterlimit="10" cx="406.605" cy="295.354" r="14.063"/>
<circle fill="#9FA0A0" stroke="#595757" stroke-width="2" stroke-miterlimit="10" cx="459.167" cy="326.604" r="14.063"/>
<circle fill="#9FA0A0" stroke="#595757" stroke-width="2" stroke-miterlimit="10" cx="498.771" cy="244.417" r="14.062"/>
<circle fill="#9FA0A0" stroke="#595757" stroke-width="2" stroke-miterlimit="10" cx="540.417" cy="216.293" r="14.063"/>
<circle fill="#9FA0A0" stroke="#595757" stroke-width="2" stroke-miterlimit="10" cx="554.479" cy="279.313" r="14.063"/>
<circle fill="#9FA0A0" stroke="#595757" stroke-width="2" stroke-miterlimit="10" cx="590.438" cy="321.5" r="14.062"/>
<circle fill="#9FA0A0" stroke="#595757" stroke-width="2" stroke-miterlimit="10" cx="256.063" cy="281.292" r="14.063"/>
<polyline fill="none" stroke="#000000" stroke-miterlimit="10" points="133.646,258.479 185.208,244.417 218.562,312.541 
	256.062,281.292 275.833,216.292 309.167,293.375 370.646,239.104 406.604,295.354 459.167,326.604 498.771,244.417 
	540.417,216.293 554.479,279.313 590.438,321.5 "/>
</svg>
