<?xml version="1.0" encoding="utf-8"?>
<!-- Generator: Adobe Illustrator 16.0.0, SVG Export Plug-In . SVG Version: 6.00 Build 0)  -->
<!DOCTYPE svg PUBLIC "-//W3C//DTD SVG 1.1//EN" "http://www.w3.org/Graphics/SVG/1.1/DTD/svg11.dtd">
<svg version="1.1" id="图层_1" xmlns="http://www.w3.org/2000/svg" xmlns:xlink="http://www.w3.org/1999/xlink" x="0px" y="0px"
	 width="841.89px" height="595.28px" viewBox="0 0 841.89 595.28" enable-background="new 0 0 841.89 595.28" xml:space="preserve">
<polygon fill="#5FBA9E" stroke="#595757" stroke-miterlimit="10" points="127.987,229.803 114.711,228.175 105.845,238.188 
	103.291,225.06 91.028,219.722 102.724,213.235 104.012,199.923 113.795,209.042 126.854,206.153 121.204,218.276 "/>
<polygon fill="#5FBA9E" stroke="#595757" stroke-miterlimit="10" points="145.176,275.17 138.521,274.354 134.076,279.374 
	132.795,272.792 126.647,270.116 132.511,266.864 133.156,260.19 138.061,264.762 144.608,263.313 141.775,269.391 "/>
<polygon fill="#5FBA9E" stroke="#595757" stroke-miterlimit="10" points="278.212,283.906 268.165,280.46 259.63,286.784 
	259.802,276.164 251.152,270 261.305,266.882 264.494,256.75 270.596,265.443 281.217,265.345 274.835,273.835 "/>
<polygon fill="#5FBA9E" stroke="#595757" stroke-miterlimit="10" points="183.36,333.609 170.085,331.982 161.219,341.996 
	158.664,328.867 146.401,323.529 158.098,317.043 159.385,303.73 169.168,312.85 182.227,309.961 176.577,322.082 "/>
<polygon fill="#5FBA9E" stroke="#595757" stroke-miterlimit="10" points="187.486,388.65 174.211,387.023 165.345,397.035 
	162.79,383.906 150.527,378.568 162.224,372.082 163.511,358.77 173.294,367.889 186.353,365 180.703,377.123 "/>
<polygon fill="#5FBA9E" stroke="#595757" stroke-miterlimit="10" points="108.726,396.186 103.098,384.053 89.912,381.812 
	99.711,372.709 97.767,359.478 109.453,365.983 121.437,360.046 118.86,373.17 128.21,382.732 114.932,384.338 "/>
<polygon fill="#5FBA9E" stroke="#595757" stroke-miterlimit="10" points="149.779,376.584 142.533,375.695 137.694,381.162 
	136.3,373.996 129.607,371.082 135.991,367.543 136.693,360.277 142.033,365.254 149.16,363.678 146.077,370.293 "/>
<polygon fill="#5FBA9E" stroke="#595757" stroke-miterlimit="10" points="312.03,279.723 303.005,276.627 295.338,282.308 
	295.493,272.767 287.723,267.231 296.843,264.43 299.707,255.329 305.189,263.138 314.73,263.049 308.997,270.676 "/>
<polygon fill="#5FBA9E" stroke="#595757" stroke-miterlimit="10" points="401.45,292.035 388.682,288.051 378.162,296.31 
	378.006,282.936 366.901,275.482 379.572,271.202 383.229,258.336 391.215,269.064 404.581,268.566 396.846,279.478 "/>
<polygon fill="#5FBA9E" stroke="#595757" stroke-miterlimit="10" points="554.982,385.441 547.374,384.508 542.293,390.248 
	540.828,382.723 533.8,379.664 540.504,375.945 541.242,368.316 546.849,373.543 554.334,371.887 551.096,378.834 "/>
<polygon fill="#5FBA9E" stroke="#595757" stroke-miterlimit="10" points="604.27,385.441 596.661,384.508 591.579,390.248 
	590.115,382.723 583.086,379.664 589.791,375.945 590.528,368.316 596.136,373.543 603.621,371.887 600.383,378.834 "/>
<polygon fill="#5FBA9E" stroke="#595757" stroke-miterlimit="10" points="644.873,389.449 631.598,387.822 622.73,397.836 
	620.176,384.707 607.914,379.367 619.609,372.881 620.897,359.568 630.681,368.688 643.739,365.799 638.09,377.922 "/>
<polygon fill="#5FBA9E" stroke="#595757" stroke-miterlimit="10" points="417.067,288.761 412.201,287.242 408.191,290.39 
	408.131,285.292 403.898,282.451 408.728,280.819 410.122,275.915 413.167,280.005 418.261,279.815 415.313,283.974 "/>
<polygon fill="#5FBA9E" stroke="#595757" stroke-miterlimit="10" points="290.38,295.055 285.558,293.401 281.461,296.437 
	281.544,291.339 277.392,288.38 282.265,286.884 283.795,282.021 286.725,286.193 291.823,286.146 288.76,290.222 "/>
<polygon fill="#5FBA9E" stroke="#595757" stroke-miterlimit="10" points="334.531,266.491 329.47,265.871 326.09,269.688 
	325.117,264.684 320.442,262.648 324.901,260.176 325.392,255.102 329.121,258.578 334.099,257.477 331.945,262.097 "/>
<polygon fill="#5FBA9E" stroke="#595757" stroke-miterlimit="10" points="371.052,295.808 366.185,294.29 362.174,297.438 
	362.115,292.339 357.882,289.498 362.711,287.867 364.106,282.962 367.15,287.052 372.245,286.862 369.296,291.021 "/>
<polygon fill="#5FBA9E" stroke="#595757" stroke-miterlimit="10" points="203.252,393.84 198.191,393.219 194.812,397.035 
	193.838,392.031 189.164,389.996 193.622,387.523 194.113,382.447 197.842,385.926 202.82,384.824 200.667,389.445 "/>
<polygon fill="#5FBA9E" stroke="#595757" stroke-miterlimit="10" points="657.487,375.877 652.427,375.258 649.047,379.074 
	648.073,374.07 643.398,372.035 647.857,369.562 648.348,364.488 652.078,367.965 657.055,366.863 654.902,371.484 "/>
<polygon fill="#5FBA9E" stroke="#595757" stroke-miterlimit="10" points="158.509,252.232 170.782,257.547 182.118,250.449 
	180.856,263.764 191.109,272.352 178.057,275.267 173.058,287.672 166.253,276.158 152.909,275.237 161.757,265.207 "/>
<polygon fill="#5FBA9E" stroke="#595757" stroke-miterlimit="10" points="147.311,255.859 151.989,257.885 156.31,255.18 
	155.829,260.255 159.737,263.528 154.762,264.64 152.855,269.369 150.262,264.98 145.176,264.629 148.548,260.805 "/>
<polygon fill="#5FBA9E" stroke="#595757" stroke-miterlimit="10" points="189.135,251.701 193.814,253.728 198.136,251.021 
	197.655,256.097 201.563,259.371 196.587,260.481 194.683,265.21 192.088,260.822 187.001,260.47 190.374,256.647 "/>
<polygon fill="#5FBA9E" stroke="#595757" stroke-miterlimit="10" points="290.632,228.202 277.98,223.863 267.234,231.825 
	267.451,218.453 256.558,210.692 269.343,206.767 273.358,194.008 281.042,204.955 294.416,204.83 286.38,215.521 "/>
<polygon fill="#5FBA9E" stroke="#595757" stroke-miterlimit="10" points="317.892,231.572 307.845,228.126 299.31,234.45 
	299.482,223.83 290.832,217.667 300.985,214.548 304.174,204.416 310.276,213.109 320.897,213.011 314.516,221.501 "/>
<polygon fill="#5FBA9E" stroke="#595757" stroke-miterlimit="10" points="403.161,226.812 392.321,225.483 385.081,233.66 
	382.995,222.939 372.981,218.58 382.532,213.283 383.583,202.413 391.573,209.859 402.235,207.5 397.622,217.399 "/>
<polygon fill="#5FBA9E" stroke="#595757" stroke-miterlimit="10" points="448.755,225.792 435.479,224.165 426.612,234.178 
	424.058,221.049 411.796,215.711 423.491,209.225 424.778,195.912 434.562,205.032 447.62,202.143 441.972,214.265 "/>
<polygon fill="#5FBA9E" stroke="#595757" stroke-miterlimit="10" points="463.53,219.767 458.47,219.146 455.091,222.963 
	454.116,217.959 449.442,215.924 453.901,213.452 454.392,208.377 458.12,211.854 463.099,210.752 460.944,215.373 "/>
<polygon fill="#5FBA9E" stroke="#595757" stroke-miterlimit="10" points="330.06,242.721 325.237,241.067 321.142,244.103 
	321.224,239.005 317.072,236.046 321.945,234.55 323.476,229.687 326.405,233.859 331.503,233.812 328.44,237.888 "/>
<polygon fill="#5FBA9E" stroke="#595757" stroke-miterlimit="10" points="374.211,214.157 369.15,213.537 365.771,217.354 
	364.797,212.35 360.122,210.314 364.581,207.842 365.071,202.768 368.801,206.244 373.778,205.143 371.625,209.763 "/>
<polygon fill="#5FBA9E" stroke="#595757" stroke-miterlimit="10" points="419.528,234.961 414.468,234.341 411.087,238.158 
	410.112,233.153 405.438,231.118 409.897,228.646 410.388,223.571 414.118,227.047 419.095,225.946 416.942,230.567 "/>
<polygon fill="#5FBA9E" stroke="#595757" stroke-miterlimit="10" points="198.189,199.898 210.462,205.213 221.798,198.115 
	220.537,211.43 230.79,220.018 217.737,222.933 212.738,235.338 205.933,223.824 192.589,222.903 201.437,212.873 "/>
<polygon fill="#5FBA9E" stroke="#595757" stroke-miterlimit="10" points="186.991,203.525 191.669,205.551 195.99,202.846 
	195.509,207.921 199.417,211.194 194.442,212.306 192.536,217.035 189.942,212.646 184.856,212.295 188.229,208.471 "/>
<polygon fill="#5FBA9E" stroke="#595757" stroke-miterlimit="10" points="228.815,199.367 233.495,201.394 237.816,198.688 
	237.335,203.763 241.244,207.037 236.267,208.147 234.363,212.876 231.768,208.488 226.681,208.136 230.054,204.313 "/>
<polygon fill="#5FBA9E" stroke="#595757" stroke-miterlimit="10" points="233.191,328.936 225.924,326.443 219.752,331.018 
	219.876,323.336 213.62,318.879 220.963,316.623 223.269,309.295 227.683,315.584 235.365,315.512 230.749,321.652 "/>
<polygon fill="#5FBA9E" stroke="#595757" stroke-miterlimit="10" points="215.759,341.281 211.877,339.949 208.579,342.393 
	208.645,338.289 205.302,335.906 209.226,334.703 210.458,330.787 212.816,334.146 216.921,334.107 214.455,337.389 "/>
<polygon fill="#5FBA9E" stroke="#595757" stroke-miterlimit="10" points="283.065,328.562 272.188,329.543 266.828,339.059 
	262.536,329.016 251.83,326.857 260.054,319.672 258.797,308.824 268.173,314.426 278.102,309.879 275.672,320.525 "/>
<polygon fill="#5FBA9E" stroke="#595757" stroke-miterlimit="10" points="337.476,326.703 332.398,326.24 329.14,330.16 
	328.01,325.189 323.274,323.301 327.654,320.691 327.985,315.604 331.822,318.961 336.763,317.705 334.754,322.391 "/>
<polygon fill="#5FBA9E" stroke="#595757" stroke-miterlimit="10" points="252.103,322.275 247.024,322.732 244.522,327.174 
	242.519,322.486 237.521,321.479 241.36,318.125 240.773,313.061 245.15,315.676 249.785,313.553 248.65,318.523 "/>
<polygon fill="#5FBA9E" stroke="#595757" stroke-miterlimit="10" points="355.492,327.76 350.414,327.299 347.155,331.219 
	346.025,326.248 341.29,324.359 345.668,321.75 346.001,316.662 349.837,320.02 354.778,318.764 352.77,323.449 "/>
<polygon fill="#5FBA9E" stroke="#595757" stroke-miterlimit="10" points="139.584,316.881 134.507,316.42 131.248,320.34 
	130.118,315.369 125.383,313.48 129.762,310.87 130.094,305.783 133.93,309.141 138.871,307.885 136.863,312.57 "/>
<polygon fill="#5FBA9E" stroke="#595757" stroke-miterlimit="10" points="143.012,338.441 137.935,337.98 134.676,341.9 
	133.546,336.928 128.811,335.041 133.19,332.43 133.521,327.342 137.358,330.701 142.299,329.445 140.291,334.131 "/>
<polygon fill="#5FBA9E" stroke="#595757" stroke-miterlimit="10" points="537.51,225.882 524.234,224.254 515.367,234.268 
	512.812,221.139 500.551,215.801 512.246,209.314 513.534,196.002 523.317,205.122 536.376,202.232 530.727,214.355 "/>
<polygon fill="#5FBA9E" stroke="#595757" stroke-miterlimit="10" points="557.358,222.491 550.703,221.675 546.258,226.695 
	544.978,220.113 538.83,217.437 544.693,214.186 545.339,207.511 550.244,212.083 556.791,210.635 553.958,216.712 "/>
<polygon fill="#5FBA9E" stroke="#595757" stroke-miterlimit="10" points="690.395,231.228 680.348,227.782 671.812,234.105 
	671.984,223.485 663.334,217.322 673.488,214.204 676.676,204.071 682.779,212.765 693.4,212.666 687.018,221.157 "/>
<polygon fill="#5FBA9E" stroke="#595757" stroke-miterlimit="10" points="608.922,211.467 618.944,215.807 628.2,210.011 
	627.171,220.884 635.543,227.896 624.884,230.276 620.802,240.406 615.245,231.004 604.35,230.251 611.574,222.062 "/>
<polygon fill="#5FBA9E" stroke="#595757" stroke-miterlimit="10" points="559.494,203.181 564.172,205.207 568.492,202.501 
	568.012,207.577 571.92,210.85 566.944,211.961 565.038,216.69 562.445,212.301 557.358,211.95 560.73,208.126 "/>
<polygon fill="#5FBA9E" stroke="#595757" stroke-miterlimit="10" points="601.317,199.022 605.997,201.049 610.318,198.343 
	609.838,203.418 613.746,206.692 608.77,207.803 606.865,212.532 604.271,208.144 599.184,207.792 602.557,203.968 "/>
<polygon fill="#5FBA9E" stroke="#595757" stroke-miterlimit="10" points="696.773,281.372 703.428,280.556 707.873,285.576 
	709.154,278.994 715.302,276.317 709.438,273.066 708.793,266.392 703.888,270.964 697.341,269.515 700.174,275.593 "/>
<polygon fill="#5FBA9E" stroke="#595757" stroke-miterlimit="10" points="563.736,290.108 573.784,286.662 582.318,292.985 
	582.146,282.365 590.797,276.202 580.644,273.084 577.455,262.952 571.353,271.645 560.731,271.546 567.113,280.037 "/>
<polygon fill="#5FBA9E" stroke="#595757" stroke-miterlimit="10" points="478.468,285.347 489.308,284.019 496.548,292.195 
	498.634,281.475 508.647,277.115 499.097,271.819 498.046,260.948 490.056,268.395 479.394,266.036 484.007,275.935 "/>
<polygon fill="#5FBA9E" stroke="#595757" stroke-miterlimit="10" points="432.874,284.328 446.149,282.7 455.017,292.713 
	457.571,279.585 469.833,274.247 458.138,267.76 456.851,254.448 447.067,263.567 434.009,260.678 439.657,272.801 "/>
<polygon fill="#5FBA9E" stroke="#595757" stroke-miterlimit="10" points="418.099,278.303 423.159,277.682 426.538,281.499 
	427.513,276.495 432.187,274.46 427.728,271.987 427.237,266.913 423.509,270.389 418.53,269.288 420.685,273.909 "/>
<polygon fill="#5FBA9E" stroke="#595757" stroke-miterlimit="10" points="507.418,272.693 512.479,272.073 515.858,275.89 
	516.832,270.885 521.507,268.85 517.048,266.377 516.558,261.303 512.828,264.779 507.851,263.678 510.004,268.299 "/>
<polygon fill="#5FBA9E" stroke="#595757" stroke-miterlimit="10" points="462.101,293.497 467.161,292.876 470.542,296.693 
	471.517,291.689 476.19,289.654 471.731,287.182 471.241,282.107 467.511,285.583 462.534,284.482 464.687,289.103 "/>
<polygon fill="#5FBA9E" stroke="#595757" stroke-miterlimit="10" points="683.439,258.434 671.166,263.749 659.83,256.651 
	661.092,269.966 650.84,278.554 663.893,281.468 668.891,293.874 675.695,282.36 689.039,281.438 680.191,271.408 "/>
<polygon fill="#5FBA9E" stroke="#595757" stroke-miterlimit="10" points="652.814,257.903 648.135,259.929 643.812,257.223 
	644.293,262.299 640.385,265.573 645.361,266.683 647.266,271.412 649.861,267.024 654.947,266.672 651.574,262.849 "/>
<polygon fill="#5FBA9E" stroke="#595757" stroke-miterlimit="10" points="584.83,335.518 571.555,333.891 562.689,343.902 
	560.135,330.775 547.871,325.436 559.568,318.949 560.855,305.638 570.639,314.758 583.697,311.868 578.047,323.99 "/>
<polygon fill="#5FBA9E" stroke="#595757" stroke-miterlimit="10" points="604.68,332.127 598.024,331.311 593.58,336.33 
	592.299,329.748 586.15,327.072 592.015,323.82 592.66,317.146 597.564,321.719 604.111,320.27 601.279,326.348 "/>
<polygon fill="#5FBA9E" stroke="#595757" stroke-miterlimit="10" points="618.014,309.189 630.287,314.504 641.623,307.406 
	640.361,320.721 650.613,329.309 637.561,332.223 632.562,344.629 625.758,333.115 612.414,332.193 621.262,322.164 "/>
<polygon fill="#5FBA9E" stroke="#595757" stroke-miterlimit="10" points="606.814,312.816 611.494,314.842 615.814,312.137 
	615.334,317.213 619.242,320.484 614.266,321.598 612.359,326.326 609.766,321.938 604.68,321.586 608.053,317.762 "/>
<polygon fill="#5FBA9E" stroke="#595757" stroke-miterlimit="10" points="402.061,337.012 388.785,335.383 379.919,345.396 
	377.364,332.268 365.102,326.93 376.798,320.443 378.085,307.131 387.868,316.25 400.927,313.361 395.277,325.484 "/>
<polygon fill="#5FBA9E" stroke="#595757" stroke-miterlimit="10" points="450.895,341.93 437.619,340.303 428.754,350.316 
	426.199,337.188 413.937,331.85 425.633,325.363 426.92,312.051 436.703,321.17 449.762,318.281 444.111,330.402 "/>
<polygon fill="#5FBA9E" stroke="#595757" stroke-miterlimit="10" points="495.449,338.65 482.174,337.023 473.307,347.037 
	470.752,333.908 458.49,328.57 470.186,322.084 471.474,308.771 481.257,317.891 494.315,315.002 488.666,327.125 "/>
<polygon fill="#5FBA9E" stroke="#595757" stroke-miterlimit="10" points="414.675,323.439 409.614,322.82 406.235,326.637 
	405.261,321.633 400.587,319.598 405.046,317.125 405.536,312.051 409.266,315.527 414.243,314.426 412.09,319.047 "/>
<polygon fill="#5FBA9E" stroke="#595757" stroke-miterlimit="10" points="311.22,386.238 297.945,384.609 289.079,394.623 
	286.524,381.494 274.261,376.156 285.958,369.67 287.245,356.357 297.028,365.477 310.087,362.588 304.437,374.711 "/>
<polygon fill="#5FBA9E" stroke="#595757" stroke-miterlimit="10" points="353.028,386.254 339.753,384.627 330.886,394.641 
	328.332,381.512 316.069,376.174 327.765,369.688 329.053,356.375 338.836,365.494 351.895,362.605 346.245,374.729 "/>
<polygon fill="#5FBA9E" stroke="#595757" stroke-miterlimit="10" points="404.597,381.262 397.329,378.77 391.157,383.344 
	391.282,375.662 385.025,371.205 392.368,368.949 394.675,361.621 399.089,367.908 406.771,367.838 402.154,373.979 "/>
<polygon fill="#5FBA9E" stroke="#595757" stroke-miterlimit="10" points="454.471,380.889 443.593,381.867 438.233,391.385 
	433.94,381.34 423.235,379.184 431.46,371.998 430.202,361.148 439.578,366.75 449.507,362.203 447.077,372.852 "/>
<polygon fill="#5FBA9E" stroke="#595757" stroke-miterlimit="10" points="508.881,379.027 503.804,378.566 500.545,382.486 
	499.415,377.516 494.68,375.627 499.06,373.016 499.391,367.93 503.228,371.287 508.168,370.031 506.159,374.717 "/>
<polygon fill="#5FBA9E" stroke="#595757" stroke-miterlimit="10" points="423.508,374.602 418.43,375.059 415.927,379.5 
	413.924,374.812 408.927,373.805 412.765,370.451 412.179,365.387 416.556,368.002 421.19,365.879 420.056,370.848 "/>
<polygon fill="#5FBA9E" stroke="#595757" stroke-miterlimit="10" points="526.897,380.086 521.819,379.625 518.561,383.545 
	517.431,378.572 512.695,376.686 517.073,374.076 517.407,368.986 521.242,372.346 526.184,371.09 524.175,375.775 "/>
</svg>
