<?xml version="1.0" encoding="utf-8"?>
<!-- Generator: Adobe Illustrator 16.0.0, SVG Export Plug-In . SVG Version: 6.00 Build 0)  -->
<!DOCTYPE svg PUBLIC "-//W3C//DTD SVG 1.1//EN" "http://www.w3.org/Graphics/SVG/1.1/DTD/svg11.dtd">
<svg version="1.1" id="图层_1" xmlns="http://www.w3.org/2000/svg" xmlns:xlink="http://www.w3.org/1999/xlink" x="0px" y="0px"
	 width="841.89px" height="595.28px" viewBox="0 0 841.89 595.28" enable-background="new 0 0 841.89 595.28" xml:space="preserve">
<polygon fill="#5FBA9E" stroke="#595757" stroke-miterlimit="10" points="326.987,231.803 313.711,230.175 304.845,240.188 
	302.291,227.06 290.028,221.722 301.724,215.235 303.012,201.923 312.795,211.042 325.854,208.153 320.204,220.276 "/>
<polygon fill="#5FBA9E" stroke="#595757" stroke-miterlimit="10" points="344.176,277.17 337.521,276.354 333.076,281.374 
	331.795,274.792 325.647,272.116 331.511,268.864 332.156,262.19 337.061,266.762 343.608,265.313 340.775,271.391 "/>
<polygon fill="#5FBA9E" stroke="#595757" stroke-miterlimit="10" points="477.212,285.906 467.164,282.46 458.63,288.784 
	458.803,278.164 450.152,272 460.305,268.882 463.494,258.75 469.596,267.443 480.217,267.345 473.836,275.835 "/>
<polygon fill="#5FBA9E" stroke="#595757" stroke-miterlimit="10" points="382.36,335.609 369.085,333.982 360.219,343.996 
	357.664,330.867 345.401,325.529 357.098,319.043 358.385,305.73 368.168,314.85 381.227,311.961 375.577,324.082 "/>
<polygon fill="#5FBA9E" stroke="#595757" stroke-miterlimit="10" points="386.486,390.65 373.211,389.023 364.345,399.035 
	361.79,385.906 349.527,380.568 361.224,374.082 362.511,360.77 372.294,369.889 385.353,367 379.703,379.123 "/>
<polygon fill="#5FBA9E" stroke="#595757" stroke-miterlimit="10" points="307.726,398.186 302.098,386.053 288.912,383.812 
	298.711,374.709 296.767,361.478 308.453,367.983 320.437,362.046 317.86,375.17 327.21,384.732 313.932,386.338 "/>
<polygon fill="#5FBA9E" stroke="#595757" stroke-miterlimit="10" points="348.779,378.584 341.533,377.695 336.694,383.162 
	335.3,375.996 328.607,373.082 334.991,369.543 335.693,362.277 341.033,367.254 348.16,365.678 345.077,372.293 "/>
<polygon fill="#5FBA9E" stroke="#595757" stroke-miterlimit="10" points="511.03,281.723 502.005,278.627 494.338,284.308 
	494.493,274.767 486.723,269.231 495.844,266.43 498.707,257.329 504.189,265.138 513.73,265.049 507.997,272.676 "/>
<polygon fill="#5FBA9E" stroke="#595757" stroke-miterlimit="10" points="489.38,297.055 484.558,295.401 480.461,298.437 
	480.544,293.339 476.392,290.38 481.266,288.884 482.795,284.021 485.725,288.193 490.822,288.146 487.76,292.222 "/>
<polygon fill="#5FBA9E" stroke="#595757" stroke-miterlimit="10" points="533.531,268.491 528.471,267.871 525.09,271.688 
	524.117,266.684 519.442,264.648 523.9,262.176 524.392,257.102 528.121,260.578 533.099,259.477 530.945,264.097 "/>
<polygon fill="#5FBA9E" stroke="#595757" stroke-miterlimit="10" points="402.252,395.84 397.191,395.219 393.812,399.035 
	392.838,394.031 388.164,391.996 392.622,389.523 393.113,384.447 396.842,387.926 401.82,386.824 399.667,391.445 "/>
<polygon fill="#5FBA9E" stroke="#595757" stroke-miterlimit="10" points="357.509,254.232 369.782,259.547 381.118,252.449 
	379.856,265.764 390.109,274.352 377.057,277.267 372.058,289.672 365.253,278.158 351.909,277.237 360.757,267.207 "/>
<polygon fill="#5FBA9E" stroke="#595757" stroke-miterlimit="10" points="346.311,257.859 350.989,259.885 355.31,257.18 
	354.829,262.255 358.737,265.528 353.762,266.64 351.855,271.369 349.262,266.98 344.176,266.629 347.548,262.805 "/>
<polygon fill="#5FBA9E" stroke="#595757" stroke-miterlimit="10" points="388.135,253.701 392.814,255.728 397.136,253.021 
	396.655,258.097 400.563,261.371 395.587,262.481 393.683,267.21 391.088,262.822 386.001,262.47 389.374,258.647 "/>
<polygon fill="#5FBA9E" stroke="#595757" stroke-miterlimit="10" points="489.632,230.202 476.98,225.863 466.234,233.825 
	466.451,220.453 455.559,212.692 468.344,208.767 472.357,196.008 480.043,206.955 493.416,206.83 485.381,217.521 "/>
<polygon fill="#5FBA9E" stroke="#595757" stroke-miterlimit="10" points="516.893,233.572 506.845,230.126 498.311,236.45 
	498.482,225.83 489.832,219.667 499.985,216.548 503.174,206.416 509.276,215.109 519.897,215.011 513.516,223.501 "/>
<polygon fill="#5FBA9E" stroke="#595757" stroke-miterlimit="10" points="529.06,244.721 524.237,243.067 520.142,246.103 
	520.225,241.005 516.072,238.046 520.945,236.55 522.476,231.687 525.405,235.859 530.503,235.812 527.44,239.888 "/>
<polygon fill="#5FBA9E" stroke="#595757" stroke-miterlimit="10" points="397.189,201.898 409.462,207.213 420.798,200.115 
	419.537,213.43 429.789,222.018 416.737,224.933 411.738,237.338 404.933,225.824 391.589,224.903 400.437,214.873 "/>
<polygon fill="#5FBA9E" stroke="#595757" stroke-miterlimit="10" points="385.991,205.525 390.669,207.551 394.99,204.846 
	394.509,209.921 398.417,213.194 393.442,214.306 391.536,219.035 388.942,214.646 383.856,214.295 387.229,210.471 "/>
<polygon fill="#5FBA9E" stroke="#595757" stroke-miterlimit="10" points="427.814,201.367 432.494,203.394 436.816,200.688 
	436.336,205.763 440.244,209.037 435.268,210.147 433.363,214.876 430.768,210.488 425.682,210.136 429.055,206.313 "/>
<polygon fill="#5FBA9E" stroke="#595757" stroke-miterlimit="10" points="432.191,330.936 424.924,328.443 418.752,333.018 
	418.876,325.336 412.62,320.879 419.963,318.623 422.27,311.295 426.684,317.584 434.365,317.512 429.749,323.652 "/>
<polygon fill="#5FBA9E" stroke="#595757" stroke-miterlimit="10" points="414.759,343.281 410.877,341.949 407.579,344.393 
	407.645,340.289 404.302,337.906 408.226,336.703 409.458,332.787 411.816,336.146 415.921,336.107 413.455,339.389 "/>
<polygon fill="#5FBA9E" stroke="#595757" stroke-miterlimit="10" points="482.065,330.562 471.188,331.543 465.828,341.059 
	461.535,331.016 450.83,328.857 459.055,321.672 457.797,310.824 467.173,316.426 477.102,311.879 474.672,322.525 "/>
<polygon fill="#5FBA9E" stroke="#595757" stroke-miterlimit="10" points="536.476,328.703 531.398,328.24 528.14,332.16 
	527.01,327.189 522.274,325.301 526.654,322.691 526.985,317.604 530.822,320.961 535.763,319.705 533.754,324.391 "/>
<polygon fill="#5FBA9E" stroke="#595757" stroke-miterlimit="10" points="451.103,324.275 446.024,324.732 443.521,329.174 
	441.519,324.486 436.521,323.479 440.359,320.125 439.773,315.061 444.15,317.676 448.785,315.553 447.65,320.523 "/>
<polygon fill="#5FBA9E" stroke="#595757" stroke-miterlimit="10" points="338.584,318.881 333.507,318.42 330.248,322.34 
	329.118,317.369 324.383,315.48 328.762,312.87 329.094,307.783 332.93,311.141 337.871,309.885 335.863,314.57 "/>
<polygon fill="#5FBA9E" stroke="#595757" stroke-miterlimit="10" points="342.012,340.441 336.935,339.98 333.676,343.9 
	332.546,338.928 327.811,337.041 332.19,334.43 332.521,329.342 336.358,332.701 341.299,331.445 339.291,336.131 "/>
<polygon fill="#5FBA9E" stroke="#595757" stroke-miterlimit="10" points="510.221,388.238 496.945,386.609 488.078,396.623 
	485.523,383.494 473.262,378.156 484.957,371.67 486.245,358.357 496.028,367.477 509.087,364.588 503.438,376.711 "/>
<polygon fill="#5FBA9E" stroke="#595757" stroke-miterlimit="10" points="552.028,388.254 538.753,386.627 529.887,396.641 
	527.332,383.512 515.068,378.174 526.766,371.688 528.053,358.375 537.836,367.494 550.895,364.605 545.245,376.729 "/>
</svg>
