<?xml version="1.0" encoding="utf-8"?>
<!-- Generator: Adobe Illustrator 16.0.0, SVG Export Plug-In . SVG Version: 6.00 Build 0)  -->
<!DOCTYPE svg PUBLIC "-//W3C//DTD SVG 1.1//EN" "http://www.w3.org/Graphics/SVG/1.1/DTD/svg11.dtd">
<svg version="1.1" id="图层_1" xmlns="http://www.w3.org/2000/svg" xmlns:xlink="http://www.w3.org/1999/xlink" x="0px" y="0px"
	 width="841.89px" height="595.28px" viewBox="0 0 841.89 595.28" enable-background="new 0 0 841.89 595.28" xml:space="preserve">
<path fill="#8DBF5E" d="M426.686,215.327c1.439-1.405,1.951-3.469,1.326-5.383c-0.621-1.917-2.244-3.285-4.24-3.577l-17.731-2.575
	c-0.757-0.109-1.407-0.585-1.745-1.27l-7.929-16.067c-0.89-1.806-2.696-2.928-4.71-2.928s-3.818,1.122-4.71,2.928l-7.926,16.067
	c-0.34,0.685-0.991,1.159-1.747,1.27l-17.734,2.577c-1.99,0.29-3.615,1.658-4.239,3.575c-0.622,1.915-0.11,3.979,1.33,5.383
	l12.832,12.507c0.543,0.532,0.794,1.302,0.667,2.053l-3.03,17.66c-0.341,1.984,0.458,3.949,2.091,5.135
	c1.626,1.188,3.742,1.342,5.528,0.398l15.858-8.337c0.679-0.354,1.485-0.354,2.157,0l15.862,8.337
	c0.773,0.41,1.615,0.612,2.446,0.612c1.085,0,2.165-0.339,3.082-1.012c1.635-1.186,2.434-3.149,2.094-5.136l-3.031-17.659
	c-0.129-0.75,0.121-1.52,0.666-2.053L426.686,215.327z M410.298,230.383l3.027,17.659c0.149,0.889-0.189,1.737-0.926,2.268
	c-0.728,0.533-1.64,0.596-2.439,0.181l-15.861-8.343c-0.762-0.397-1.604-0.603-2.442-0.603c-0.841,0-1.682,0.204-2.446,0.604
	l-15.854,8.34c-0.804,0.415-1.715,0.354-2.443-0.181c-0.729-0.529-1.071-1.377-0.926-2.268l3.032-17.659
	c0.29-1.704-0.272-3.443-1.512-4.65l-12.835-12.504c-0.645-0.632-0.864-1.521-0.586-2.378c0.277-0.859,0.979-1.449,1.872-1.581
	l17.731-2.576c1.714-0.247,3.191-1.321,3.953-2.87l7.934-16.07c0.397-0.81,1.179-1.293,2.08-1.293c0.904,0,1.678,0.483,2.079,1.293
	l7.929,16.07c0.769,1.549,2.245,2.624,3.956,2.87l17.731,2.576c0.891,0.132,1.592,0.722,1.869,1.581
	c0.279,0.856,0.062,1.746-0.586,2.378l-12.831,12.503C410.569,226.939,410.002,228.678,410.298,230.383z"/>
</svg>
