<?xml version="1.0" encoding="utf-8"?>
<!-- Generator: Adobe Illustrator 16.0.0, SVG Export Plug-In . SVG Version: 6.00 Build 0)  -->
<!DOCTYPE svg PUBLIC "-//W3C//DTD SVG 1.1//EN" "http://www.w3.org/Graphics/SVG/1.1/DTD/svg11.dtd">
<svg version="1.1" id="图层_1" xmlns="http://www.w3.org/2000/svg" xmlns:xlink="http://www.w3.org/1999/xlink" x="0px" y="0px"
	 width="841.89px" height="595.28px" viewBox="0 0 841.89 595.28" enable-background="new 0 0 841.89 595.28" xml:space="preserve">
<rect x="59.485" y="306.303" fill="#00A0E9" stroke="#000000" stroke-miterlimit="10" width="40.625" height="134.042"/>
<rect x="106.717" y="337.55" fill="#00A0E9" stroke="#000000" stroke-miterlimit="10" width="40.625" height="102.852"/>
<rect x="153.949" y="306.303" fill="#00A0E9" stroke="#000000" stroke-miterlimit="10" width="40.625" height="134.042"/>
<rect x="201.284" y="283.454" fill="#727171" stroke="#000000" stroke-miterlimit="10" width="40.625" height="156.853"/>
<rect x="248.765" y="216.212" fill="#727171" stroke="#000000" stroke-miterlimit="10" width="40.625" height="224"/>
<rect x="296.272" y="268.412" fill="#727171" stroke="#000000" stroke-miterlimit="10" width="40.624" height="171.873"/>
<rect x="343.778" y="216.212" fill="#727171" stroke="#000000" stroke-miterlimit="10" width="40.625" height="224"/>
<rect x="391.418" y="178.044" fill="#727171" stroke="#000000" stroke-miterlimit="10" width="40.625" height="262.12"/>
<rect x="628.295" y="306.303" fill="#2EA7E0" stroke="#000000" stroke-miterlimit="10" width="40.625" height="134.042"/>
<rect x="675.527" y="337.55" fill="#2EA7E0" stroke="#000000" stroke-miterlimit="10" width="40.625" height="102.852"/>
<rect x="722.758" y="306.303" fill="#2EA7E0" stroke="#000000" stroke-miterlimit="10" width="40.625" height="134.042"/>
<rect x="770.092" y="283.454" fill="#727171" stroke="#000000" stroke-miterlimit="10" width="40.625" height="156.853"/>
<rect x="438.943" y="288.852" fill="#727171" stroke="#000000" stroke-miterlimit="10" width="40.625" height="151.465"/>
<rect x="486.234" y="324.156" fill="#2EA7E0" stroke="#000000" stroke-miterlimit="10" width="40.623" height="116.219"/>
<rect x="533.525" y="288.852" fill="#2EA7E0" stroke="#000000" stroke-miterlimit="10" width="40.625" height="151.465"/>
<rect x="580.926" y="263.035" fill="#2EA7E0" stroke="#000000" stroke-miterlimit="10" width="40.625" height="177.243"/>
</svg>
