<?xml version="1.0" encoding="utf-8"?>
<!-- Generator: Adobe Illustrator 16.0.0, SVG Export Plug-In . SVG Version: 6.00 Build 0)  -->
<!DOCTYPE svg PUBLIC "-//W3C//DTD SVG 1.1//EN" "http://www.w3.org/Graphics/SVG/1.1/DTD/svg11.dtd">
<svg version="1.1" id="图层_1" xmlns="http://www.w3.org/2000/svg" xmlns:xlink="http://www.w3.org/1999/xlink" x="0px" y="0px"
	 width="670.588px" height="629.412px" viewBox="0 0 670.588 629.412" enable-background="new 0 0 670.588 629.412"
	 xml:space="preserve">
<g>
	<path fill="#22517A" d="M136.395,339.833c1.792,0,3.242-1.453,3.242-3.24c0-1.79-1.45-3.239-3.242-3.239
		c-1.787,0-3.235,1.45-3.235,3.239C133.16,338.381,134.608,339.833,136.395,339.833z M143.797,343.991
		c0-1.631-1.323-2.952-2.952-2.952h-9.102c-1.629,0-2.951,1.321-2.951,2.952l0.007,11.921c0,0.715,0.578,1.293,1.289,1.293
		c0.711,0,1.289-0.578,1.289-1.293v-10.893h0.545v29.137c0,1.068,0.864,1.934,1.936,1.934c1.062,0,1.928-0.865,1.928-1.934V358.2
		h1.056v15.952c0,1.07,0.863,1.938,1.935,1.938c1.061,0,1.927-0.867,1.927-1.938v-29.133h0.518v10.848
		c0,0.715,0.582,1.296,1.292,1.296c0.714,0,1.291-0.581,1.291-1.296L143.797,343.991z"/>
</g>
<g>
	<path fill="#22517A" d="M106.103,339.833c1.793,0,3.243-1.453,3.243-3.24c0-1.79-1.45-3.239-3.243-3.239
		c-1.787,0-3.234,1.45-3.234,3.239C102.869,338.381,104.316,339.833,106.103,339.833z M113.505,343.991
		c0-1.631-1.322-2.952-2.953-2.952h-9.1c-1.629,0-2.953,1.321-2.953,2.952l0.009,11.92c0,0.716,0.577,1.293,1.288,1.293
		s1.288-0.577,1.288-1.293v-10.892h0.545v29.138c0,1.066,0.864,1.933,1.938,1.933c1.061,0,1.927-0.866,1.927-1.933V358.2h1.056
		v15.952c0,1.069,0.864,1.938,1.935,1.938c1.062,0,1.928-0.868,1.928-1.938v-29.133h0.518v10.849c0,0.714,0.581,1.295,1.291,1.295
		c0.716,0,1.292-0.581,1.292-1.295L113.505,343.991z"/>
</g>
<g>
	<g>
		<path fill="#22517A" d="M82.612,443.721c1.37-19.803,17.825-35.453,37.975-35.453s36.607,15.65,37.977,35.453h8.712
			c-1.267-22.509-18.404-40.734-40.424-43.688l-6.265-10.85l-6.263,10.85c-22.021,2.953-39.157,21.179-40.426,43.688H82.612z"/>
	</g>
	<text transform="matrix(1 0 0 1 90.0708 446.5493)" fill="#22517A" font-family="'Roboto-Black'" font-size="28">Math</text>
</g>
<g>
	<g>
		<path fill="#42BAB9" d="M215.632,442.307c1.37-19.803,17.825-35.453,37.975-35.453s36.607,15.65,37.976,35.453h8.713
			c-1.268-22.509-18.404-40.734-40.424-43.688l-6.265-10.85l-6.263,10.85c-22.021,2.953-39.157,21.179-40.426,43.688H215.632z"/>
	</g>
	<text transform="matrix(1 0 0 1 238.4766 445.1353)" fill="#42BAB9" font-family="'Roboto-Black'" font-size="28">CS</text>
</g>
<g>
	<g>
		<path fill="#B1D471" d="M350.948,442.307c1.37-19.803,17.825-35.453,37.975-35.453c20.15,0,36.607,15.65,37.977,35.453h8.713
			c-1.268-22.508-18.404-40.734-40.424-43.688l-6.266-10.85l-6.263,10.85c-22.021,2.953-39.157,21.18-40.426,43.688H350.948z"/>
	</g>
	<text transform="matrix(1 0 0 1 370.2646 445.1362)" fill="#B1D471" font-family="'Roboto-Black'" font-size="28">Bio</text>
</g>
<g>
	<g>
		<path fill="#E78E38" d="M494.345,442.306c1.371-19.803,17.826-35.453,37.975-35.453c20.15,0,36.607,15.65,37.977,35.453h8.713
			c-1.268-22.508-18.404-40.734-40.424-43.688l-6.266-10.85l-6.262,10.85c-22.021,2.953-39.158,21.18-40.426,43.688H494.345z"/>
	</g>
	<text transform="matrix(1 0 0 1 509.3076 445.1353)" fill="#E78E38" font-family="'Roboto-Black'" font-size="28">Che</text>
</g>
<g>
	<path fill="#22517A" d="M89.141,297.099c1.792,0,3.242-1.453,3.242-3.24c0-1.79-1.45-3.239-3.242-3.239
		c-1.787,0-3.235,1.45-3.235,3.239C85.905,295.646,87.354,297.099,89.141,297.099z M96.542,301.256c0-1.631-1.323-2.952-2.952-2.952
		h-9.102c-1.629,0-2.951,1.321-2.951,2.952l0.007,11.921c0,0.715,0.578,1.293,1.289,1.293c0.711,0,1.289-0.578,1.289-1.293v-10.893
		h0.545v29.137c0,1.068,0.864,1.934,1.936,1.934c1.062,0,1.928-0.865,1.928-1.934v-15.956h1.056v15.952
		c0,1.07,0.863,1.938,1.935,1.938c1.061,0,1.927-0.867,1.927-1.938v-29.133h0.518v10.848c0,0.715,0.582,1.296,1.292,1.296
		c0.714,0,1.291-0.581,1.291-1.296L96.542,301.256z"/>
</g>
<g>
	<path fill="#22517A" d="M58.849,297.099c1.793,0,3.243-1.453,3.243-3.24c0-1.79-1.45-3.239-3.243-3.239
		c-1.787,0-3.234,1.45-3.234,3.239C55.614,295.646,57.062,297.099,58.849,297.099z M66.25,301.256c0-1.631-1.322-2.952-2.953-2.952
		h-9.1c-1.629,0-2.953,1.321-2.953,2.952l0.009,11.92c0,0.716,0.577,1.293,1.288,1.293s1.288-0.577,1.288-1.293v-10.892h0.545
		v29.138c0,1.066,0.864,1.933,1.938,1.933c1.061,0,1.927-0.866,1.927-1.933v-15.957h1.056v15.952c0,1.069,0.864,1.938,1.935,1.938
		c1.062,0,1.928-0.868,1.928-1.938v-29.133h0.518v10.849c0,0.714,0.581,1.295,1.291,1.295c0.716,0,1.292-0.581,1.292-1.295
		L66.25,301.256z"/>
</g>
<g>
	<path fill="#22517A" d="M151.542,297.099c1.792,0,3.242-1.453,3.242-3.24c0-1.79-1.45-3.239-3.242-3.239
		c-1.787,0-3.235,1.45-3.235,3.239C148.306,295.646,149.754,297.099,151.542,297.099z M158.943,301.256
		c0-1.631-1.323-2.952-2.952-2.952h-9.102c-1.629,0-2.951,1.321-2.951,2.952l0.007,11.921c0,0.715,0.578,1.293,1.289,1.293
		c0.711,0,1.289-0.578,1.289-1.293v-10.893h0.545v29.137c0,1.068,0.864,1.934,1.936,1.934c1.062,0,1.928-0.865,1.928-1.934v-15.956
		h1.056v15.952c0,1.07,0.863,1.938,1.935,1.938c1.061,0,1.927-0.867,1.927-1.938v-29.133h0.518v10.848
		c0,0.715,0.582,1.296,1.292,1.296c0.714,0,1.291-0.581,1.291-1.296L158.943,301.256z"/>
</g>
<g>
	<path fill="#22517A" d="M121.25,297.099c1.793,0,3.243-1.453,3.243-3.24c0-1.79-1.45-3.239-3.243-3.239
		c-1.787,0-3.234,1.45-3.234,3.239C118.015,295.646,119.462,297.099,121.25,297.099z M128.651,301.256
		c0-1.631-1.322-2.952-2.953-2.952h-9.1c-1.629,0-2.953,1.321-2.953,2.952l0.009,11.92c0,0.716,0.577,1.293,1.288,1.293
		s1.288-0.577,1.288-1.293v-10.892h0.545v29.138c0,1.066,0.864,1.933,1.938,1.933c1.061,0,1.927-0.866,1.927-1.933v-15.957h1.056
		v15.952c0,1.069,0.864,1.938,1.935,1.938c1.062,0,1.928-0.868,1.928-1.938v-29.133h0.518v10.849c0,0.714,0.581,1.295,1.291,1.295
		c0.716,0,1.292-0.581,1.292-1.295L128.651,301.256z"/>
</g>
<g>
	<path fill="#22517A" d="M256.688,339.833c1.792,0,3.242-1.453,3.242-3.24c0-1.79-1.45-3.239-3.242-3.239
		c-1.787,0-3.235,1.45-3.235,3.239C253.453,338.381,254.901,339.833,256.688,339.833z M264.09,343.991
		c0-1.631-1.323-2.952-2.952-2.952h-9.102c-1.629,0-2.951,1.321-2.951,2.952l0.007,11.921c0,0.715,0.578,1.293,1.289,1.293
		c0.711,0,1.289-0.578,1.289-1.293v-10.893h0.545v29.137c0,1.068,0.864,1.934,1.936,1.934c1.062,0,1.928-0.865,1.928-1.934V358.2
		h1.056v15.952c0,1.07,0.863,1.938,1.935,1.938c1.061,0,1.927-0.867,1.927-1.938v-29.133h0.518v10.848
		c0,0.715,0.582,1.296,1.292,1.296c0.714,0,1.291-0.581,1.291-1.296L264.09,343.991z"/>
</g>
<g>
	<path fill="#22517A" d="M226.396,339.833c1.793,0,3.243-1.453,3.243-3.24c0-1.79-1.45-3.239-3.243-3.239
		c-1.787,0-3.234,1.45-3.234,3.239C223.162,338.381,224.609,339.833,226.396,339.833z M233.798,343.991
		c0-1.631-1.322-2.952-2.953-2.952h-9.1c-1.629,0-2.953,1.321-2.953,2.952l0.009,11.92c0,0.716,0.577,1.293,1.288,1.293
		s1.288-0.577,1.288-1.293v-10.892h0.545v29.138c0,1.066,0.864,1.933,1.938,1.933c1.061,0,1.927-0.866,1.927-1.933V358.2h1.056
		v15.952c0,1.069,0.864,1.938,1.935,1.938c1.062,0,1.928-0.868,1.928-1.938v-29.133h0.518v10.849c0,0.714,0.581,1.295,1.291,1.295
		c0.716,0,1.292-0.581,1.292-1.295L233.798,343.991z"/>
</g>
<g>
	<path fill="#22517A" d="M271.834,297.099c1.791,0,3.242-1.453,3.242-3.24c0-1.79-1.451-3.239-3.242-3.239
		c-1.787,0-3.236,1.45-3.236,3.239C268.598,295.646,270.047,297.099,271.834,297.099z M279.236,301.256
		c0-1.631-1.324-2.952-2.953-2.952h-9.102c-1.629,0-2.951,1.321-2.951,2.952l0.008,11.921c0,0.715,0.578,1.293,1.289,1.293
		s1.287-0.578,1.287-1.293v-10.893h0.547v29.137c0,1.068,0.863,1.934,1.936,1.934c1.062,0,1.928-0.865,1.928-1.934v-15.956h1.057
		v15.952c0,1.07,0.863,1.938,1.934,1.938c1.062,0,1.928-0.867,1.928-1.938v-29.133h0.518v10.848c0,0.715,0.582,1.296,1.293,1.296
		c0.715,0,1.291-0.581,1.291-1.296L279.236,301.256z"/>
</g>
<g>
	<path fill="#22517A" d="M241.542,297.099c1.793,0,3.243-1.453,3.243-3.24c0-1.79-1.45-3.239-3.243-3.239
		c-1.787,0-3.234,1.45-3.234,3.239C238.308,295.646,239.755,297.099,241.542,297.099z M248.943,301.256
		c0-1.631-1.321-2.952-2.952-2.952h-9.1c-1.629,0-2.953,1.321-2.953,2.952l0.009,11.92c0,0.716,0.577,1.293,1.288,1.293
		s1.288-0.577,1.288-1.293v-10.892h0.545v29.138c0,1.066,0.864,1.933,1.938,1.933c1.061,0,1.927-0.866,1.927-1.933v-15.957h1.056
		v15.952c0,1.069,0.864,1.938,1.935,1.938c1.062,0,1.928-0.868,1.928-1.938v-29.133h0.519v10.849c0,0.714,0.581,1.295,1.29,1.295
		c0.717,0,1.293-0.581,1.293-1.295L248.943,301.256z"/>
</g>
<g>
	<path fill="#22517A" d="M388.782,339.833c1.791,0,3.241-1.453,3.241-3.24c0-1.79-1.45-3.239-3.241-3.239
		c-1.787,0-3.236,1.45-3.236,3.239C385.546,338.38,386.995,339.833,388.782,339.833z M396.184,343.99
		c0-1.631-1.323-2.952-2.952-2.952h-9.102c-1.629,0-2.951,1.321-2.951,2.952l0.008,11.92c0,0.715,0.578,1.293,1.288,1.293
		c0.711,0,1.288-0.578,1.288-1.293v-10.892h0.546v29.136c0,1.068,0.864,1.934,1.937,1.934c1.062,0,1.928-0.865,1.928-1.934V358.2
		h1.057v15.951c0,1.07,0.863,1.938,1.934,1.938c1.062,0,1.928-0.867,1.928-1.938v-29.132h0.518v10.847
		c0,0.715,0.582,1.297,1.293,1.297c0.714,0,1.29-0.582,1.29-1.297L396.184,343.99z"/>
</g>
<g>
	<path fill="#22517A" d="M358.489,339.833c1.793,0,3.243-1.453,3.243-3.24c0-1.79-1.45-3.239-3.243-3.239
		c-1.787,0-3.234,1.45-3.234,3.239C355.255,338.38,356.702,339.833,358.489,339.833z M365.892,343.99
		c0-1.631-1.322-2.952-2.953-2.952h-9.1c-1.629,0-2.953,1.321-2.953,2.952l0.01,11.92c0,0.715,0.577,1.293,1.288,1.293
		s1.288-0.578,1.288-1.293v-10.892h0.545v29.138c0,1.066,0.864,1.932,1.938,1.932c1.061,0,1.928-0.865,1.928-1.932V358.2h1.055
		v15.951c0,1.07,0.865,1.938,1.936,1.938c1.062,0,1.928-0.867,1.928-1.938v-29.132h0.518v10.849c0,0.713,0.582,1.295,1.291,1.295
		c0.717,0,1.292-0.582,1.292-1.295L365.892,343.99z"/>
</g>
<g>
	<path fill="#22517A" d="M403.928,297.098c1.791,0,3.242-1.453,3.242-3.24c0-1.79-1.451-3.239-3.242-3.239
		c-1.787,0-3.236,1.45-3.236,3.239C400.691,295.646,402.141,297.098,403.928,297.098z M411.33,301.255
		c0-1.631-1.324-2.952-2.953-2.952h-9.102c-1.629,0-2.951,1.321-2.951,2.952l0.008,11.921c0,0.715,0.578,1.293,1.289,1.293
		s1.287-0.578,1.287-1.293v-10.893h0.547v29.137c0,1.068,0.863,1.934,1.936,1.934c1.062,0,1.928-0.865,1.928-1.934v-15.956h1.057
		v15.952c0,1.07,0.863,1.938,1.934,1.938c1.062,0,1.928-0.867,1.928-1.938v-29.133h0.518v10.848c0,0.715,0.582,1.296,1.293,1.296
		c0.715,0,1.291-0.581,1.291-1.296L411.33,301.255z"/>
</g>
<g>
	<path fill="#22517A" d="M373.636,297.098c1.793,0,3.243-1.453,3.243-3.24c0-1.79-1.45-3.239-3.243-3.239
		c-1.787,0-3.234,1.45-3.234,3.239C370.401,295.646,371.849,297.098,373.636,297.098z M381.037,301.255
		c0-1.631-1.321-2.952-2.952-2.952h-9.1c-1.63,0-2.953,1.321-2.953,2.952l0.01,11.92c0,0.716,0.576,1.293,1.287,1.293
		s1.288-0.577,1.288-1.293v-10.892h0.546v29.138c0,1.066,0.863,1.933,1.938,1.933c1.061,0,1.927-0.866,1.927-1.933v-15.957h1.056
		v15.952c0,1.069,0.864,1.938,1.935,1.938c1.062,0,1.928-0.868,1.928-1.938v-29.133h0.519v10.849c0,0.714,0.581,1.295,1.29,1.295
		c0.717,0,1.293-0.581,1.293-1.295L381.037,301.255z"/>
</g>
<g>
	<path fill="#22517A" d="M550.228,339.833c1.791,0,3.241-1.453,3.241-3.24c0-1.79-1.45-3.239-3.241-3.239
		c-1.787,0-3.236,1.45-3.236,3.239C546.991,338.381,548.44,339.833,550.228,339.833z M557.629,343.991
		c0-1.631-1.323-2.952-2.952-2.952h-9.102c-1.629,0-2.951,1.321-2.951,2.952l0.008,11.921c0,0.715,0.578,1.293,1.288,1.293
		c0.711,0,1.288-0.578,1.288-1.293v-10.893h0.546v29.137c0,1.068,0.864,1.934,1.937,1.934c1.062,0,1.928-0.865,1.928-1.934V358.2
		h1.057v15.952c0,1.07,0.863,1.938,1.934,1.938c1.062,0,1.928-0.867,1.928-1.938v-29.133h0.518v10.848
		c0,0.715,0.582,1.296,1.293,1.296c0.714,0,1.29-0.581,1.29-1.296L557.629,343.991z"/>
</g>
<g>
	<path fill="#22517A" d="M519.935,339.833c1.793,0,3.243-1.453,3.243-3.24c0-1.79-1.45-3.239-3.243-3.239
		c-1.787,0-3.234,1.45-3.234,3.239C516.7,338.381,518.147,339.833,519.935,339.833z M527.337,343.991
		c0-1.631-1.322-2.952-2.953-2.952h-9.1c-1.629,0-2.953,1.321-2.953,2.952l0.01,11.92c0,0.716,0.577,1.293,1.288,1.293
		s1.288-0.577,1.288-1.293v-10.892h0.545v29.138c0,1.066,0.864,1.933,1.938,1.933c1.061,0,1.928-0.866,1.928-1.933V358.2h1.055
		v15.952c0,1.069,0.865,1.938,1.936,1.938c1.062,0,1.928-0.868,1.928-1.938v-29.133h0.518v10.849c0,0.714,0.582,1.295,1.291,1.295
		c0.717,0,1.292-0.581,1.292-1.295L527.337,343.991z"/>
</g>
<g>
	<path fill="#22517A" d="M565.373,297.099c1.791,0,3.242-1.453,3.242-3.24c0-1.79-1.451-3.239-3.242-3.239
		c-1.787,0-3.236,1.45-3.236,3.239C562.137,295.646,563.586,297.099,565.373,297.099z M572.775,301.256
		c0-1.631-1.324-2.952-2.953-2.952h-9.102c-1.629,0-2.951,1.321-2.951,2.952l0.008,11.921c0,0.715,0.578,1.293,1.289,1.293
		s1.287-0.578,1.287-1.293v-10.893h0.547v29.137c0,1.068,0.863,1.934,1.936,1.934c1.062,0,1.928-0.865,1.928-1.934v-15.956h1.057
		v15.952c0,1.07,0.863,1.938,1.934,1.938c1.062,0,1.928-0.867,1.928-1.938v-29.133h0.518v10.848c0,0.715,0.582,1.296,1.293,1.296
		c0.715,0,1.291-0.581,1.291-1.296L572.775,301.256z"/>
</g>
<g>
	<path fill="#22517A" d="M535.081,297.099c1.793,0,3.243-1.453,3.243-3.24c0-1.79-1.45-3.239-3.243-3.239
		c-1.787,0-3.234,1.45-3.234,3.239C531.847,295.646,533.294,297.099,535.081,297.099z M542.482,301.256
		c0-1.631-1.321-2.952-2.952-2.952h-9.1c-1.63,0-2.953,1.321-2.953,2.952l0.01,11.92c0,0.716,0.576,1.293,1.287,1.293
		s1.288-0.577,1.288-1.293v-10.892h0.546v29.138c0,1.066,0.863,1.933,1.938,1.933c1.061,0,1.927-0.866,1.927-1.933v-15.957h1.056
		v15.952c0,1.069,0.864,1.938,1.935,1.938c1.062,0,1.928-0.868,1.928-1.938v-29.133h0.519v10.849c0,0.714,0.581,1.295,1.29,1.295
		c0.717,0,1.293-0.581,1.293-1.295L542.482,301.256z"/>
</g>
<g>
	<path fill="#22517A" d="M500.875,297.098c1.791,0,3.242-1.453,3.242-3.24c0-1.79-1.451-3.239-3.242-3.239
		c-1.787,0-3.236,1.45-3.236,3.239C497.639,295.646,499.088,297.098,500.875,297.098z M508.277,301.255
		c0-1.631-1.324-2.952-2.953-2.952h-9.102c-1.629,0-2.951,1.321-2.951,2.952l0.008,11.921c0,0.715,0.578,1.293,1.289,1.293
		s1.287-0.578,1.287-1.293v-10.893h0.547v29.137c0,1.068,0.863,1.934,1.936,1.934c1.062,0,1.928-0.865,1.928-1.934v-15.956h1.057
		v15.952c0,1.07,0.863,1.938,1.934,1.938c1.062,0,1.928-0.867,1.928-1.938v-29.133h0.518v10.848c0,0.715,0.582,1.296,1.293,1.296
		c0.715,0,1.291-0.581,1.291-1.296L508.277,301.255z"/>
</g>
<g>
	<path fill="#22517A" d="M557.733,242.497c1.793,0,3.243-1.453,3.243-3.24c0-1.79-1.45-3.239-3.243-3.239
		c-1.787,0-3.234,1.45-3.234,3.239C554.499,241.044,555.946,242.497,557.733,242.497z M565.135,246.654
		c0-1.631-1.321-2.952-2.952-2.952h-9.1c-1.63,0-2.953,1.321-2.953,2.952l0.01,11.92c0,0.716,0.576,1.293,1.287,1.293
		s1.288-0.577,1.288-1.293v-10.892h0.546v29.138c0,1.066,0.863,1.933,1.938,1.933c1.061,0,1.927-0.866,1.927-1.933v-15.957h1.056
		v15.952c0,1.069,0.864,1.938,1.935,1.938c1.062,0,1.928-0.868,1.928-1.938v-29.133h0.519v10.849c0,0.714,0.581,1.295,1.29,1.295
		c0.717,0,1.293-0.581,1.293-1.295L565.135,246.654z"/>
</g>
<g>
	<path fill="#22517A" d="M527.574,242.497c1.791,0,3.242-1.453,3.242-3.24c0-1.79-1.451-3.239-3.242-3.239
		c-1.787,0-3.236,1.45-3.236,3.239C524.338,241.044,525.787,242.497,527.574,242.497z M534.977,246.654
		c0-1.631-1.324-2.952-2.953-2.952h-9.102c-1.629,0-2.951,1.321-2.951,2.952l0.008,11.921c0,0.715,0.578,1.293,1.289,1.293
		s1.287-0.578,1.287-1.293v-10.893h0.547v29.137c0,1.068,0.863,1.934,1.936,1.934c1.062,0,1.928-0.865,1.928-1.934v-15.956h1.057
		v15.952c0,1.07,0.863,1.938,1.934,1.938c1.062,0,1.928-0.867,1.928-1.938v-29.133h0.518v10.848c0,0.715,0.582,1.296,1.293,1.296
		c0.715,0,1.291-0.581,1.291-1.296L534.977,246.654z"/>
</g>
<g>
	<path fill="#22517A" d="M497.282,242.497c1.793,0,3.243-1.453,3.243-3.24c0-1.79-1.45-3.239-3.243-3.239
		c-1.787,0-3.234,1.45-3.234,3.239C494.048,241.044,495.495,242.497,497.282,242.497z M504.684,246.654
		c0-1.631-1.321-2.952-2.952-2.952h-9.1c-1.63,0-2.953,1.321-2.953,2.952l0.01,11.92c0,0.716,0.576,1.293,1.287,1.293
		s1.288-0.577,1.288-1.293v-10.892h0.546v29.138c0,1.066,0.863,1.933,1.938,1.933c1.061,0,1.927-0.866,1.927-1.933v-15.957h1.056
		v15.952c0,1.069,0.864,1.938,1.935,1.938c1.062,0,1.928-0.868,1.928-1.938v-29.133h0.519v10.849c0,0.714,0.581,1.295,1.29,1.295
		c0.717,0,1.293-0.581,1.293-1.295L504.684,246.654z"/>
</g>
<g>
	<path fill="#22517A" d="M104.287,242.497c1.791,0,3.242-1.453,3.242-3.24c0-1.79-1.451-3.239-3.242-3.239
		c-1.787,0-3.236,1.45-3.236,3.239C101.05,241.044,102.5,242.497,104.287,242.497z M111.689,246.654
		c0-1.631-1.324-2.952-2.953-2.952h-9.102c-1.629,0-2.951,1.321-2.951,2.952l0.008,11.921c0,0.715,0.578,1.293,1.289,1.293
		s1.287-0.578,1.287-1.293v-10.893h0.547v29.137c0,1.068,0.863,1.934,1.936,1.934c1.062,0,1.928-0.865,1.928-1.934v-15.956h1.057
		v15.952c0,1.07,0.863,1.938,1.934,1.938c1.062,0,1.928-0.867,1.928-1.938v-29.133h0.518v10.848c0,0.715,0.582,1.296,1.293,1.296
		c0.715,0,1.291-0.581,1.291-1.296L111.689,246.654z"/>
</g>
<g>
	<path fill="#22517A" d="M73.995,242.497c1.793,0,3.243-1.453,3.243-3.24c0-1.79-1.45-3.239-3.243-3.239
		c-1.787,0-3.234,1.45-3.234,3.239C70.76,241.044,72.208,242.497,73.995,242.497z M81.396,246.654c0-1.631-1.321-2.952-2.952-2.952
		h-9.1c-1.629,0-2.953,1.321-2.953,2.952l0.009,11.92c0,0.716,0.577,1.293,1.288,1.293s1.288-0.577,1.288-1.293v-10.892h0.545
		v29.138c0,1.066,0.864,1.933,1.938,1.933c1.061,0,1.927-0.866,1.927-1.933v-15.957h1.056v15.952c0,1.069,0.864,1.938,1.935,1.938
		c1.062,0,1.928-0.868,1.928-1.938v-29.133h0.519v10.849c0,0.714,0.581,1.295,1.29,1.295c0.717,0,1.293-0.581,1.293-1.295
		L81.396,246.654z"/>
</g>
<g>
	<path fill="#22517A" d="M286.234,250.276c1.791,0,3.242-1.453,3.242-3.24c0-1.79-1.451-3.239-3.242-3.239
		c-1.787,0-3.236,1.45-3.236,3.239C282.998,248.824,284.447,250.276,286.234,250.276z M293.637,254.434
		c0-1.631-1.324-2.952-2.953-2.952h-9.102c-1.629,0-2.951,1.321-2.951,2.952l0.008,11.921c0,0.715,0.578,1.293,1.289,1.293
		s1.287-0.578,1.287-1.293v-10.893h0.547v29.137c0,1.068,0.863,1.934,1.936,1.934c1.062,0,1.928-0.865,1.928-1.934v-15.956h1.057
		v15.952c0,1.07,0.863,1.938,1.934,1.938c1.062,0,1.928-0.867,1.928-1.938v-29.133h0.518v10.848c0,0.715,0.582,1.296,1.293,1.296
		c0.715,0,1.291-0.581,1.291-1.296L293.637,254.434z"/>
</g>
<g>
	<path fill="#22517A" d="M255.942,250.276c1.793,0,3.243-1.453,3.243-3.24c0-1.79-1.45-3.239-3.243-3.239
		c-1.787,0-3.234,1.45-3.234,3.239C252.708,248.824,254.155,250.276,255.942,250.276z M263.344,254.434
		c0-1.631-1.321-2.952-2.952-2.952h-9.1c-1.629,0-2.953,1.321-2.953,2.952l0.009,11.92c0,0.716,0.577,1.293,1.288,1.293
		s1.288-0.577,1.288-1.293v-10.892h0.545V284.6c0,1.066,0.864,1.933,1.938,1.933c1.061,0,1.927-0.866,1.927-1.933v-15.957h1.056
		v15.952c0,1.069,0.864,1.938,1.935,1.938c1.062,0,1.928-0.868,1.928-1.938v-29.133h0.519v10.849c0,0.714,0.581,1.295,1.29,1.295
		c0.717,0,1.293-0.581,1.293-1.295L263.344,254.434z"/>
</g>
</svg>
