<?xml version="1.0" encoding="utf-8"?>
<!-- Generator: Adobe Illustrator 16.0.0, SVG Export Plug-In . SVG Version: 6.00 Build 0)  -->
<!DOCTYPE svg PUBLIC "-//W3C//DTD SVG 1.1//EN" "http://www.w3.org/Graphics/SVG/1.1/DTD/svg11.dtd">
<svg version="1.1" id="图层_1" xmlns="http://www.w3.org/2000/svg" xmlns:xlink="http://www.w3.org/1999/xlink" x="0px" y="0px"
	 width="841.89px" height="595.28px" viewBox="0 0 841.89 595.28" enable-background="new 0 0 841.89 595.28" xml:space="preserve">
<g>
	<g>
		<path fill="#3688A1" d="M292.041,191.647c2.754,0,4.985-2.234,4.985-4.983c0-2.748-2.231-4.978-4.985-4.978
			c-2.748,0-4.976,2.23-4.976,4.978C287.065,189.414,289.293,191.647,292.041,191.647z M303.422,198.042
			c0-2.51-2.034-4.542-4.542-4.542h-13.994c-2.504,0-4.539,2.032-4.539,4.542l0.015,18.334c0,1.096,0.885,1.985,1.979,1.985
			c1.095,0,1.981-0.889,1.981-1.985v-16.757h0.84v44.818c0,1.641,1.33,2.971,2.976,2.971c1.636,0,2.965-1.33,2.965-2.971v-24.541
			h1.625v24.533c0,1.645,1.33,2.978,2.976,2.978c1.634,0,2.965-1.333,2.965-2.978v-44.811h0.8v16.69
			c0,1.098,0.886,1.988,1.984,1.988c1.098,0,1.983-0.891,1.983-1.988L303.422,198.042z"/>
	</g>
	<g>
		<path fill="#3688A1" d="M320.719,191.647c2.754,0,4.985-2.234,4.985-4.983c0-2.748-2.231-4.978-4.985-4.978
			c-2.748,0-4.976,2.23-4.976,4.978C315.744,189.414,317.971,191.647,320.719,191.647z M332.101,198.042
			c0-2.51-2.035-4.542-4.542-4.542h-13.994c-2.504,0-4.539,2.032-4.539,4.542l0.015,18.334c0,1.096,0.885,1.985,1.98,1.985
			c1.094,0,1.98-0.889,1.98-1.985v-16.757h0.84v44.818c0,1.641,1.33,2.971,2.976,2.971c1.635,0,2.965-1.33,2.965-2.971v-24.541
			h1.625v24.533c0,1.645,1.33,2.978,2.976,2.978c1.634,0,2.965-1.333,2.965-2.978v-44.811h0.8v16.69
			c0,1.098,0.886,1.988,1.984,1.988s1.983-0.891,1.983-1.988L332.101,198.042z"/>
	</g>
	<g>
		<path fill="#3688A1" d="M349.397,191.647c2.754,0,4.985-2.234,4.985-4.983c0-2.748-2.231-4.978-4.985-4.978
			c-2.748,0-4.976,2.23-4.976,4.978C344.422,189.414,346.649,191.647,349.397,191.647z M360.778,198.042
			c0-2.51-2.034-4.542-4.541-4.542h-13.994c-2.504,0-4.539,2.032-4.539,4.542l0.015,18.334c0,1.096,0.886,1.985,1.98,1.985
			c1.094,0,1.98-0.889,1.98-1.985v-16.757h0.839v44.818c0,1.641,1.331,2.971,2.976,2.971c1.636,0,2.966-1.33,2.966-2.971v-24.541
			h1.625v24.533c0,1.645,1.33,2.978,2.976,2.978c1.636,0,2.965-1.333,2.965-2.978v-44.811h0.799v16.69
			c0,1.098,0.886,1.988,1.984,1.988c1.097,0,1.983-0.891,1.983-1.988L360.778,198.042z"/>
	</g>
	<g>
		<path fill="#3688A1" d="M378.076,191.647c2.754,0,4.985-2.234,4.985-4.983c0-2.748-2.231-4.978-4.985-4.978
			c-2.748,0-4.976,2.23-4.976,4.978C373.101,189.414,375.328,191.647,378.076,191.647z M389.456,198.042
			c0-2.51-2.034-4.542-4.541-4.542h-13.994c-2.504,0-4.539,2.032-4.539,4.542l0.015,18.334c0,1.096,0.885,1.985,1.98,1.985
			c1.094,0,1.98-0.889,1.98-1.985v-16.757h0.839v44.818c0,1.641,1.33,2.971,2.976,2.971c1.636,0,2.967-1.33,2.967-2.971v-24.541
			h1.624v24.533c0,1.645,1.33,2.978,2.976,2.978c1.637,0,2.966-1.333,2.966-2.978v-44.811h0.8v16.69
			c0,1.098,0.886,1.988,1.983,1.988c1.097,0,1.983-0.891,1.983-1.988L389.456,198.042z"/>
	</g>
	<g>
		<path fill="#3688A1" d="M406.754,191.647c2.754,0,4.985-2.234,4.985-4.983c0-2.748-2.231-4.978-4.985-4.978
			c-2.747,0-4.976,2.23-4.976,4.978C401.778,189.414,404.007,191.647,406.754,191.647z M418.135,198.042
			c0-2.51-2.034-4.542-4.541-4.542H399.6c-2.505,0-4.539,2.032-4.539,4.542l0.014,18.334c0,1.096,0.887,1.985,1.981,1.985
			c1.094,0,1.98-0.889,1.98-1.985v-16.757h0.838v44.818c0,1.641,1.331,2.971,2.977,2.971c1.636,0,2.966-1.33,2.966-2.971v-24.541
			h1.625v24.533c0,1.645,1.329,2.978,2.976,2.978c1.635,0,2.966-1.333,2.966-2.978v-44.811h0.799v16.69
			c0,1.098,0.887,1.988,1.984,1.988c1.097,0,1.983-0.891,1.983-1.988L418.135,198.042z"/>
	</g>
	<g>
		<path fill="#3688A1" d="M435.432,191.647c2.754,0,4.987-2.234,4.987-4.983c0-2.748-2.233-4.978-4.987-4.978
			c-2.747,0-4.974,2.23-4.974,4.978C430.458,189.414,432.685,191.647,435.432,191.647z M446.812,198.042
			c0-2.51-2.032-4.542-4.541-4.542h-13.994c-2.503,0-4.537,2.032-4.537,4.542l0.014,18.334c0,1.096,0.886,1.985,1.981,1.985
			c1.094,0,1.979-0.889,1.979-1.985v-16.757h0.84v44.818c0,1.641,1.329,2.971,2.977,2.971c1.634,0,2.964-1.33,2.964-2.971v-24.541
			h1.624v24.533c0,1.645,1.332,2.978,2.976,2.978c1.638,0,2.967-1.333,2.967-2.978v-44.811h0.8v16.69
			c0,1.098,0.885,1.988,1.982,1.988c1.099,0,1.985-0.891,1.985-1.988L446.812,198.042z"/>
	</g>
	<g>
		<path fill="#3688A1" d="M464.109,191.647c2.754,0,4.987-2.234,4.987-4.983c0-2.748-2.233-4.978-4.987-4.978
			c-2.747,0-4.974,2.23-4.974,4.978C459.136,189.414,461.362,191.647,464.109,191.647z M475.491,198.042
			c0-2.51-2.036-4.542-4.542-4.542h-13.994c-2.504,0-4.538,2.032-4.538,4.542l0.013,18.334c0,1.096,0.889,1.985,1.982,1.985
			s1.979-0.889,1.979-1.985v-16.757h0.84v44.818c0,1.641,1.33,2.971,2.976,2.971c1.636,0,2.965-1.33,2.965-2.971v-24.541h1.625
			v24.533c0,1.645,1.331,2.978,2.975,2.978c1.638,0,2.968-1.333,2.968-2.978v-44.811h0.799v16.69c0,1.098,0.886,1.988,1.982,1.988
			c1.099,0,1.985-0.891,1.985-1.988L475.491,198.042z"/>
	</g>
	<g>
		<path fill="#3688A1" d="M492.788,191.647c2.754,0,4.987-2.234,4.987-4.983c0-2.748-2.233-4.978-4.987-4.978
			c-2.747,0-4.974,2.23-4.974,4.978C487.814,189.414,490.041,191.647,492.788,191.647z M504.17,198.042
			c0-2.51-2.036-4.542-4.543-4.542h-13.994c-2.503,0-4.537,2.032-4.537,4.542l0.013,18.334c0,1.096,0.889,1.985,1.982,1.985
			s1.979-0.889,1.979-1.985v-16.757h0.84v44.818c0,1.641,1.331,2.971,2.975,2.971c1.636,0,2.966-1.33,2.966-2.971v-24.541h1.624
			v24.533c0,1.645,1.332,2.978,2.976,2.978c1.638,0,2.967-1.333,2.967-2.978v-44.811h0.8v16.69c0,1.098,0.887,1.988,1.982,1.988
			c1.099,0,1.985-0.891,1.985-1.988L504.17,198.042z"/>
	</g>
	<g>
		<path fill="#54B395" d="M521.467,191.647c2.754,0,4.986-2.234,4.986-4.983c0-2.748-2.232-4.978-4.986-4.978
			c-2.748,0-4.975,2.23-4.975,4.978C516.492,189.414,518.719,191.647,521.467,191.647z M532.848,198.042
			c0-2.51-2.035-4.542-4.542-4.542h-13.994c-2.503,0-4.538,2.032-4.538,4.542l0.014,18.334c0,1.096,0.889,1.985,1.982,1.985
			s1.979-0.889,1.979-1.985v-16.757h0.84v44.818c0,1.641,1.332,2.971,2.976,2.971c1.636,0,2.966-1.33,2.966-2.971v-24.541h1.624
			v24.533c0,1.645,1.331,2.978,2.976,2.978c1.637,0,2.967-1.333,2.967-2.978v-44.811h0.799v16.69c0,1.098,0.887,1.988,1.982,1.988
			c1.099,0,1.986-0.891,1.986-1.988L532.848,198.042z"/>
	</g>
	<g>
		<path fill="#54B395" d="M550.145,191.647c2.756,0,4.987-2.234,4.987-4.983c0-2.748-2.231-4.978-4.987-4.978
			c-2.747,0-4.974,2.23-4.974,4.978C545.171,189.414,547.397,191.647,550.145,191.647z M561.526,198.042
			c0-2.51-2.036-4.542-4.543-4.542h-13.994c-2.503,0-4.537,2.032-4.537,4.542l0.013,18.334c0,1.096,0.889,1.985,1.982,1.985
			s1.979-0.889,1.979-1.985v-16.757h0.84v44.818c0,1.641,1.331,2.971,2.975,2.971c1.636,0,2.966-1.33,2.966-2.971v-24.541h1.624
			v24.533c0,1.645,1.332,2.978,2.976,2.978c1.638,0,2.966-1.333,2.966-2.978v-44.811h0.801v16.69c0,1.098,0.887,1.988,1.982,1.988
			c1.099,0,1.985-0.891,1.985-1.988L561.526,198.042z"/>
	</g>
	<g>
		<path fill="#54B395" d="M292.041,263.276c2.754,0,4.985-2.232,4.985-4.981s-2.231-4.978-4.985-4.978
			c-2.748,0-4.976,2.229-4.976,4.978S289.293,263.276,292.041,263.276z M303.422,269.673c0-2.512-2.034-4.543-4.542-4.543h-13.994
			c-2.504,0-4.539,2.031-4.539,4.543l0.015,18.334c0,1.096,0.885,1.984,1.979,1.984c1.095,0,1.981-0.889,1.981-1.984V271.25h0.84
			v44.817c0,1.641,1.33,2.972,2.976,2.972c1.636,0,2.965-1.331,2.965-2.972v-24.541h1.625v24.534c0,1.645,1.33,2.979,2.976,2.979
			c1.634,0,2.965-1.334,2.965-2.979V271.25h0.8v16.69c0,1.098,0.886,1.988,1.984,1.988c1.098,0,1.983-0.891,1.983-1.988
			L303.422,269.673z"/>
	</g>
	<g>
		<path fill="#54B395" d="M320.719,263.276c2.754,0,4.985-2.232,4.985-4.981s-2.231-4.978-4.985-4.978
			c-2.748,0-4.976,2.229-4.976,4.978S317.971,263.276,320.719,263.276z M332.101,269.673c0-2.512-2.035-4.543-4.542-4.543h-13.994
			c-2.504,0-4.539,2.031-4.539,4.543l0.015,18.334c0,1.096,0.885,1.984,1.98,1.984c1.094,0,1.98-0.889,1.98-1.984V271.25h0.84
			v44.817c0,1.641,1.33,2.972,2.976,2.972c1.635,0,2.965-1.331,2.965-2.972v-24.541h1.625v24.534c0,1.645,1.33,2.979,2.976,2.979
			c1.634,0,2.965-1.334,2.965-2.979V271.25h0.8v16.69c0,1.098,0.886,1.988,1.984,1.988s1.983-0.891,1.983-1.988L332.101,269.673z"/>
	</g>
	<g>
		<path fill="#54B395" d="M349.397,263.276c2.754,0,4.985-2.232,4.985-4.981s-2.231-4.978-4.985-4.978
			c-2.748,0-4.976,2.229-4.976,4.978S346.649,263.276,349.397,263.276z M360.778,269.673c0-2.512-2.034-4.543-4.541-4.543h-13.994
			c-2.504,0-4.539,2.031-4.539,4.543l0.015,18.334c0,1.096,0.886,1.984,1.98,1.984c1.094,0,1.98-0.889,1.98-1.984V271.25h0.839
			v44.817c0,1.641,1.331,2.972,2.976,2.972c1.636,0,2.966-1.331,2.966-2.972v-24.541h1.625v24.534c0,1.645,1.33,2.979,2.976,2.979
			c1.636,0,2.965-1.334,2.965-2.979V271.25h0.799v16.69c0,1.098,0.886,1.988,1.984,1.988c1.097,0,1.983-0.891,1.983-1.988
			L360.778,269.673z"/>
	</g>
	<g>
		<path fill="#54B395" d="M378.076,263.276c2.754,0,4.985-2.232,4.985-4.981s-2.231-4.978-4.985-4.978
			c-2.748,0-4.976,2.229-4.976,4.978S375.328,263.276,378.076,263.276z M389.456,269.673c0-2.512-2.034-4.543-4.541-4.543h-13.994
			c-2.504,0-4.539,2.031-4.539,4.543l0.015,18.334c0,1.096,0.885,1.984,1.98,1.984c1.094,0,1.98-0.889,1.98-1.984V271.25h0.839
			v44.817c0,1.641,1.33,2.972,2.976,2.972c1.636,0,2.967-1.331,2.967-2.972v-24.541h1.624v24.534c0,1.645,1.33,2.979,2.976,2.979
			c1.637,0,2.966-1.334,2.966-2.979V271.25h0.8v16.69c0,1.098,0.886,1.988,1.983,1.988c1.097,0,1.983-0.891,1.983-1.988
			L389.456,269.673z"/>
	</g>
	<g>
		<path fill="#54B395" d="M406.754,263.276c2.754,0,4.985-2.232,4.985-4.981s-2.231-4.978-4.985-4.978
			c-2.747,0-4.976,2.229-4.976,4.978S404.007,263.276,406.754,263.276z M418.135,269.673c0-2.512-2.034-4.543-4.541-4.543H399.6
			c-2.505,0-4.539,2.031-4.539,4.543l0.014,18.334c0,1.096,0.887,1.984,1.981,1.984c1.094,0,1.98-0.889,1.98-1.984V271.25h0.838
			v44.817c0,1.641,1.331,2.972,2.977,2.972c1.636,0,2.966-1.331,2.966-2.972v-24.541h1.625v24.534c0,1.645,1.329,2.979,2.976,2.979
			c1.635,0,2.966-1.334,2.966-2.979V271.25h0.799v16.69c0,1.098,0.887,1.988,1.984,1.988c1.097,0,1.983-0.891,1.983-1.988
			L418.135,269.673z"/>
	</g>
	<g>
		<path fill="#EA883B" d="M435.432,263.276c2.754,0,4.987-2.232,4.987-4.981s-2.233-4.978-4.987-4.978
			c-2.747,0-4.974,2.229-4.974,4.978S432.685,263.276,435.432,263.276z M446.812,269.673c0-2.512-2.032-4.543-4.541-4.543h-13.994
			c-2.503,0-4.537,2.031-4.537,4.543l0.014,18.334c0,1.096,0.886,1.984,1.981,1.984c1.094,0,1.979-0.889,1.979-1.984V271.25h0.84
			v44.817c0,1.641,1.329,2.972,2.977,2.972c1.634,0,2.964-1.331,2.964-2.972v-24.541h1.624v24.534c0,1.645,1.332,2.979,2.976,2.979
			c1.638,0,2.967-1.334,2.967-2.979V271.25h0.8v16.69c0,1.098,0.885,1.988,1.982,1.988c1.099,0,1.985-0.891,1.985-1.988
			L446.812,269.673z"/>
	</g>
	<g>
		<path fill="#EA883B" d="M464.109,263.276c2.754,0,4.987-2.232,4.987-4.981s-2.233-4.978-4.987-4.978
			c-2.747,0-4.974,2.229-4.974,4.978S461.362,263.276,464.109,263.276z M475.491,269.673c0-2.512-2.036-4.543-4.542-4.543h-13.994
			c-2.504,0-4.538,2.031-4.538,4.543l0.013,18.334c0,1.096,0.889,1.984,1.982,1.984s1.979-0.889,1.979-1.984V271.25h0.84v44.817
			c0,1.641,1.33,2.972,2.976,2.972c1.636,0,2.965-1.331,2.965-2.972v-24.541h1.625v24.534c0,1.645,1.331,2.979,2.975,2.979
			c1.638,0,2.968-1.334,2.968-2.979V271.25h0.799v16.69c0,1.098,0.886,1.988,1.982,1.988c1.099,0,1.985-0.891,1.985-1.988
			L475.491,269.673z"/>
	</g>
	<g>
		<path fill="#EA883B" d="M492.788,263.276c2.754,0,4.987-2.232,4.987-4.981s-2.233-4.978-4.987-4.978
			c-2.747,0-4.974,2.229-4.974,4.978S490.041,263.276,492.788,263.276z M504.17,269.673c0-2.512-2.036-4.543-4.543-4.543h-13.994
			c-2.503,0-4.537,2.031-4.537,4.543l0.013,18.334c0,1.096,0.889,1.984,1.982,1.984s1.979-0.889,1.979-1.984V271.25h0.84v44.817
			c0,1.641,1.331,2.972,2.975,2.972c1.636,0,2.966-1.331,2.966-2.972v-24.541h1.624v24.534c0,1.645,1.332,2.979,2.976,2.979
			c1.638,0,2.967-1.334,2.967-2.979V271.25h0.8v16.69c0,1.098,0.887,1.988,1.982,1.988c1.099,0,1.985-0.891,1.985-1.988
			L504.17,269.673z"/>
	</g>
	<g>
		<path fill="#EA883B" d="M521.467,263.276c2.754,0,4.986-2.232,4.986-4.981s-2.232-4.978-4.986-4.978
			c-2.748,0-4.975,2.229-4.975,4.978S518.719,263.276,521.467,263.276z M532.848,269.673c0-2.512-2.035-4.543-4.542-4.543h-13.994
			c-2.503,0-4.538,2.031-4.538,4.543l0.014,18.334c0,1.096,0.889,1.984,1.982,1.984s1.979-0.889,1.979-1.984V271.25h0.84v44.817
			c0,1.641,1.332,2.972,2.976,2.972c1.636,0,2.966-1.331,2.966-2.972v-24.541h1.624v24.534c0,1.645,1.331,2.979,2.976,2.979
			c1.637,0,2.967-1.334,2.967-2.979V271.25h0.799v16.69c0,1.098,0.887,1.988,1.982,1.988c1.099,0,1.986-0.891,1.986-1.988
			L532.848,269.673z"/>
	</g>
	<g>
		<path fill="#EA883B" d="M550.145,263.276c2.756,0,4.987-2.232,4.987-4.981s-2.231-4.978-4.987-4.978
			c-2.747,0-4.974,2.229-4.974,4.978S547.397,263.276,550.145,263.276z M561.526,269.673c0-2.512-2.036-4.543-4.543-4.543h-13.994
			c-2.503,0-4.537,2.031-4.537,4.543l0.013,18.334c0,1.096,0.889,1.984,1.982,1.984s1.979-0.889,1.979-1.984V271.25h0.84v44.817
			c0,1.641,1.331,2.972,2.975,2.972c1.636,0,2.966-1.331,2.966-2.972v-24.541h1.624v24.534c0,1.645,1.332,2.979,2.976,2.979
			c1.638,0,2.966-1.334,2.966-2.979V271.25h0.801v16.69c0,1.098,0.887,1.988,1.982,1.988c1.099,0,1.985-0.891,1.985-1.988
			L561.526,269.673z"/>
	</g>
	<g>
		<path fill="#EA883B" d="M292.041,334.907c2.754,0,4.985-2.231,4.985-4.982c0-2.747-2.231-4.978-4.985-4.978
			c-2.748,0-4.976,2.23-4.976,4.978C287.065,332.676,289.293,334.907,292.041,334.907z M303.422,341.304
			c0-2.512-2.034-4.543-4.542-4.543h-13.994c-2.504,0-4.539,2.031-4.539,4.543l0.015,18.334c0,1.096,0.885,1.982,1.979,1.982
			c1.095,0,1.981-0.887,1.981-1.982v-16.757h0.84v44.817c0,1.641,1.33,2.97,2.976,2.97c1.636,0,2.965-1.329,2.965-2.97v-24.541
			h1.625v24.534c0,1.644,1.33,2.977,2.976,2.977c1.634,0,2.965-1.333,2.965-2.977v-44.811h0.8v16.689
			c0,1.098,0.886,1.988,1.984,1.988c1.098,0,1.983-0.891,1.983-1.988L303.422,341.304z"/>
	</g>
	<g>
		<path fill="#E34B46" d="M320.719,334.907c2.754,0,4.985-2.231,4.985-4.982c0-2.747-2.231-4.978-4.985-4.978
			c-2.748,0-4.976,2.23-4.976,4.978C315.744,332.676,317.971,334.907,320.719,334.907z M332.101,341.304
			c0-2.512-2.035-4.543-4.542-4.543h-13.994c-2.504,0-4.539,2.031-4.539,4.543l0.015,18.334c0,1.096,0.885,1.982,1.98,1.982
			c1.094,0,1.98-0.887,1.98-1.982v-16.757h0.84v44.817c0,1.641,1.33,2.97,2.976,2.97c1.635,0,2.965-1.329,2.965-2.97v-24.541h1.625
			v24.534c0,1.644,1.33,2.977,2.976,2.977c1.634,0,2.965-1.333,2.965-2.977v-44.811h0.8v16.689c0,1.098,0.886,1.988,1.984,1.988
			s1.983-0.891,1.983-1.988L332.101,341.304z"/>
	</g>
	<g>
		<path fill="#E34B46" d="M349.397,334.907c2.754,0,4.985-2.231,4.985-4.982c0-2.747-2.231-4.978-4.985-4.978
			c-2.748,0-4.976,2.23-4.976,4.978C344.422,332.676,346.649,334.907,349.397,334.907z M360.778,341.304
			c0-2.512-2.034-4.543-4.541-4.543h-13.994c-2.504,0-4.539,2.031-4.539,4.543l0.015,18.334c0,1.096,0.886,1.982,1.98,1.982
			c1.094,0,1.98-0.887,1.98-1.982v-16.757h0.839v44.817c0,1.641,1.331,2.97,2.976,2.97c1.636,0,2.966-1.329,2.966-2.97v-24.541
			h1.625v24.534c0,1.644,1.33,2.977,2.976,2.977c1.636,0,2.965-1.333,2.965-2.977v-44.811h0.799v16.689
			c0,1.098,0.886,1.988,1.984,1.988c1.097,0,1.983-0.891,1.983-1.988L360.778,341.304z"/>
	</g>
	<g>
		<path fill="#E34B46" d="M378.076,334.907c2.754,0,4.985-2.231,4.985-4.982c0-2.747-2.231-4.978-4.985-4.978
			c-2.748,0-4.976,2.23-4.976,4.978C373.101,332.676,375.328,334.907,378.076,334.907z M389.456,341.304
			c0-2.512-2.034-4.543-4.541-4.543h-13.994c-2.504,0-4.539,2.031-4.539,4.543l0.015,18.334c0,1.096,0.885,1.982,1.98,1.982
			c1.094,0,1.98-0.887,1.98-1.982v-16.757h0.839v44.817c0,1.641,1.33,2.97,2.976,2.97c1.636,0,2.967-1.329,2.967-2.97v-24.541h1.624
			v24.534c0,1.644,1.33,2.977,2.976,2.977c1.637,0,2.966-1.333,2.966-2.977v-44.811h0.8v16.689c0,1.098,0.886,1.988,1.983,1.988
			c1.097,0,1.983-0.891,1.983-1.988L389.456,341.304z"/>
	</g>
	<g>
		<path fill="#E34B46" d="M406.754,334.907c2.754,0,4.985-2.231,4.985-4.982c0-2.747-2.231-4.978-4.985-4.978
			c-2.747,0-4.976,2.23-4.976,4.978C401.778,332.676,404.007,334.907,406.754,334.907z M418.135,341.304
			c0-2.512-2.034-4.543-4.541-4.543H399.6c-2.505,0-4.539,2.031-4.539,4.543l0.014,18.334c0,1.096,0.887,1.982,1.981,1.982
			c1.094,0,1.98-0.887,1.98-1.982v-16.757h0.838v44.817c0,1.641,1.331,2.97,2.977,2.97c1.636,0,2.966-1.329,2.966-2.97v-24.541
			h1.625v24.534c0,1.644,1.329,2.977,2.976,2.977c1.635,0,2.966-1.333,2.966-2.977v-44.811h0.799v16.689
			c0,1.098,0.887,1.988,1.984,1.988c1.097,0,1.983-0.891,1.983-1.988L418.135,341.304z"/>
	</g>
	<g>
		<path fill="#E34B46" d="M435.432,334.907c2.754,0,4.987-2.231,4.987-4.982c0-2.747-2.233-4.978-4.987-4.978
			c-2.747,0-4.974,2.23-4.974,4.978C430.458,332.676,432.685,334.907,435.432,334.907z M446.812,341.304
			c0-2.512-2.032-4.543-4.541-4.543h-13.994c-2.503,0-4.537,2.031-4.537,4.543l0.014,18.334c0,1.096,0.886,1.982,1.981,1.982
			c1.094,0,1.979-0.887,1.979-1.982v-16.757h0.84v44.817c0,1.641,1.329,2.97,2.977,2.97c1.634,0,2.964-1.329,2.964-2.97v-24.541
			h1.624v24.534c0,1.644,1.332,2.977,2.976,2.977c1.638,0,2.967-1.333,2.967-2.977v-44.811h0.8v16.689
			c0,1.098,0.885,1.988,1.982,1.988c1.099,0,1.985-0.891,1.985-1.988L446.812,341.304z"/>
	</g>
	<g>
		<path fill="#7F5E9B" d="M464.109,334.907c2.754,0,4.987-2.231,4.987-4.982c0-2.747-2.233-4.978-4.987-4.978
			c-2.747,0-4.974,2.23-4.974,4.978C459.136,332.676,461.362,334.907,464.109,334.907z M475.491,341.304
			c0-2.512-2.036-4.543-4.542-4.543h-13.994c-2.504,0-4.538,2.031-4.538,4.543l0.013,18.334c0,1.096,0.889,1.982,1.982,1.982
			s1.979-0.887,1.979-1.982v-16.757h0.84v44.817c0,1.641,1.33,2.97,2.976,2.97c1.636,0,2.965-1.329,2.965-2.97v-24.541h1.625v24.534
			c0,1.644,1.331,2.977,2.975,2.977c1.638,0,2.968-1.333,2.968-2.977v-44.811h0.799v16.689c0,1.098,0.886,1.988,1.982,1.988
			c1.099,0,1.985-0.891,1.985-1.988L475.491,341.304z"/>
	</g>
	<g>
		<path fill="#7F5E9B" d="M492.788,334.907c2.754,0,4.987-2.231,4.987-4.982c0-2.747-2.233-4.978-4.987-4.978
			c-2.747,0-4.974,2.23-4.974,4.978C487.814,332.676,490.041,334.907,492.788,334.907z M504.17,341.304
			c0-2.512-2.036-4.543-4.543-4.543h-13.994c-2.503,0-4.537,2.031-4.537,4.543l0.013,18.334c0,1.096,0.889,1.982,1.982,1.982
			s1.979-0.887,1.979-1.982v-16.757h0.84v44.817c0,1.641,1.331,2.97,2.975,2.97c1.636,0,2.966-1.329,2.966-2.97v-24.541h1.624
			v24.534c0,1.644,1.332,2.977,2.976,2.977c1.638,0,2.967-1.333,2.967-2.977v-44.811h0.8v16.689c0,1.098,0.887,1.988,1.982,1.988
			c1.099,0,1.985-0.891,1.985-1.988L504.17,341.304z"/>
	</g>
	<g>
		<path fill="#7F5E9B" d="M521.467,334.907c2.754,0,4.986-2.231,4.986-4.982c0-2.747-2.232-4.978-4.986-4.978
			c-2.748,0-4.975,2.23-4.975,4.978C516.492,332.676,518.719,334.907,521.467,334.907z M532.848,341.304
			c0-2.512-2.035-4.543-4.542-4.543h-13.994c-2.503,0-4.538,2.031-4.538,4.543l0.014,18.334c0,1.096,0.889,1.982,1.982,1.982
			s1.979-0.887,1.979-1.982v-16.757h0.84v44.817c0,1.641,1.332,2.97,2.976,2.97c1.636,0,2.966-1.329,2.966-2.97v-24.541h1.624
			v24.534c0,1.644,1.331,2.977,2.976,2.977c1.637,0,2.967-1.333,2.967-2.977v-44.811h0.799v16.689c0,1.098,0.887,1.988,1.982,1.988
			c1.099,0,1.986-0.891,1.986-1.988L532.848,341.304z"/>
	</g>
	<g>
		<path fill="#7F5E9B" d="M550.145,334.907c2.756,0,4.987-2.231,4.987-4.982c0-2.747-2.231-4.978-4.987-4.978
			c-2.747,0-4.974,2.23-4.974,4.978C545.171,332.676,547.397,334.907,550.145,334.907z M561.526,341.304
			c0-2.512-2.036-4.543-4.543-4.543h-13.994c-2.503,0-4.537,2.031-4.537,4.543l0.013,18.334c0,1.096,0.889,1.982,1.982,1.982
			s1.979-0.887,1.979-1.982v-16.757h0.84v44.817c0,1.641,1.331,2.97,2.975,2.97c1.636,0,2.966-1.329,2.966-2.97v-24.541h1.624
			v24.534c0,1.644,1.332,2.977,2.976,2.977c1.638,0,2.966-1.333,2.966-2.977v-44.811h0.801v16.689c0,1.098,0.887,1.988,1.982,1.988
			c1.099,0,1.985-0.891,1.985-1.988L561.526,341.304z"/>
	</g>
</g>
</svg>
