<?xml version="1.0" encoding="utf-8"?>
<!-- Generator: Adobe Illustrator 16.0.0, SVG Export Plug-In . SVG Version: 6.00 Build 0)  -->
<!DOCTYPE svg PUBLIC "-//W3C//DTD SVG 1.1//EN" "http://www.w3.org/Graphics/SVG/1.1/DTD/svg11.dtd">
<svg version="1.1" id="arc_svg" xmlns="http://www.w3.org/2000/svg" xmlns:xlink="http://www.w3.org/1999/xlink" x="0px" y="0px"
	 width="400px" height="400px" viewBox="0 0 400 400" enable-background="new 0 0 400 400" xml:space="preserve">
<defs  xmlns="http://www.w3.org/1999/xhtml">
	<style  type="text/css">
		<![CDATA[]]>
	</style>
</defs>
<path fill="#63BE5F" stroke="#615F5F" stroke-miterlimit="10" d="M200,95c1.832,0,3.665,0.048,5.495,0.145l-1.569,29.959
	C202.617,125.034,201.309,125,200,125V95z"/>
<path fill="#63BE5F" stroke="#615F5F" stroke-miterlimit="10" d="M205.495,95.144c1.831,0.096,3.657,0.239,5.48,0.431l-3.136,29.836
	c-1.303-0.137-2.607-0.239-3.914-0.308L205.495,95.144z"/>
<path fill="#63BE5F" stroke="#615F5F" stroke-miterlimit="10" d="M210.976,95.575c1.823,0.191,3.64,0.431,5.45,0.718l-4.693,29.631
	c-1.293-0.205-2.591-0.376-3.893-0.513L210.976,95.575z"/>
<path fill="#63BE5F" stroke="#615F5F" stroke-miterlimit="10" d="M216.426,96.293c1.811,0.287,3.612,0.621,5.404,1.002
	l-6.236,29.345c-1.281-0.272-2.568-0.511-3.861-0.716L216.426,96.293z"/>
<path fill="#63BE5F" stroke="#615F5F" stroke-miterlimit="10" d="M221.83,97.295c1.793,0.381,3.576,0.809,5.346,1.283l-7.764,28.978
	c-1.266-0.339-2.538-0.645-3.818-0.916L221.83,97.295z"/>
<path fill="#63BE5F" stroke="#615F5F" stroke-miterlimit="10" d="M227.176,98.578c1.771,0.475,3.527,0.995,5.271,1.562
	l-9.271,28.531c-1.244-0.404-2.5-0.776-3.764-1.115L227.176,98.578z"/>
<path fill="#FFE185" stroke="#615F5F" stroke-miterlimit="10" d="M232.447,100.139c1.742,0.566,3.471,1.178,5.182,1.835
	l-10.752,28.007c-1.222-0.469-2.455-0.906-3.701-1.311L232.447,100.139z"/>
<path fill="#F66D3B" stroke="#615F5F" stroke-miterlimit="10" d="M237.629,101.974c1.711,0.656,3.404,1.358,5.078,2.104
	l-12.201,27.406c-1.196-0.532-2.406-1.033-3.629-1.503L237.629,101.974z"/>
<path fill="#FFE185" stroke="#615F5F" stroke-miterlimit="10" d="M242.707,104.078c1.675,0.745,3.329,1.534,4.962,2.366
	l-13.62,26.73c-1.166-0.595-2.348-1.158-3.543-1.69L242.707,104.078z"/>
<path fill="#63BE5F" stroke="#615F5F" stroke-miterlimit="10" d="M247.669,106.444c1.633,0.832,3.243,1.707,4.831,2.623l-15,25.981
	c-1.134-0.655-2.284-1.279-3.451-1.874L247.669,106.444z"/>
<path fill="#63BE5F" stroke="#615F5F" stroke-miterlimit="10" d="M252.5,109.067c1.588,0.917,3.15,1.874,4.688,2.872l-16.34,25.16
	c-1.098-0.713-2.214-1.396-3.348-2.051L252.5,109.067z"/>
<path fill="#63BE5F" stroke="#615F5F" stroke-miterlimit="10" d="M257.188,111.939c1.537,0.999,3.047,2.037,4.529,3.114
	l-17.633,24.271c-1.059-0.77-2.139-1.512-3.236-2.225L257.188,111.939z"/>
<path fill="#63BE5F" stroke="#615F5F" stroke-miterlimit="10" d="M261.717,115.053c1.483,1.077,2.938,2.192,4.361,3.347
	l-18.879,23.313c-1.018-0.823-2.057-1.62-3.115-2.39L261.717,115.053z"/>
<path fill="#63BE5F" stroke="#615F5F" stroke-miterlimit="10" d="M266.078,118.4c1.425,1.153,2.818,2.344,4.181,3.569
	l-20.074,22.295c-0.973-0.876-1.968-1.727-2.985-2.551L266.078,118.4z"/>
<path fill="#FFFFBC" stroke="#615F5F" stroke-miterlimit="10" d="M270.259,121.969c1.362,1.227,2.691,2.488,3.987,3.784
	l-21.213,21.213c-0.926-0.925-1.875-1.826-2.849-2.702L270.259,121.969z"/>
<path fill="#FFFFBC" stroke="#615F5F" stroke-miterlimit="10" d="M274.246,125.754c1.296,1.296,2.558,2.626,3.784,3.987
	l-22.294,20.074c-0.877-0.973-1.777-1.923-2.703-2.849L274.246,125.754z"/>
<path fill="#0A994D" stroke="#615F5F" stroke-miterlimit="10" d="M278.03,129.741c1.226,1.362,2.417,2.756,3.569,4.181
	l-23.313,18.879c-0.824-1.017-1.675-2.013-2.55-2.985L278.03,129.741z"/>
<path fill="#0A994D" stroke="#615F5F" stroke-miterlimit="10" d="M281.6,133.922c1.154,1.424,2.27,2.878,3.348,4.361l-24.271,17.633
	c-0.77-1.059-1.566-2.098-2.39-3.115L281.6,133.922z"/>
<path fill="#0A994D" stroke="#615F5F" stroke-miterlimit="10" d="M284.947,138.283c1.076,1.482,2.115,2.993,3.113,4.53
	l-25.16,16.339c-0.713-1.098-1.455-2.177-2.225-3.236L284.947,138.283z"/>
<path fill="#0A994D" stroke="#615F5F" stroke-miterlimit="10" d="M288.061,142.813c0.998,1.537,1.955,3.1,2.872,4.687l-25.981,15
	c-0.654-1.134-1.338-2.25-2.051-3.348L288.061,142.813z"/>
<path fill="#0A994D" stroke="#615F5F" stroke-miterlimit="10" d="M290.933,147.5c0.917,1.588,1.791,3.198,2.623,4.831l-26.729,13.62
	c-0.596-1.167-1.22-2.317-1.875-3.451L290.933,147.5z"/>
<path fill="#0A994D" stroke="#615F5F" stroke-miterlimit="10" d="M293.556,152.331c0.832,1.633,1.621,3.288,2.366,4.962
	l-27.406,12.202c-0.532-1.196-1.096-2.378-1.689-3.544L293.556,152.331z"/>
<path fill="#0A994D" stroke="#615F5F" stroke-miterlimit="10" d="M295.922,157.293c0.746,1.674,1.447,3.368,2.104,5.079
	l-28.007,10.751c-0.47-1.223-0.97-2.433-1.503-3.628L295.922,157.293z"/>
<path fill="#0A994D" stroke="#615F5F" stroke-miterlimit="10" d="M298.025,162.372c0.657,1.711,1.27,3.438,1.836,5.182
	l-28.532,9.271c-0.404-1.245-0.841-2.479-1.311-3.701L298.025,162.372z"/>
<path fill="#0A994D" stroke="#615F5F" stroke-miterlimit="10" d="M299.861,167.553c0.566,1.743,1.086,3.5,1.561,5.271l-28.978,7.765
	c-0.339-1.265-0.71-2.52-1.115-3.765L299.861,167.553z"/>
<path fill="#0A994D" stroke="#615F5F" stroke-miterlimit="10" d="M301.422,172.824c0.475,1.771,0.902,3.553,1.283,5.346
	l-29.344,6.237c-0.272-1.281-0.578-2.554-0.917-3.818L301.422,172.824z"/>
<path fill="#0A994D" stroke="#615F5F" stroke-miterlimit="10" d="M302.705,178.17c0.381,1.792,0.715,3.595,1.002,5.404
	l-29.631,4.693c-0.205-1.293-0.443-2.58-0.715-3.86L302.705,178.17z"/>
<path fill="#FFAF59" stroke="#615F5F" stroke-miterlimit="10" d="M303.707,183.574c0.287,1.811,0.526,3.628,0.718,5.45
	l-29.835,3.136c-0.138-1.302-0.309-2.6-0.514-3.893L303.707,183.574z"/>
<path fill="#FFAF59" stroke="#615F5F" stroke-miterlimit="10" d="M304.425,189.024c0.191,1.823,0.335,3.65,0.431,5.48l-29.959,1.57
	c-0.068-1.308-0.17-2.612-0.307-3.915L304.425,189.024z"/>
<path fill="#FFAF59" stroke="#615F5F" stroke-miterlimit="10" d="M304.855,194.505c0.097,1.83,0.145,3.663,0.145,5.495h-30
	c0-1.309-0.034-2.617-0.104-3.925L304.855,194.505z"/>
<path fill="#FFAF59" stroke="#615F5F" stroke-miterlimit="10" d="M305,200c0,1.833-0.048,3.665-0.145,5.495l-29.959-1.569
	c0.069-1.308,0.104-2.616,0.104-3.926H305z"/>
<path fill="#FFAF59" stroke="#615F5F" stroke-miterlimit="10" d="M304.855,205.495c-0.096,1.831-0.239,3.658-0.431,5.48
	l-29.835-3.136c0.137-1.302,0.238-2.607,0.307-3.914L304.855,205.495z"/>
<path fill="#FFE185" stroke="#615F5F" stroke-miterlimit="10" d="M304.425,210.975c-0.191,1.823-0.431,3.641-0.718,5.45
	l-29.631-4.693c0.205-1.293,0.376-2.591,0.514-3.893L304.425,210.975z"/>
<path fill="#FFAF59" stroke="#615F5F" stroke-miterlimit="10" d="M303.707,216.426c-0.287,1.811-0.621,3.612-1.002,5.405
	l-29.344-6.237c0.271-1.28,0.51-2.568,0.715-3.861L303.707,216.426z"/>
<path fill="#FFAF59" stroke="#615F5F" stroke-miterlimit="10" d="M302.705,221.831c-0.381,1.793-0.809,3.575-1.283,5.345
	l-28.978-7.764c0.339-1.265,0.645-2.538,0.917-3.818L302.705,221.831z"/>
<path fill="#FFAF59" stroke="#615F5F" stroke-miterlimit="10" d="M301.422,227.176c-0.475,1.771-0.994,3.528-1.561,5.271
	l-28.532-9.271c0.405-1.245,0.776-2.501,1.115-3.765L301.422,227.176z"/>
<path fill="#FFAF59" stroke="#615F5F" stroke-miterlimit="10" d="M299.861,232.447c-0.566,1.743-1.179,3.471-1.836,5.182
	l-28.007-10.751c0.47-1.223,0.906-2.456,1.311-3.701L299.861,232.447z"/>
<path fill="#FFE185" stroke="#615F5F" stroke-miterlimit="10" d="M298.025,237.629c-0.656,1.711-1.357,3.404-2.104,5.079
	l-27.406-12.202c0.533-1.196,1.033-2.406,1.503-3.628L298.025,237.629z"/>
<path fill="#FFAF59" stroke="#615F5F" stroke-miterlimit="10" d="M295.922,242.708c-0.745,1.674-1.534,3.328-2.366,4.961
	l-26.729-13.619c0.594-1.167,1.157-2.349,1.689-3.544L295.922,242.708z"/>
<path fill="#FFAF59" stroke="#615F5F" stroke-miterlimit="10" d="M293.556,247.669c-0.832,1.633-1.706,3.244-2.623,4.831l-25.981-15
	c0.655-1.134,1.279-2.284,1.875-3.45L293.556,247.669z"/>
<path fill="#FFAF59" stroke="#615F5F" stroke-miterlimit="10" d="M290.933,252.5c-0.917,1.588-1.874,3.15-2.872,4.688l-25.16-16.339
	c0.713-1.099,1.396-2.215,2.051-3.349L290.933,252.5z"/>
<path fill="#FFAF59" stroke="#615F5F" stroke-miterlimit="10" d="M288.061,257.187c-0.998,1.537-2.037,3.048-3.113,4.53
	l-24.271-17.634c0.77-1.059,1.512-2.138,2.225-3.235L288.061,257.187z"/>
<path fill="#FFAF59" stroke="#615F5F" stroke-miterlimit="10" d="M284.947,261.718c-1.078,1.482-2.193,2.937-3.348,4.361
	l-23.313-18.88c0.823-1.018,1.62-2.056,2.39-3.115L284.947,261.718z"/>
<path fill="#FFAF59" stroke="#615F5F" stroke-miterlimit="10" d="M281.6,266.079c-1.152,1.424-2.344,2.818-3.569,4.18
	l-22.294-20.074c0.875-0.973,1.726-1.968,2.55-2.985L281.6,266.079z"/>
<path fill="#FFAF59" stroke="#615F5F" stroke-miterlimit="10" d="M278.03,270.259c-1.227,1.362-2.488,2.691-3.784,3.987
	l-21.213-21.213c0.926-0.926,1.826-1.875,2.703-2.849L278.03,270.259z"/>
<path fill="#FFFFBC" stroke="#615F5F" stroke-miterlimit="10" d="M274.246,274.246c-1.296,1.296-2.625,2.558-3.987,3.784
	l-20.074-22.294c0.974-0.876,1.923-1.777,2.849-2.703L274.246,274.246z"/>
<path fill="#F66D3B" stroke="#615F5F" stroke-miterlimit="10" d="M270.259,278.03c-1.362,1.227-2.756,2.417-4.181,3.57
	l-18.879-23.314c1.018-0.824,2.013-1.674,2.985-2.55L270.259,278.03z"/>
<path fill="#F66D3B" stroke="#615F5F" stroke-miterlimit="10" d="M266.078,281.6c-1.424,1.153-2.878,2.27-4.361,3.347
	l-17.633-24.271c1.059-0.77,2.098-1.566,3.115-2.391L266.078,281.6z"/>
<path fill="#F66D3B" stroke="#615F5F" stroke-miterlimit="10" d="M261.717,284.947c-1.482,1.077-2.992,2.115-4.529,3.113
	l-16.34-25.16c1.098-0.713,2.178-1.454,3.236-2.224L261.717,284.947z"/>
<path fill="#F66D3B" stroke="#615F5F" stroke-miterlimit="10" d="M257.188,288.06c-1.537,0.998-3.1,1.956-4.688,2.872l-15-25.98
	c1.134-0.654,2.25-1.339,3.348-2.052L257.188,288.06z"/>
<path fill="#FFAF59" stroke="#615F5F" stroke-miterlimit="10" d="M252.5,290.932c-1.588,0.917-3.198,1.791-4.831,2.623
	l-13.62-26.729c1.167-0.595,2.317-1.22,3.451-1.874L252.5,290.932z"/>
<path fill="#FFFFBC" stroke="#615F5F" stroke-miterlimit="10" d="M247.669,293.555c-1.633,0.832-3.287,1.621-4.962,2.367
	l-12.201-27.406c1.195-0.533,2.377-1.097,3.543-1.69L247.669,293.555z"/>
<path fill="#F66D3B" stroke="#615F5F" stroke-miterlimit="10" d="M242.707,295.923c-1.674,0.745-3.367,1.446-5.078,2.104
	l-10.752-28.008c1.223-0.469,2.433-0.97,3.629-1.502L242.707,295.923z"/>
<path fill="#F66D3B" stroke="#615F5F" stroke-miterlimit="10" d="M237.629,298.026c-1.711,0.657-3.439,1.269-5.182,1.835
	l-9.271-28.532c1.246-0.404,2.479-0.841,3.701-1.311L237.629,298.026z"/>
<path fill="#F66D3B" stroke="#615F5F" stroke-miterlimit="10" d="M232.447,299.861c-1.744,0.566-3.501,1.087-5.271,1.562
	l-7.764-28.979c1.264-0.339,2.52-0.71,3.764-1.115L232.447,299.861z"/>
<path fill="#F66D3B" stroke="#615F5F" stroke-miterlimit="10" d="M227.176,301.423c-1.77,0.475-3.553,0.902-5.346,1.283
	l-6.236-29.345c1.28-0.272,2.553-0.578,3.818-0.917L227.176,301.423z"/>
<path fill="#F66D3B" stroke="#615F5F" stroke-miterlimit="10" d="M221.83,302.706c-1.792,0.381-3.594,0.715-5.404,1.002
	l-4.693-29.631c1.293-0.205,2.58-0.443,3.861-0.716L221.83,302.706z"/>
<path fill="#F66D3B" stroke="#615F5F" stroke-miterlimit="10" d="M216.426,303.708c-1.811,0.286-3.627,0.525-5.45,0.718
	l-3.136-29.836c1.302-0.138,2.6-0.309,3.893-0.513L216.426,303.708z"/>
<path fill="#F66D3B" stroke="#615F5F" stroke-miterlimit="10" d="M210.976,304.426c-1.823,0.191-3.649,0.335-5.48,0.431
	l-1.569-29.959c1.307-0.068,2.611-0.171,3.914-0.308L210.976,304.426z"/>
<path fill="#D92E1D" stroke="#615F5F" stroke-miterlimit="10" d="M205.495,304.856c-1.83,0.096-3.663,0.144-5.495,0.144v-30
	c1.309,0,2.617-0.034,3.926-0.103L205.495,304.856z"/>
<path fill="#F66D3B" stroke="#615F5F" stroke-miterlimit="10" d="M200,305c-1.833,0-3.665-0.048-5.495-0.144l1.57-29.959
	c1.308,0.068,2.616,0.103,3.925,0.103V305z"/>
<path fill="#D92E1D" stroke="#615F5F" stroke-miterlimit="10" d="M194.505,304.856c-1.831-0.096-3.658-0.239-5.48-0.431
	l3.136-29.836c1.302,0.137,2.607,0.239,3.915,0.308L194.505,304.856z"/>
<path fill="#D92E1D" stroke="#615F5F" stroke-miterlimit="10" d="M189.024,304.426c-1.823-0.192-3.64-0.432-5.45-0.718l4.693-29.631
	c1.293,0.204,2.591,0.375,3.893,0.513L189.024,304.426z"/>
<path fill="#D92E1D" stroke="#615F5F" stroke-miterlimit="10" d="M183.574,303.708c-1.81-0.287-3.612-0.621-5.405-1.002
	l6.237-29.345c1.28,0.272,2.568,0.511,3.861,0.716L183.574,303.708z"/>
<path fill="#D92E1D" stroke="#615F5F" stroke-miterlimit="10" d="M178.169,302.706c-1.793-0.381-3.575-0.809-5.345-1.283
	l7.764-28.979c1.265,0.339,2.538,0.645,3.818,0.917L178.169,302.706z"/>
<path fill="#FFAF59" stroke="#615F5F" stroke-miterlimit="10" d="M172.824,301.423c-1.771-0.475-3.528-0.995-5.271-1.562
	l9.271-28.532c1.245,0.405,2.5,0.776,3.765,1.115L172.824,301.423z"/>
<path fill="#FFAF59" stroke="#615F5F" stroke-miterlimit="10" d="M167.553,299.861c-1.743-0.566-3.471-1.178-5.182-1.835
	l10.751-28.008c1.222,0.47,2.456,0.906,3.701,1.311L167.553,299.861z"/>
<path fill="#FFAF59" stroke="#615F5F" stroke-miterlimit="10" d="M162.372,298.026c-1.711-0.657-3.405-1.358-5.079-2.104
	l12.202-27.406c1.196,0.532,2.406,1.033,3.628,1.502L162.372,298.026z"/>
<path fill="#FFFFBC" stroke="#615F5F" stroke-miterlimit="10" d="M157.292,295.923c-1.674-0.746-3.329-1.535-4.961-2.367
	l13.62-26.729c1.167,0.594,2.348,1.157,3.544,1.69L157.292,295.923z"/>
<path fill="#D92E1D" stroke="#615F5F" stroke-miterlimit="10" d="M152.331,293.555c-1.633-0.832-3.244-1.706-4.831-2.623l15-25.98
	c1.134,0.654,2.284,1.279,3.451,1.874L152.331,293.555z"/>
<path fill="#D92E1D" stroke="#615F5F" stroke-miterlimit="10" d="M147.5,290.932c-1.587-0.916-3.15-1.874-4.687-2.872l16.339-25.16
	c1.098,0.713,2.214,1.397,3.348,2.052L147.5,290.932z"/>
<path fill="#D92E1D" stroke="#615F5F" stroke-miterlimit="10" d="M142.813,288.06c-1.537-0.998-3.048-2.036-4.53-3.113
	l17.633-24.271c1.059,0.77,2.138,1.511,3.236,2.224L142.813,288.06z"/>
<path fill="#63BE5F" stroke="#615F5F" stroke-miterlimit="10" d="M138.283,284.947c-1.483-1.077-2.937-2.193-4.361-3.347
	l18.879-23.314c1.018,0.824,2.056,1.621,3.115,2.391L138.283,284.947z"/>
<path fill="#D9F085" stroke="#615F5F" stroke-miterlimit="10" d="M133.921,281.6c-1.424-1.153-2.818-2.344-4.18-3.57l20.074-22.294
	c0.973,0.876,1.968,1.726,2.985,2.55L133.921,281.6z"/>
<path fill="#D9F085" stroke="#615F5F" stroke-miterlimit="10" d="M129.741,278.03c-1.362-1.227-2.691-2.488-3.987-3.784
	l21.213-21.213c0.926,0.926,1.875,1.827,2.849,2.703L129.741,278.03z"/>
<path fill="#D9F085" stroke="#615F5F" stroke-miterlimit="10" d="M125.754,274.246c-1.296-1.296-2.558-2.625-3.784-3.987
	l22.294-20.074c0.876,0.974,1.777,1.923,2.703,2.849L125.754,274.246z"/>
<path fill="#D9F085" stroke="#615F5F" stroke-miterlimit="10" d="M121.97,270.259c-1.226-1.361-2.417-2.756-3.57-4.18l23.314-18.88
	c0.824,1.018,1.674,2.013,2.55,2.985L121.97,270.259z"/>
<path fill="#63BE5F" stroke="#615F5F" stroke-miterlimit="10" d="M118.4,266.079c-1.154-1.425-2.27-2.879-3.347-4.361l24.271-17.634
	c0.77,1.06,1.566,2.098,2.39,3.115L118.4,266.079z"/>
<path fill="#D9F085" stroke="#615F5F" stroke-miterlimit="10" d="M115.053,261.718c-1.077-1.482-2.115-2.993-3.114-4.53
	l25.16-16.339c0.713,1.098,1.455,2.177,2.224,3.235L115.053,261.718z"/>
<path fill="#D9F085" stroke="#615F5F" stroke-miterlimit="10" d="M111.939,257.187c-0.998-1.537-1.956-3.1-2.872-4.688l25.981-15
	c0.654,1.134,1.338,2.25,2.051,3.349L111.939,257.187z"/>
<path fill="#D9F085" stroke="#615F5F" stroke-miterlimit="10" d="M109.067,252.5c-0.917-1.587-1.791-3.198-2.623-4.831l26.73-13.619
	c0.595,1.166,1.219,2.316,1.874,3.45L109.067,252.5z"/>
<path fill="#F66D3B" stroke="#615F5F" stroke-miterlimit="10" d="M106.444,247.669c-0.832-1.633-1.621-3.287-2.367-4.961
	l27.406-12.202c0.533,1.195,1.096,2.377,1.69,3.544L106.444,247.669z"/>
<path fill="#F66D3B" stroke="#615F5F" stroke-miterlimit="10" d="M104.078,242.708c-0.745-1.675-1.447-3.368-2.104-5.079
	l28.007-10.751c0.469,1.222,0.97,2.432,1.502,3.628L104.078,242.708z"/>
<path fill="#F66D3B" stroke="#615F5F" stroke-miterlimit="10" d="M101.974,237.629c-0.657-1.711-1.269-3.438-1.835-5.182
	l28.532-9.271c0.404,1.245,0.841,2.479,1.311,3.701L101.974,237.629z"/>
<path fill="#F66D3B" stroke="#615F5F" stroke-miterlimit="10" d="M100.139,232.447c-0.566-1.743-1.087-3.501-1.562-5.271
	l28.978-7.764c0.339,1.264,0.71,2.52,1.115,3.765L100.139,232.447z"/>
<path fill="#F66D3B" stroke="#615F5F" stroke-miterlimit="10" d="M98.578,227.176c-0.474-1.77-0.902-3.552-1.283-5.345l29.345-6.237
	c0.272,1.28,0.578,2.554,0.917,3.818L98.578,227.176z"/>
<path fill="#F66D3B" stroke="#615F5F" stroke-miterlimit="10" d="M97.294,221.831c-0.381-1.793-0.715-3.595-1.002-5.405
	l29.631-4.693c0.205,1.293,0.443,2.581,0.716,3.861L97.294,221.831z"/>
<path fill="#F66D3B" stroke="#615F5F" stroke-miterlimit="10" d="M96.292,216.426c-0.287-1.81-0.526-3.627-0.717-5.45l29.835-3.136
	c0.137,1.302,0.308,2.6,0.513,3.893L96.292,216.426z"/>
<path fill="#F66D3B" stroke="#615F5F" stroke-miterlimit="10" d="M95.575,210.975c-0.191-1.822-0.335-3.649-0.431-5.48l29.959-1.569
	c0.068,1.307,0.171,2.612,0.308,3.914L95.575,210.975z"/>
<path fill="#F66D3B" stroke="#615F5F" stroke-miterlimit="10" d="M95.144,205.495C95.048,203.665,95,201.833,95,200h30
	c0,1.31,0.034,2.618,0.103,3.926L95.144,205.495z"/>
<path fill="#F66D3B" stroke="#615F5F" stroke-miterlimit="10" d="M95,200c0-1.832,0.048-3.665,0.144-5.495l29.959,1.57
	C125.034,197.383,125,198.691,125,200H95z"/>
<path fill="#F66D3B" stroke="#615F5F" stroke-miterlimit="10" d="M95.144,194.505c0.096-1.83,0.24-3.657,0.431-5.48l29.835,3.136
	c-0.137,1.303-0.239,2.607-0.308,3.915L95.144,194.505z"/>
<path fill="#F66D3B" stroke="#615F5F" stroke-miterlimit="10" d="M95.575,189.024c0.191-1.822,0.431-3.64,0.717-5.45l29.631,4.693
	c-0.205,1.293-0.375,2.591-0.513,3.893L95.575,189.024z"/>
<path fill="#F66D3B" stroke="#615F5F" stroke-miterlimit="10" d="M96.292,183.574c0.287-1.81,0.621-3.612,1.002-5.404l29.345,6.237
	c-0.272,1.28-0.511,2.567-0.716,3.86L96.292,183.574z"/>
<path fill="#F66D3B" stroke="#615F5F" stroke-miterlimit="10" d="M97.294,178.17c0.381-1.793,0.809-3.575,1.283-5.346l28.978,7.765
	c-0.339,1.265-0.645,2.537-0.917,3.818L97.294,178.17z"/>
<path fill="#F66D3B" stroke="#615F5F" stroke-miterlimit="10" d="M98.578,172.824c0.475-1.771,0.995-3.527,1.562-5.271l28.532,9.271
	c-0.405,1.245-0.776,2.5-1.115,3.765L98.578,172.824z"/>
<path fill="#F66D3B" stroke="#615F5F" stroke-miterlimit="10" d="M100.139,167.553c0.566-1.743,1.178-3.471,1.835-5.182
	l28.007,10.751c-0.469,1.222-0.906,2.456-1.311,3.701L100.139,167.553z"/>
<path fill="#FFAF59" stroke="#615F5F" stroke-miterlimit="10" d="M101.974,162.372c0.657-1.711,1.358-3.405,2.104-5.079
	l27.406,12.202c-0.532,1.195-1.033,2.405-1.502,3.628L101.974,162.372z"/>
<path fill="#0A994D" stroke="#615F5F" stroke-miterlimit="10" d="M104.078,157.293c0.746-1.674,1.535-3.329,2.367-4.962l26.73,13.62
	c-0.594,1.166-1.158,2.348-1.69,3.544L104.078,157.293z"/>
<path fill="#0A994D" stroke="#615F5F" stroke-miterlimit="10" d="M106.444,152.331c0.832-1.633,1.707-3.243,2.623-4.831l25.981,15
	c-0.655,1.134-1.279,2.284-1.874,3.451L106.444,152.331z"/>
<path fill="#FFFFBC" stroke="#615F5F" stroke-miterlimit="10" d="M109.067,147.5c0.917-1.587,1.874-3.149,2.872-4.687l25.16,16.339
	c-0.713,1.098-1.397,2.214-2.051,3.348L109.067,147.5z"/>
<path fill="#D9F085" stroke="#615F5F" stroke-miterlimit="10" d="M111.939,142.813c0.999-1.537,2.037-3.048,3.114-4.53
	l24.271,17.633c-0.77,1.06-1.511,2.139-2.224,3.236L111.939,142.813z"/>
<path fill="#FFAF59" stroke="#615F5F" stroke-miterlimit="10" d="M115.053,138.283c1.077-1.483,2.193-2.938,3.347-4.361
	l23.314,18.879c-0.824,1.018-1.621,2.057-2.39,3.115L115.053,138.283z"/>
<path fill="#FFAF59" stroke="#615F5F" stroke-miterlimit="10" d="M118.4,133.922c1.153-1.425,2.344-2.818,3.57-4.181l22.294,20.074
	c-0.876,0.973-1.726,1.969-2.55,2.985L118.4,133.922z"/>
<path fill="#FFAF59" stroke="#615F5F" stroke-miterlimit="10" d="M121.97,129.741c1.227-1.361,2.488-2.691,3.784-3.987
	l21.213,21.213c-0.925,0.926-1.827,1.876-2.703,2.849L121.97,129.741z"/>
<path fill="#FFAF59" stroke="#615F5F" stroke-miterlimit="10" d="M125.754,125.754c1.296-1.296,2.625-2.558,3.987-3.784
	l20.074,22.295c-0.973,0.876-1.923,1.777-2.849,2.702L125.754,125.754z"/>
<path fill="#FFAF59" stroke="#615F5F" stroke-miterlimit="10" d="M129.741,121.969c1.362-1.226,2.756-2.416,4.18-3.569
	l18.879,23.313c-1.017,0.824-2.013,1.675-2.985,2.551L129.741,121.969z"/>
<path fill="#F66D3B" stroke="#615F5F" stroke-miterlimit="10" d="M133.921,118.4c1.424-1.154,2.878-2.27,4.361-3.347l17.633,24.271
	c-1.059,0.77-2.098,1.566-3.115,2.39L133.921,118.4z"/>
<path fill="#FFAF59" stroke="#615F5F" stroke-miterlimit="10" d="M138.283,115.053c1.482-1.077,2.993-2.115,4.53-3.114l16.339,25.16
	c-1.098,0.713-2.177,1.455-3.236,2.225L138.283,115.053z"/>
<path fill="#FFAF59" stroke="#615F5F" stroke-miterlimit="10" d="M142.813,111.939c1.537-0.998,3.1-1.955,4.687-2.872l15,25.981
	c-1.134,0.654-2.25,1.338-3.348,2.051L142.813,111.939z"/>
<path fill="#FFFFBC" stroke="#615F5F" stroke-miterlimit="10" d="M147.5,109.067c1.587-0.916,3.198-1.791,4.831-2.623l13.62,26.73
	c-1.167,0.595-2.317,1.219-3.451,1.874L147.5,109.067z"/>
<path fill="#0A994D" stroke="#615F5F" stroke-miterlimit="10" d="M152.331,106.444c1.633-0.832,3.287-1.621,4.961-2.366
	l12.202,27.406c-1.196,0.532-2.377,1.096-3.544,1.69L152.331,106.444z"/>
<path fill="#0A994D" stroke="#615F5F" stroke-miterlimit="10" d="M157.292,104.078c1.674-0.745,3.368-1.447,5.079-2.104
	l10.751,28.007c-1.222,0.47-2.432,0.971-3.628,1.503L157.292,104.078z"/>
<path fill="#0A994D" stroke="#615F5F" stroke-miterlimit="10" d="M162.372,101.974c1.711-0.657,3.438-1.269,5.182-1.835
	l9.271,28.531c-1.245,0.404-2.479,0.842-3.701,1.311L162.372,101.974z"/>
<path fill="#0A994D" stroke="#615F5F" stroke-miterlimit="10" d="M167.553,100.139c1.743-0.566,3.5-1.087,5.271-1.562l7.764,28.978
	c-1.264,0.339-2.52,0.711-3.765,1.115L167.553,100.139z"/>
<path fill="#0A994D" stroke="#615F5F" stroke-miterlimit="10" d="M172.824,98.578c1.77-0.475,3.552-0.902,5.345-1.283l6.237,29.345
	c-1.281,0.271-2.554,0.577-3.818,0.916L172.824,98.578z"/>
<path fill="#FFFFBC" stroke="#615F5F" stroke-miterlimit="10" d="M178.169,97.295c1.792-0.381,3.595-0.715,5.405-1.002l4.693,29.631
	c-1.293,0.205-2.581,0.443-3.861,0.716L178.169,97.295z"/>
<path fill="#FFFFBC" stroke="#615F5F" stroke-miterlimit="10" d="M183.574,96.293c1.81-0.287,3.627-0.526,5.45-0.718l3.136,29.836
	c-1.302,0.137-2.6,0.308-3.893,0.513L183.574,96.293z"/>
<path fill="#63BE5F" stroke="#615F5F" stroke-miterlimit="10" d="M189.024,95.575c1.823-0.191,3.65-0.335,5.48-0.431l1.57,29.959
	c-1.307,0.068-2.612,0.171-3.915,0.308L189.024,95.575z"/>
<path fill="#63BE5F" stroke="#615F5F" stroke-miterlimit="10" d="M194.505,95.144C196.335,95.048,198.167,95,200,95v30
	c-1.309,0-2.618,0.034-3.925,0.104L194.505,95.144z"/>
<line fill="none" stroke="#B4B4B5" stroke-width="0.4991" stroke-miterlimit="10" x1="132.642" y1="198.966" x2="263.62" y2="198.966"/>
<line fill="none" stroke="#B4B4B5" stroke-width="0.5046" stroke-miterlimit="10" x1="198.871" y1="266.952" x2="198.871" y2="133.048"/>
<text transform="matrix(1 0 0 1 183.8564 140.01)" fill="#231815" font-family="'ArialMT'" font-size="12">00:00</text>
<text transform="matrix(1 0 0 1 240.3857 196.6853)" fill="#231815" font-family="'ArialMT'" font-size="12">06:00</text>
<text transform="matrix(1 0 0 1 183.8564 266.6755)" fill="#231815" font-family="'ArialMT'" font-size="12">12:00</text>
<text transform="matrix(1 0 0 1 130.8848 196.6853)" fill="#231815" font-family="'ArialMT'" font-size="12">18:00</text>
</svg>
