<?xml version="1.0" encoding="utf-8"?>
<!-- Generator: Adobe Illustrator 16.0.0, SVG Export Plug-In . SVG Version: 6.00 Build 0)  -->
<!DOCTYPE svg PUBLIC "-//W3C//DTD SVG 1.1//EN" "http://www.w3.org/Graphics/SVG/1.1/DTD/svg11.dtd">
<svg version="1.1" id="图层_1" xmlns="http://www.w3.org/2000/svg" xmlns:xlink="http://www.w3.org/1999/xlink" x="0px" y="0px"
	 width="545px" height="1034px" viewBox="0 0 545 1034" enable-background="new 0 0 545 1034" xml:space="preserve">
<polygon fill="#7A76B2" points="131.217,302.622 171.249,301.18 176.297,323.54 153.757,354.916 131.217,351.669 "/>
<polygon fill="#7A76B2" points="153.757,409.733 168.364,383.406 153.757,357.079 131.217,354.916 131.217,407.93 "/>
<polygon fill="#7A76B2" points="131.217,467.075 136.267,467.075 165.479,440.027 153.757,412.618 131.217,410.695 "/>
<polygon fill="#7A76B2" points="183.485,292.006 177.474,293.689 174.107,301.18 178.796,322.782 218.349,341.777 230.611,336.247 
	230.611,292.006 "/>
<polygon fill="#7A76B2" points="218.83,343.941 232.054,338.651 251.049,345.624 264.273,387.701 260.666,393.472 218.83,400.204 
	204.163,383.373 "/>
<polygon fill="#7A76B2" points="276.776,292.006 285.191,324.465 252.491,343.46 233.497,336.247 233.737,292.006 "/>
<polygon fill="#D0E286" points="266.196,389.384 262.83,394.915 272.495,438.434 295.53,445.406 320.776,417.396 303.945,384.095 
	"/>
<polygon fill="#7A76B2" points="308.273,476.664 319.334,482.435 327.028,518.501 298.656,542.545 265.475,517.539 264.273,507.201 
	"/>
<polygon fill="#D0E286" points="355.399,468.248 386.897,490.85 386.897,495.419 359.007,529.08 329.673,518.02 322.459,482.676 "/>
<polygon fill="#7A76B2" points="361.651,426.893 403.729,430.98 412.385,445.406 412.385,461.276 388.1,488.445 356.843,465.844 "/>
<polygon fill="#7A76B2" points="299.857,544.709 329.191,520.424 358.285,532.566 363.574,548.314 339.29,583.66 299.857,557.693 
	"/>
<polygon fill="#7A76B2" points="323.061,808.352 336.405,788.275 374.755,795.248 382.209,825.303 374.635,832.877 327.75,832.877 
	"/>
<polygon fill="#7A76B2" points="412.504,772.526 397.837,771.324 376.799,794.526 384.733,824.701 410.701,832.877 412.504,832.877 
	"/>
<polygon fill="#7A76B2" points="324.864,832.877 320.656,809.193 275.333,803.903 258.262,820.614 256.699,832.877 "/>
<polygon fill="#7A76B2" points="253.934,832.877 256.098,820.614 215.583,785.27 185.048,814.362 186.25,828.428 190.938,832.877 
	"/>
<polygon fill="#7A76B2" points="149.583,790.318 131.549,796.089 131.549,832.516 177.354,832.516 183.605,828.188 182.523,814.482 
	"/>
<polygon fill="#7A76B2" points="131.549,635.234 133.593,634.033 167.856,645.453 162.326,683.924 131.549,693.061 "/>
<polygon fill="#7A76B2" points="163.167,686.088 183.125,704 169.78,745.236 164.009,747.641 131.549,731.411 131.549,695.946 "/>
<polygon fill="#7A76B2" points="164.61,749.925 151.266,788.636 183.605,812.199 214.261,783.227 214.982,766.154 170.741,747.641 
	"/>
<polygon fill="#7A76B2" points="216.185,763.63 172.184,745.356 185.769,704.843 221.835,698.951 224.72,700.875 224.72,755.815 "/>
<polygon fill="#7A76B2" points="227.245,701.477 227.846,754.975 274.972,755.815 280.863,749.444 282.666,731.29 252.611,699.793 
	"/>
<polygon fill="#7A76B2" points="284.831,731.051 283.628,749.203 329.312,765.673 350.711,730.329 343.618,716.864 316.568,706.646 
	"/>
<polygon fill="#7A76B2" points="388.94,628.742 368.624,661.202 371.87,669.738 409.498,690.055 412.625,686.328 412.625,636.316 
	"/>
<polygon fill="#7A76B2" points="385.936,612.032 389.543,625.977 412.385,633.552 412.625,580.775 409.259,579.213 "/>
<polygon fill="#7A76B2" points="172.023,574.363 185.649,590.553 224.44,594.079 240.309,578.21 233.256,548.556 204.243,537.656 
	"/>
<polygon fill="#644B9B" points="412.385,292.086 372.07,307.154 375.116,319.015 412.385,342.739 "/>
<polygon fill="#644B9B" points="331.355,292.086 337.287,300.742 305.869,330.877 287.275,323.985 279.261,292.006 "/>
<polygon fill="#644B9B" points="368.384,381.53 358.605,420.16 361.491,423.848 404.289,428.816 412.385,409.902 412.385,377.843 
	"/>
<polygon fill="#644B9B" points="360.689,530.924 388.74,497.102 412.385,514.733 412.385,547.434 403.488,561.383 366.14,547.754 
	"/>
<polygon fill="#644B9B" points="412.504,770.082 397.558,768.639 380.887,737.061 412.504,705.163 "/>
<polygon fill="#7A76B2" points="226.523,595.362 242.072,580.134 271.727,586.385 282.666,616.04 268.681,640.404 233.577,635.435 
	"/>
<polygon fill="#12934B" points="274.291,585.584 299.857,560.097 338.408,585.584 339.53,594.079 324.143,616.2 284.87,614.917 "/>
<polygon fill="#DFDAEC" points="270.444,641.205 285.031,617.482 323.341,618.604 332.799,650.182 306.912,672.143 279.741,663.325 
	"/>
<polygon fill="#601986" points="333.92,651.945 308.434,673.745 317.17,704.04 344.18,714.3 369.506,670.86 366.14,662.364 "/>
<polygon fill="#DFDAEC" points="371.108,672.143 345.942,715.741 353.316,729.527 379.124,735.458 410.541,703.078 408.617,692.339 
	"/>
<polygon fill="#DFDAEC" points="365.498,550.158 340.652,585.584 341.935,592.957 383.932,610.269 407.655,577.569 402.687,564.104 
	"/>
<polygon fill="#DFDAEC" points="276.215,757.418 276.215,801.659 320.937,806.949 334.24,786.432 329.271,767.998 282.666,751.327 
	"/>
<polygon fill="#DFDAEC" points="135.637,469.691 160.162,505.116 140.125,530.604 131.217,530.604 131.217,469.691 "/>
<polygon fill="#DFDAEC" points="162.887,503.994 192.381,502.551 196.068,497.742 187.732,446.77 167.696,441.319 138.042,468.408 
	"/>
<polygon fill="#601986" points="189.736,446.449 210.334,435.389 243.996,455.586 241.431,485.24 198.152,496.301 "/>
<polygon fill="#12934B" points="218.349,402.528 260.185,395.957 269.482,438.755 245.599,453.982 211.937,433.145 "/>
<polygon fill="#601986" points="177.714,325.667 216.866,344.181 202.359,382.324 170.501,382.324 155.594,355.963 "/>
<polygon fill="#DBD1E7" points="186.009,592.917 177.233,639.803 216.666,648.699 231.333,635.835 224.239,596.163 "/>
<polygon fill="#601986" points="278.699,665.65 254.956,698.951 283.628,728.886 314.766,705.163 306.912,674.307 "/>
<path fill="#4F2086" d="M412.625,346.105"/>
<polygon fill="#4F2086" points="375.116,321.82 356.843,361.974 368.143,379.045 412.385,374.717 412.625,346.105 "/>
<polygon fill="#644B9B" points="305.068,333.602 286.473,326.389 254.094,345.624 266.757,386.018 304.266,381.209 316.609,360.05 
	"/>
<polygon fill="#644B9B" points="318.532,358.929 354.678,361.012 372.872,320.618 369.185,306.994 339.051,302.185 308.273,332.16 
	"/>
<polygon fill="#644B9B" points="318.051,361.012 354.678,363.417 365.818,380.729 356.843,419.039 323.181,415.512 305.869,382.652 
	"/>
<polygon fill="#644B9B" points="246.721,456.066 243.996,485.721 263.552,505.276 306.912,474.5 295.65,448.212 270.765,440.838 "/>
<polygon fill="#644B9B" points="241.912,487.484 197.671,499.025 194.305,503.994 205.205,535.412 233.577,545.83 262.83,517.939 
	262.109,507.201 "/>
<polygon fill="#644B9B" points="162.406,506.078 192.061,504.635 202.479,535.893 170.901,572.439 164.33,571.638 142.049,531.725 
	"/>
<polygon fill="#644B9B" points="323.181,418.218 297.534,447.41 308.914,474.18 320.776,480.271 354.678,465.844 359.728,425.611 
	356.843,421.443 "/>
<polygon fill="#9995C4" points="389.222,490.529 412.385,464.723 412.625,512.169 389.863,494.857 "/>
<polygon fill="#D9D9EB" points="334.562,292.006 339.69,299.46 368.864,304.269 369.986,292.006 "/>
<polygon fill="#D9D9EB" points="406.053,292.006 372.07,304.909 372.872,292.006 "/>
<polygon fill="#7A76B2" points="406.213,429.938 412.625,415.993 412.625,439.717 "/>
<polygon fill="#9995C4" points="405.251,563.463 409.739,577.088 412.385,577.89 412.385,552.041 "/>
<polygon fill="#644B9B" points="341.293,595.201 383.451,612.834 387.298,627.42 367.102,659.398 334.24,649.22 325.746,617.482 "/>
<polygon fill="#7A76B2" points="412.504,690.055 410.541,691.858 412.504,701.315 "/>
<polygon fill="#644B9B" points="352.635,731.932 378.963,738.343 395.954,770.082 374.955,793.004 336.646,786.592 331.355,767.196 
	"/>
<polygon fill="#D9D9EB" points="384.092,827.307 378.242,832.877 402.526,832.877 "/>
<polygon fill="#644B9B" points="273.81,801.499 256.699,818.39 217.227,783.386 217.227,765.673 226.523,757.258 273.81,757.899 "/>
<polygon fill="#644B9B" points="131.549,793.805 148.781,788.354 162.406,749.083 131.549,733.694 "/>
<polygon fill="#EAEAF4" points="181.481,832.877 185.048,830.512 187.251,832.877 "/>
<polygon fill="#EAEAF4" points="139.645,533.008 161.284,571.799 131.549,590.553 131.217,533.008 "/>
<polygon fill="#EAEAF4" points="176.031,642.327 215.784,651.145 221.074,696.347 185.168,701.956 164.811,684.966 170.1,645.693 
	"/>
<polygon fill="#644B9B" points="174.588,640.404 184.046,592.155 170.1,575.485 163.047,573.882 131.549,592.917 131.549,630.867 
	169.299,643.209 "/>
<polyline fill="#EAEAF4" points="235.34,548.355 242.713,577.529 272.495,583.94 297.534,558.454 297.534,545.309 264.273,520.144 
	235.34,548.355 "/>
<polygon fill="#12934B" points="218.349,650.662 233.096,637.839 268.04,642.327 277.497,664.128 252.972,697.268 227.245,698.951 
	223.158,696.507 "/>
<polygon fill="#644B9B" points="202.359,384.335 170.421,384.415 155.594,410.695 168.364,438.885 188.213,444.044 209.853,432.664 
	216.866,402.208 "/>
<polygon fill="#D9D9EB" points="131.217,299.78 171.703,298.979 175.55,292.006 131.217,292.006 "/>
</svg>
