<?xml version="1.0" encoding="utf-8"?>
<!-- Generator: Adobe Illustrator 16.0.0, SVG Export Plug-In . SVG Version: 6.00 Build 0)  -->
<!DOCTYPE svg PUBLIC "-//W3C//DTD SVG 1.1//EN" "http://www.w3.org/Graphics/SVG/1.1/DTD/svg11.dtd">
<svg version="1.1" id="图层_1" xmlns="http://www.w3.org/2000/svg" xmlns:xlink="http://www.w3.org/1999/xlink" x="0px" y="0px"
	 width="841.891px" height="595.279px" viewBox="0 0 841.891 595.279" enable-background="new 0 0 841.891 595.279"
	 xml:space="preserve">
<path fill="#90C75E" d="M302.302,95.424c1.442-1.405,1.953-3.466,1.33-5.383c-0.622-1.917-2.244-3.286-4.241-3.576l-17.732-2.576
	c-0.754-0.11-1.407-0.584-1.746-1.269l-7.926-16.068c-0.89-1.805-2.698-2.927-4.711-2.927c-2.011,0-3.818,1.122-4.709,2.927
	l-7.929,16.068c-0.339,0.685-0.991,1.158-1.746,1.269l-17.733,2.577c-1.993,0.289-3.616,1.658-4.24,3.575
	c-0.621,1.917-0.111,3.978,1.33,5.383l12.832,12.507c0.545,0.533,0.797,1.302,0.668,2.053l-3.028,17.66
	c-0.342,1.985,0.458,3.951,2.088,5.137c1.627,1.186,3.746,1.341,5.531,0.4l15.857-8.339c0.677-0.354,1.482-0.354,2.159,0
	l15.859,8.339c0.775,0.408,1.613,0.609,2.447,0.609c1.084,0,2.164-0.339,3.085-1.01c1.629-1.186,2.429-3.151,2.089-5.137
	l-3.029-17.66c-0.131-0.751,0.12-1.519,0.668-2.052L302.302,95.424z M285.917,110.48l3.029,17.66
	c0.15,0.888-0.194,1.737-0.924,2.269c-0.731,0.53-1.645,0.594-2.443,0.178l-15.858-8.34c-0.765-0.399-1.604-0.604-2.444-0.604
	c-0.839,0-1.678,0.204-2.445,0.604l-15.856,8.339c-0.803,0.416-1.712,0.353-2.443-0.178c-0.729-0.53-1.073-1.378-0.922-2.269
	l3.028-17.66c0.293-1.703-0.273-3.442-1.511-4.648l-12.832-12.506c-0.646-0.632-0.866-1.521-0.586-2.379s0.979-1.447,1.87-1.579
	l17.732-2.575c1.712-0.249,3.189-1.323,3.954-2.873l7.929-16.07c0.399-0.809,1.181-1.292,2.08-1.292
	c0.905,0,1.681,0.483,2.082,1.292l7.929,16.07c0.764,1.55,2.244,2.624,3.956,2.873l17.73,2.575c0.896,0.131,1.596,0.721,1.871,1.579
	c0.279,0.858,0.062,1.747-0.585,2.379l-12.831,12.505C286.188,107.037,285.625,108.775,285.917,110.48z"/>
<path fill="#90C75E" d="M352.463,359.735c0.561-0.545,0.759-1.344,0.517-2.088c-0.24-0.743-0.87-1.272-1.645-1.387l-6.875-0.997
	c-0.293-0.044-0.546-0.229-0.676-0.493l-3.074-6.229c-0.346-0.698-1.047-1.135-1.827-1.135c-0.779,0-1.479,0.437-1.825,1.135
	l-3.073,6.229c-0.131,0.266-0.384,0.449-0.678,0.493l-6.875,0.999c-0.772,0.111-1.401,0.642-1.644,1.385
	c-0.242,0.744-0.044,1.543,0.516,2.088l4.975,4.849c0.212,0.209,0.31,0.506,0.258,0.797l-1.174,6.848
	c-0.132,0.77,0.179,1.531,0.811,1.99c0.632,0.46,1.453,0.521,2.146,0.154l6.147-3.231c0.264-0.137,0.575-0.137,0.838,0l6.148,3.231
	c0.301,0.158,0.625,0.237,0.949,0.237c0.421,0,0.839-0.132,1.197-0.393c0.63-0.459,0.94-1.222,0.809-1.99l-1.174-6.848
	c-0.05-0.291,0.046-0.589,0.259-0.797L352.463,359.735z M346.11,365.571l1.175,6.849c0.059,0.344-0.075,0.676-0.359,0.88
	c-0.282,0.206-0.636,0.23-0.944,0.068l-6.15-3.232c-0.296-0.155-0.623-0.235-0.948-0.235s-0.648,0.08-0.947,0.235l-6.148,3.232
	c-0.31,0.162-0.663,0.138-0.947-0.068c-0.282-0.204-0.416-0.534-0.356-0.88l1.174-6.849c0.112-0.657-0.106-1.333-0.585-1.801
	l-4.977-4.85c-0.25-0.245-0.335-0.59-0.228-0.923c0.109-0.334,0.38-0.561,0.727-0.61l6.875-1c0.663-0.097,1.236-0.513,1.532-1.114
	l3.074-6.229c0.155-0.312,0.457-0.501,0.806-0.501c0.353,0,0.652,0.188,0.809,0.501l3.073,6.229c0.297,0.602,0.869,1.02,1.533,1.114
	l6.874,1c0.349,0.051,0.619,0.276,0.728,0.61c0.107,0.333,0.022,0.678-0.228,0.923l-4.976,4.85
	C346.216,364.238,345.997,364.91,346.11,365.571z"/>
<path fill="#90C75E" d="M454.013,127.374c1.441-1.406,1.951-3.469,1.327-5.383c-0.622-1.917-2.244-3.285-4.241-3.577l-17.73-2.575
	c-0.757-0.11-1.408-0.585-1.745-1.27l-7.929-16.067c-0.89-1.806-2.697-2.928-4.71-2.928c-2.014,0-3.819,1.122-4.71,2.928
	l-7.926,16.067c-0.34,0.685-0.991,1.159-1.747,1.27l-17.735,2.577c-1.99,0.29-3.615,1.658-4.239,3.575
	c-0.622,1.915-0.11,3.978,1.33,5.383l12.832,12.507c0.543,0.532,0.794,1.301,0.667,2.052l-3.03,17.66
	c-0.341,1.985,0.458,3.95,2.091,5.135c1.626,1.188,3.742,1.342,5.528,0.399l15.859-8.337c0.678-0.354,1.485-0.354,2.157,0
	l15.862,8.337c0.774,0.41,1.616,0.612,2.447,0.612c1.085,0,2.165-0.339,3.082-1.012c1.634-1.185,2.433-3.149,2.093-5.135
	l-3.031-17.66c-0.129-0.75,0.121-1.519,0.666-2.052L454.013,127.374z M437.626,142.43l3.028,17.66
	c0.149,0.888-0.19,1.737-0.926,2.267c-0.728,0.533-1.64,0.596-2.439,0.181l-15.862-8.343c-0.762-0.397-1.604-0.602-2.442-0.602
	c-0.841,0-1.682,0.204-2.447,0.604l-15.854,8.34c-0.804,0.415-1.715,0.353-2.444-0.181c-0.729-0.529-1.071-1.377-0.925-2.267
	l3.032-17.66c0.29-1.704-0.273-3.443-1.512-4.65L386,125.275c-0.644-0.632-0.864-1.521-0.586-2.378
	c0.278-0.859,0.979-1.449,1.872-1.581l17.732-2.576c1.714-0.247,3.191-1.321,3.953-2.87l7.934-16.07
	c0.397-0.81,1.178-1.293,2.08-1.293c0.904,0,1.677,0.483,2.079,1.293l7.929,16.07c0.768,1.549,2.245,2.624,3.956,2.87l17.73,2.576
	c0.892,0.132,1.592,0.722,1.87,1.581c0.28,0.857,0.062,1.746-0.586,2.378l-12.831,12.503
	C437.897,138.986,437.331,140.725,437.626,142.43z"/>
<path fill="#90C75E" d="M487.958,279.875c2.131-2.068,2.88-5.108,1.964-7.933c-0.919-2.829-3.312-4.842-6.252-5.271l-26.136-3.797
	c-1.111-0.164-2.077-0.862-2.568-1.871l-11.689-23.684c-1.31-2.659-3.975-4.312-6.943-4.312c-2.964,0-5.626,1.653-6.938,4.312
	l-11.68,23.684c-0.504,1.008-1.465,1.707-2.578,1.871L389,266.674c-2.938,0.427-5.333,2.441-6.25,5.27
	c-0.916,2.824-0.167,5.864,1.958,7.933l18.912,18.435c0.806,0.784,1.172,1.917,0.985,3.023l-4.465,26.028
	c-0.502,2.925,0.675,5.827,3.08,7.568c2.397,1.748,5.52,1.977,8.148,0.59l23.375-12.29c0.999-0.521,2.188-0.521,3.178,0
	l23.379,12.29c1.146,0.601,2.383,0.901,3.608,0.901c1.599,0,3.19-0.501,4.544-1.491c2.405-1.741,3.582-4.645,3.082-7.568
	l-4.467-26.028c-0.192-1.106,0.179-2.235,0.983-3.022L487.958,279.875z M463.81,302.066l4.464,26.027
	c0.22,1.31-0.286,2.562-1.364,3.341c-1.075,0.785-2.419,0.879-3.597,0.264l-23.376-12.293c-1.124-0.589-2.37-0.887-3.604-0.887
	c-1.235,0-2.476,0.298-3.602,0.891l-23.368,12.289c-1.187,0.615-2.525,0.521-3.604-0.264c-1.072-0.777-1.579-2.028-1.359-3.341
	l4.471-26.027c0.423-2.511-0.407-5.074-2.231-6.853l-18.916-18.435c-0.954-0.93-1.275-2.239-0.867-3.503
	c0.414-1.266,1.448-2.135,2.762-2.327l26.135-3.797c2.525-0.366,4.703-1.949,5.823-4.234l11.697-23.683
	c0.585-1.192,1.736-1.907,3.061-1.907c1.336,0,2.476,0.715,3.068,1.907l11.688,23.683c1.123,2.285,3.307,3.868,5.826,4.234
	l26.132,3.797c1.316,0.191,2.349,1.062,2.757,2.327c0.414,1.265,0.092,2.573-0.862,3.503l-18.912,18.434
	C464.212,296.991,463.376,299.553,463.81,302.066z"/>
<path fill="#90C75E" d="M227.791,193.091c0.791-0.771,1.071-1.902,0.729-2.953c-0.341-1.053-1.231-1.803-2.327-1.962l-9.726-1.413
	c-0.414-0.06-0.771-0.32-0.957-0.696l-4.35-8.812c-0.487-0.991-1.479-1.606-2.584-1.606c-1.103,0-2.093,0.615-2.582,1.606
	l-4.347,8.812c-0.188,0.376-0.545,0.638-0.959,0.696l-9.728,1.414c-1.093,0.158-1.982,0.908-2.325,1.961
	c-0.342,1.051-0.062,2.181,0.729,2.953l7.038,6.86c0.3,0.292,0.437,0.714,0.367,1.125l-1.662,9.686
	c-0.188,1.089,0.251,2.168,1.146,2.818c0.893,0.648,2.054,0.733,3.032,0.218l8.698-4.572c0.373-0.195,0.813-0.195,1.184,0l8.7,4.572
	c0.426,0.225,0.886,0.336,1.342,0.336c0.597,0,1.188-0.185,1.692-0.554c0.896-0.65,1.333-1.729,1.146-2.818l-1.661-9.686
	c-0.072-0.412,0.064-0.833,0.365-1.125L227.791,193.091z M218.802,201.349l1.662,9.688c0.082,0.484-0.104,0.952-0.507,1.243
	c-0.399,0.291-0.9,0.326-1.338,0.098l-8.701-4.575c-0.418-0.218-0.88-0.329-1.341-0.329c-0.46,0-0.92,0.111-1.34,0.331l-8.697,4.574
	c-0.439,0.229-0.939,0.193-1.34-0.098s-0.589-0.755-0.506-1.243l1.662-9.688c0.16-0.933-0.149-1.887-0.829-2.55l-7.04-6.859
	c-0.354-0.347-0.475-0.834-0.321-1.305s0.536-0.795,1.026-0.866l9.726-1.414c0.939-0.136,1.75-0.725,2.168-1.575l4.352-8.813
	c0.219-0.444,0.646-0.709,1.139-0.709c0.497,0,0.921,0.265,1.143,0.709l4.35,8.813c0.42,0.851,1.23,1.439,2.169,1.575l9.726,1.414
	c0.489,0.071,0.873,0.396,1.026,0.866s0.033,0.958-0.321,1.305l-7.039,6.858C218.952,199.462,218.642,200.416,218.802,201.349z"/>
<path fill="#E83828" d="M224.159,280.416c1.013-0.983,1.369-2.431,0.933-3.771c-0.437-1.344-1.573-2.303-2.974-2.507l-12.425-1.804
	c-0.527-0.078-0.987-0.41-1.222-0.89l-5.559-11.261c-0.621-1.267-1.888-2.054-3.302-2.054c-1.41,0-2.674,0.787-3.299,2.054
	l-5.554,11.261c-0.238,0.479-0.697,0.812-1.226,0.89l-12.426,1.804c-1.396,0.204-2.538,1.163-2.972,2.507
	c-0.438,1.341-0.08,2.788,0.931,3.771l8.991,8.765c0.385,0.372,0.558,0.912,0.469,1.436l-2.123,12.376
	c-0.239,1.393,0.322,2.771,1.464,3.602c1.14,0.83,2.624,0.938,3.874,0.277l11.115-5.842c0.474-0.248,1.04-0.248,1.509,0
	l11.117,5.842c0.544,0.288,1.134,0.43,1.717,0.43c0.758,0,1.517-0.236,2.161-0.707c1.142-0.83,1.702-2.209,1.464-3.602
	l-2.124-12.376c-0.092-0.523,0.083-1.062,0.468-1.436L224.159,280.416z M212.677,290.968l2.121,12.373
	c0.106,0.623-0.136,1.218-0.647,1.588c-0.511,0.375-1.149,0.419-1.71,0.128l-11.117-5.847c-0.532-0.28-1.125-0.425-1.712-0.425
	c-0.586,0-1.176,0.145-1.71,0.427l-11.113,5.845c-0.562,0.291-1.2,0.247-1.712-0.128c-0.51-0.37-0.752-0.964-0.646-1.588
	l2.125-12.373c0.202-1.197-0.192-2.416-1.061-3.26l-8.994-8.764c-0.453-0.442-0.607-1.065-0.413-1.667
	c0.197-0.602,0.688-1.016,1.313-1.106l12.427-1.808c1.2-0.173,2.235-0.926,2.77-2.011l5.561-11.261
	c0.278-0.568,0.825-0.908,1.454-0.908c0.636,0,1.176,0.34,1.458,0.908l5.559,11.261c0.536,1.085,1.571,1.838,2.771,2.011
	l12.425,1.808c0.626,0.091,1.117,0.505,1.312,1.106c0.196,0.602,0.043,1.225-0.41,1.667l-8.993,8.764
	C212.868,288.552,212.471,289.77,212.677,290.968z"/>
<path fill="#FFF100" d="M394.576,325.545c1.013-0.985,1.367-2.431,0.933-3.773c-0.437-1.343-1.573-2.301-2.974-2.504l-12.425-1.805
	c-0.529-0.078-0.988-0.413-1.223-0.892l-5.56-11.26c-0.621-1.267-1.888-2.053-3.302-2.053c-1.409,0-2.672,0.786-3.297,2.053
	l-5.553,11.26c-0.241,0.479-0.698,0.812-1.228,0.892l-12.427,1.805c-1.396,0.203-2.537,1.161-2.972,2.504
	c-0.437,1.344-0.078,2.788,0.931,3.773l8.992,8.764c0.384,0.375,0.557,0.912,0.47,1.437l-2.125,12.377
	c-0.239,1.394,0.323,2.771,1.464,3.6c1.141,0.832,2.625,0.94,3.876,0.283l11.114-5.846c0.475-0.248,1.04-0.248,1.509,0l11.117,5.846
	c0.546,0.285,1.134,0.428,1.719,0.428c0.757,0,1.516-0.239,2.16-0.711c1.143-0.828,1.701-2.206,1.465-3.6l-2.125-12.377
	c-0.092-0.523,0.083-1.062,0.468-1.437L394.576,325.545z M383.093,336.096l2.122,12.374c0.106,0.623-0.135,1.218-0.648,1.591
	c-0.511,0.371-1.148,0.416-1.709,0.123l-11.117-5.844c-0.529-0.279-1.124-0.426-1.713-0.426c-0.584,0-1.175,0.146-1.709,0.426
	l-11.111,5.844c-0.563,0.293-1.201,0.248-1.713-0.123c-0.511-0.373-0.752-0.966-0.646-1.591l2.125-12.374
	c0.203-1.195-0.192-2.413-1.062-3.258l-8.994-8.766c-0.452-0.44-0.605-1.063-0.412-1.667c0.196-0.603,0.688-1.016,1.313-1.106
	l12.427-1.806c1.199-0.175,2.234-0.928,2.769-2.013l5.562-11.261c0.278-0.567,0.825-0.905,1.453-0.905
	c0.637,0,1.177,0.338,1.459,0.905l5.559,11.261c0.535,1.085,1.572,1.838,2.771,2.013l12.424,1.806
	c0.626,0.092,1.12,0.505,1.313,1.106c0.195,0.604,0.041,1.227-0.411,1.667l-8.991,8.766
	C383.284,333.683,382.886,334.898,383.093,336.096z"/>
<path fill="#00A0E9" d="M481.914,180.601c1.014-0.984,1.366-2.43,0.934-3.771c-0.441-1.346-1.574-2.304-2.979-2.508l-12.418-1.804
	c-0.528-0.079-0.987-0.412-1.228-0.89l-5.554-11.26c-0.623-1.268-1.892-2.053-3.306-2.053c-1.408,0-2.673,0.785-3.295,2.053
	l-5.554,11.26c-0.243,0.478-0.701,0.811-1.229,0.89l-12.426,1.804c-1.396,0.204-2.538,1.163-2.972,2.508
	c-0.438,1.342-0.08,2.787,0.929,3.771l8.994,8.764c0.385,0.373,0.557,0.913,0.467,1.439l-2.121,12.375
	c-0.238,1.392,0.319,2.771,1.463,3.597c1.141,0.832,2.621,0.94,3.873,0.282l11.117-5.841c0.475-0.249,1.039-0.249,1.509,0
	l11.116,5.841c0.544,0.287,1.136,0.431,1.716,0.431c0.759,0,1.52-0.238,2.163-0.713c1.142-0.825,1.697-2.205,1.463-3.597
	l-2.121-12.375c-0.095-0.526,0.078-1.063,0.467-1.439L481.914,180.601z M470.433,191.151l2.12,12.375
	c0.104,0.625-0.136,1.221-0.647,1.591c-0.515,0.37-1.15,0.417-1.712,0.123l-11.117-5.844c-0.531-0.278-1.127-0.422-1.713-0.422
	s-1.175,0.144-1.71,0.423l-11.109,5.843c-0.565,0.294-1.203,0.248-1.716-0.123c-0.509-0.371-0.75-0.966-0.646-1.591l2.126-12.375
	c0.201-1.191-0.194-2.413-1.062-3.257l-8.993-8.764c-0.45-0.443-0.606-1.066-0.41-1.667c0.194-0.604,0.688-1.018,1.312-1.107
	l12.428-1.805c1.198-0.175,2.236-0.928,2.772-2.012l5.56-11.263c0.276-0.567,0.822-0.906,1.451-0.906
	c0.637,0,1.182,0.338,1.46,0.906l5.559,11.263c0.536,1.084,1.57,1.837,2.771,2.012l12.424,1.805
	c0.625,0.091,1.117,0.504,1.312,1.107c0.198,0.6,0.04,1.224-0.411,1.667l-8.992,8.764
	C470.621,188.738,470.227,189.957,470.433,191.151z"/>
<path fill="#E4007F" d="M388.414,98.426c1.408-1.369,1.904-3.383,1.298-5.251c-0.606-1.872-2.192-3.208-4.141-3.49l-17.305-2.515
	c-0.734-0.107-1.375-0.573-1.703-1.236l-7.737-15.684c-0.867-1.763-2.631-2.856-4.601-2.856c-1.962,0-3.723,1.094-4.59,2.856
	l-7.736,15.684c-0.335,0.663-0.971,1.128-1.706,1.236l-17.305,2.515c-1.946,0.283-3.534,1.619-4.141,3.49
	c-0.606,1.868-0.111,3.882,1.296,5.251l12.521,12.208c0.536,0.52,0.775,1.271,0.653,2.001l-2.956,17.236
	c-0.336,1.937,0.446,3.856,2.039,5.009c1.587,1.157,3.652,1.311,5.395,0.393l15.477-8.137c0.662-0.344,1.451-0.344,2.104,0
	l15.479,8.137c0.76,0.398,1.581,0.6,2.392,0.6c1.057,0,2.111-0.332,3.01-0.991c1.589-1.152,2.369-3.073,2.038-5.009l-2.957-17.236
	c-0.126-0.73,0.115-1.48,0.652-2.001L388.414,98.426z M372.42,113.122l2.959,17.231c0.146,0.868-0.189,1.695-0.904,2.213
	c-0.712,0.519-1.6,0.58-2.382,0.175l-15.479-8.141c-0.743-0.389-1.568-0.589-2.389-0.589c-0.817,0-1.638,0.2-2.38,0.591
	l-15.476,8.137c-0.785,0.406-1.673,0.345-2.386-0.174c-0.709-0.518-1.046-1.344-0.901-2.213l2.958-17.231
	c0.282-1.662-0.269-3.362-1.477-4.537L322.04,96.378c-0.632-0.616-0.846-1.483-0.576-2.321c0.274-0.839,0.96-1.414,1.831-1.542
	l17.306-2.512c1.67-0.247,3.109-1.292,3.855-2.806l7.745-15.681c0.386-0.791,1.148-1.262,2.022-1.262
	c0.887,0,1.642,0.471,2.032,1.262l7.74,15.681c0.745,1.514,2.188,2.56,3.857,2.806l17.303,2.512
	c0.873,0.128,1.558,0.703,1.829,1.542c0.275,0.838,0.06,1.705-0.572,2.321l-12.522,12.206
	C372.687,109.759,372.133,111.456,372.42,113.122z"/>
<path fill="#F39800" d="M207.597,159.229c0.892-0.866,1.203-2.138,0.82-3.319c-0.385-1.184-1.387-2.026-2.619-2.206l-10.938-1.589
	c-0.464-0.068-0.87-0.363-1.077-0.782l-4.892-9.915c-0.548-1.114-1.662-1.807-2.908-1.807c-1.241,0-2.355,0.691-2.905,1.807
	l-4.888,9.915c-0.211,0.419-0.614,0.714-1.079,0.782l-10.943,1.589c-1.227,0.18-2.231,1.022-2.614,2.206
	c-0.386,1.182-0.072,2.454,0.818,3.319l7.916,7.717c0.341,0.328,0.492,0.804,0.415,1.267l-1.87,10.896
	c-0.211,1.225,0.283,2.438,1.289,3.167c1.004,0.73,2.311,0.828,3.412,0.249l9.784-5.144c0.418-0.218,0.918-0.218,1.331,0
	l9.786,5.144c0.479,0.251,0.999,0.378,1.512,0.378c0.667,0,1.336-0.211,1.903-0.626c1.005-0.729,1.498-1.943,1.288-3.167
	l-1.868-10.896c-0.08-0.462,0.072-0.936,0.411-1.267L207.597,159.229z M197.486,168.519l1.87,10.896
	c0.092,0.549-0.12,1.07-0.572,1.399c-0.451,0.325-1.012,0.365-1.506,0.107l-9.785-5.145c-0.47-0.247-0.992-0.373-1.509-0.373
	s-1.036,0.126-1.505,0.374l-9.784,5.144c-0.495,0.258-1.058,0.218-1.509-0.107c-0.448-0.329-0.661-0.851-0.569-1.399l1.872-10.896
	c0.178-1.052-0.17-2.124-0.934-2.867l-7.92-7.716c-0.398-0.39-0.534-0.938-0.363-1.469c0.174-0.529,0.607-0.892,1.157-0.973
	l10.94-1.589c1.056-0.154,1.967-0.816,2.438-1.772l4.896-9.915c0.244-0.5,0.727-0.798,1.28-0.798c0.56,0,1.036,0.298,1.284,0.798
	l4.893,9.915c0.471,0.956,1.383,1.618,2.44,1.772l10.938,1.589c0.55,0.082,0.982,0.443,1.154,0.973
	c0.172,0.53,0.036,1.079-0.362,1.469l-7.916,7.716C197.657,166.395,197.305,167.467,197.486,168.519z"/>
<path fill="#006934" d="M241.722,128.552c0.925-0.899,1.252-2.222,0.854-3.448c-0.398-1.229-1.439-2.106-2.72-2.293l-11.363-1.649
	c-0.484-0.071-0.904-0.375-1.12-0.812l-5.082-10.301c-0.568-1.156-1.727-1.874-3.021-1.874c-1.288,0-2.445,0.718-3.015,1.874
	l-5.081,10.301c-0.218,0.438-0.637,0.741-1.12,0.812l-11.364,1.649c-1.276,0.188-2.32,1.064-2.718,2.293
	c-0.398,1.227-0.074,2.549,0.852,3.448l8.222,8.016c0.354,0.343,0.511,0.835,0.431,1.316l-1.941,11.317
	c-0.22,1.272,0.294,2.533,1.338,3.29c1.044,0.761,2.4,0.859,3.545,0.257l10.162-5.343c0.436-0.227,0.954-0.227,1.384,0l10.166,5.343
	c0.497,0.262,1.035,0.394,1.567,0.394c0.694,0,1.389-0.218,1.979-0.65c1.043-0.757,1.555-2.018,1.336-3.29l-1.94-11.317
	c-0.085-0.481,0.076-0.972,0.428-1.316L241.722,128.552z M231.221,138.202l1.942,11.316c0.095,0.568-0.125,1.113-0.595,1.453
	c-0.467,0.34-1.05,0.381-1.565,0.114l-10.165-5.347c-0.485-0.255-1.028-0.385-1.566-0.385c-0.536,0-1.076,0.13-1.562,0.388
	l-10.165,5.344c-0.513,0.267-1.097,0.226-1.566-0.114c-0.466-0.34-0.686-0.883-0.59-1.453l1.942-11.316
	c0.188-1.093-0.177-2.208-0.972-2.979l-8.223-8.015c-0.415-0.406-0.557-0.976-0.38-1.524c0.182-0.552,0.631-0.93,1.204-1.014
	l11.363-1.649c1.097-0.162,2.044-0.85,2.533-1.842l5.086-10.299c0.253-0.52,0.752-0.828,1.329-0.828c0.582,0,1.078,0.31,1.334,0.828
	l5.084,10.299c0.489,0.992,1.437,1.68,2.535,1.842l11.36,1.649c0.573,0.084,1.021,0.462,1.199,1.014
	c0.181,0.549,0.038,1.118-0.375,1.524l-8.224,8.015C231.396,135.994,231.033,137.108,231.221,138.202z"/>
<path fill="#00A0E9" d="M493.279,238.924c0.726-0.705,0.979-1.738,0.667-2.697c-0.314-0.962-1.126-1.646-2.131-1.793l-8.883-1.291
	c-0.379-0.056-0.706-0.294-0.878-0.636l-3.973-8.054c-0.445-0.906-1.353-1.468-2.362-1.468c-1.007,0-1.912,0.562-2.357,1.468
	l-3.973,8.054c-0.174,0.342-0.501,0.58-0.878,0.636l-8.889,1.291c-0.999,0.146-1.814,0.832-2.126,1.793
	c-0.312,0.959-0.057,1.993,0.665,2.697l6.434,6.269c0.274,0.268,0.397,0.653,0.334,1.029l-1.518,8.851
	c-0.171,0.996,0.229,1.982,1.047,2.574c0.814,0.595,1.875,0.673,2.771,0.201l7.952-4.177c0.339-0.179,0.742-0.179,1.079,0
	l7.951,4.177c0.389,0.207,0.812,0.31,1.227,0.31c0.542,0,1.087-0.171,1.547-0.511c0.816-0.591,1.216-1.578,1.046-2.574l-1.517-8.851
	c-0.067-0.376,0.057-0.761,0.334-1.029L493.279,238.924z M485.066,246.471l1.517,8.851c0.075,0.447-0.097,0.873-0.463,1.139
	c-0.367,0.266-0.822,0.298-1.224,0.088l-7.952-4.18c-0.381-0.2-0.806-0.303-1.225-0.303c-0.42,0-0.841,0.104-1.225,0.304
	l-7.945,4.179c-0.405,0.21-0.86,0.178-1.229-0.088c-0.363-0.266-0.535-0.691-0.462-1.139l1.521-8.851
	c0.145-0.853-0.141-1.726-0.762-2.33l-6.432-6.268c-0.322-0.317-0.435-0.764-0.294-1.192c0.14-0.431,0.492-0.727,0.938-0.792
	l8.889-1.291c0.856-0.125,1.601-0.664,1.983-1.438l3.978-8.056c0.197-0.406,0.588-0.647,1.038-0.647
	c0.454,0,0.844,0.241,1.043,0.647l3.976,8.056c0.384,0.775,1.124,1.313,1.983,1.438l8.887,1.291
	c0.446,0.065,0.799,0.361,0.938,0.792c0.143,0.429,0.028,0.875-0.295,1.192l-6.433,6.268
	C485.202,244.745,484.921,245.616,485.066,246.471z"/>
<path fill="#E83828" d="M318.193,350.455c1.247-1.212,1.687-2.994,1.148-4.646c-0.537-1.656-1.938-2.839-3.666-3.09l-15.312-2.226
	c-0.651-0.096-1.216-0.506-1.506-1.095l-6.852-13.879c-0.765-1.562-2.327-2.532-4.069-2.532c-1.737,0-3.295,0.971-4.066,2.532
	l-6.844,13.879c-0.295,0.589-0.861,0.999-1.511,1.095l-15.315,2.226c-1.722,0.251-3.128,1.434-3.664,3.09
	c-0.538,1.652-0.098,3.436,1.148,4.646l11.082,10.805c0.473,0.458,0.687,1.124,0.578,1.77l-2.617,15.254
	c-0.295,1.716,0.396,3.416,1.805,4.438c1.405,1.022,3.233,1.158,4.775,0.344l13.698-7.199c0.584-0.308,1.282-0.308,1.861,0
	l13.701,7.199c0.671,0.354,1.396,0.528,2.116,0.528c0.934,0,1.868-0.291,2.664-0.872c1.407-1.022,2.097-2.724,1.804-4.438
	l-2.617-15.254c-0.113-0.646,0.104-1.308,0.578-1.77L318.193,350.455z M304.041,363.462l2.616,15.251
	c0.13,0.768-0.167,1.5-0.799,1.957c-0.63,0.463-1.418,0.516-2.108,0.155l-13.702-7.205c-0.655-0.346-1.387-0.521-2.11-0.521
	c-0.723,0-1.448,0.176-2.107,0.524l-13.697,7.201c-0.692,0.359-1.479,0.308-2.11-0.155c-0.628-0.457-0.926-1.188-0.797-1.957
	l2.618-15.251c0.25-1.476-0.237-2.978-1.307-4.019l-11.085-10.802c-0.558-0.545-0.749-1.313-0.508-2.054
	c0.242-0.741,0.847-1.253,1.617-1.364l15.316-2.228c1.479-0.214,2.755-1.141,3.413-2.479l6.854-13.879
	c0.344-0.7,1.017-1.119,1.792-1.119c0.784,0,1.45,0.419,1.799,1.119l6.851,13.879c0.66,1.339,1.938,2.266,3.414,2.479l15.314,2.228
	c0.771,0.111,1.378,0.623,1.616,1.364c0.242,0.739,0.053,1.509-0.505,2.054l-11.083,10.802
	C304.277,360.485,303.787,361.986,304.041,363.462z"/>
<path fill="#006934" d="M246.601,294.207c0.615-0.599,0.833-1.479,0.567-2.292c-0.266-0.817-0.958-1.401-1.809-1.525l-7.557-1.097
	c-0.321-0.047-0.602-0.25-0.744-0.541l-3.379-6.851c-0.379-0.769-1.148-1.245-2.01-1.245c-0.855,0-1.626,0.477-2.004,1.245
	l-3.379,6.851c-0.145,0.291-0.424,0.493-0.746,0.541l-7.557,1.097c-0.848,0.125-1.542,0.708-1.808,1.525
	c-0.265,0.814-0.049,1.694,0.566,2.292l5.468,5.329c0.235,0.229,0.339,0.558,0.286,0.876l-1.291,7.526
	c-0.146,0.847,0.196,1.685,0.891,2.188c0.692,0.506,1.596,0.571,2.356,0.172l6.757-3.555c0.29-0.149,0.636-0.149,0.921,0
	l6.762,3.555c0.331,0.174,0.688,0.261,1.042,0.261c0.461,0,0.924-0.146,1.314-0.434c0.694-0.503,1.034-1.341,0.89-2.188l-1.29-7.526
	c-0.057-0.318,0.051-0.646,0.284-0.876L246.601,294.207z M239.617,300.623l1.292,7.525c0.063,0.379-0.083,0.741-0.396,0.968
	c-0.312,0.227-0.698,0.253-1.041,0.075l-6.761-3.555c-0.322-0.171-0.684-0.257-1.042-0.257c-0.355,0-0.715,0.086-1.039,0.258
	l-6.759,3.554c-0.341,0.178-0.729,0.15-1.042-0.075c-0.311-0.227-0.456-0.588-0.393-0.968l1.292-7.525
	c0.124-0.727-0.118-1.468-0.646-1.98l-5.468-5.33c-0.276-0.27-0.37-0.647-0.252-1.013c0.121-0.367,0.419-0.619,0.801-0.675
	l7.557-1.098c0.729-0.106,1.358-0.563,1.685-1.224l3.382-6.849c0.168-0.346,0.5-0.552,0.883-0.552c0.388,0,0.718,0.206,0.889,0.552
	l3.38,6.849c0.326,0.66,0.956,1.117,1.687,1.224l7.557,1.098c0.38,0.057,0.679,0.308,0.797,0.675
	c0.121,0.365,0.024,0.743-0.25,1.013l-5.469,5.33C239.733,299.156,239.492,299.896,239.617,300.623z"/>
<path fill="#006934" d="M216.734,318.792c0.616-0.599,0.833-1.479,0.567-2.293c-0.266-0.816-0.956-1.4-1.808-1.524l-7.557-1.098
	c-0.321-0.049-0.602-0.25-0.745-0.54l-3.378-6.851c-0.379-0.77-1.149-1.247-2.009-1.247c-0.856,0-1.626,0.479-2.005,1.247
	l-3.379,6.851c-0.145,0.29-0.423,0.491-0.745,0.54l-7.558,1.098c-0.848,0.124-1.542,0.708-1.807,1.524
	c-0.266,0.814-0.049,1.694,0.566,2.293l5.468,5.329c0.234,0.229,0.339,0.557,0.285,0.875l-1.291,7.527
	c-0.146,0.846,0.196,1.685,0.891,2.188c0.692,0.506,1.596,0.571,2.356,0.172l6.758-3.554c0.289-0.149,0.634-0.149,0.921,0
	l6.761,3.554c0.33,0.175,0.688,0.262,1.042,0.262c0.461,0,0.924-0.146,1.314-0.434c0.694-0.503,1.034-1.342,0.89-2.188l-1.29-7.527
	c-0.056-0.318,0.051-0.646,0.285-0.875L216.734,318.792z M209.75,325.21l1.292,7.523c0.063,0.379-0.083,0.742-0.396,0.967
	c-0.312,0.228-0.698,0.254-1.041,0.076l-6.76-3.555c-0.323-0.17-0.685-0.256-1.042-0.256c-0.356,0-0.716,0.086-1.04,0.257
	l-6.76,3.554c-0.341,0.178-0.729,0.15-1.042-0.076c-0.31-0.225-0.456-0.586-0.393-0.967l1.292-7.523
	c0.124-0.728-0.118-1.469-0.646-1.981l-5.469-5.33c-0.275-0.271-0.37-0.647-0.252-1.014c0.12-0.366,0.419-0.618,0.801-0.675
	l7.557-1.098c0.729-0.106,1.359-0.563,1.685-1.225l3.383-6.85c0.168-0.345,0.5-0.551,0.884-0.551c0.387,0,0.717,0.206,0.888,0.551
	l3.38,6.85c0.326,0.66,0.955,1.117,1.686,1.225l7.557,1.098c0.38,0.057,0.679,0.309,0.796,0.675
	c0.121,0.364,0.025,0.743-0.249,1.014l-5.468,5.33C209.867,323.741,209.625,324.481,209.75,325.21z"/>
<path fill="#006934" d="M276.18,147.343c0.614-0.598,0.832-1.479,0.566-2.293c-0.266-0.817-0.957-1.401-1.808-1.525l-7.558-1.097
	c-0.32-0.048-0.601-0.25-0.744-0.541l-3.38-6.85c-0.379-0.77-1.147-1.246-2.009-1.246c-0.855,0-1.626,0.478-2.004,1.246l-3.379,6.85
	c-0.145,0.29-0.423,0.493-0.745,0.541l-7.557,1.097c-0.849,0.124-1.542,0.708-1.809,1.525c-0.265,0.814-0.049,1.695,0.567,2.293
	l5.468,5.33c0.235,0.228,0.338,0.556,0.286,0.875l-1.291,7.526c-0.146,0.847,0.196,1.685,0.89,2.188
	c0.693,0.506,1.597,0.572,2.357,0.172l6.757-3.554c0.29-0.149,0.634-0.149,0.921,0l6.762,3.554c0.329,0.174,0.688,0.261,1.042,0.261
	c0.46,0,0.924-0.145,1.314-0.433c0.695-0.503,1.034-1.341,0.889-2.188l-1.29-7.526c-0.056-0.32,0.051-0.646,0.285-0.875
	L276.18,147.343z M269.196,153.76l1.292,7.525c0.062,0.378-0.083,0.74-0.395,0.967c-0.312,0.226-0.699,0.253-1.042,0.076
	l-6.761-3.556c-0.321-0.169-0.684-0.256-1.042-0.256c-0.355,0-0.715,0.087-1.04,0.258l-6.759,3.555
	c-0.341,0.177-0.729,0.149-1.042-0.076c-0.31-0.227-0.456-0.587-0.393-0.967l1.292-7.525c0.124-0.727-0.118-1.468-0.646-1.981
	l-5.469-5.329c-0.276-0.271-0.37-0.648-0.252-1.014c0.121-0.367,0.419-0.619,0.801-0.675l7.556-1.097
	c0.73-0.107,1.359-0.564,1.686-1.226l3.383-6.848c0.168-0.345,0.5-0.551,0.883-0.551c0.388,0,0.717,0.206,0.889,0.551l3.38,6.848
	c0.325,0.661,0.955,1.118,1.686,1.226l7.556,1.097c0.381,0.057,0.679,0.308,0.797,0.675c0.12,0.365,0.025,0.743-0.25,1.014
	l-5.469,5.329C269.313,152.292,269.071,153.031,269.196,153.76z"/>
<path fill="#006934" d="M423.802,184.502c0.614-0.599,0.832-1.479,0.566-2.292c-0.266-0.817-0.957-1.401-1.808-1.525l-7.558-1.097
	c-0.321-0.048-0.601-0.25-0.745-0.541l-3.379-6.851c-0.379-0.769-1.147-1.245-2.008-1.245c-0.856,0-1.626,0.478-2.005,1.245
	l-3.379,6.851c-0.146,0.291-0.423,0.493-0.744,0.541l-7.559,1.097c-0.849,0.125-1.542,0.708-1.808,1.525
	c-0.265,0.813-0.05,1.694,0.566,2.292l5.467,5.33c0.235,0.228,0.339,0.556,0.286,0.875l-1.291,7.525
	c-0.146,0.847,0.196,1.686,0.89,2.188c0.694,0.505,1.598,0.572,2.357,0.171l6.758-3.553c0.29-0.15,0.634-0.15,0.92,0l6.761,3.553
	c0.331,0.174,0.688,0.261,1.042,0.261c0.462,0,0.926-0.145,1.315-0.432c0.694-0.503,1.034-1.341,0.889-2.188l-1.29-7.525
	c-0.056-0.32,0.052-0.647,0.285-0.875L423.802,184.502z M416.817,190.92l1.292,7.524c0.062,0.378-0.083,0.741-0.396,0.968
	c-0.311,0.226-0.697,0.253-1.041,0.075l-6.76-3.555c-0.322-0.17-0.684-0.257-1.042-0.257c-0.355,0-0.715,0.087-1.04,0.258
	l-6.759,3.554c-0.341,0.179-0.729,0.15-1.042-0.075c-0.312-0.227-0.457-0.587-0.393-0.968l1.292-7.524
	c0.123-0.728-0.118-1.468-0.646-1.981l-5.469-5.331c-0.275-0.27-0.369-0.647-0.252-1.013c0.12-0.368,0.419-0.619,0.8-0.675
	l7.556-1.098c0.73-0.106,1.359-0.563,1.686-1.225l3.383-6.849c0.168-0.346,0.5-0.552,0.884-0.552c0.386,0,0.717,0.206,0.887,0.552
	l3.38,6.849c0.326,0.66,0.955,1.117,1.687,1.225l7.557,1.098c0.38,0.057,0.678,0.308,0.796,0.675
	c0.122,0.365,0.025,0.743-0.249,1.013l-5.469,5.331C416.934,189.452,416.692,190.192,416.817,190.92z"/>
<path fill="#006934" d="M359.296,301.859c0.616-0.598,0.833-1.478,0.568-2.292c-0.266-0.816-0.958-1.4-1.808-1.524l-7.558-1.098
	c-0.322-0.047-0.601-0.25-0.745-0.541l-3.379-6.85c-0.378-0.769-1.147-1.247-2.009-1.247c-0.856,0-1.626,0.479-2.004,1.247
	l-3.379,6.85c-0.146,0.291-0.424,0.493-0.746,0.541l-7.557,1.098c-0.849,0.125-1.542,0.708-1.809,1.524
	c-0.265,0.815-0.049,1.695,0.566,2.292l5.468,5.33c0.235,0.229,0.34,0.556,0.286,0.875l-1.291,7.527
	c-0.146,0.846,0.196,1.684,0.89,2.187c0.694,0.506,1.597,0.572,2.357,0.172l6.758-3.553c0.29-0.15,0.634-0.15,0.921,0l6.76,3.553
	c0.33,0.175,0.688,0.263,1.042,0.263c0.461,0,0.926-0.146,1.316-0.435c0.694-0.503,1.034-1.341,0.888-2.187l-1.29-7.527
	c-0.056-0.319,0.051-0.646,0.285-0.875L359.296,301.859z M352.312,308.277l1.292,7.524c0.062,0.379-0.083,0.741-0.396,0.967
	c-0.311,0.227-0.697,0.254-1.041,0.076l-6.76-3.556c-0.323-0.17-0.684-0.257-1.042-0.257c-0.355,0-0.715,0.087-1.04,0.258
	l-6.759,3.555c-0.341,0.178-0.73,0.149-1.042-0.076c-0.311-0.226-0.455-0.586-0.393-0.967l1.292-7.524
	c0.124-0.727-0.116-1.469-0.646-1.981l-5.468-5.329c-0.275-0.271-0.37-0.648-0.252-1.013c0.121-0.367,0.419-0.619,0.801-0.676
	l7.556-1.097c0.73-0.106,1.359-0.563,1.686-1.225l3.383-6.849c0.168-0.345,0.5-0.551,0.883-0.551c0.387,0,0.717,0.206,0.887,0.551
	l3.381,6.849c0.326,0.66,0.955,1.117,1.687,1.225l7.556,1.097c0.38,0.058,0.679,0.309,0.796,0.676
	c0.121,0.364,0.026,0.742-0.249,1.013l-5.468,5.329C352.43,306.809,352.188,307.549,352.312,308.277z"/>
<path fill="#EA5514" d="M258.581,333.488c0.4-0.388,0.541-0.96,0.369-1.489s-0.622-0.909-1.174-0.989l-4.908-0.713
	c-0.209-0.031-0.39-0.163-0.484-0.353l-2.193-4.449c-0.246-0.499-0.746-0.809-1.306-0.809c-0.556,0-1.056,0.31-1.302,0.809
	l-2.194,4.449c-0.095,0.188-0.275,0.32-0.484,0.353l-4.909,0.713c-0.551,0.08-1.001,0.46-1.174,0.989
	c-0.172,0.529-0.032,1.103,0.368,1.489l3.552,3.461c0.152,0.148,0.22,0.361,0.186,0.569l-0.838,4.888
	c-0.096,0.551,0.127,1.096,0.578,1.421c0.451,0.329,1.037,0.372,1.531,0.111l4.389-2.307c0.188-0.1,0.412-0.1,0.6,0l4.39,2.307
	c0.215,0.114,0.447,0.17,0.677,0.17c0.3,0,0.601-0.094,0.854-0.281c0.451-0.325,0.671-0.87,0.577-1.421l-0.838-4.888
	c-0.037-0.208,0.032-0.42,0.185-0.569L258.581,333.488z M254.045,337.656l0.839,4.888c0.042,0.245-0.054,0.481-0.257,0.629
	c-0.202,0.146-0.454,0.164-0.676,0.049l-4.39-2.31c-0.209-0.109-0.444-0.166-0.678-0.166c-0.23,0-0.465,0.057-0.675,0.167
	l-4.39,2.309c-0.222,0.115-0.474,0.098-0.677-0.049c-0.202-0.146-0.296-0.382-0.255-0.629l0.839-4.888
	c0.08-0.472-0.077-0.954-0.42-1.287l-3.553-3.462c-0.179-0.175-0.239-0.421-0.164-0.657c0.078-0.238,0.272-0.401,0.521-0.438
	l4.908-0.712c0.474-0.07,0.883-0.366,1.094-0.795l2.197-4.448c0.108-0.224,0.324-0.356,0.573-0.356c0.251,0,0.467,0.134,0.576,0.356
	l2.196,4.448c0.211,0.429,0.62,0.725,1.095,0.795l4.907,0.712c0.248,0.037,0.441,0.2,0.518,0.438
	c0.079,0.236,0.018,0.482-0.161,0.657l-3.552,3.462C254.121,336.701,253.964,337.184,254.045,337.656z"/>
<path fill="#90C75E" d="M387.752,151.868c0.561-0.546,0.759-1.344,0.517-2.088c-0.24-0.742-0.87-1.272-1.645-1.386l-6.875-0.998
	c-0.293-0.043-0.546-0.228-0.677-0.493l-3.074-6.229c-0.345-0.699-1.046-1.134-1.827-1.134c-0.78,0-1.479,0.435-1.825,1.134
	l-3.074,6.229c-0.131,0.267-0.384,0.45-0.679,0.493l-6.875,0.999c-0.772,0.112-1.401,0.643-1.643,1.385
	c-0.241,0.744-0.044,1.542,0.515,2.088l4.976,4.849c0.211,0.208,0.31,0.505,0.258,0.796l-1.174,6.847
	c-0.132,0.771,0.179,1.532,0.81,1.991c0.631,0.46,1.453,0.521,2.146,0.156l6.147-3.233c0.264-0.137,0.575-0.137,0.837,0l6.149,3.233
	c0.301,0.158,0.625,0.237,0.948,0.237c0.421,0,0.84-0.133,1.196-0.394c0.632-0.459,0.942-1.221,0.811-1.991l-1.175-6.847
	c-0.051-0.291,0.047-0.588,0.26-0.796L387.752,151.868z M381.399,157.705l1.174,6.847c0.059,0.344-0.074,0.675-0.359,0.879
	c-0.282,0.206-0.636,0.231-0.944,0.07l-6.15-3.234c-0.296-0.154-0.623-0.234-0.948-0.234s-0.649,0.08-0.947,0.234l-6.147,3.234
	c-0.311,0.162-0.664,0.136-0.948-0.07c-0.283-0.204-0.416-0.534-0.356-0.879l1.175-6.847c0.111-0.659-0.106-1.333-0.585-1.803
	l-4.978-4.849c-0.251-0.245-0.335-0.589-0.227-0.922s0.38-0.562,0.726-0.612l6.875-0.999c0.664-0.096,1.237-0.514,1.533-1.115
	l3.075-6.229c0.155-0.313,0.457-0.501,0.806-0.501c0.352,0,0.651,0.188,0.808,0.501l3.074,6.229c0.297,0.602,0.869,1.02,1.533,1.115
	l6.874,0.999c0.349,0.051,0.619,0.278,0.729,0.612c0.107,0.333,0.022,0.677-0.228,0.922l-4.976,4.849
	C381.505,156.371,381.286,157.043,381.399,157.705z"/>
<path fill="#EA5514" d="M383.609,283.443c0.56-0.546,0.757-1.344,0.515-2.088c-0.241-0.743-0.87-1.272-1.644-1.387l-6.875-0.997
	c-0.293-0.043-0.545-0.227-0.676-0.493l-3.074-6.229c-0.347-0.699-1.046-1.135-1.827-1.135c-0.779,0-1.48,0.437-1.825,1.135
	l-3.075,6.229c-0.131,0.267-0.383,0.45-0.677,0.493l-6.875,0.999c-0.772,0.113-1.402,0.643-1.643,1.386
	c-0.241,0.744-0.044,1.542,0.515,2.088l4.975,4.849c0.213,0.208,0.312,0.505,0.259,0.796l-1.175,6.847
	c-0.132,0.771,0.18,1.532,0.811,1.99c0.632,0.46,1.453,0.521,2.145,0.156l6.149-3.233c0.263-0.136,0.574-0.136,0.836,0l6.148,3.233
	c0.301,0.157,0.625,0.236,0.948,0.236c0.421,0,0.839-0.132,1.197-0.393c0.629-0.458,0.941-1.221,0.808-1.99l-1.174-6.847
	c-0.05-0.291,0.047-0.589,0.26-0.796L383.609,283.443z M377.256,289.279l1.176,6.849c0.058,0.344-0.075,0.675-0.358,0.879
	c-0.283,0.207-0.637,0.23-0.946,0.07l-6.149-3.233c-0.296-0.155-0.623-0.235-0.948-0.235c-0.326,0-0.65,0.081-0.948,0.235
	l-6.147,3.233c-0.311,0.161-0.663,0.137-0.948-0.07c-0.283-0.204-0.415-0.534-0.357-0.879l1.175-6.849
	c0.112-0.657-0.106-1.333-0.586-1.801l-4.976-4.849c-0.251-0.246-0.336-0.589-0.228-0.922s0.38-0.562,0.726-0.611l6.875-1
	c0.663-0.096,1.237-0.514,1.534-1.114l3.073-6.229c0.154-0.313,0.457-0.501,0.806-0.501c0.352,0,0.652,0.188,0.808,0.501
	l3.074,6.229c0.297,0.602,0.87,1.019,1.533,1.114l6.875,1c0.348,0.051,0.618,0.278,0.727,0.611s0.023,0.677-0.227,0.922
	l-4.977,4.849C377.362,287.945,377.143,288.619,377.256,289.279z"/>
<path fill="#C30D23" d="M436.818,206.671c0.359-0.352,0.485-0.863,0.331-1.341s-0.559-0.817-1.056-0.891l-4.414-0.64
	c-0.188-0.028-0.351-0.146-0.436-0.316l-1.973-4c-0.222-0.448-0.673-0.728-1.174-0.728s-0.95,0.279-1.171,0.728l-1.975,4
	c-0.084,0.17-0.246,0.288-0.436,0.316l-4.415,0.641c-0.495,0.073-0.899,0.413-1.056,0.891c-0.153,0.478-0.027,0.989,0.331,1.341
	l3.193,3.113c0.137,0.133,0.199,0.323,0.166,0.511l-0.753,4.396c-0.085,0.494,0.114,0.983,0.521,1.278
	c0.403,0.295,0.933,0.334,1.376,0.1l3.946-2.075c0.169-0.089,0.369-0.089,0.538,0l3.948,2.075c0.192,0.102,0.4,0.152,0.608,0.152
	c0.271,0,0.537-0.085,0.769-0.252c0.404-0.295,0.604-0.784,0.52-1.278l-0.754-4.396c-0.031-0.188,0.029-0.378,0.166-0.511
	L436.818,206.671z M432.739,210.418l0.754,4.396c0.038,0.222-0.048,0.434-0.229,0.564c-0.183,0.132-0.409,0.147-0.607,0.045
	l-3.947-2.076c-0.19-0.099-0.399-0.151-0.609-0.151c-0.208,0-0.417,0.053-0.608,0.151l-3.946,2.076
	c-0.199,0.104-0.427,0.087-0.608-0.045c-0.182-0.131-0.267-0.342-0.229-0.564l0.756-4.396c0.07-0.423-0.069-0.856-0.376-1.157
	l-3.196-3.113c-0.162-0.158-0.217-0.378-0.146-0.592c0.071-0.214,0.244-0.36,0.466-0.393l4.415-0.643
	c0.426-0.062,0.794-0.33,0.983-0.715l1.976-4c0.098-0.201,0.292-0.321,0.517-0.321c0.226,0,0.419,0.12,0.519,0.321l1.975,4
	c0.189,0.386,0.559,0.654,0.983,0.715l4.413,0.643c0.224,0.032,0.396,0.179,0.468,0.393c0.068,0.214,0.016,0.436-0.146,0.592
	l-3.194,3.113C432.808,209.562,432.667,209.994,432.739,210.418z"/>
<path fill="#90C75E" d="M357.948,147.469c0.56-0.545,0.758-1.344,0.516-2.087c-0.239-0.744-0.869-1.273-1.644-1.387l-6.875-0.998
	c-0.294-0.043-0.546-0.228-0.676-0.493l-3.074-6.229c-0.346-0.698-1.046-1.135-1.827-1.135c-0.779,0-1.479,0.437-1.825,1.135
	l-3.074,6.229c-0.131,0.266-0.384,0.45-0.678,0.493l-6.875,0.999c-0.772,0.111-1.401,0.642-1.644,1.386
	c-0.241,0.744-0.044,1.542,0.515,2.087l4.976,4.849c0.212,0.208,0.31,0.505,0.258,0.796l-1.174,6.849
	c-0.132,0.77,0.179,1.532,0.811,1.99c0.631,0.46,1.453,0.52,2.145,0.155l6.148-3.232c0.263-0.138,0.574-0.138,0.837,0l6.149,3.232
	c0.301,0.158,0.625,0.237,0.948,0.237c0.422,0,0.84-0.132,1.196-0.393c0.631-0.458,0.942-1.222,0.811-1.99l-1.176-6.849
	c-0.05-0.291,0.047-0.588,0.26-0.796L357.948,147.469z M351.596,153.306l1.175,6.847c0.059,0.345-0.075,0.676-0.359,0.879
	c-0.282,0.206-0.636,0.231-0.945,0.07l-6.149-3.233c-0.297-0.154-0.623-0.235-0.949-0.235s-0.648,0.081-0.947,0.235l-6.146,3.233
	c-0.312,0.161-0.664,0.136-0.948-0.07c-0.284-0.203-0.416-0.533-0.356-0.879l1.175-6.847c0.111-0.658-0.106-1.333-0.585-1.802
	l-4.978-4.85c-0.25-0.244-0.335-0.589-0.228-0.922c0.108-0.333,0.38-0.561,0.726-0.61l6.875-1c0.664-0.097,1.237-0.515,1.534-1.114
	l3.074-6.231c0.155-0.312,0.457-0.5,0.806-0.5c0.352,0,0.651,0.188,0.808,0.5l3.073,6.231c0.297,0.601,0.87,1.019,1.534,1.114
	l6.874,1c0.347,0.05,0.618,0.277,0.728,0.61c0.107,0.333,0.022,0.678-0.228,0.922l-4.976,4.85
	C351.701,151.972,351.482,152.645,351.596,153.306z"/>
<path fill="#90C75E" d="M422.453,243.457c0.561-0.545,0.758-1.344,0.516-2.088c-0.24-0.743-0.869-1.272-1.645-1.387l-6.875-0.998
	c-0.293-0.043-0.546-0.228-0.676-0.492l-3.074-6.229c-0.346-0.699-1.046-1.134-1.828-1.134c-0.779,0-1.479,0.436-1.825,1.134
	l-3.072,6.229c-0.133,0.266-0.385,0.449-0.679,0.492l-6.875,0.999c-0.771,0.113-1.4,0.643-1.643,1.386
	c-0.242,0.744-0.045,1.543,0.514,2.088l4.976,4.849c0.212,0.208,0.31,0.505,0.258,0.796l-1.174,6.847
	c-0.132,0.771,0.179,1.532,0.811,1.991c0.631,0.46,1.452,0.521,2.146,0.155l6.147-3.232c0.263-0.137,0.575-0.137,0.837,0
	l6.148,3.232c0.301,0.158,0.625,0.238,0.949,0.238c0.421,0,0.839-0.133,1.196-0.394c0.63-0.458,0.941-1.221,0.81-1.99l-1.174-6.848
	c-0.052-0.291,0.046-0.589,0.259-0.796L422.453,243.457z M416.1,249.293l1.175,6.848c0.058,0.344-0.075,0.675-0.359,0.879
	c-0.283,0.206-0.636,0.231-0.944,0.07l-6.15-3.233c-0.296-0.154-0.623-0.234-0.949-0.234s-0.648,0.081-0.947,0.234l-6.147,3.233
	c-0.312,0.162-0.664,0.136-0.948-0.07c-0.283-0.204-0.416-0.534-0.355-0.879l1.175-6.848c0.11-0.658-0.107-1.333-0.586-1.802
	l-4.978-4.85c-0.25-0.246-0.335-0.59-0.228-0.922c0.108-0.333,0.38-0.561,0.727-0.611l6.875-0.999
	c0.663-0.096,1.237-0.514,1.533-1.114l3.074-6.23c0.155-0.312,0.457-0.501,0.806-0.501c0.352,0,0.652,0.188,0.809,0.501l3.073,6.23
	c0.297,0.601,0.87,1.019,1.533,1.114l6.875,0.999c0.349,0.051,0.618,0.278,0.728,0.611c0.107,0.333,0.022,0.677-0.228,0.922
	l-4.976,4.85C416.206,247.96,415.986,248.633,416.1,249.293z"/>
<path fill="#90C75E" d="M398.598,306.668c0.393-0.383,0.531-0.942,0.361-1.466c-0.169-0.521-0.609-0.895-1.153-0.975l-4.828-0.7
	c-0.206-0.03-0.383-0.16-0.475-0.346l-2.158-4.375c-0.244-0.491-0.735-0.796-1.283-0.796c-0.547,0-1.039,0.306-1.282,0.796
	l-2.158,4.375c-0.092,0.186-0.27,0.314-0.477,0.346l-4.828,0.701c-0.542,0.079-0.984,0.451-1.154,0.974
	c-0.169,0.522-0.031,1.083,0.362,1.465l3.494,3.405c0.148,0.146,0.217,0.355,0.182,0.56l-0.825,4.81
	c-0.092,0.54,0.125,1.075,0.568,1.396c0.444,0.322,1.021,0.365,1.507,0.108l4.317-2.271c0.185-0.096,0.402-0.096,0.587,0
	l4.317,2.271c0.21,0.111,0.438,0.167,0.666,0.167c0.295,0,0.589-0.093,0.841-0.275c0.441-0.321,0.66-0.856,0.567-1.396l-0.825-4.81
	c-0.035-0.203,0.033-0.413,0.184-0.56L398.598,306.668z M394.137,310.767l0.824,4.809c0.042,0.241-0.053,0.475-0.251,0.617
	c-0.198,0.146-0.447,0.163-0.664,0.05l-4.317-2.271c-0.208-0.108-0.438-0.165-0.666-0.165c-0.229,0-0.457,0.057-0.666,0.165
	l-4.317,2.271c-0.219,0.113-0.466,0.096-0.666-0.05c-0.199-0.144-0.292-0.374-0.25-0.617l0.825-4.809
	c0.078-0.462-0.075-0.938-0.411-1.265l-3.495-3.405c-0.177-0.172-0.234-0.414-0.16-0.646c0.077-0.234,0.269-0.395,0.511-0.431
	l4.828-0.701c0.466-0.066,0.868-0.36,1.076-0.782l2.159-4.374c0.108-0.221,0.321-0.353,0.565-0.353c0.247,0,0.458,0.132,0.566,0.353
	l2.159,4.374c0.208,0.421,0.61,0.716,1.076,0.782l4.828,0.701c0.244,0.036,0.434,0.195,0.511,0.431
	c0.075,0.232,0.017,0.476-0.16,0.646l-3.494,3.405C394.211,309.829,394.058,310.303,394.137,310.767z"/>
<path fill="#90C75E" d="M422.453,351.157c0.561-0.545,0.758-1.344,0.516-2.087c-0.24-0.744-0.869-1.273-1.645-1.388l-6.875-0.997
	c-0.293-0.043-0.546-0.228-0.676-0.493l-3.074-6.229c-0.346-0.699-1.046-1.136-1.828-1.136c-0.779,0-1.479,0.437-1.825,1.136
	l-3.072,6.229c-0.133,0.268-0.385,0.45-0.679,0.493l-6.875,0.998c-0.771,0.112-1.4,0.643-1.643,1.387
	c-0.242,0.743-0.045,1.542,0.514,2.087l4.976,4.85c0.212,0.208,0.31,0.506,0.258,0.796l-1.174,6.848
	c-0.132,0.771,0.179,1.531,0.811,1.99c0.631,0.46,1.452,0.52,2.146,0.156l6.147-3.233c0.263-0.137,0.575-0.137,0.837,0l6.148,3.233
	c0.301,0.156,0.625,0.236,0.949,0.236c0.421,0,0.839-0.133,1.196-0.394c0.63-0.459,0.941-1.222,0.81-1.99l-1.174-6.848
	c-0.052-0.29,0.046-0.588,0.259-0.796L422.453,351.157z M416.1,356.994l1.175,6.848c0.058,0.345-0.075,0.675-0.359,0.88
	c-0.283,0.205-0.636,0.229-0.944,0.068l-6.15-3.232c-0.296-0.154-0.623-0.235-0.949-0.235s-0.648,0.081-0.947,0.235l-6.147,3.232
	c-0.312,0.161-0.664,0.137-0.948-0.068c-0.283-0.205-0.416-0.534-0.355-0.88l1.175-6.848c0.11-0.658-0.107-1.334-0.586-1.803
	l-4.978-4.849c-0.25-0.245-0.335-0.589-0.228-0.922c0.108-0.333,0.38-0.562,0.727-0.611l6.875-0.999
	c0.663-0.097,1.237-0.514,1.533-1.115l3.074-6.229c0.155-0.312,0.457-0.5,0.806-0.5c0.352,0,0.652,0.188,0.809,0.5l3.073,6.229
	c0.297,0.603,0.87,1.02,1.533,1.115l6.875,0.999c0.349,0.051,0.618,0.278,0.728,0.611c0.107,0.333,0.022,0.677-0.228,0.922
	l-4.976,4.849C416.206,355.66,415.986,356.334,416.1,356.994z"/>
<path fill="#90C75E" d="M313.798,114.312c0.408-0.396,0.553-0.979,0.376-1.521c-0.175-0.542-0.634-0.93-1.197-1.012l-5.016-0.728
	c-0.214-0.031-0.397-0.166-0.494-0.36l-2.24-4.543c-0.252-0.51-0.765-0.828-1.333-0.828s-1.079,0.318-1.331,0.828l-2.242,4.543
	c-0.096,0.194-0.28,0.329-0.495,0.36l-5.014,0.729c-0.563,0.082-1.022,0.469-1.198,1.011c-0.176,0.543-0.032,1.125,0.375,1.521
	l3.628,3.537c0.155,0.151,0.227,0.369,0.188,0.581l-0.856,4.994c-0.096,0.562,0.13,1.117,0.591,1.452
	c0.46,0.335,1.061,0.379,1.564,0.113l4.484-2.357c0.192-0.1,0.419-0.1,0.61,0l4.485,2.357c0.219,0.115,0.456,0.174,0.69,0.174
	c0.309,0,0.612-0.098,0.873-0.287c0.459-0.334,0.688-0.891,0.59-1.452l-0.856-4.994c-0.037-0.212,0.034-0.429,0.188-0.581
	L313.798,114.312z M309.165,118.569l0.857,4.994c0.042,0.251-0.056,0.493-0.262,0.643s-0.465,0.169-0.689,0.051l-4.485-2.358
	c-0.216-0.112-0.454-0.171-0.691-0.171s-0.474,0.06-0.69,0.171l-4.483,2.358c-0.228,0.118-0.484,0.099-0.691-0.051
	s-0.303-0.39-0.26-0.643l0.855-4.994c0.082-0.48-0.078-0.973-0.427-1.313l-3.629-3.537c-0.183-0.179-0.245-0.43-0.167-0.673
	c0.08-0.243,0.277-0.409,0.53-0.446l5.014-0.729c0.484-0.07,0.902-0.375,1.118-0.813l2.242-4.544
	c0.112-0.229,0.333-0.366,0.588-0.366c0.257,0,0.476,0.138,0.589,0.366l2.242,4.544c0.216,0.438,0.634,0.743,1.119,0.813
	l5.013,0.729c0.253,0.037,0.451,0.203,0.53,0.446c0.078,0.243,0.017,0.494-0.166,0.673l-3.629,3.537
	C309.242,117.596,309.082,118.087,309.165,118.569z"/>
<path fill="#90C75E" d="M236.355,165.47c0.56-0.545,0.757-1.344,0.516-2.088c-0.241-0.743-0.87-1.272-1.644-1.386l-6.875-0.998
	c-0.293-0.043-0.545-0.228-0.677-0.493l-3.072-6.229c-0.347-0.698-1.047-1.134-1.827-1.134s-1.48,0.437-1.826,1.134l-3.074,6.229
	c-0.131,0.266-0.384,0.45-0.678,0.493l-6.875,0.999c-0.772,0.112-1.402,0.643-1.643,1.385c-0.241,0.745-0.044,1.543,0.515,2.088
	l4.975,4.848c0.212,0.208,0.311,0.506,0.259,0.796l-1.175,6.848c-0.132,0.77,0.18,1.532,0.811,1.991
	c0.631,0.46,1.453,0.52,2.145,0.154l6.148-3.232c0.263-0.138,0.575-0.138,0.837,0l6.147,3.232c0.302,0.158,0.625,0.238,0.949,0.238
	c0.421,0,0.839-0.133,1.197-0.393c0.63-0.459,0.941-1.222,0.809-1.991l-1.175-6.848c-0.05-0.291,0.047-0.588,0.26-0.796
	L236.355,165.47z M230.002,171.307l1.174,6.847c0.06,0.345-0.074,0.676-0.357,0.88c-0.283,0.205-0.637,0.23-0.945,0.069
	l-6.149-3.233c-0.297-0.154-0.622-0.235-0.948-0.235s-0.649,0.081-0.948,0.235l-6.147,3.233c-0.312,0.161-0.663,0.136-0.948-0.069
	c-0.283-0.205-0.416-0.534-0.357-0.88l1.175-6.847c0.112-0.659-0.106-1.334-0.585-1.802l-4.977-4.85
	c-0.251-0.245-0.335-0.589-0.229-0.922c0.109-0.333,0.381-0.561,0.727-0.611l6.875-0.999c0.664-0.097,1.237-0.515,1.534-1.114
	l3.073-6.231c0.155-0.312,0.457-0.501,0.807-0.501c0.352,0,0.651,0.188,0.807,0.501l3.074,6.231c0.297,0.6,0.87,1.018,1.533,1.114
	l6.874,0.999c0.348,0.051,0.618,0.277,0.727,0.611c0.108,0.333,0.023,0.677-0.227,0.922l-4.977,4.85
	C230.108,169.973,229.889,170.646,230.002,171.307z"/>
<path fill="#90C75E" d="M259.225,184.629c0.56-0.545,0.757-1.344,0.516-2.088c-0.241-0.743-0.87-1.273-1.644-1.388l-6.875-0.998
	c-0.293-0.043-0.546-0.227-0.677-0.492l-3.072-6.229c-0.347-0.699-1.048-1.134-1.827-1.134c-0.78,0-1.48,0.435-1.826,1.134
	l-3.074,6.229c-0.131,0.266-0.384,0.449-0.678,0.492l-6.875,0.999c-0.772,0.112-1.402,0.644-1.644,1.387
	c-0.241,0.744-0.044,1.542,0.516,2.088l4.975,4.848c0.212,0.208,0.311,0.505,0.258,0.796l-1.174,6.848
	c-0.132,0.77,0.18,1.531,0.811,1.989c0.631,0.46,1.453,0.521,2.145,0.156l6.148-3.232c0.263-0.138,0.574-0.138,0.836,0l6.148,3.232
	c0.302,0.158,0.625,0.237,0.949,0.237c0.421,0,0.839-0.132,1.197-0.394c0.63-0.458,0.94-1.221,0.809-1.989l-1.175-6.848
	c-0.05-0.291,0.047-0.588,0.26-0.796L259.225,184.629z M252.873,190.465l1.175,6.848c0.059,0.344-0.074,0.675-0.358,0.879
	c-0.283,0.206-0.638,0.231-0.945,0.07l-6.15-3.234c-0.296-0.154-0.621-0.234-0.947-0.234s-0.649,0.081-0.948,0.234l-6.148,3.234
	c-0.311,0.161-0.662,0.136-0.947-0.07c-0.283-0.205-0.416-0.533-0.356-0.879l1.174-6.848c0.112-0.658-0.106-1.333-0.585-1.802
	l-4.977-4.85c-0.251-0.246-0.335-0.589-0.229-0.922c0.109-0.333,0.38-0.561,0.728-0.612l6.874-0.999
	c0.664-0.096,1.236-0.514,1.534-1.114l3.073-6.23c0.155-0.312,0.457-0.501,0.807-0.501c0.352,0,0.651,0.188,0.807,0.501l3.074,6.23
	c0.297,0.601,0.87,1.019,1.534,1.114l6.874,0.999c0.348,0.052,0.618,0.278,0.727,0.612c0.108,0.333,0.023,0.676-0.227,0.922
	l-4.977,4.85C252.978,189.131,252.759,189.804,252.873,190.465z"/>
<path fill="#C30D23" d="M316.434,150.77c0.771-0.75,1.042-1.85,0.709-2.875c-0.332-1.022-1.198-1.753-2.265-1.91l-9.468-1.374
	c-0.404-0.06-0.751-0.312-0.931-0.679l-4.234-8.58c-0.476-0.962-1.44-1.562-2.516-1.562c-1.074,0-2.038,0.6-2.515,1.562l-4.232,8.58
	c-0.181,0.366-0.529,0.619-0.935,0.679l-9.468,1.375c-1.063,0.155-1.931,0.886-2.263,1.908c-0.332,1.025-0.062,2.125,0.709,2.875
	l6.851,6.678c0.292,0.286,0.428,0.696,0.356,1.097l-1.617,9.43c-0.181,1.061,0.246,2.11,1.116,2.741
	c0.87,0.633,2.001,0.716,2.954,0.214l8.467-4.453c0.362-0.188,0.792-0.188,1.153,0l8.468,4.453c0.415,0.217,0.861,0.327,1.306,0.327
	c0.581,0,1.156-0.184,1.648-0.542c0.868-0.631,1.297-1.682,1.114-2.741l-1.617-9.43c-0.069-0.4,0.062-0.811,0.356-1.097
	L316.434,150.77z M307.684,158.808l1.618,9.43c0.08,0.475-0.104,0.931-0.494,1.212c-0.39,0.282-0.876,0.317-1.303,0.096l-8.47-4.454
	c-0.408-0.213-0.856-0.324-1.306-0.324s-0.896,0.111-1.306,0.324l-8.466,4.454c-0.428,0.223-0.914,0.187-1.306-0.096
	c-0.39-0.282-0.572-0.735-0.492-1.212l1.618-9.43c0.154-0.907-0.147-1.836-0.806-2.48l-6.854-6.679
	c-0.346-0.337-0.462-0.811-0.313-1.27c0.149-0.459,0.523-0.772,1-0.842l9.468-1.376c0.914-0.133,1.704-0.708,2.112-1.535
	l4.232-8.581c0.214-0.432,0.629-0.689,1.11-0.689c0.483,0,0.897,0.258,1.111,0.689l4.233,8.581c0.409,0.827,1.198,1.401,2.112,1.535
	l9.466,1.376c0.479,0.069,0.852,0.383,1.001,0.842c0.148,0.458,0.032,0.932-0.312,1.27l-6.852,6.679
	C307.83,156.971,307.528,157.898,307.684,158.808z"/>
<path fill="#E83828" d="M246.459,243.07c0.874-0.849,1.182-2.098,0.807-3.254c-0.377-1.16-1.359-1.987-2.568-2.164l-10.723-1.558
	c-0.456-0.066-0.853-0.354-1.056-0.766l-4.797-9.72c-0.536-1.093-1.63-1.771-2.85-1.771c-1.216,0-2.309,0.679-2.848,1.771
	l-4.793,9.72c-0.207,0.413-0.603,0.699-1.058,0.766l-10.725,1.558c-1.205,0.177-2.19,1.004-2.565,2.164
	c-0.377,1.156-0.069,2.405,0.804,3.254l7.761,7.566c0.332,0.32,0.48,0.787,0.404,1.239l-1.832,10.683
	c-0.207,1.201,0.277,2.392,1.264,3.107c0.983,0.717,2.265,0.811,3.344,0.24l9.593-5.042c0.409-0.215,0.898-0.215,1.304,0
	l9.595,5.042c0.47,0.248,0.979,0.37,1.481,0.37c0.654,0,1.31-0.204,1.865-0.61c0.985-0.716,1.468-1.906,1.263-3.107l-1.833-10.683
	c-0.079-0.452,0.072-0.916,0.404-1.239L246.459,243.07z M236.549,252.179l1.832,10.678c0.093,0.538-0.116,1.052-0.559,1.371
	c-0.441,0.324-0.993,0.361-1.477,0.11l-9.596-5.046c-0.459-0.242-0.971-0.365-1.479-0.365c-0.506,0-1.016,0.124-1.477,0.368
	l-9.592,5.044c-0.485,0.25-1.036,0.213-1.478-0.11c-0.44-0.319-0.649-0.832-0.56-1.371l1.833-10.678
	c0.175-1.033-0.166-2.085-0.915-2.812l-7.763-7.564c-0.391-0.382-0.524-0.92-0.356-1.438c0.17-0.521,0.594-0.878,1.134-0.956
	l10.726-1.56c1.036-0.148,1.929-0.799,2.39-1.735l4.801-9.72c0.239-0.49,0.711-0.784,1.254-0.784c0.549,0,1.016,0.293,1.26,0.784
	l4.797,9.72c0.462,0.938,1.356,1.587,2.391,1.735l10.725,1.56c0.542,0.078,0.965,0.437,1.132,0.956
	c0.169,0.518,0.036,1.056-0.354,1.438l-7.761,7.564C236.714,250.094,236.372,251.145,236.549,252.179z"/>
<path fill="#00A0E9" d="M196.734,255.135c1.363-0.366,2.378-1.458,2.648-2.84c0.272-1.387-0.255-2.779-1.379-3.639l-9.977-7.621
	c-0.423-0.324-0.662-0.839-0.635-1.371l0.623-12.542c0.072-1.408-0.651-2.712-1.887-3.4c-1.23-0.686-2.719-0.613-3.881,0.188
	l-10.33,7.137c-0.441,0.301-1.005,0.369-1.503,0.18l-11.733-4.468c-1.319-0.501-2.783-0.219-3.816,0.744
	c-1.033,0.959-1.426,2.396-1.021,3.748l3.591,12.033c0.154,0.511,0.043,1.066-0.289,1.481l-7.876,9.78
	c-0.887,1.1-1.067,2.578-0.474,3.857c0.593,1.281,1.835,2.098,3.249,2.128l12.553,0.305c0.535,0.013,1.029,0.289,1.319,0.734
	l6.87,10.513c0.336,0.516,0.782,0.926,1.292,1.209c0.663,0.369,1.44,0.53,2.232,0.433c1.4-0.169,2.561-1.102,3.029-2.433
	l4.167-11.848c0.175-0.502,0.59-0.886,1.107-1.025L196.734,255.135z M181.568,258.77l-4.165,11.842
	c-0.21,0.598-0.711,0.998-1.339,1.073c-0.629,0.078-1.208-0.195-1.558-0.722l-6.867-10.516c-0.329-0.504-0.777-0.918-1.291-1.203
	c-0.513-0.285-1.098-0.447-1.701-0.46l-12.552-0.302c-0.634-0.02-1.17-0.366-1.436-0.943c-0.266-0.572-0.188-1.209,0.208-1.703
	l7.875-9.776c0.76-0.947,1.007-2.204,0.66-3.364l-3.594-12.031c-0.181-0.607-0.013-1.228,0.449-1.657
	c0.466-0.429,1.096-0.553,1.687-0.329l11.736,4.468c1.133,0.433,2.402,0.278,3.396-0.41l10.337-7.133
	c0.521-0.36,1.162-0.392,1.711-0.086c0.557,0.311,0.863,0.869,0.833,1.503l-0.623,12.542c-0.06,1.209,0.479,2.371,1.441,3.105
	l9.977,7.623c0.503,0.384,0.729,0.984,0.607,1.604c-0.121,0.621-0.56,1.09-1.169,1.256l-12.12,3.282
	C182.91,256.752,181.971,257.623,181.568,258.77z"/>
<path fill="#006934" d="M282.893,310.058c0.615-0.598,0.832-1.479,0.567-2.293c-0.266-0.817-0.957-1.4-1.808-1.524l-7.557-1.098
	c-0.321-0.048-0.602-0.25-0.745-0.54l-3.378-6.85c-0.379-0.77-1.149-1.246-2.01-1.246c-0.855,0-1.626,0.477-2.004,1.246l-3.379,6.85
	c-0.145,0.29-0.423,0.492-0.745,0.54l-7.558,1.098c-0.848,0.124-1.542,0.707-1.807,1.524c-0.266,0.814-0.05,1.695,0.565,2.293
	l5.468,5.33c0.235,0.228,0.339,0.556,0.286,0.875l-1.291,7.525c-0.146,0.848,0.196,1.686,0.892,2.188
	c0.692,0.505,1.596,0.571,2.356,0.171l6.757-3.553c0.29-0.15,0.635-0.15,0.921,0l6.762,3.553c0.33,0.174,0.688,0.261,1.042,0.261
	c0.461,0,0.924-0.145,1.314-0.432c0.694-0.504,1.034-1.342,0.89-2.188l-1.29-7.525c-0.057-0.319,0.051-0.646,0.284-0.875
	L282.893,310.058z M275.91,316.475l1.292,7.526c0.063,0.378-0.083,0.739-0.396,0.966c-0.312,0.227-0.698,0.254-1.041,0.076
	l-6.761-3.557c-0.321-0.169-0.683-0.256-1.042-0.256c-0.355,0-0.715,0.087-1.04,0.258l-6.759,3.554
	c-0.341,0.179-0.729,0.15-1.042-0.075c-0.311-0.227-0.456-0.586-0.393-0.966l1.292-7.526c0.125-0.728-0.117-1.468-0.646-1.981
	l-5.468-5.329c-0.276-0.271-0.37-0.647-0.252-1.014c0.12-0.367,0.419-0.618,0.801-0.675l7.557-1.097
	c0.729-0.107,1.358-0.564,1.685-1.227l3.383-6.848c0.168-0.344,0.5-0.55,0.883-0.55c0.388,0,0.718,0.206,0.888,0.55l3.38,6.848
	c0.326,0.661,0.955,1.118,1.686,1.227l7.557,1.097c0.38,0.057,0.679,0.308,0.796,0.675c0.121,0.365,0.025,0.743-0.249,1.014
	l-5.469,5.329C276.026,315.007,275.785,315.746,275.91,316.475z"/>
<path fill="#22AC38" d="M240.202,340.244c0.615-0.598,0.832-1.478,0.567-2.293c-0.267-0.816-0.957-1.4-1.809-1.524l-7.557-1.098
	c-0.321-0.048-0.601-0.251-0.745-0.541l-3.379-6.85c-0.378-0.77-1.148-1.247-2.008-1.247c-0.856,0-1.626,0.479-2.005,1.247
	l-3.379,6.85c-0.146,0.29-0.425,0.493-0.745,0.541l-7.559,1.098c-0.848,0.124-1.542,0.708-1.807,1.524
	c-0.265,0.815-0.05,1.695,0.566,2.293l5.468,5.329c0.234,0.229,0.339,0.557,0.286,0.876l-1.291,7.526
	c-0.146,0.847,0.195,1.685,0.89,2.187c0.694,0.508,1.596,0.573,2.357,0.174l6.757-3.555c0.29-0.149,0.634-0.149,0.921,0l6.761,3.555
	c0.331,0.174,0.688,0.261,1.042,0.261c0.461,0,0.924-0.146,1.315-0.435c0.693-0.502,1.033-1.34,0.889-2.187l-1.29-7.526
	c-0.056-0.319,0.05-0.646,0.285-0.876L240.202,340.244z M233.218,346.661l1.293,7.525c0.062,0.379-0.083,0.741-0.396,0.967
	c-0.311,0.228-0.699,0.253-1.042,0.076l-6.76-3.556c-0.323-0.17-0.685-0.257-1.042-0.257c-0.356,0-0.715,0.087-1.04,0.259
	l-6.759,3.554c-0.342,0.177-0.73,0.15-1.042-0.076c-0.311-0.226-0.456-0.587-0.393-0.967l1.292-7.525
	c0.124-0.727-0.118-1.468-0.646-1.98l-5.47-5.33c-0.275-0.271-0.369-0.648-0.252-1.013c0.12-0.368,0.419-0.619,0.802-0.677
	l7.556-1.097c0.729-0.106,1.359-0.563,1.685-1.225l3.384-6.85c0.168-0.345,0.5-0.551,0.884-0.551c0.387,0,0.717,0.206,0.887,0.551
	l3.38,6.85c0.326,0.66,0.955,1.116,1.687,1.225l7.555,1.097c0.381,0.058,0.679,0.309,0.797,0.677
	c0.121,0.363,0.026,0.741-0.249,1.013l-5.468,5.33C233.335,345.194,233.094,345.935,233.218,346.661z"/>
<path fill="#00A0E9" d="M283.642,175.052c0.422-0.412,0.571-1.015,0.389-1.577c-0.182-0.562-0.657-0.962-1.241-1.048l-5.192-0.753
	c-0.222-0.032-0.412-0.171-0.512-0.372l-2.32-4.705c-0.263-0.528-0.791-0.857-1.38-0.857c-0.59,0-1.118,0.329-1.38,0.857
	l-2.321,4.705c-0.1,0.201-0.29,0.34-0.513,0.372l-5.192,0.754c-0.583,0.085-1.06,0.485-1.241,1.047
	c-0.183,0.562-0.034,1.165,0.389,1.577l3.759,3.662c0.159,0.157,0.233,0.382,0.194,0.602l-0.887,5.172
	c-0.1,0.582,0.135,1.157,0.612,1.504c0.477,0.348,1.097,0.393,1.621,0.117l4.644-2.441c0.198-0.104,0.434-0.104,0.632,0l4.646,2.441
	c0.228,0.119,0.472,0.18,0.716,0.18c0.317,0,0.634-0.101,0.904-0.297c0.476-0.347,0.711-0.923,0.61-1.504l-0.887-5.172
	c-0.038-0.22,0.035-0.443,0.196-0.602L283.642,175.052z M278.844,179.46l0.887,5.172c0.044,0.26-0.058,0.51-0.271,0.664
	c-0.214,0.155-0.48,0.175-0.714,0.053l-4.646-2.442c-0.225-0.116-0.471-0.178-0.717-0.178c-0.245,0-0.489,0.062-0.716,0.178
	l-4.644,2.442c-0.235,0.122-0.501,0.104-0.716-0.053c-0.214-0.154-0.314-0.403-0.271-0.664l0.887-5.172
	c0.084-0.497-0.08-1.007-0.441-1.361l-3.759-3.662c-0.189-0.186-0.253-0.444-0.172-0.697c0.083-0.251,0.286-0.423,0.549-0.462
	l5.191-0.754c0.501-0.072,0.936-0.388,1.159-0.842l2.322-4.706c0.117-0.235,0.345-0.378,0.608-0.378
	c0.267,0,0.492,0.142,0.609,0.378l2.322,4.706c0.224,0.454,0.657,0.771,1.158,0.842l5.191,0.754c0.263,0.039,0.467,0.21,0.549,0.462
	s0.019,0.512-0.171,0.697l-3.758,3.662C278.923,178.453,278.758,178.961,278.844,179.46z"/>
<path fill="#C30D23" d="M387.694,178.633c0.347-0.338,0.47-0.833,0.32-1.294c-0.149-0.46-0.54-0.789-1.02-0.859l-4.262-0.619
	c-0.183-0.026-0.339-0.141-0.42-0.306l-1.906-3.862c-0.214-0.434-0.648-0.703-1.132-0.703c-0.484,0-0.917,0.271-1.132,0.703
	l-1.906,3.862c-0.081,0.165-0.238,0.279-0.42,0.306l-4.263,0.619c-0.479,0.07-0.869,0.398-1.02,0.859
	c-0.148,0.461-0.027,0.957,0.319,1.294l3.084,3.006c0.131,0.128,0.191,0.313,0.16,0.494l-0.729,4.245
	c-0.082,0.478,0.111,0.95,0.502,1.233c0.393,0.285,0.901,0.322,1.33,0.097l3.812-2.004c0.163-0.085,0.355-0.085,0.519,0l3.812,2.004
	c0.186,0.098,0.387,0.146,0.588,0.146c0.261,0,0.521-0.082,0.742-0.243c0.391-0.284,0.584-0.757,0.502-1.233l-0.729-4.245
	c-0.031-0.181,0.029-0.365,0.161-0.494L387.694,178.633z M383.756,182.251l0.729,4.245c0.037,0.213-0.046,0.419-0.223,0.545
	c-0.176,0.127-0.395,0.144-0.587,0.043l-3.812-2.005c-0.184-0.096-0.386-0.146-0.587-0.146c-0.202,0-0.403,0.05-0.588,0.146
	l-3.812,2.005c-0.192,0.1-0.412,0.084-0.588-0.043c-0.176-0.126-0.258-0.331-0.222-0.545l0.729-4.245
	c0.069-0.408-0.065-0.827-0.362-1.117l-3.085-3.006c-0.156-0.152-0.208-0.365-0.142-0.571c0.067-0.207,0.236-0.348,0.45-0.379
	l4.262-0.62c0.412-0.059,0.768-0.317,0.951-0.69l1.906-3.863c0.096-0.194,0.283-0.312,0.5-0.312c0.218,0,0.404,0.116,0.5,0.312
	l1.906,3.863c0.185,0.373,0.539,0.632,0.95,0.69l4.263,0.62c0.216,0.031,0.384,0.172,0.451,0.379
	c0.066,0.206,0.014,0.419-0.142,0.571l-3.085,3.006C383.821,181.425,383.686,181.842,383.756,182.251z"/>
<path fill="#C30D23" d="M390.694,229.633c0.347-0.338,0.47-0.833,0.32-1.294c-0.149-0.46-0.54-0.789-1.02-0.859l-4.262-0.619
	c-0.183-0.026-0.339-0.141-0.42-0.306l-1.906-3.862c-0.214-0.434-0.648-0.703-1.132-0.703c-0.484,0-0.917,0.271-1.132,0.703
	l-1.906,3.862c-0.081,0.165-0.238,0.279-0.42,0.306l-4.263,0.619c-0.479,0.07-0.869,0.398-1.02,0.859
	c-0.148,0.461-0.027,0.957,0.319,1.294l3.084,3.006c0.131,0.128,0.191,0.313,0.16,0.494l-0.729,4.245
	c-0.082,0.478,0.111,0.95,0.502,1.233c0.393,0.285,0.901,0.322,1.33,0.097l3.812-2.004c0.163-0.085,0.355-0.085,0.519,0l3.812,2.004
	c0.186,0.098,0.387,0.146,0.588,0.146c0.261,0,0.521-0.082,0.742-0.243c0.391-0.284,0.584-0.757,0.502-1.233l-0.729-4.245
	c-0.031-0.181,0.029-0.365,0.161-0.494L390.694,229.633z M386.756,233.251l0.729,4.245c0.037,0.213-0.046,0.419-0.223,0.545
	c-0.176,0.127-0.395,0.144-0.587,0.043l-3.812-2.005c-0.184-0.096-0.386-0.146-0.587-0.146c-0.202,0-0.403,0.05-0.588,0.146
	l-3.812,2.005c-0.192,0.1-0.412,0.084-0.588-0.043c-0.176-0.126-0.258-0.331-0.222-0.545l0.729-4.245
	c0.069-0.408-0.065-0.827-0.362-1.117l-3.085-3.006c-0.156-0.152-0.208-0.365-0.142-0.571c0.067-0.207,0.236-0.348,0.45-0.379
	l4.262-0.62c0.412-0.059,0.768-0.317,0.951-0.69l1.906-3.863c0.096-0.194,0.283-0.312,0.5-0.312c0.218,0,0.404,0.116,0.5,0.312
	l1.906,3.863c0.185,0.373,0.539,0.632,0.95,0.69l4.263,0.62c0.216,0.031,0.384,0.172,0.451,0.379
	c0.066,0.206,0.014,0.419-0.142,0.571l-3.085,3.006C386.821,232.425,386.686,232.842,386.756,233.251z"/>
</svg>
