<?xml version="1.0" encoding="utf-8"?>
<!-- Generator: Adobe Illustrator 16.0.0, SVG Export Plug-In . SVG Version: 6.00 Build 0)  -->
<!DOCTYPE svg PUBLIC "-//W3C//DTD SVG 1.1//EN" "http://www.w3.org/Graphics/SVG/1.1/DTD/svg11.dtd">
<svg version="1.1" id="图层_1" xmlns="http://www.w3.org/2000/svg" xmlns:xlink="http://www.w3.org/1999/xlink" x="0px" y="0px"
	 width="841.89px" height="595.28px" viewBox="0 0 841.89 595.28" enable-background="new 0 0 841.89 595.28" xml:space="preserve">
<rect x="194.526" y="146.5" fill="#65B561" stroke="#CCCCCC" width="25" height="25"/>
<rect x="219.526" y="146.5" fill="#F9F7BE" stroke="#CCCCCC" width="25" height="25"/>
<rect x="244.526" y="146.5" fill="#F9F7BE" stroke="#CCCCCC" width="25" height="25"/>
<rect x="269.526" y="146.5" fill="#F9F7BE" stroke="#CCCCCC" width="25" height="25"/>
<rect x="294.526" y="146.5" fill="#FFFFFF" stroke="#CCCCCC" width="25" height="25"/>
<rect x="144.526" y="171.5" fill="#FFFFFF" stroke="#CCCCCC" width="25" height="25"/>
<rect x="169.526" y="171.5" fill="#F9F7BE" stroke="#CCCCCC" width="25" height="25"/>
<rect x="194.526" y="171.5" fill="#F9F7BE" stroke="#CCCCCC" width="25" height="25"/>
<rect x="219.526" y="171.5" fill="#F9F7BE" stroke="#CCCCCC" width="25" height="25"/>
<rect x="244.526" y="171.5" fill="#F9F7BE" stroke="#CCCCCC" width="25" height="25"/>
<rect x="269.526" y="171.5" fill="#F4A962" stroke="#CCCCCC" width="25" height="25"/>
<rect x="294.526" y="171.5" fill="#FFFFFF" stroke="#CCCCCC" width="25" height="25"/>
<rect x="144.526" y="196.5" fill="#FFFFFF" stroke="#CCCCCC" width="25" height="25"/>
<rect x="169.526" y="196.5" fill="#F9F7BE" stroke="#CCCCCC" width="25" height="25"/>
<rect x="194.526" y="196.5" fill="#D2E38B" stroke="#CCCCCC" width="25" height="25"/>
<rect x="219.526" y="196.5" fill="#A1CD6A" stroke="#CCCCCC" width="25" height="25"/>
<rect x="244.526" y="196.5" fill="#F9F7BE" stroke="#CCCCCC" width="25" height="25"/>
<rect x="269.526" y="196.5" fill="#A1CD6A" stroke="#CCCCCC" width="25" height="25"/>
<rect x="294.526" y="196.5" fill="#FFFFFF" stroke="#CCCCCC" width="25" height="25"/>
<rect x="144.526" y="221.5" fill="#FFFFFF" stroke="#CCCCCC" width="25" height="25"/>
<rect x="169.526" y="221.5" fill="#F9F7BE" stroke="#CCCCCC" width="25" height="25"/>
<rect x="194.526" y="221.5" fill="#F7DB8B" stroke="#CCCCCC" width="25" height="25"/>
<rect x="219.526" y="221.5" fill="#F9F7BE" stroke="#CCCCCC" width="25" height="25"/>
<rect x="244.526" y="221.5" fill="#D2E38B" stroke="#CCCCCC" width="25" height="25"/>
<rect x="269.526" y="221.5" fill="#F9F7BE" stroke="#CCCCCC" width="25" height="25"/>
<rect x="294.526" y="221.5" fill="#FFFFFF" stroke="#CCCCCC" width="25" height="25"/>
<rect x="144.526" y="246.5" fill="#FFFFFF" stroke="#CCCCCC" width="25" height="25"/>
<rect x="169.526" y="246.5" fill="#F9F7BE" stroke="#CCCCCC" width="25" height="25"/>
<rect x="194.526" y="246.5" fill="#F9F7BE" stroke="#CCCCCC" width="25" height="25"/>
<rect x="219.526" y="246.5" fill="#F9F7BE" stroke="#CCCCCC" width="25" height="25"/>
<text transform="matrix(1 0 0 1 144.5259 134)" fill="#040000" font-family="'ArialMT'" font-size="12">April</text>
<rect x="403.87" y="170.272" fill="#65B561" stroke="#CCCCCC" width="13.439" height="13.44"/>
<rect x="431.457" y="153.734" fill="#F9F7BE" stroke="#CCCCCC" width="13.439" height="13.439"/>
<rect x="413.348" y="213.412" fill="#F9F7BE" stroke="#CCCCCC" width="13.439" height="13.44"/>
<rect x="373.258" y="182.733" fill="#F9F7BE" stroke="#CCCCCC" width="13.439" height="13.439"/>
<rect x="459.748" y="164.055" fill="#F9F7BE" stroke="#CCCCCC" width="13.439" height="13.44"/>
<rect x="386.468" y="207.412" fill="#F9F7BE" stroke="#CCCCCC" width="13.44" height="13.44"/>
<rect x="393.188" y="230.91" fill="#F9F7BE" stroke="#CCCCCC" width="13.439" height="13.44"/>
<rect x="434.286" y="224.19" fill="#F9F7BE" stroke="#CCCCCC" width="13.44" height="13.44"/>
<rect x="453.027" y="140.796" fill="#F4A962" stroke="#CCCCCC" width="13.44" height="13.439"/>
<rect x="474.164" y="140.796" fill="#F9F7BE" stroke="#CCCCCC" width="13.439" height="13.439"/>
<rect x="507.764" y="164.74" fill="#D2E38B" stroke="#CCCCCC" width="13.439" height="13.44"/>
<rect x="425.616" y="200.412" fill="#A1CD6A" stroke="#CCCCCC" width="13.44" height="13.44"/>
<rect x="456.211" y="219.543" fill="#F9F7BE" stroke="#CCCCCC" width="13.44" height="13.439"/>
<rect x="542.34" y="175.732" fill="#A1CD6A" stroke="#CCCCCC" width="13.439" height="13.44"/>
<rect x="477.346" y="204.706" fill="#F9F7BE" stroke="#CCCCCC" width="13.44" height="13.439"/>
<rect x="444.896" y="173.654" fill="#F7DB8B" stroke="#CCCCCC" width="13.44" height="13.44"/>
<rect x="507.409" y="207.426" fill="#F9F7BE" stroke="#CCCCCC" width="13.44" height="13.44"/>
<rect x="532.082" y="214.146" fill="#D2E38B" stroke="#CCCCCC" width="13.439" height="13.44"/>
<rect x="408.043" y="150.112" fill="#F9F7BE" stroke="#CCCCCC" width="13.439" height="13.44"/>
<rect x="424.484" y="241.025" fill="#F9F7BE" stroke="#CCCCCC" width="13.439" height="13.44"/>
<rect x="477.346" y="234.306" fill="#F9F7BE" stroke="#CCCCCC" width="13.44" height="13.44"/>
<rect x="504.227" y="245.369" fill="#F9F7BE" stroke="#CCCCCC" width="13.439" height="13.44"/>
<line fill="none" stroke="#CCCCCC" x1="359.431" y1="276.049" x2="572.105" y2="276.049"/>
<line fill="none" stroke="#CCCCCC" stroke-width="0.7758" x1="359.818" y1="276.049" x2="359.818" y2="129.049"/>
<text transform="matrix(1 0 0 1 538.8008 271.5)" fill="#898989" font-family="'ArialMT'" font-size="12">Cost</text>
<text transform="matrix(4.489659e-11 -1 1 4.489659e-11 353.0986 176.3838)" fill="#898989" font-family="'ArialMT'" font-size="12">Income</text>
</svg>
