<?xml version="1.0" encoding="utf-8"?>
<!-- Generator: Adobe Illustrator 16.0.0, SVG Export Plug-In . SVG Version: 6.00 Build 0)  -->
<!DOCTYPE svg PUBLIC "-//W3C//DTD SVG 1.1//EN" "http://www.w3.org/Graphics/SVG/1.1/DTD/svg11.dtd">
<svg version="1.1" id="图层_1" xmlns="http://www.w3.org/2000/svg" xmlns:xlink="http://www.w3.org/1999/xlink" x="0px" y="0px"
	 width="841.89px" height="595.28px" viewBox="0 0 841.89 595.28" enable-background="new 0 0 841.89 595.28" xml:space="preserve">
<g>
	<path fill="#CD311F" stroke="#9FA0A0" stroke-miterlimit="10" d="M427.09,150.931V97.158c-18.659,0.266-36.729,2.963-53.899,7.814
		l13.923,51.962C399.844,153.271,413.245,151.196,427.09,150.931z"/>
	<path fill="#12934B" stroke="#9FA0A0" stroke-miterlimit="10" d="M387.114,156.934l-13.923-51.962
		c-17.68,4.995-34.402,12.266-49.845,21.462l26.89,46.575C361.655,166.141,374.029,160.7,387.114,156.934z"/>
	<path fill="#12934B" stroke="#9FA0A0" stroke-miterlimit="10" d="M294.922,229.819l-46.578-26.892
		c-8.812,15.49-15.7,32.215-20.343,49.853l51.95,13.92C283.365,253.657,288.436,241.286,294.922,229.819z"/>
	<path fill="#12934B" stroke="#9FA0A0" stroke-miterlimit="10" d="M350.235,173.009l-26.89-46.575
		c-15.597,9.289-29.879,20.548-42.509,33.438l38.023,38.023C328.178,188.317,338.718,179.936,350.235,173.009z"/>
	<path fill="#CD311F" stroke="#9FA0A0" stroke-miterlimit="10" d="M430.126,150.892c12.876,0,25.381,1.578,37.344,4.533
		l13.924-51.962c-16.405-4.137-33.577-6.344-51.267-6.344c-1.016,0-2.025,0.024-3.037,0.039v53.773
		C428.101,150.911,429.111,150.892,430.126,150.892z"/>
	<path fill="#12934B" stroke="#9FA0A0" stroke-miterlimit="10" d="M318.859,197.896l-38.023-38.023
		c-12.589,12.849-23.535,27.311-32.493,43.055l46.578,26.892C301.519,218.155,309.581,207.432,318.859,197.896z"/>
	<path fill="#CD311F" stroke="#9FA0A0" stroke-miterlimit="10" d="M585.359,306.126h53.773c0-18.987-2.547-37.377-7.292-54.863
		l-51.95,13.92C583.449,278.228,585.359,291.953,585.359,306.126z"/>
	<path fill="#CD311F" stroke="#9FA0A0" stroke-miterlimit="10" d="M579.891,265.183l51.95-13.92
		c-4.905-18.079-12.174-35.182-21.457-50.961l-46.575,26.89C570.765,238.948,576.213,251.699,579.891,265.183z"/>
	<path fill="#CD311F" stroke="#9FA0A0" stroke-miterlimit="10" d="M585.359,306.127c0,14.173-1.91,27.897-5.468,40.942l51.95,13.92
		c4.744-17.485,7.291-35.875,7.291-54.862v-0.001L585.359,306.127L585.359,306.127z"/>
	<path fill="#CD311F" stroke="#9FA0A0" stroke-miterlimit="10" d="M505.463,170.379l26.893-46.578
		c-15.828-8.894-32.927-15.789-50.962-20.337l-13.924,51.962C480.91,158.745,493.658,163.813,505.463,170.379z"/>
	<path fill="#CD311F" stroke="#9FA0A0" stroke-miterlimit="10" d="M538.356,194.859l38.023-38.023
		c-13.111-12.847-27.905-23.978-44.024-33.035l-26.893,46.578C517.502,177.075,528.557,185.325,538.356,194.859z"/>
	<path fill="#CD311F" stroke="#9FA0A0" stroke-miterlimit="10" d="M563.809,227.192l46.575-26.89
		c-9.396-15.97-20.851-30.579-34.004-43.466l-38.023,38.023C548.198,204.435,556.772,215.303,563.809,227.192z"/>
	<path fill="#12934B" stroke="#9FA0A0" stroke-miterlimit="10" d="M279.951,266.7l-51.95-13.92
		c-4.483,17.031-6.881,34.907-6.881,53.346h53.773C274.893,292.502,276.654,279.291,279.951,266.7z"/>
	<path fill="#D0E286" stroke="#9FA0A0" stroke-miterlimit="10" d="M538.356,417.394l38.023,38.023
		c13.153-12.888,24.608-27.497,34.004-43.467l-46.575-26.89C556.772,396.949,548.198,407.818,538.356,417.394z"/>
	<path fill="#D0E286" stroke="#9FA0A0" stroke-miterlimit="10" d="M505.463,441.873l26.893,46.578
		c16.119-9.057,30.913-20.188,44.024-33.034l-38.023-38.023C528.556,426.928,517.502,435.177,505.463,441.873z"/>
	<path fill="#12934B" stroke="#9FA0A0" stroke-miterlimit="10" d="M274.893,306.127L274.893,306.127l-53.773-0.001v0.001
		c0,18.438,2.398,36.314,6.881,53.345l51.95-13.92C276.654,332.962,274.893,319.751,274.893,306.127z"/>
	<path fill="#CD311F" stroke="#9FA0A0" stroke-miterlimit="10" d="M579.892,347.069c-3.678,13.483-9.127,26.235-16.083,37.991
		l46.575,26.89c9.284-15.779,16.552-32.882,21.458-50.961L579.892,347.069z"/>
	<path fill="#D0E286" stroke="#9FA0A0" stroke-miterlimit="10" d="M430.126,461.359c-1.015,0-2.025-0.02-3.036-0.038v53.773
		c1.012,0.014,2.021,0.038,3.037,0.038c17.689,0,34.861-2.207,51.267-6.344l-13.924-51.963
		C455.507,459.781,443.002,461.359,430.126,461.359z"/>
	<path fill="#D0E286" stroke="#9FA0A0" stroke-miterlimit="10" d="M467.47,456.826l13.924,51.963
		c18.035-4.549,35.134-11.444,50.962-20.338l-26.893-46.578C493.658,448.438,480.91,453.507,467.47,456.826z"/>
	<path fill="#12934B" stroke="#9FA0A0" stroke-miterlimit="10" d="M279.95,345.552L228,359.472
		c4.643,17.638,11.53,34.363,20.343,49.854l46.578-26.892C288.436,370.967,283.365,358.596,279.95,345.552z"/>
	<path fill="#D0E286" stroke="#9FA0A0" stroke-miterlimit="10" d="M318.86,414.357l-38.023,38.023
		c12.629,12.889,26.912,24.148,42.508,33.438l26.89-46.576C338.718,432.316,328.178,423.935,318.86,414.357z"/>
	<path fill="#D0E286" stroke="#9FA0A0" stroke-miterlimit="10" d="M294.921,382.434l-46.578,26.892
		c8.958,15.744,19.904,30.206,32.494,43.056l38.023-38.023C309.582,404.82,301.519,394.098,294.921,382.434z"/>
	<path fill="#D0E286" stroke="#9FA0A0" stroke-miterlimit="10" d="M387.114,455.317L373.19,507.28
		c17.17,4.851,35.24,7.548,53.899,7.814v-53.773C413.245,461.055,399.844,458.98,387.114,455.317z"/>
	<path fill="#D0E286" stroke="#9FA0A0" stroke-miterlimit="10" d="M350.235,439.242l-26.89,46.576
		c15.443,9.196,32.165,16.468,49.845,21.462l13.924-51.963C374.029,451.552,361.655,446.111,350.235,439.242z"/>
</g>
</svg>
