<?xml version="1.0" encoding="utf-8"?>
<!-- Generator: Adobe Illustrator 16.0.0, SVG Export Plug-In . SVG Version: 6.00 Build 0)  -->
<!DOCTYPE svg PUBLIC "-//W3C//DTD SVG 1.1//EN" "http://www.w3.org/Graphics/SVG/1.1/DTD/svg11.dtd">
<svg version="1.1" id="图层_1" xmlns="http://www.w3.org/2000/svg" xmlns:xlink="http://www.w3.org/1999/xlink" x="0px" y="0px"
	 width="702.66px" height="878.282px" viewBox="0 0 702.66 878.282" enable-background="new 0 0 702.66 878.282"
	 xml:space="preserve">
<g>
	<g>
		<g>
			<path fill="#22517A" d="M199.089,84.169c1.704,0,3.083-1.381,3.083-3.081c0-1.702-1.378-3.081-3.083-3.081
				c-1.699,0-3.077,1.379-3.077,3.081C196.013,82.788,197.391,84.169,199.089,84.169z M206.128,88.122
				c0-1.551-1.258-2.808-2.808-2.808h-8.655c-1.55,0-2.807,1.257-2.807,2.808l0.007,11.336c0,0.68,0.55,1.23,1.226,1.23
				s1.226-0.55,1.226-1.23V89.101h0.518v27.708c0,1.016,0.822,1.838,1.842,1.838c1.01,0,1.833-0.823,1.833-1.838v-15.174h1.004
				v15.17c0,1.018,0.821,1.842,1.84,1.842c1.009,0,1.833-0.825,1.833-1.842V89.101h0.492v10.316c0,0.68,0.553,1.232,1.229,1.232
				c0.68,0,1.228-0.552,1.228-1.232L206.128,88.122z"/>
		</g>
		<g>
			<path fill="#22517A" d="M222.487,84.169c1.704,0,3.083-1.381,3.083-3.081c0-1.702-1.378-3.081-3.083-3.081
				c-1.7,0-3.077,1.379-3.077,3.081C219.411,82.788,220.788,84.169,222.487,84.169z M229.526,88.122
				c0-1.551-1.257-2.808-2.808-2.808h-8.654c-1.55,0-2.808,1.257-2.808,2.808l0.008,11.336c0,0.68,0.55,1.23,1.226,1.23
				s1.225-0.55,1.225-1.23V89.101h0.518v27.708c0,1.016,0.822,1.838,1.843,1.838c1.009,0,1.833-0.823,1.833-1.838v-15.174h1.004
				v15.17c0,1.018,0.822,1.842,1.839,1.842c1.011,0,1.834-0.825,1.834-1.842V89.101h0.492v10.316c0,0.68,0.553,1.232,1.228,1.232
				c0.681,0,1.229-0.552,1.229-1.232L229.526,88.122z"/>
		</g>
		<g>
			<path fill="#22517A" d="M245.885,84.169c1.704,0,3.083-1.381,3.083-3.081c0-1.702-1.379-3.081-3.083-3.081
				c-1.7,0-3.077,1.379-3.077,3.081C242.808,82.788,244.186,84.169,245.885,84.169z M252.924,88.122
				c0-1.551-1.258-2.808-2.808-2.808h-8.654c-1.55,0-2.808,1.257-2.808,2.808l0.009,11.336c0,0.68,0.55,1.23,1.226,1.23
				c0.675,0,1.224-0.55,1.224-1.23V89.101h0.519v27.708c0,1.016,0.821,1.838,1.841,1.838c1.01,0,1.834-0.823,1.834-1.838v-15.174
				h1.003v15.17c0,1.018,0.823,1.842,1.841,1.842c1.01,0,1.834-0.825,1.834-1.842V89.101h0.491v10.316
				c0,0.68,0.553,1.232,1.229,1.232c0.681,0,1.229-0.552,1.229-1.232L252.924,88.122z"/>
		</g>
		<g>
			<path fill="#22517A" d="M269.282,84.169c1.704,0,3.084-1.381,3.084-3.081c0-1.702-1.38-3.081-3.084-3.081
				c-1.699,0-3.076,1.379-3.076,3.081C266.206,82.788,267.583,84.169,269.282,84.169z M276.322,88.122
				c0-1.551-1.258-2.808-2.808-2.808h-8.654c-1.55,0-2.808,1.257-2.808,2.808l0.008,11.336c0,0.68,0.549,1.23,1.224,1.23
				c0.676,0,1.226-0.55,1.226-1.23V89.101h0.519v27.708c0,1.016,0.821,1.838,1.841,1.838c1.01,0,1.834-0.823,1.834-1.838v-15.174
				h1.003v15.17c0,1.018,0.821,1.842,1.84,1.842c1.01,0,1.833-0.825,1.833-1.842V89.101h0.492v10.316
				c0,0.68,0.553,1.232,1.229,1.232c0.681,0,1.229-0.552,1.229-1.232L276.322,88.122z"/>
		</g>
		<g>
			<path fill="#22517A" d="M292.681,84.169c1.704,0,3.083-1.381,3.083-3.081c0-1.702-1.38-3.081-3.083-3.081
				c-1.699,0-3.077,1.379-3.077,3.081C289.604,82.788,290.982,84.169,292.681,84.169z M299.72,88.122
				c0-1.551-1.258-2.808-2.808-2.808h-8.654c-1.549,0-2.808,1.257-2.808,2.808l0.008,11.336c0,0.68,0.549,1.23,1.225,1.23
				s1.226-0.55,1.226-1.23V89.101h0.518v27.708c0,1.016,0.822,1.838,1.841,1.838c1.011,0,1.833-0.823,1.833-1.838v-15.174h1.004
				v15.17c0,1.018,0.822,1.842,1.84,1.842c1.01,0,1.833-0.825,1.833-1.842V89.101h0.492v10.316c0,0.68,0.553,1.232,1.229,1.232
				c0.681,0,1.229-0.552,1.229-1.232L299.72,88.122z"/>
		</g>
		<g>
			<path fill="#22517A" d="M316.079,84.169c1.704,0,3.084-1.381,3.084-3.081c0-1.702-1.38-3.081-3.084-3.081
				c-1.699,0-3.076,1.379-3.076,3.081C313.002,82.788,314.38,84.169,316.079,84.169z M323.118,88.122
				c0-1.551-1.257-2.808-2.808-2.808h-8.655c-1.55,0-2.807,1.257-2.807,2.808l0.007,11.336c0,0.68,0.55,1.23,1.226,1.23
				s1.226-0.55,1.226-1.23V89.101h0.517v27.708c0,1.016,0.823,1.838,1.843,1.838c1.01,0,1.833-0.823,1.833-1.838v-15.174h1.004
				v15.17c0,1.018,0.822,1.842,1.84,1.842c1.009,0,1.834-0.825,1.834-1.842V89.101h0.491v10.316c0,0.68,0.554,1.232,1.23,1.232
				c0.68,0,1.226-0.552,1.226-1.232L323.118,88.122z"/>
		</g>
		<g>
			<path fill="#22517A" d="M339.476,84.169c1.704,0,3.085-1.381,3.085-3.081c0-1.702-1.381-3.081-3.085-3.081
				c-1.7,0-3.076,1.379-3.076,3.081C336.399,82.788,337.776,84.169,339.476,84.169z M346.516,88.122
				c0-1.551-1.259-2.808-2.808-2.808h-8.656c-1.549,0-2.808,1.257-2.808,2.808l0.008,11.336c0,0.68,0.55,1.23,1.226,1.23
				s1.226-0.55,1.226-1.23V89.101h0.519v27.708c0,1.016,0.82,1.838,1.842,1.838c1.009,0,1.832-0.823,1.832-1.838v-15.174h1.005
				v15.17c0,1.018,0.82,1.842,1.84,1.842c1.01,0,1.832-0.825,1.832-1.842V89.101h0.493v10.316c0,0.68,0.552,1.232,1.228,1.232
				c0.682,0,1.23-0.552,1.23-1.232L346.516,88.122z"/>
		</g>
		<g>
			<path fill="#22517A" d="M362.874,84.169c1.704,0,3.085-1.381,3.085-3.081c0-1.702-1.381-3.081-3.085-3.081
				c-1.697,0-3.076,1.379-3.076,3.081C359.797,82.788,361.176,84.169,362.874,84.169z M369.914,88.122
				c0-1.551-1.259-2.808-2.808-2.808h-8.654c-1.551,0-2.808,1.257-2.808,2.808l0.006,11.336c0,0.68,0.55,1.23,1.226,1.23
				s1.226-0.55,1.226-1.23V89.101h0.518v27.708c0,1.016,0.823,1.838,1.842,1.838c1.01,0,1.832-0.823,1.832-1.838v-15.174h1.005
				v15.17c0,1.018,0.82,1.842,1.84,1.842c1.009,0,1.832-0.825,1.832-1.842V89.101h0.493v10.316c0,0.68,0.552,1.232,1.228,1.232
				c0.68,0,1.228-0.552,1.228-1.232L369.914,88.122z"/>
		</g>
		<g>
			<path fill="#CACACA" d="M386.272,84.169c1.704,0,3.083-1.381,3.083-3.081c0-1.702-1.379-3.081-3.083-3.081
				c-1.7,0-3.077,1.379-3.077,3.081C383.195,82.788,384.572,84.169,386.272,84.169z M393.31,88.122c0-1.551-1.257-2.808-2.808-2.808
				h-8.654c-1.549,0-2.808,1.257-2.808,2.808l0.008,11.336c0,0.68,0.55,1.23,1.226,1.23s1.226-0.55,1.226-1.23V89.101h0.518v27.708
				c0,1.016,0.82,1.838,1.843,1.838c1.009,0,1.832-0.823,1.832-1.838v-15.174h1.005v15.17c0,1.018,0.82,1.842,1.838,1.842
				c1.011,0,1.834-0.825,1.834-1.842V89.101h0.493v10.316c0,0.68,0.552,1.232,1.228,1.232c0.68,0,1.228-0.552,1.228-1.232
				L393.31,88.122z"/>
		</g>
		<g>
			<path fill="#CACACA" d="M409.67,84.169c1.704,0,3.083-1.381,3.083-3.081c0-1.702-1.379-3.081-3.083-3.081
				c-1.7,0-3.077,1.379-3.077,3.081C406.593,82.788,407.97,84.169,409.67,84.169z M416.708,88.122c0-1.551-1.257-2.808-2.808-2.808
				h-8.654c-1.549,0-2.808,1.257-2.808,2.808l0.008,11.336c0,0.68,0.55,1.23,1.226,1.23s1.226-0.55,1.226-1.23V89.101h0.519v27.708
				c0,1.016,0.82,1.838,1.84,1.838c1.012,0,1.834-0.823,1.834-1.838v-15.174h1.003v15.17c0,1.018,0.823,1.842,1.84,1.842
				c1.012,0,1.834-0.825,1.834-1.842V89.101h0.493v10.316c0,0.68,0.552,1.232,1.228,1.232c0.68,0,1.228-0.552,1.228-1.232
				L416.708,88.122z"/>
		</g>
		<g>
			<path fill="#42BAB9" d="M199.089,129.933c1.704,0,3.083-1.381,3.083-3.083c0-1.701-1.378-3.078-3.083-3.078
				c-1.699,0-3.077,1.377-3.077,3.078C196.013,128.552,197.391,129.933,199.089,129.933z M206.128,133.884
				c0-1.551-1.258-2.808-2.808-2.808h-8.655c-1.55,0-2.807,1.257-2.807,2.808l0.007,11.338c0,0.678,0.55,1.228,1.226,1.228
				s1.226-0.55,1.226-1.228v-10.36h0.518v27.71c0,1.016,0.822,1.838,1.842,1.838c1.01,0,1.833-0.823,1.833-1.838v-15.176h1.004
				v15.172c0,1.016,0.821,1.842,1.84,1.842c1.009,0,1.833-0.827,1.833-1.842v-27.706h0.492v10.318c0,0.678,0.553,1.23,1.229,1.23
				c0.68,0,1.228-0.552,1.228-1.23L206.128,133.884z"/>
		</g>
		<g>
			<path fill="#42BAB9" d="M222.487,129.933c1.704,0,3.083-1.381,3.083-3.083c0-1.701-1.378-3.078-3.083-3.078
				c-1.7,0-3.077,1.377-3.077,3.078C219.411,128.552,220.788,129.933,222.487,129.933z M229.526,133.884
				c0-1.551-1.257-2.808-2.808-2.808h-8.654c-1.55,0-2.808,1.257-2.808,2.808l0.008,11.338c0,0.678,0.55,1.228,1.226,1.228
				s1.225-0.55,1.225-1.228v-10.36h0.518v27.71c0,1.016,0.822,1.838,1.843,1.838c1.009,0,1.833-0.823,1.833-1.838v-15.176h1.004
				v15.172c0,1.016,0.822,1.842,1.839,1.842c1.011,0,1.834-0.827,1.834-1.842v-27.706h0.492v10.318c0,0.678,0.553,1.23,1.228,1.23
				c0.681,0,1.229-0.552,1.229-1.23L229.526,133.884z"/>
		</g>
		<g>
			<path fill="#42BAB9" d="M245.885,129.933c1.704,0,3.083-1.381,3.083-3.083c0-1.701-1.379-3.078-3.083-3.078
				c-1.7,0-3.077,1.377-3.077,3.078C242.808,128.552,244.186,129.933,245.885,129.933z M252.924,133.884
				c0-1.551-1.258-2.808-2.808-2.808h-8.654c-1.55,0-2.808,1.257-2.808,2.808l0.009,11.338c0,0.678,0.55,1.228,1.226,1.228
				c0.675,0,1.224-0.55,1.224-1.228v-10.36h0.519v27.71c0,1.016,0.821,1.838,1.841,1.838c1.01,0,1.834-0.823,1.834-1.838v-15.176
				h1.003v15.172c0,1.016,0.823,1.842,1.841,1.842c1.01,0,1.834-0.827,1.834-1.842v-27.706h0.491v10.318
				c0,0.678,0.553,1.23,1.229,1.23c0.681,0,1.229-0.552,1.229-1.23L252.924,133.884z"/>
		</g>
		<g>
			<path fill="#CACACA" d="M269.282,129.933c1.704,0,3.084-1.381,3.084-3.083c0-1.701-1.38-3.078-3.084-3.078
				c-1.699,0-3.076,1.377-3.076,3.078C266.206,128.552,267.583,129.933,269.282,129.933z M276.322,133.884
				c0-1.551-1.258-2.808-2.808-2.808h-8.654c-1.55,0-2.808,1.257-2.808,2.808l0.008,11.338c0,0.678,0.549,1.228,1.224,1.228
				c0.676,0,1.226-0.55,1.226-1.228v-10.36h0.519v27.71c0,1.016,0.821,1.838,1.841,1.838c1.01,0,1.834-0.823,1.834-1.838v-15.176
				h1.003v15.172c0,1.016,0.821,1.842,1.84,1.842c1.01,0,1.833-0.827,1.833-1.842v-27.706h0.492v10.318
				c0,0.678,0.553,1.23,1.229,1.23c0.681,0,1.229-0.552,1.229-1.23L276.322,133.884z"/>
		</g>
		<g>
			<path fill="#CACACA" d="M292.681,129.933c1.704,0,3.083-1.381,3.083-3.083c0-1.701-1.38-3.078-3.083-3.078
				c-1.699,0-3.077,1.377-3.077,3.078C289.604,128.552,290.982,129.933,292.681,129.933z M299.72,133.884
				c0-1.551-1.258-2.808-2.808-2.808h-8.654c-1.549,0-2.808,1.257-2.808,2.808l0.008,11.338c0,0.678,0.549,1.228,1.225,1.228
				s1.226-0.55,1.226-1.228v-10.36h0.518v27.71c0,1.016,0.822,1.838,1.841,1.838c1.011,0,1.833-0.823,1.833-1.838v-15.176h1.004
				v15.172c0,1.016,0.822,1.842,1.84,1.842c1.01,0,1.833-0.827,1.833-1.842v-27.706h0.492v10.318c0,0.678,0.553,1.23,1.229,1.23
				c0.681,0,1.229-0.552,1.229-1.23L299.72,133.884z"/>
		</g>
		<g>
			<path fill="#CACACA" d="M316.079,129.933c1.704,0,3.084-1.381,3.084-3.083c0-1.701-1.38-3.078-3.084-3.078
				c-1.699,0-3.076,1.377-3.076,3.078C313.002,128.552,314.38,129.933,316.079,129.933z M323.118,133.884
				c0-1.551-1.257-2.808-2.808-2.808h-8.655c-1.55,0-2.807,1.257-2.807,2.808l0.007,11.338c0,0.678,0.55,1.228,1.226,1.228
				s1.226-0.55,1.226-1.228v-10.36h0.517v27.71c0,1.016,0.823,1.838,1.843,1.838c1.01,0,1.833-0.823,1.833-1.838v-15.176h1.004
				v15.172c0,1.016,0.822,1.842,1.84,1.842c1.009,0,1.834-0.827,1.834-1.842v-27.706h0.491v10.318c0,0.678,0.554,1.23,1.23,1.23
				c0.68,0,1.226-0.552,1.226-1.23L323.118,133.884z"/>
		</g>
		<g>
			<path fill="#CACACA" d="M339.476,129.933c1.704,0,3.085-1.381,3.085-3.083c0-1.701-1.381-3.078-3.085-3.078
				c-1.7,0-3.076,1.377-3.076,3.078C336.399,128.552,337.776,129.933,339.476,129.933z M346.516,133.884
				c0-1.551-1.259-2.808-2.808-2.808h-8.656c-1.549,0-2.808,1.257-2.808,2.808l0.008,11.338c0,0.678,0.55,1.228,1.226,1.228
				s1.226-0.55,1.226-1.228v-10.36h0.519v27.71c0,1.016,0.82,1.838,1.842,1.838c1.009,0,1.832-0.823,1.832-1.838v-15.176h1.005
				v15.172c0,1.016,0.82,1.842,1.84,1.842c1.01,0,1.832-0.827,1.832-1.842v-27.706h0.493v10.318c0,0.678,0.552,1.23,1.228,1.23
				c0.682,0,1.23-0.552,1.23-1.23L346.516,133.884z"/>
		</g>
		<g>
			<path fill="#CACACA" d="M362.874,129.933c1.704,0,3.085-1.381,3.085-3.083c0-1.701-1.381-3.078-3.085-3.078
				c-1.697,0-3.076,1.377-3.076,3.078C359.797,128.552,361.176,129.933,362.874,129.933z M369.914,133.884
				c0-1.551-1.259-2.808-2.808-2.808h-8.654c-1.551,0-2.808,1.257-2.808,2.808l0.006,11.338c0,0.678,0.55,1.228,1.226,1.228
				s1.226-0.55,1.226-1.228v-10.36h0.518v27.71c0,1.016,0.823,1.838,1.842,1.838c1.01,0,1.832-0.823,1.832-1.838v-15.176h1.005
				v15.172c0,1.016,0.82,1.842,1.84,1.842c1.009,0,1.832-0.827,1.832-1.842v-27.706h0.493v10.318c0,0.678,0.552,1.23,1.228,1.23
				c0.68,0,1.228-0.552,1.228-1.23L369.914,133.884z"/>
		</g>
		<g>
			<path fill="#CACACA" d="M386.272,129.933c1.704,0,3.083-1.381,3.083-3.083c0-1.701-1.379-3.078-3.083-3.078
				c-1.7,0-3.077,1.377-3.077,3.078C383.195,128.552,384.572,129.933,386.272,129.933z M393.31,133.884
				c0-1.551-1.257-2.808-2.808-2.808h-8.654c-1.549,0-2.808,1.257-2.808,2.808l0.008,11.338c0,0.678,0.55,1.228,1.226,1.228
				s1.226-0.55,1.226-1.228v-10.36h0.518v27.71c0,1.016,0.82,1.838,1.843,1.838c1.009,0,1.832-0.823,1.832-1.838v-15.176h1.005
				v15.172c0,1.016,0.82,1.842,1.838,1.842c1.011,0,1.834-0.827,1.834-1.842v-27.706h0.493v10.318c0,0.678,0.552,1.23,1.228,1.23
				c0.68,0,1.228-0.552,1.228-1.23L393.31,133.884z"/>
		</g>
		<g>
			<path fill="#CACACA" d="M409.67,129.933c1.704,0,3.083-1.381,3.083-3.083c0-1.701-1.379-3.078-3.083-3.078
				c-1.7,0-3.077,1.377-3.077,3.078C406.593,128.552,407.97,129.933,409.67,129.933z M416.708,133.884
				c0-1.551-1.257-2.808-2.808-2.808h-8.654c-1.549,0-2.808,1.257-2.808,2.808l0.008,11.338c0,0.678,0.55,1.228,1.226,1.228
				s1.226-0.55,1.226-1.228v-10.36h0.519v27.71c0,1.016,0.82,1.838,1.84,1.838c1.012,0,1.834-0.823,1.834-1.838v-15.176h1.003
				v15.172c0,1.016,0.823,1.842,1.84,1.842c1.012,0,1.834-0.827,1.834-1.842v-27.706h0.493v10.318c0,0.678,0.552,1.23,1.228,1.23
				c0.68,0,1.228-0.552,1.228-1.23L416.708,133.884z"/>
		</g>
		<g>
			<path fill="#B1D471" d="M199.089,175.694c1.704,0,3.083-1.381,3.083-3.083c0-1.699-1.378-3.076-3.083-3.076
				c-1.699,0-3.077,1.377-3.077,3.076C196.013,174.313,197.391,175.694,199.089,175.694z M206.128,179.646
				c0-1.549-1.258-2.808-2.808-2.808h-8.655c-1.55,0-2.807,1.259-2.807,2.808l0.007,11.338c0,0.678,0.55,1.228,1.226,1.228
				s1.226-0.55,1.226-1.228v-10.36h0.518v27.712c0,1.014,0.822,1.838,1.842,1.838c1.01,0,1.833-0.825,1.833-1.838V193.16h1.004
				v15.17c0,1.018,0.821,1.844,1.84,1.844c1.009,0,1.833-0.827,1.833-1.844v-27.707h0.492v10.32c0,0.676,0.553,1.23,1.229,1.23
				c0.68,0,1.228-0.554,1.228-1.23L206.128,179.646z"/>
		</g>
		<g>
			<path fill="#B1D471" d="M222.487,175.694c1.704,0,3.083-1.381,3.083-3.083c0-1.699-1.378-3.076-3.083-3.076
				c-1.7,0-3.077,1.377-3.077,3.076C219.411,174.313,220.788,175.694,222.487,175.694z M229.526,179.646
				c0-1.549-1.257-2.808-2.808-2.808h-8.654c-1.55,0-2.808,1.259-2.808,2.808l0.008,11.338c0,0.678,0.55,1.228,1.226,1.228
				s1.225-0.55,1.225-1.228v-10.36h0.518v27.712c0,1.014,0.822,1.838,1.843,1.838c1.009,0,1.833-0.825,1.833-1.838V193.16h1.004
				v15.17c0,1.018,0.822,1.844,1.839,1.844c1.011,0,1.834-0.827,1.834-1.844v-27.707h0.492v10.32c0,0.676,0.553,1.23,1.228,1.23
				c0.681,0,1.229-0.554,1.229-1.23L229.526,179.646z"/>
		</g>
		<g>
			<path fill="#B1D471" d="M245.885,175.694c1.704,0,3.083-1.381,3.083-3.083c0-1.699-1.379-3.076-3.083-3.076
				c-1.7,0-3.077,1.377-3.077,3.076C242.808,174.313,244.186,175.694,245.885,175.694z M252.924,179.646
				c0-1.549-1.258-2.808-2.808-2.808h-8.654c-1.55,0-2.808,1.259-2.808,2.808l0.009,11.338c0,0.678,0.55,1.228,1.226,1.228
				c0.675,0,1.224-0.55,1.224-1.228v-10.36h0.519v27.712c0,1.014,0.821,1.838,1.841,1.838c1.01,0,1.834-0.825,1.834-1.838V193.16
				h1.003v15.17c0,1.018,0.823,1.844,1.841,1.844c1.01,0,1.834-0.827,1.834-1.844v-27.707h0.491v10.32
				c0,0.676,0.553,1.23,1.229,1.23c0.681,0,1.229-0.554,1.229-1.23L252.924,179.646z"/>
		</g>
		<g>
			<path fill="#B1D471" d="M269.282,175.694c1.704,0,3.084-1.381,3.084-3.083c0-1.699-1.38-3.076-3.084-3.076
				c-1.699,0-3.076,1.377-3.076,3.076C266.206,174.313,267.583,175.694,269.282,175.694z M276.322,179.646
				c0-1.549-1.258-2.808-2.808-2.808h-8.654c-1.55,0-2.808,1.259-2.808,2.808l0.008,11.338c0,0.678,0.549,1.228,1.224,1.228
				c0.676,0,1.226-0.55,1.226-1.228v-10.36h0.519v27.712c0,1.014,0.821,1.838,1.841,1.838c1.01,0,1.834-0.825,1.834-1.838V193.16
				h1.003v15.17c0,1.018,0.821,1.844,1.84,1.844c1.01,0,1.833-0.827,1.833-1.844v-27.707h0.492v10.32c0,0.676,0.553,1.23,1.229,1.23
				c0.681,0,1.229-0.554,1.229-1.23L276.322,179.646z"/>
		</g>
		<g>
			<path fill="#B1D471" d="M292.681,175.694c1.704,0,3.083-1.381,3.083-3.083c0-1.699-1.38-3.076-3.083-3.076
				c-1.699,0-3.077,1.377-3.077,3.076C289.604,174.313,290.982,175.694,292.681,175.694z M299.72,179.646
				c0-1.549-1.258-2.808-2.808-2.808h-8.654c-1.549,0-2.808,1.259-2.808,2.808l0.008,11.338c0,0.678,0.549,1.228,1.225,1.228
				s1.226-0.55,1.226-1.228v-10.36h0.518v27.712c0,1.014,0.822,1.838,1.841,1.838c1.011,0,1.833-0.825,1.833-1.838V193.16h1.004
				v15.17c0,1.018,0.822,1.844,1.84,1.844c1.01,0,1.833-0.827,1.833-1.844v-27.707h0.492v10.32c0,0.676,0.553,1.23,1.229,1.23
				c0.681,0,1.229-0.554,1.229-1.23L299.72,179.646z"/>
		</g>
		<g>
			<path fill="#CACACA" d="M316.079,175.694c1.704,0,3.084-1.381,3.084-3.083c0-1.699-1.38-3.076-3.084-3.076
				c-1.699,0-3.076,1.377-3.076,3.076C313.002,174.313,314.38,175.694,316.079,175.694z M323.118,179.646
				c0-1.549-1.257-2.808-2.808-2.808h-8.655c-1.55,0-2.807,1.259-2.807,2.808l0.007,11.338c0,0.678,0.55,1.228,1.226,1.228
				s1.226-0.55,1.226-1.228v-10.36h0.517v27.712c0,1.014,0.823,1.838,1.843,1.838c1.01,0,1.833-0.825,1.833-1.838V193.16h1.004
				v15.17c0,1.018,0.822,1.844,1.84,1.844c1.009,0,1.834-0.827,1.834-1.844v-27.707h0.491v10.32c0,0.676,0.554,1.23,1.23,1.23
				c0.68,0,1.226-0.554,1.226-1.23L323.118,179.646z"/>
		</g>
		<g>
			<path fill="#CACACA" d="M339.476,175.694c1.704,0,3.085-1.381,3.085-3.083c0-1.699-1.381-3.076-3.085-3.076
				c-1.7,0-3.076,1.377-3.076,3.076C336.399,174.313,337.776,175.694,339.476,175.694z M346.516,179.646
				c0-1.549-1.259-2.808-2.808-2.808h-8.656c-1.549,0-2.808,1.259-2.808,2.808l0.008,11.338c0,0.678,0.55,1.228,1.226,1.228
				s1.226-0.55,1.226-1.228v-10.36h0.519v27.712c0,1.014,0.82,1.838,1.842,1.838c1.009,0,1.832-0.825,1.832-1.838V193.16h1.005
				v15.17c0,1.018,0.82,1.844,1.84,1.844c1.01,0,1.832-0.827,1.832-1.844v-27.707h0.493v10.32c0,0.676,0.552,1.23,1.228,1.23
				c0.682,0,1.23-0.554,1.23-1.23L346.516,179.646z"/>
		</g>
		<g>
			<path fill="#CACACA" d="M362.874,175.694c1.704,0,3.085-1.381,3.085-3.083c0-1.699-1.381-3.076-3.085-3.076
				c-1.697,0-3.076,1.377-3.076,3.076C359.797,174.313,361.176,175.694,362.874,175.694z M369.914,179.646
				c0-1.549-1.259-2.808-2.808-2.808h-8.654c-1.551,0-2.808,1.259-2.808,2.808l0.006,11.338c0,0.678,0.55,1.228,1.226,1.228
				s1.226-0.55,1.226-1.228v-10.36h0.518v27.712c0,1.014,0.823,1.838,1.842,1.838c1.01,0,1.832-0.825,1.832-1.838V193.16h1.005
				v15.17c0,1.018,0.82,1.844,1.84,1.844c1.009,0,1.832-0.827,1.832-1.844v-27.707h0.493v10.32c0,0.676,0.552,1.23,1.228,1.23
				c0.68,0,1.228-0.554,1.228-1.23L369.914,179.646z"/>
		</g>
		<g>
			<path fill="#CACACA" d="M386.272,175.694c1.704,0,3.083-1.381,3.083-3.083c0-1.699-1.379-3.076-3.083-3.076
				c-1.7,0-3.077,1.377-3.077,3.076C383.195,174.313,384.572,175.694,386.272,175.694z M393.31,179.646
				c0-1.549-1.257-2.808-2.808-2.808h-8.654c-1.549,0-2.808,1.259-2.808,2.808l0.008,11.338c0,0.678,0.55,1.228,1.226,1.228
				s1.226-0.55,1.226-1.228v-10.36h0.518v27.712c0,1.014,0.82,1.838,1.843,1.838c1.009,0,1.832-0.825,1.832-1.838V193.16h1.005
				v15.17c0,1.018,0.82,1.844,1.838,1.844c1.011,0,1.834-0.827,1.834-1.844v-27.707h0.493v10.32c0,0.676,0.552,1.23,1.228,1.23
				c0.68,0,1.228-0.554,1.228-1.23L393.31,179.646z"/>
		</g>
		<g>
			<path fill="#CACACA" d="M409.67,175.694c1.704,0,3.083-1.381,3.083-3.083c0-1.699-1.379-3.076-3.083-3.076
				c-1.7,0-3.077,1.377-3.077,3.076C406.593,174.313,407.97,175.694,409.67,175.694z M416.708,179.646
				c0-1.549-1.257-2.808-2.808-2.808h-8.654c-1.549,0-2.808,1.259-2.808,2.808l0.008,11.338c0,0.678,0.55,1.228,1.226,1.228
				s1.226-0.55,1.226-1.228v-10.36h0.519v27.712c0,1.014,0.82,1.838,1.84,1.838c1.012,0,1.834-0.825,1.834-1.838V193.16h1.003v15.17
				c0,1.018,0.823,1.844,1.84,1.844c1.012,0,1.834-0.827,1.834-1.844v-27.707h0.493v10.32c0,0.676,0.552,1.23,1.228,1.23
				c0.68,0,1.228-0.554,1.228-1.23L416.708,179.646z"/>
		</g>
		<g>
			<path fill="#E78E38" d="M199.089,221.456c1.704,0,3.083-1.381,3.083-3.081c0-1.699-1.378-3.078-3.083-3.078
				c-1.699,0-3.077,1.379-3.077,3.078C196.013,220.075,197.391,221.456,199.089,221.456z M206.128,225.409
				c0-1.548-1.258-2.808-2.808-2.808h-8.655c-1.55,0-2.807,1.259-2.807,2.808l0.007,11.336c0,0.68,0.55,1.23,1.226,1.23
				s1.226-0.55,1.226-1.23v-10.358h0.518v27.71c0,1.014,0.822,1.838,1.842,1.838c1.01,0,1.833-0.825,1.833-1.838v-15.174h1.004
				v15.168c0,1.018,0.821,1.844,1.84,1.844c1.009,0,1.833-0.827,1.833-1.844v-27.705h0.492v10.318c0,0.678,0.553,1.23,1.229,1.23
				c0.68,0,1.228-0.552,1.228-1.23L206.128,225.409z"/>
		</g>
		<g>
			<path fill="#E78E38" d="M222.487,221.456c1.704,0,3.083-1.381,3.083-3.081c0-1.699-1.378-3.078-3.083-3.078
				c-1.7,0-3.077,1.379-3.077,3.078C219.411,220.075,220.788,221.456,222.487,221.456z M229.526,225.409
				c0-1.548-1.257-2.808-2.808-2.808h-8.654c-1.55,0-2.808,1.259-2.808,2.808l0.008,11.336c0,0.68,0.55,1.23,1.226,1.23
				s1.225-0.55,1.225-1.23v-10.358h0.518v27.71c0,1.014,0.822,1.838,1.843,1.838c1.009,0,1.833-0.825,1.833-1.838v-15.174h1.004
				v15.168c0,1.018,0.822,1.844,1.839,1.844c1.011,0,1.834-0.827,1.834-1.844v-27.705h0.492v10.318c0,0.678,0.553,1.23,1.228,1.23
				c0.681,0,1.229-0.552,1.229-1.23L229.526,225.409z"/>
		</g>
		<g>
			<path fill="#E78E38" d="M245.885,221.456c1.704,0,3.083-1.381,3.083-3.081c0-1.699-1.379-3.078-3.083-3.078
				c-1.7,0-3.077,1.379-3.077,3.078C242.808,220.075,244.186,221.456,245.885,221.456z M252.924,225.409
				c0-1.548-1.258-2.808-2.808-2.808h-8.654c-1.55,0-2.808,1.259-2.808,2.808l0.009,11.336c0,0.68,0.55,1.23,1.226,1.23
				c0.675,0,1.224-0.55,1.224-1.23v-10.358h0.519v27.71c0,1.014,0.821,1.838,1.841,1.838c1.01,0,1.834-0.825,1.834-1.838v-15.174
				h1.003v15.168c0,1.018,0.823,1.844,1.841,1.844c1.01,0,1.834-0.827,1.834-1.844v-27.705h0.491v10.318
				c0,0.678,0.553,1.23,1.229,1.23c0.681,0,1.229-0.552,1.229-1.23L252.924,225.409z"/>
		</g>
		<g>
			<path fill="#E78E38" d="M269.282,221.456c1.704,0,3.084-1.381,3.084-3.081c0-1.699-1.38-3.078-3.084-3.078
				c-1.699,0-3.076,1.379-3.076,3.078C266.206,220.075,267.583,221.456,269.282,221.456z M276.322,225.409
				c0-1.548-1.258-2.808-2.808-2.808h-8.654c-1.55,0-2.808,1.259-2.808,2.808l0.008,11.336c0,0.68,0.549,1.23,1.224,1.23
				c0.676,0,1.226-0.55,1.226-1.23v-10.358h0.519v27.71c0,1.014,0.821,1.838,1.841,1.838c1.01,0,1.834-0.825,1.834-1.838v-15.174
				h1.003v15.168c0,1.018,0.821,1.844,1.84,1.844c1.01,0,1.833-0.827,1.833-1.844v-27.705h0.492v10.318
				c0,0.678,0.553,1.23,1.229,1.23c0.681,0,1.229-0.552,1.229-1.23L276.322,225.409z"/>
		</g>
		<g>
			<path fill="#E78E38" d="M292.681,221.456c1.704,0,3.083-1.381,3.083-3.081c0-1.699-1.38-3.078-3.083-3.078
				c-1.699,0-3.077,1.379-3.077,3.078C289.604,220.075,290.982,221.456,292.681,221.456z M299.72,225.409
				c0-1.548-1.258-2.808-2.808-2.808h-8.654c-1.549,0-2.808,1.259-2.808,2.808l0.008,11.336c0,0.68,0.549,1.23,1.225,1.23
				s1.226-0.55,1.226-1.23v-10.358h0.518v27.71c0,1.014,0.822,1.838,1.841,1.838c1.011,0,1.833-0.825,1.833-1.838v-15.174h1.004
				v15.168c0,1.018,0.822,1.844,1.84,1.844c1.01,0,1.833-0.827,1.833-1.844v-27.705h0.492v10.318c0,0.678,0.553,1.23,1.229,1.23
				c0.681,0,1.229-0.552,1.229-1.23L299.72,225.409z"/>
		</g>
		<g>
			<path fill="#E78E38" d="M316.079,221.456c1.704,0,3.084-1.381,3.084-3.081c0-1.699-1.38-3.078-3.084-3.078
				c-1.699,0-3.076,1.379-3.076,3.078C313.002,220.075,314.38,221.456,316.079,221.456z M323.118,225.409
				c0-1.548-1.257-2.808-2.808-2.808h-8.655c-1.55,0-2.807,1.259-2.807,2.808l0.007,11.336c0,0.68,0.55,1.23,1.226,1.23
				s1.226-0.55,1.226-1.23v-10.358h0.517v27.71c0,1.014,0.823,1.838,1.843,1.838c1.01,0,1.833-0.825,1.833-1.838v-15.174h1.004
				v15.168c0,1.018,0.822,1.844,1.84,1.844c1.009,0,1.834-0.827,1.834-1.844v-27.705h0.491v10.318c0,0.678,0.554,1.23,1.23,1.23
				c0.68,0,1.226-0.552,1.226-1.23L323.118,225.409z"/>
		</g>
		<g>
			<path fill="#CACACA" d="M339.476,221.456c1.704,0,3.085-1.381,3.085-3.081c0-1.699-1.381-3.078-3.085-3.078
				c-1.7,0-3.076,1.379-3.076,3.078C336.399,220.075,337.776,221.456,339.476,221.456z M346.516,225.409
				c0-1.548-1.259-2.808-2.808-2.808h-8.656c-1.549,0-2.808,1.259-2.808,2.808l0.008,11.336c0,0.68,0.55,1.23,1.226,1.23
				s1.226-0.55,1.226-1.23v-10.358h0.519v27.71c0,1.014,0.82,1.838,1.842,1.838c1.009,0,1.832-0.825,1.832-1.838v-15.174h1.005
				v15.168c0,1.018,0.82,1.844,1.84,1.844c1.01,0,1.832-0.827,1.832-1.844v-27.705h0.493v10.318c0,0.678,0.552,1.23,1.228,1.23
				c0.682,0,1.23-0.552,1.23-1.23L346.516,225.409z"/>
		</g>
		<g>
			<path fill="#CACACA" d="M362.874,221.456c1.704,0,3.085-1.381,3.085-3.081c0-1.699-1.381-3.078-3.085-3.078
				c-1.697,0-3.076,1.379-3.076,3.078C359.797,220.075,361.176,221.456,362.874,221.456z M369.914,225.409
				c0-1.548-1.259-2.808-2.808-2.808h-8.654c-1.551,0-2.808,1.259-2.808,2.808l0.006,11.336c0,0.68,0.55,1.23,1.226,1.23
				s1.226-0.55,1.226-1.23v-10.358h0.518v27.71c0,1.014,0.823,1.838,1.842,1.838c1.01,0,1.832-0.825,1.832-1.838v-15.174h1.005
				v15.168c0,1.018,0.82,1.844,1.84,1.844c1.009,0,1.832-0.827,1.832-1.844v-27.705h0.493v10.318c0,0.678,0.552,1.23,1.228,1.23
				c0.68,0,1.228-0.552,1.228-1.23L369.914,225.409z"/>
		</g>
		<g>
			<path fill="#CACACA" d="M386.272,221.456c1.704,0,3.083-1.381,3.083-3.081c0-1.699-1.379-3.078-3.083-3.078
				c-1.7,0-3.077,1.379-3.077,3.078C383.195,220.075,384.572,221.456,386.272,221.456z M393.31,225.409
				c0-1.548-1.257-2.808-2.808-2.808h-8.654c-1.549,0-2.808,1.259-2.808,2.808l0.008,11.336c0,0.68,0.55,1.23,1.226,1.23
				s1.226-0.55,1.226-1.23v-10.358h0.518v27.71c0,1.014,0.82,1.838,1.843,1.838c1.009,0,1.832-0.825,1.832-1.838v-15.174h1.005
				v15.168c0,1.018,0.82,1.844,1.838,1.844c1.011,0,1.834-0.827,1.834-1.844v-27.705h0.493v10.318c0,0.678,0.552,1.23,1.228,1.23
				c0.68,0,1.228-0.552,1.228-1.23L393.31,225.409z"/>
		</g>
		<g>
			<path fill="#CACACA" d="M409.67,221.456c1.704,0,3.083-1.381,3.083-3.081c0-1.699-1.379-3.078-3.083-3.078
				c-1.7,0-3.077,1.379-3.077,3.078C406.593,220.075,407.97,221.456,409.67,221.456z M416.708,225.409
				c0-1.548-1.257-2.808-2.808-2.808h-8.654c-1.549,0-2.808,1.259-2.808,2.808l0.008,11.336c0,0.68,0.55,1.23,1.226,1.23
				s1.226-0.55,1.226-1.23v-10.358h0.519v27.71c0,1.014,0.82,1.838,1.84,1.838c1.012,0,1.834-0.825,1.834-1.838v-15.174h1.003
				v15.168c0,1.018,0.823,1.844,1.84,1.844c1.012,0,1.834-0.827,1.834-1.844v-27.705h0.493v10.318c0,0.678,0.552,1.23,1.228,1.23
				c0.68,0,1.228-0.552,1.228-1.23L416.708,225.409z"/>
		</g>
		<text transform="matrix(1 0 0 1 110.5107 107.1641)" fill="#4E4D4D" font-family="'Roboto-Black'" font-size="30.2285">80%</text>
		<text transform="matrix(1 0 0 1 110.5107 152.9258)" fill="#4E4D4D" font-family="'Roboto-Black'" font-size="30.2285">30%</text>
		<text transform="matrix(1 0 0 1 110.5107 198.6895)" fill="#4E4D4D" font-family="'Roboto-Black'" font-size="30.2285">50%</text>
		<text transform="matrix(1 0 0 1 110.5107 244.4521)" fill="#4E4D4D" font-family="'Roboto-Black'" font-size="30.2285">60%</text>
	</g>
	<rect x="445.726" y="78.01" fill="none" width="124.699" height="70.799"/>
	<text transform="matrix(1 0 0 1 445.7241 85.1636)"><tspan x="0" y="0" fill="#4E4D4D" font-family="'Roboto-Regular'" font-size="10.0762">Lorem ipsum dolor sit amet, </tspan><tspan x="0" y="12.092" fill="#4E4D4D" font-family="'Roboto-Regular'" font-size="10.0762">consectetur adipiscing elit, </tspan><tspan x="0" y="24.183" fill="#4E4D4D" font-family="'Roboto-Regular'" font-size="10.0762">sed do eiusmod tempor </tspan><tspan x="0" y="36.274" fill="#4E4D4D" font-family="'Roboto-Regular'" font-size="10.0762">incididunt ut labore et dolore </tspan><tspan x="0" y="48.366" fill="#4E4D4D" font-family="'Roboto-Regular'" font-size="10.0762">magna aliqua.</tspan></text>
	<rect x="445.726" y="185.139" fill="none" width="124.699" height="70.799"/>
	<text transform="matrix(1 0 0 1 445.7241 192.2905)"><tspan x="0" y="0" fill="#4E4D4D" font-family="'Roboto-Regular'" font-size="10.0762">Lorem ipsum dolor sit amet, </tspan><tspan x="0" y="12.092" fill="#4E4D4D" font-family="'Roboto-Regular'" font-size="10.0762">consectetur adipiscing elit, </tspan><tspan x="0" y="24.183" fill="#4E4D4D" font-family="'Roboto-Regular'" font-size="10.0762">sed do eiusmod tempor </tspan><tspan x="0" y="36.274" fill="#4E4D4D" font-family="'Roboto-Regular'" font-size="10.0762">incididunt ut labore et dolore </tspan><tspan x="0" y="48.366" fill="#4E4D4D" font-family="'Roboto-Regular'" font-size="10.0762">magna aliqua.</tspan></text>
</g>
<g>
	<path fill="#22517A" d="M186.112,537.171V326.513c0-1.722-1.394-3.115-3.113-3.115h-7.506c-1.72,0-3.113,1.393-3.113,3.115v210.658
		H186.112z"/>
	<path fill="#42BAB9" d="M207.389,537.171v-95.326c0-1.721-1.395-3.114-3.114-3.114h-7.505c-1.72,0-3.113,1.393-3.113,3.114v95.326
		H207.389z"/>
	<path fill="#B1D471" d="M228.666,537.171V417.21c0-1.72-1.395-3.112-3.114-3.112h-7.505c-1.72,0-3.114,1.393-3.114,3.112v119.961
		H228.666z"/>
	<path fill="#E9DA89" d="M249.941,537.171V332.48c0-1.72-1.394-3.112-3.114-3.112h-7.505c-1.719,0-3.114,1.393-3.114,3.112v204.69
		H249.941z"/>
	<path fill="#E78E38" d="M271.219,537.171V354.768c0-1.72-1.395-3.112-3.114-3.112H260.6c-1.719,0-3.113,1.393-3.113,3.112v182.403
		H271.219z"/>
	<path fill="#22517A" d="M292.495,537.171V387.482c0-1.719-1.394-3.112-3.113-3.112h-7.506c-1.719,0-3.113,1.393-3.113,3.112
		v149.688H292.495z"/>
	<path fill="#42BAB9" d="M313.772,537.171V423.793c0-1.72-1.395-3.112-3.113-3.112h-7.507c-1.718,0-3.114,1.393-3.114,3.112v113.378
		H313.772z"/>
	<path fill="#B1D471" d="M335.048,537.171v-134.4c0-1.72-1.394-3.112-3.114-3.112h-7.505c-1.719,0-3.114,1.393-3.114,3.112v134.4
		H335.048z"/>
	<path fill="#E9DA89" d="M356.324,537.171V378.402c0-1.722-1.395-3.114-3.113-3.114h-7.506c-1.719,0-3.113,1.393-3.113,3.114
		v158.769H356.324z"/>
	<path fill="#E78E38" d="M377.602,537.171v-183.96c0-1.722-1.394-3.114-3.113-3.114h-7.506c-1.72,0-3.113,1.393-3.113,3.114v183.96
		H377.602z"/>
	<path fill="#22517A" d="M398.878,537.171V334.039c0-1.721-1.395-3.114-3.114-3.114h-7.505c-1.72,0-3.113,1.393-3.113,3.114v203.132
		H398.878z"/>
	<path fill="#42BAB9" d="M420.153,537.171V376.79c0-1.719-1.393-3.112-3.113-3.112h-7.504c-1.721,0-3.113,1.393-3.113,3.112v160.381
		H420.153z"/>
	<path fill="#B1D471" d="M441.431,537.171v-134.4c0-1.72-1.394-3.112-3.113-3.112h-7.505c-1.72,0-3.113,1.393-3.113,3.112v134.4
		H441.431z"/>
	<path fill="#E9DA89" d="M462.707,537.171V429.263c0-1.719-1.394-3.112-3.113-3.112h-7.506c-1.72,0-3.113,1.393-3.113,3.112v107.908
		H462.707z"/>
	<path fill="#E78E38" d="M483.984,537.171v-79.385c0-1.721-1.395-3.114-3.113-3.114h-7.506c-1.719,0-3.113,1.394-3.113,3.114v79.385
		H483.984z"/>
	<path fill="#22517A" d="M505.26,537.171V408.213c0-1.72-1.393-3.112-3.113-3.112h-7.506c-1.719,0-3.113,1.393-3.113,3.112v128.958
		H505.26z"/>
	<path fill="#42BAB9" d="M526.538,537.171V362.728c0-1.72-1.395-3.112-3.113-3.112h-7.506c-1.719,0-3.113,1.393-3.113,3.112v174.443
		H526.538z"/>
	<path fill="#B1D471" d="M547.815,537.171v-96.882c0-1.722-1.396-3.115-3.115-3.115h-7.506c-1.719,0-3.113,1.393-3.113,3.115v96.882
		H547.815z"/>
	<polyline fill="none" stroke="#4E4D4D" stroke-width="3.1135" stroke-linecap="round" stroke-miterlimit="10" points="
		157.37,320.814 157.37,546.265 547.793,546.265 	"/>
	<text transform="matrix(1 0 0 1 122.2163 548.1641)" fill="#4E4D4D" font-family="'Roboto-Black'" font-size="18.4873">0%</text>
	<text transform="matrix(1 0 0 1 112.7324 436.4707)" fill="#4E4D4D" font-family="'Roboto-Black'" font-size="18.4873">50%</text>
	<text transform="matrix(1 0 0 1 103.249 324.7754)" fill="#4E4D4D" font-family="'Roboto-Black'" font-size="18.4873">100%</text>
	<text transform="matrix(1 0 0 1 174.2485 567.9883)" fill="#4E4D4D" font-family="'Roboto-Black'" font-size="18.4131">01</text>
	<text transform="matrix(1 0 0 1 245.7495 567.9883)" fill="#4E4D4D" font-family="'Roboto-Black'" font-size="18.4131">02</text>
	<text transform="matrix(1 0 0 1 317.2505 567.9883)" fill="#4E4D4D" font-family="'Roboto-Black'" font-size="18.4131">03</text>
	<text transform="matrix(1 0 0 1 388.7524 567.9883)" fill="#4E4D4D" font-family="'Roboto-Black'" font-size="18.4131">04</text>
	<text transform="matrix(1 0 0 1 460.2529 567.9883)" fill="#4E4D4D" font-family="'Roboto-Black'" font-size="18.4131">05</text>
	<text transform="matrix(1 0 0 1 531.7524 567.9883)" fill="#4E4D4D" font-family="'Roboto-Black'" font-size="18.4131">06</text>
</g>
<g>
	<g>
		<rect x="130.531" y="716.465" fill="#22517A" width="10.819" height="10.82"/>
		<rect x="130.531" y="703.639" fill="#22517A" width="10.819" height="10.822"/>
		<rect x="130.531" y="690.818" fill="#22517A" width="10.819" height="10.821"/>
		<rect x="130.531" y="677.997" fill="#CACACA" width="10.819" height="10.821"/>
		<rect x="130.531" y="665.172" fill="#CACACA" width="10.819" height="10.821"/>
		<rect x="130.531" y="652.351" fill="#CACACA" width="10.819" height="10.821"/>
		<rect x="130.531" y="639.529" fill="#CACACA" width="10.819" height="10.822"/>
		<rect x="130.531" y="626.705" fill="#CACACA" width="10.819" height="10.82"/>
		<rect x="143.434" y="716.465" fill="#22517A" width="10.819" height="10.82"/>
		<rect x="143.434" y="703.639" fill="#22517A" width="10.819" height="10.822"/>
		<rect x="143.434" y="690.818" fill="#CACACA" width="10.819" height="10.821"/>
		<rect x="143.434" y="677.997" fill="#CACACA" width="10.819" height="10.821"/>
		<rect x="143.434" y="665.172" fill="#CACACA" width="10.819" height="10.821"/>
		<rect x="143.434" y="652.351" fill="#CACACA" width="10.819" height="10.821"/>
		<rect x="143.434" y="639.529" fill="#CACACA" width="10.819" height="10.822"/>
		<rect x="143.434" y="626.705" fill="#CACACA" width="10.819" height="10.82"/>
		<rect x="156.337" y="716.465" fill="#22517A" width="10.819" height="10.82"/>
		<rect x="156.337" y="703.639" fill="#22517A" width="10.819" height="10.822"/>
		<rect x="156.337" y="690.818" fill="#22517A" width="10.819" height="10.821"/>
		<rect x="156.337" y="677.997" fill="#22517A" width="10.819" height="10.821"/>
		<rect x="156.337" y="665.172" fill="#22517A" width="10.819" height="10.821"/>
		<rect x="156.337" y="652.351" fill="#CACACA" width="10.819" height="10.821"/>
		<rect x="156.337" y="639.529" fill="#CACACA" width="10.819" height="10.822"/>
		<rect x="156.337" y="626.705" fill="#CACACA" width="10.819" height="10.82"/>
		<rect x="169.241" y="716.465" fill="#22517A" width="10.819" height="10.82"/>
		<rect x="169.241" y="703.639" fill="#22517A" width="10.819" height="10.822"/>
		<rect x="169.241" y="690.818" fill="#22517A" width="10.819" height="10.821"/>
		<rect x="169.241" y="677.997" fill="#22517A" width="10.819" height="10.821"/>
		<rect x="169.241" y="665.172" fill="#CACACA" width="10.819" height="10.821"/>
		<rect x="169.241" y="652.351" fill="#CACACA" width="10.819" height="10.821"/>
		<rect x="169.241" y="639.529" fill="#CACACA" width="10.819" height="10.822"/>
		<rect x="169.241" y="626.705" fill="#CACACA" width="10.819" height="10.82"/>
		<rect x="182.144" y="716.465" fill="#22517A" width="10.819" height="10.82"/>
		<rect x="182.144" y="703.639" fill="#CACACA" width="10.819" height="10.822"/>
		<rect x="182.144" y="690.818" fill="#CACACA" width="10.819" height="10.821"/>
		<rect x="182.144" y="677.997" fill="#CACACA" width="10.819" height="10.821"/>
		<rect x="182.144" y="665.172" fill="#CACACA" width="10.819" height="10.821"/>
		<rect x="182.144" y="652.351" fill="#CACACA" width="10.819" height="10.821"/>
		<rect x="182.144" y="639.529" fill="#CACACA" width="10.819" height="10.822"/>
		<rect x="182.144" y="626.705" fill="#CACACA" width="10.819" height="10.82"/>
		<rect x="195.046" y="716.465" fill="#22517A" width="10.82" height="10.82"/>
		<rect x="195.046" y="703.639" fill="#22517A" width="10.82" height="10.822"/>
		<rect x="195.046" y="690.818" fill="#CACACA" width="10.82" height="10.821"/>
		<rect x="195.046" y="677.997" fill="#CACACA" width="10.82" height="10.821"/>
		<rect x="195.046" y="665.172" fill="#CACACA" width="10.82" height="10.821"/>
		<rect x="195.046" y="652.351" fill="#CACACA" width="10.82" height="10.821"/>
		<rect x="195.046" y="639.529" fill="#CACACA" width="10.82" height="10.822"/>
		<rect x="195.046" y="626.705" fill="#CACACA" width="10.82" height="10.82"/>
		<rect x="207.949" y="716.465" fill="#22517A" width="10.819" height="10.82"/>
		<rect x="207.949" y="703.639" fill="#22517A" width="10.819" height="10.822"/>
		<rect x="207.949" y="690.818" fill="#22517A" width="10.819" height="10.821"/>
		<rect x="207.949" y="677.997" fill="#22517A" width="10.819" height="10.821"/>
		<rect x="207.949" y="665.172" fill="#CACACA" width="10.819" height="10.821"/>
		<rect x="207.949" y="652.351" fill="#CACACA" width="10.819" height="10.821"/>
		<rect x="207.949" y="639.529" fill="#CACACA" width="10.819" height="10.822"/>
		<rect x="207.949" y="626.705" fill="#CACACA" width="10.819" height="10.82"/>
		<rect x="220.853" y="716.465" fill="#22517A" width="10.819" height="10.82"/>
		<rect x="220.853" y="703.639" fill="#22517A" width="10.819" height="10.822"/>
		<rect x="220.853" y="690.818" fill="#22517A" width="10.819" height="10.821"/>
		<rect x="220.853" y="677.997" fill="#22517A" width="10.819" height="10.821"/>
		<rect x="220.853" y="665.172" fill="#22517A" width="10.819" height="10.821"/>
		<rect x="220.853" y="652.351" fill="#22517A" width="10.819" height="10.821"/>
		<rect x="220.853" y="639.529" fill="#CACACA" width="10.819" height="10.822"/>
		<rect x="220.853" y="626.705" fill="#CACACA" width="10.819" height="10.82"/>
	</g>
	<rect x="164.181" y="735.136" fill="none" width="67.488" height="22.145"/>
	<text transform="matrix(1 0 0 1 164.1821 739.9297)"><tspan x="0" y="0" fill="#4E4D4D" font-family="'Roboto-Regular'" font-size="6.7524">Lorem ipsum dolor sit </tspan><tspan x="0" y="8.104" fill="#4E4D4D" font-family="'Roboto-Regular'" font-size="6.7524">amet, consectetur </tspan><tspan x="0" y="16.206" fill="#4E4D4D" font-family="'Roboto-Regular'" font-size="6.7524">adipiscing elit.</tspan></text>
	<text transform="matrix(1 0 0 1 133.2495 756.4355)" fill="#4E4D4D" font-family="'Roboto-Black'" font-size="27.4234">01</text>
</g>
<g>
	<g>
		<rect x="244.478" y="716.465" fill="#42BAB9" width="10.819" height="10.82"/>
		<rect x="244.478" y="703.639" fill="#42BAB9" width="10.819" height="10.822"/>
		<rect x="244.478" y="690.818" fill="#42BAB9" width="10.819" height="10.821"/>
		<rect x="244.478" y="677.997" fill="#CACACA" width="10.819" height="10.821"/>
		<rect x="244.478" y="665.172" fill="#CACACA" width="10.819" height="10.821"/>
		<rect x="244.478" y="652.351" fill="#CACACA" width="10.819" height="10.821"/>
		<rect x="244.478" y="639.529" fill="#CACACA" width="10.819" height="10.822"/>
		<rect x="244.478" y="626.705" fill="#CACACA" width="10.819" height="10.82"/>
		<rect x="257.381" y="716.465" fill="#42BAB9" width="10.819" height="10.82"/>
		<rect x="257.381" y="703.639" fill="#42BAB9" width="10.819" height="10.822"/>
		<rect x="257.381" y="690.818" fill="#42BAB9" width="10.819" height="10.821"/>
		<rect x="257.381" y="677.997" fill="#42BAB9" width="10.819" height="10.821"/>
		<rect x="257.381" y="665.172" fill="#42BAB9" width="10.819" height="10.821"/>
		<rect x="257.381" y="652.351" fill="#CACACA" width="10.819" height="10.821"/>
		<rect x="257.381" y="639.529" fill="#CACACA" width="10.819" height="10.822"/>
		<rect x="257.381" y="626.705" fill="#CACACA" width="10.819" height="10.82"/>
		<rect x="270.285" y="716.465" fill="#42BAB9" width="10.819" height="10.82"/>
		<rect x="270.285" y="703.639" fill="#42BAB9" width="10.819" height="10.822"/>
		<rect x="270.285" y="690.818" fill="#CACACA" width="10.819" height="10.821"/>
		<rect x="270.285" y="677.997" fill="#CACACA" width="10.819" height="10.821"/>
		<rect x="270.285" y="665.172" fill="#CACACA" width="10.819" height="10.821"/>
		<rect x="270.285" y="652.351" fill="#CACACA" width="10.819" height="10.821"/>
		<rect x="270.285" y="639.529" fill="#CACACA" width="10.819" height="10.822"/>
		<rect x="270.285" y="626.705" fill="#CACACA" width="10.819" height="10.82"/>
		<rect x="283.188" y="716.465" fill="#42BAB9" width="10.819" height="10.82"/>
		<rect x="283.188" y="703.639" fill="#42BAB9" width="10.819" height="10.822"/>
		<rect x="283.188" y="690.818" fill="#42BAB9" width="10.819" height="10.821"/>
		<rect x="283.188" y="677.997" fill="#42BAB9" width="10.819" height="10.821"/>
		<rect x="283.188" y="665.172" fill="#CACACA" width="10.819" height="10.821"/>
		<rect x="283.188" y="652.351" fill="#CACACA" width="10.819" height="10.821"/>
		<rect x="283.188" y="639.529" fill="#CACACA" width="10.819" height="10.822"/>
		<rect x="283.188" y="626.705" fill="#CACACA" width="10.819" height="10.82"/>
		<rect x="296.09" y="716.465" fill="#42BAB9" width="10.82" height="10.82"/>
		<rect x="296.09" y="703.639" fill="#CACACA" width="10.82" height="10.822"/>
		<rect x="296.09" y="690.818" fill="#CACACA" width="10.82" height="10.821"/>
		<rect x="296.09" y="677.997" fill="#CACACA" width="10.82" height="10.821"/>
		<rect x="296.09" y="665.172" fill="#CACACA" width="10.82" height="10.821"/>
		<rect x="296.09" y="652.351" fill="#CACACA" width="10.82" height="10.821"/>
		<rect x="296.09" y="639.529" fill="#CACACA" width="10.82" height="10.822"/>
		<rect x="296.09" y="626.705" fill="#CACACA" width="10.82" height="10.82"/>
		<rect x="308.994" y="716.465" fill="#42BAB9" width="10.819" height="10.82"/>
		<rect x="308.994" y="703.639" fill="#42BAB9" width="10.819" height="10.822"/>
		<rect x="308.994" y="690.818" fill="#42BAB9" width="10.819" height="10.821"/>
		<rect x="308.994" y="677.997" fill="#42BAB9" width="10.819" height="10.821"/>
		<rect x="308.994" y="665.172" fill="#CACACA" width="10.819" height="10.821"/>
		<rect x="308.994" y="652.351" fill="#CACACA" width="10.819" height="10.821"/>
		<rect x="308.994" y="639.529" fill="#CACACA" width="10.819" height="10.822"/>
		<rect x="308.994" y="626.705" fill="#CACACA" width="10.819" height="10.82"/>
		<rect x="321.897" y="716.465" fill="#42BAB9" width="10.819" height="10.82"/>
		<rect x="321.897" y="703.639" fill="#42BAB9" width="10.819" height="10.822"/>
		<rect x="321.897" y="690.818" fill="#42BAB9" width="10.819" height="10.821"/>
		<rect x="321.897" y="677.997" fill="#CACACA" width="10.819" height="10.821"/>
		<rect x="321.897" y="665.172" fill="#CACACA" width="10.819" height="10.821"/>
		<rect x="321.897" y="652.351" fill="#CACACA" width="10.819" height="10.821"/>
		<rect x="321.897" y="639.529" fill="#CACACA" width="10.819" height="10.822"/>
		<rect x="321.897" y="626.705" fill="#CACACA" width="10.819" height="10.82"/>
		<rect x="334.8" y="716.465" fill="#42BAB9" width="10.819" height="10.82"/>
		<rect x="334.8" y="703.639" fill="#42BAB9" width="10.819" height="10.822"/>
		<rect x="334.8" y="690.818" fill="#42BAB9" width="10.819" height="10.821"/>
		<rect x="334.8" y="677.997" fill="#42BAB9" width="10.819" height="10.821"/>
		<rect x="334.8" y="665.172" fill="#CACACA" width="10.819" height="10.821"/>
		<rect x="334.8" y="652.351" fill="#CACACA" width="10.819" height="10.821"/>
		<rect x="334.8" y="639.529" fill="#CACACA" width="10.819" height="10.822"/>
		<rect x="334.8" y="626.705" fill="#CACACA" width="10.819" height="10.82"/>
	</g>
	<rect x="278.492" y="735.136" fill="none" width="67.49" height="22.145"/>
	<text transform="matrix(1 0 0 1 278.4927 739.9297)"><tspan x="0" y="0" fill="#4E4D4D" font-family="'Roboto-Regular'" font-size="6.7524">Lorem ipsum dolor sit </tspan><tspan x="0" y="8.104" fill="#4E4D4D" font-family="'Roboto-Regular'" font-size="6.7524">amet, consectetur </tspan><tspan x="0" y="16.206" fill="#4E4D4D" font-family="'Roboto-Regular'" font-size="6.7524">adipiscing elit.</tspan></text>
	<text transform="matrix(1 0 0 1 247.5601 756.4355)" fill="#4E4D4D" font-family="'Roboto-Black'" font-size="27.4234">02</text>
</g>
<g>
	<g>
		<rect x="358.425" y="716.465" fill="#B1D471" width="10.819" height="10.82"/>
		<rect x="358.425" y="703.639" fill="#B1D471" width="10.819" height="10.822"/>
		<rect x="358.425" y="690.818" fill="#B1D471" width="10.819" height="10.821"/>
		<rect x="358.425" y="677.997" fill="#B1D471" width="10.819" height="10.821"/>
		<rect x="358.425" y="665.172" fill="#B1D471" width="10.819" height="10.821"/>
		<rect x="358.425" y="652.351" fill="#B1D471" width="10.819" height="10.821"/>
		<rect x="358.425" y="639.529" fill="#CACACA" width="10.819" height="10.822"/>
		<rect x="358.425" y="626.705" fill="#CACACA" width="10.819" height="10.82"/>
		<rect x="371.329" y="716.465" fill="#B1D471" width="10.819" height="10.82"/>
		<rect x="371.329" y="703.639" fill="#B1D471" width="10.819" height="10.822"/>
		<rect x="371.329" y="690.818" fill="#B1D471" width="10.819" height="10.821"/>
		<rect x="371.329" y="677.997" fill="#CACACA" width="10.819" height="10.821"/>
		<rect x="371.329" y="665.172" fill="#CACACA" width="10.819" height="10.821"/>
		<rect x="371.329" y="652.351" fill="#CACACA" width="10.819" height="10.821"/>
		<rect x="371.329" y="639.529" fill="#CACACA" width="10.819" height="10.822"/>
		<rect x="371.329" y="626.705" fill="#CACACA" width="10.819" height="10.82"/>
		<rect x="384.231" y="716.465" fill="#B1D471" width="10.82" height="10.82"/>
		<rect x="384.231" y="703.639" fill="#B1D471" width="10.82" height="10.822"/>
		<rect x="384.231" y="690.818" fill="#B1D471" width="10.82" height="10.821"/>
		<rect x="384.231" y="677.997" fill="#B1D471" width="10.82" height="10.821"/>
		<rect x="384.231" y="665.172" fill="#CACACA" width="10.82" height="10.821"/>
		<rect x="384.231" y="652.351" fill="#CACACA" width="10.82" height="10.821"/>
		<rect x="384.231" y="639.529" fill="#CACACA" width="10.82" height="10.822"/>
		<rect x="384.231" y="626.705" fill="#CACACA" width="10.82" height="10.82"/>
		<rect x="397.134" y="716.465" fill="#B1D471" width="10.82" height="10.82"/>
		<rect x="397.134" y="703.639" fill="#B1D471" width="10.82" height="10.822"/>
		<rect x="397.134" y="690.818" fill="#CACACA" width="10.82" height="10.821"/>
		<rect x="397.134" y="677.997" fill="#CACACA" width="10.82" height="10.821"/>
		<rect x="397.134" y="665.172" fill="#CACACA" width="10.82" height="10.821"/>
		<rect x="397.134" y="652.351" fill="#CACACA" width="10.82" height="10.821"/>
		<rect x="397.134" y="639.529" fill="#CACACA" width="10.82" height="10.822"/>
		<rect x="397.134" y="626.705" fill="#CACACA" width="10.82" height="10.82"/>
		<rect x="410.038" y="716.465" fill="#B1D471" width="10.819" height="10.82"/>
		<rect x="410.038" y="703.639" fill="#CACACA" width="10.819" height="10.822"/>
		<rect x="410.038" y="690.818" fill="#CACACA" width="10.819" height="10.821"/>
		<rect x="410.038" y="677.997" fill="#CACACA" width="10.819" height="10.821"/>
		<rect x="410.038" y="665.172" fill="#CACACA" width="10.819" height="10.821"/>
		<rect x="410.038" y="652.351" fill="#CACACA" width="10.819" height="10.821"/>
		<rect x="410.038" y="639.529" fill="#CACACA" width="10.819" height="10.822"/>
		<rect x="410.038" y="626.705" fill="#CACACA" width="10.819" height="10.82"/>
		<rect x="422.941" y="716.465" fill="#B1D471" width="10.819" height="10.82"/>
		<rect x="422.941" y="703.639" fill="#B1D471" width="10.819" height="10.822"/>
		<rect x="422.941" y="690.818" fill="#B1D471" width="10.819" height="10.821"/>
		<rect x="422.941" y="677.997" fill="#CACACA" width="10.819" height="10.821"/>
		<rect x="422.941" y="665.172" fill="#CACACA" width="10.819" height="10.821"/>
		<rect x="422.941" y="652.351" fill="#CACACA" width="10.819" height="10.821"/>
		<rect x="422.941" y="639.529" fill="#CACACA" width="10.819" height="10.822"/>
		<rect x="422.941" y="626.705" fill="#CACACA" width="10.819" height="10.82"/>
		<rect x="435.844" y="716.465" fill="#B1D471" width="10.819" height="10.82"/>
		<rect x="435.844" y="703.639" fill="#B1D471" width="10.819" height="10.822"/>
		<rect x="435.844" y="690.818" fill="#B1D471" width="10.819" height="10.821"/>
		<rect x="435.844" y="677.997" fill="#B1D471" width="10.819" height="10.821"/>
		<rect x="435.844" y="665.172" fill="#B1D471" width="10.819" height="10.821"/>
		<rect x="435.844" y="652.351" fill="#CACACA" width="10.819" height="10.821"/>
		<rect x="435.844" y="639.529" fill="#CACACA" width="10.819" height="10.822"/>
		<rect x="435.844" y="626.705" fill="#CACACA" width="10.819" height="10.82"/>
		<rect x="448.748" y="716.465" fill="#B1D471" width="10.819" height="10.82"/>
		<rect x="448.748" y="703.639" fill="#B1D471" width="10.819" height="10.822"/>
		<rect x="448.748" y="690.818" fill="#B1D471" width="10.819" height="10.821"/>
		<rect x="448.748" y="677.997" fill="#B1D471" width="10.819" height="10.821"/>
		<rect x="448.748" y="665.172" fill="#CACACA" width="10.819" height="10.821"/>
		<rect x="448.748" y="652.351" fill="#CACACA" width="10.819" height="10.821"/>
		<rect x="448.748" y="639.529" fill="#CACACA" width="10.819" height="10.822"/>
		<rect x="448.748" y="626.705" fill="#CACACA" width="10.819" height="10.82"/>
	</g>
	<rect x="392.804" y="735.136" fill="none" width="67.488" height="22.145"/>
	<text transform="matrix(1 0 0 1 392.8032 739.9297)"><tspan x="0" y="0" fill="#4E4D4D" font-family="'Roboto-Regular'" font-size="6.7524">Lorem ipsum dolor sit </tspan><tspan x="0" y="8.104" fill="#4E4D4D" font-family="'Roboto-Regular'" font-size="6.7524">amet, consectetur </tspan><tspan x="0" y="16.206" fill="#4E4D4D" font-family="'Roboto-Regular'" font-size="6.7524">adipiscing elit.</tspan></text>
	<text transform="matrix(1 0 0 1 361.8706 756.4355)" fill="#4E4D4D" font-family="'Roboto-Black'" font-size="27.4234">03</text>
</g>
<g>
	<g>
		<rect x="472.373" y="716.465" fill="#E78E38" width="10.819" height="10.82"/>
		<rect x="472.373" y="703.639" fill="#E78E38" width="10.819" height="10.822"/>
		<rect x="472.373" y="690.818" fill="#CACACA" width="10.819" height="10.821"/>
		<rect x="472.373" y="677.997" fill="#CACACA" width="10.819" height="10.821"/>
		<rect x="472.373" y="665.172" fill="#CACACA" width="10.819" height="10.821"/>
		<rect x="472.373" y="652.351" fill="#CACACA" width="10.819" height="10.821"/>
		<rect x="472.373" y="639.529" fill="#CACACA" width="10.819" height="10.822"/>
		<rect x="472.373" y="626.705" fill="#CACACA" width="10.819" height="10.82"/>
		<rect x="485.275" y="716.465" fill="#E78E38" width="10.82" height="10.82"/>
		<rect x="485.275" y="703.639" fill="#E78E38" width="10.82" height="10.822"/>
		<rect x="485.275" y="690.818" fill="#E78E38" width="10.82" height="10.821"/>
		<rect x="485.275" y="677.997" fill="#CACACA" width="10.82" height="10.821"/>
		<rect x="485.275" y="665.172" fill="#CACACA" width="10.82" height="10.821"/>
		<rect x="485.275" y="652.351" fill="#CACACA" width="10.82" height="10.821"/>
		<rect x="485.275" y="639.529" fill="#CACACA" width="10.82" height="10.822"/>
		<rect x="485.275" y="626.705" fill="#CACACA" width="10.82" height="10.82"/>
		<rect x="498.178" y="716.465" fill="#E78E38" width="10.82" height="10.82"/>
		<rect x="498.178" y="703.639" fill="#E78E38" width="10.82" height="10.822"/>
		<rect x="498.178" y="690.818" fill="#E78E38" width="10.82" height="10.821"/>
		<rect x="498.178" y="677.997" fill="#E78E38" width="10.82" height="10.821"/>
		<rect x="498.178" y="665.172" fill="#E78E38" width="10.82" height="10.821"/>
		<rect x="498.178" y="652.351" fill="#CACACA" width="10.82" height="10.821"/>
		<rect x="498.178" y="639.529" fill="#CACACA" width="10.82" height="10.822"/>
		<rect x="498.178" y="626.705" fill="#CACACA" width="10.82" height="10.82"/>
		<rect x="511.082" y="716.465" fill="#E78E38" width="10.819" height="10.82"/>
		<rect x="511.082" y="703.639" fill="#E78E38" width="10.819" height="10.822"/>
		<rect x="511.082" y="690.818" fill="#CACACA" width="10.819" height="10.821"/>
		<rect x="511.082" y="677.997" fill="#CACACA" width="10.819" height="10.821"/>
		<rect x="511.082" y="665.172" fill="#CACACA" width="10.819" height="10.821"/>
		<rect x="511.082" y="652.351" fill="#CACACA" width="10.819" height="10.821"/>
		<rect x="511.082" y="639.529" fill="#CACACA" width="10.819" height="10.822"/>
		<rect x="511.082" y="626.705" fill="#CACACA" width="10.819" height="10.82"/>
		<rect x="523.985" y="716.465" fill="#E78E38" width="10.819" height="10.82"/>
		<rect x="523.985" y="703.639" fill="#CACACA" width="10.819" height="10.822"/>
		<rect x="523.985" y="690.818" fill="#CACACA" width="10.819" height="10.821"/>
		<rect x="523.985" y="677.997" fill="#CACACA" width="10.819" height="10.821"/>
		<rect x="523.985" y="665.172" fill="#CACACA" width="10.819" height="10.821"/>
		<rect x="523.985" y="652.351" fill="#CACACA" width="10.819" height="10.821"/>
		<rect x="523.985" y="639.529" fill="#CACACA" width="10.819" height="10.822"/>
		<rect x="523.985" y="626.705" fill="#CACACA" width="10.819" height="10.82"/>
		<rect x="536.888" y="716.465" fill="#E78E38" width="10.819" height="10.82"/>
		<rect x="536.888" y="703.639" fill="#E78E38" width="10.819" height="10.822"/>
		<rect x="536.888" y="690.818" fill="#E78E38" width="10.819" height="10.821"/>
		<rect x="536.888" y="677.997" fill="#CACACA" width="10.819" height="10.821"/>
		<rect x="536.888" y="665.172" fill="#CACACA" width="10.819" height="10.821"/>
		<rect x="536.888" y="652.351" fill="#CACACA" width="10.819" height="10.821"/>
		<rect x="536.888" y="639.529" fill="#CACACA" width="10.819" height="10.822"/>
		<rect x="536.888" y="626.705" fill="#CACACA" width="10.819" height="10.82"/>
		<rect x="549.792" y="716.465" fill="#E78E38" width="10.819" height="10.82"/>
		<rect x="549.792" y="703.639" fill="#E78E38" width="10.819" height="10.822"/>
		<rect x="549.792" y="690.818" fill="#E78E38" width="10.819" height="10.821"/>
		<rect x="549.792" y="677.997" fill="#E78E38" width="10.819" height="10.821"/>
		<rect x="549.792" y="665.172" fill="#E78E38" width="10.819" height="10.821"/>
		<rect x="549.792" y="652.351" fill="#E78E38" width="10.819" height="10.821"/>
		<rect x="549.792" y="639.529" fill="#E78E38" width="10.819" height="10.822"/>
		<rect x="549.792" y="626.705" fill="#CACACA" width="10.819" height="10.82"/>
		<rect x="562.695" y="716.465" fill="#E78E38" width="10.819" height="10.82"/>
		<rect x="562.695" y="703.639" fill="#E78E38" width="10.819" height="10.822"/>
		<rect x="562.695" y="690.818" fill="#E78E38" width="10.819" height="10.821"/>
		<rect x="562.695" y="677.997" fill="#E78E38" width="10.819" height="10.821"/>
		<rect x="562.695" y="665.172" fill="#CACACA" width="10.819" height="10.821"/>
		<rect x="562.695" y="652.351" fill="#CACACA" width="10.819" height="10.821"/>
		<rect x="562.695" y="639.529" fill="#CACACA" width="10.819" height="10.822"/>
		<rect x="562.695" y="626.705" fill="#CACACA" width="10.819" height="10.82"/>
	</g>
	<rect x="507.115" y="735.136" fill="none" width="67.488" height="22.145"/>
	<text transform="matrix(1 0 0 1 507.1157 739.9297)"><tspan x="0" y="0" fill="#4E4D4D" font-family="'Roboto-Regular'" font-size="6.7524">Lorem ipsum dolor sit </tspan><tspan x="0" y="8.104" fill="#4E4D4D" font-family="'Roboto-Regular'" font-size="6.7524">amet, consectetur </tspan><tspan x="0" y="16.206" fill="#4E4D4D" font-family="'Roboto-Regular'" font-size="6.7524">adipiscing elit.</tspan></text>
	<text transform="matrix(1 0 0 1 476.1831 756.4355)" fill="#4E4D4D" font-family="'Roboto-Black'" font-size="27.4234">04</text>
</g>
</svg>
