<?xml version="1.0" encoding="utf-8"?>
<!-- Generator: Adobe Illustrator 16.0.0, SVG Export Plug-In . SVG Version: 6.00 Build 0)  -->
<!DOCTYPE svg PUBLIC "-//W3C//DTD SVG 1.1//EN" "http://www.w3.org/Graphics/SVG/1.1/DTD/svg11.dtd">
<svg version="1.1" id="图层_1" xmlns="http://www.w3.org/2000/svg" xmlns:xlink="http://www.w3.org/1999/xlink" x="0px" y="0px"
	 width="841.89px" height="595.28px" viewBox="0 0 841.89 595.28" enable-background="new 0 0 841.89 595.28" xml:space="preserve">
<g>
	<g>
		<path d="M198.31,378.833c-0.516-4.297-5.264-4.784-8.024-4.488c-2.938-11.066,7.312-27.559,7.915-31.465
			c0.648-4.197-3-28.617-3.386-40.982c-0.396-12.694-18.833-26.706-21.911-24.473c-3.05,3.372,4.393,7.924,0.476,11.827
			c-3.785,3.771-4.772,6.305-7.583,10.572c-7.2,10.932,12.312,11.067,12.312,11.067s-15.269,11.317-18.667,17.021
			c-3.128,5.252-4.44,11.129-8.217,16.082c-8.604,11.29-6.665,30.974-6.665,30.974s-16.301-5.336-7.33-23.944
			c6.829-14.166,10.192-35.071-5.171-29.694c-5.944,2.081,1.329,6.455,2.584,7.857c4.199,4.688,0.649,12.571-1.881,17.13
			c-6.776,12.21-9.237,25.001,5.026,32.889c6.338,3.505,14.896,4.372,23.511,4.498l21.92,0.063
			C190.442,384.127,198.61,382.777,198.31,378.833z"/>
	</g>
</g>
<g>
	<g>
		<path d="M198.31,258.5c-0.516-4.297-5.264-4.784-8.024-4.488c-2.938-11.066,7.312-27.559,7.915-31.465
			c0.648-4.197-3-28.617-3.386-40.982c-0.396-12.694-18.833-26.706-21.911-24.473c-3.05,3.372,4.393,7.924,0.476,11.827
			c-3.785,3.771-4.772,6.305-7.583,10.572c-7.2,10.932,12.312,11.067,12.312,11.067s-15.269,11.317-18.667,17.021
			c-3.128,5.252-4.44,11.129-8.217,16.082c-8.604,11.29-6.665,30.974-6.665,30.974s-16.301-5.336-7.33-23.944
			c6.829-14.166,10.192-35.071-5.171-29.694c-5.944,2.081,1.329,6.455,2.584,7.857c4.199,4.688,0.649,12.571-1.881,17.13
			c-6.776,12.21-9.237,25.001,5.026,32.889c6.338,3.505,14.896,4.372,23.511,4.498l21.92,0.063
			C190.442,263.794,198.61,262.444,198.31,258.5z"/>
	</g>
</g>
<g>
	<g>
		<path d="M327.31,379.15c-0.516-4.297-5.264-4.784-8.024-4.488c-2.938-11.066,7.312-27.559,7.915-31.465
			c0.648-4.197-3-28.617-3.386-40.982c-0.396-12.694-18.833-26.706-21.911-24.473c-3.05,3.372,4.393,7.924,0.476,11.827
			c-3.785,3.771-4.772,6.305-7.583,10.572c-7.2,10.932,12.312,11.067,12.312,11.067s-15.269,11.317-18.667,17.021
			c-3.128,5.252-4.44,11.129-8.217,16.082c-8.604,11.29-6.665,30.974-6.665,30.974s-16.301-5.336-7.33-23.944
			c6.829-14.166,10.192-35.071-5.171-29.694c-5.944,2.081,1.329,6.455,2.584,7.857c4.199,4.688,0.649,12.571-1.881,17.13
			c-6.776,12.21-9.237,25.001,5.026,32.889c6.338,3.505,14.896,4.372,23.511,4.498l21.92,0.063
			C319.442,384.444,327.61,383.095,327.31,379.15z"/>
	</g>
</g>
<g>
	<g>
		<path d="M327.31,258.817c-0.516-4.297-5.264-4.784-8.024-4.488c-2.938-11.066,7.312-27.559,7.915-31.465
			c0.648-4.197-3-28.617-3.386-40.982c-0.396-12.694-18.833-26.706-21.911-24.473c-3.05,3.372,4.393,7.924,0.476,11.827
			c-3.785,3.771-4.772,6.305-7.583,10.572c-7.2,10.932,12.312,11.067,12.312,11.067s-15.269,11.317-18.667,17.021
			c-3.128,5.252-4.44,11.129-8.217,16.082c-8.604,11.29-6.665,30.974-6.665,30.974s-16.301-5.336-7.33-23.944
			c6.829-14.166,10.192-35.071-5.171-29.694c-5.944,2.081,1.329,6.455,2.584,7.857c4.199,4.688,0.649,12.571-1.881,17.13
			c-6.776,12.21-9.237,25.001,5.026,32.889c6.338,3.505,14.896,4.372,23.511,4.498l21.92,0.063
			C319.442,264.111,327.61,262.762,327.31,258.817z"/>
	</g>
</g>
</svg>
